<svg xmlns="http://www.w3.org/2000/svg" width="22" height="32" viewBox="0 0 22 32"><title>  figma</title><desc>  Created with Sketch.</desc><g fill="none"><path d="M5.5 31.8C8.5 31.8 11 29.4 11 26.4L11 21 5.5 21C2.5 21 0 23.4 0 26.4 0 29.4 2.5 31.8 5.5 31.8Z" fill="#0ACF83"/><path d="M0 16.6C0 13.6 2.5 11.1 5.5 11.1L11 11.1 11 22 5.5 22C2.5 22 0 19.5 0 16.6Z" fill="#A259FF"/><path d="M0 5.7C0 2.7 2.5 0.3 5.5 0.3L11 0.3 11 11.1 5.5 11.1C2.5 11.1 0 8.7 0 5.7Z" fill="#F24E1E"/><path d="M11 0.3L16.5 0.3C19.5 0.3 22 2.7 22 5.7 22 8.7 19.5 11.1 16.5 11.1L11 11.1 11 0.3Z" fill="#FF7262"/><path d="M22 16.6C22 19.5 19.5 22 16.5 22 13.5 22 11 19.5 11 16.6 11 13.6 13.5 11.1 16.5 11.1 19.5 11.1 22 13.6 22 16.6Z" fill="#1ABCFE"/></g></svg>