<?xml version="1.0" encoding="UTF-8"?>
<svg width="40px" height="40px" viewBox="0 0 40 40" version="1.1" xmlns="http://www.w3.org/2000/svg" xmlns:xlink="http://www.w3.org/1999/xlink">
    <!-- Generator: sketchtool 52.2 (67145) - http://www.bohemiancoding.com/sketch -->
    <title>F31E5E6F-F235-4BD8-89D2-557112DBC22B</title>
    <desc>Created with sketchtool.</desc>
    <g id="New-variant" stroke="none" stroke-width="1" fill="none" fill-rule="evenodd">
        <g id="Desktop-1440-overlay" transform="translate(-764.000000, -639.000000)" fill-rule="nonzero">
            <g id="Group-26" transform="translate(520.000000, 274.000000)">
                <g id="Group-10" transform="translate(236.000000, 365.000000)">
                    <g id="Group-25" transform="translate(8.000000, 0.000000)">
                        <g id="png">
                            <rect id="Rectangle" x="0" y="0" width="40" height="40"></rect>
                            <path d="M11,5 L15,5 L15,15 L5,15 L5,11 C5,7.6862915 7.6862915,5 11,5 Z M25,5 L29,5 C32.3137085,5 35,7.6862915 35,11 L35,15 L25,15 L25,5 Z M15,15 L25,15 L25,25 L15,25 L15,15 Z M5,25 L15,25 L15,35 L11,35 C7.6862915,35 5,32.3137085 5,29 L5,25 Z M25,25 L35,25 L35,29 C35,32.3137085 32.3137085,35 29,35 L25,35 L25,25 Z" fill="#3366FF"></path>
                        </g>
                    </g>
                </g>
            </g>
        </g>
    </g>
</svg>