<svg xmlns="http://www.w3.org/2000/svg" width="35" height="36" viewBox="0 0 35 36"><title>  Shape</title><desc>  Created with Sketch.</desc><g fill="none"><g fill="#36F"><path d="M13 32.4L14.1 32.4 14.1 35.3 20.9 35.3 20.9 32.4 22 32.4 22 29.4 13 29.4 13 32.4ZM15 32.4L20 32.4 20 34.3 15 34.3 15 32.4ZM2.5 13C2.7 12.7 3.1 12.6 3.5 12.7 3.9 12.8 4.1 13.1 4 13.3 3.8 13.6 3.6 13.9 3.5 14.3 3.4 14.5 3.1 14.6 2.8 14.6 2.7 14.6 2.6 14.6 2.5 14.6 2.1 14.5 1.9 14.2 2 14 2.2 13.6 2.3 13.3 2.5 13ZM25.1 5.1C25.3 4.8 25.6 4.7 25.8 4.9 26.2 5.1 26.5 5.4 26.8 5.6 27 5.8 27.1 6.2 26.9 6.5 26.8 6.7 26.6 6.7 26.5 6.7 26.3 6.7 26.2 6.7 26.1 6.6 25.8 6.4 25.5 6.1 25.3 5.9 25 5.7 24.9 5.3 25.1 5.1ZM9.2 4.9C9.4 4.7 9.8 4.8 9.9 5.1 10.1 5.4 10 5.8 9.7 6 9.4 6.2 9.1 6.4 8.8 6.6 8.8 6.7 8.6 6.7 8.5 6.7 8.4 6.7 8.2 6.6 8.1 6.5 7.9 6.2 8 5.8 8.2 5.6 8.5 5.3 8.9 5.1 9.2 4.9ZM31.3 13.7C31.5 13.6 31.7 13.7 31.8 14 31.9 14.3 31.9 14.7 32 15 32 15.3 31.9 15.5 31.7 15.6 31.7 15.6 31.6 15.6 31.6 15.6 31.4 15.6 31.3 15.5 31.2 15.2 31.2 14.9 31.1 14.6 31 14.3 31 14 31.1 13.7 31.3 13.7ZM31.3 11.7C31.1 11.7 30.8 11.6 30.7 11.4 30.5 11.1 30.3 10.8 30.1 10.5 29.9 10.2 30 9.9 30.3 9.8 30.6 9.6 31.1 9.7 31.3 10 31.5 10.3 31.7 10.6 31.9 10.9 32.1 11.2 32 11.5 31.6 11.6 31.5 11.6 31.4 11.7 31.3 11.7ZM33.1 17.1C33.1 17.4 33.1 17.6 33.1 17.8L35 17.8 35 22.5 30 22.5 30 17.8 31.9 17.8C31.8 17.6 31.8 17.4 31.8 17.2 31.8 16.9 32.1 16.6 32.4 16.6 32.7 16.6 33 16.8 33.1 17.1ZM29 6.9C29.3 7.2 29.6 7.5 29.9 7.8 30.1 8 30 8.4 29.8 8.6 29.7 8.7 29.5 8.7 29.4 8.7 29.2 8.7 29.1 8.6 28.9 8.5 28.7 8.2 28.4 8 28.2 7.7 27.9 7.5 27.9 7.1 28.2 6.9 28.4 6.7 28.8 6.7 29 6.9ZM7.8 7.7C7.5 8 7.3 8.3 7 8.5 6.9 8.6 6.7 8.7 6.6 8.7 6.4 8.7 6.3 8.7 6.2 8.6 6 8.3 5.9 8 6.2 7.7 6.4 7.5 6.7 7.2 7 6.9 7.2 6.7 7.6 6.7 7.8 6.9 8.1 7.2 8.1 7.5 7.8 7.7ZM3.1 17.5C3.1 17.5 3.1 17.6 3.1 17.6L5 17.6 5 22.5 0 22.5 0 17.6 1.9 17.6C1.9 17.6 1.9 17.5 1.9 17.4 1.9 17 2 16.6 2 16.1 2.1 15.8 2.4 15.6 2.7 15.6 3.1 15.7 3.3 16 3.3 16.3 3.2 16.7 3.2 17.1 3.1 17.5ZM4.8 9.9C5 9.7 5.4 9.6 5.7 9.8 6 10 6.1 10.3 5.9 10.5 5.7 10.8 5.4 11.1 5.2 11.4 5.1 11.6 4.9 11.7 4.7 11.7 4.5 11.7 4.4 11.6 4.3 11.6 4 11.5 3.9 11.1 4.1 10.9 4.3 10.6 4.5 10.2 4.8 9.9ZM2.3 5.8C1 5.8 0 4.6 0 3.3 0 1.9 1 0.8 2.3 0.8 3.4 0.8 4.3 1.6 4.6 2.7L15.2 2.7 15.2 0.8 19.8 0.8 19.8 2.7 30.4 2.7C30.7 1.6 31.6 0.8 32.7 0.8 34 0.8 35 1.9 35 3.3 35 4.6 34 5.8 32.7 5.8 31.6 5.8 30.7 5 30.4 3.9L23.4 3.9C23.6 4 23.7 4 23.9 4.1 24.2 4.2 24.3 4.6 24.2 4.9 24.1 5.1 23.9 5.3 23.6 5.3 23.6 5.3 23.5 5.3 23.4 5.2 23.1 5.1 22.7 4.9 22.4 4.8 22.1 4.7 21.9 4.3 22 4 22 4 22.1 3.9 22.1 3.9L20.8 3.9C20.7 4.1 20.5 4.2 20.3 4.2 20.3 4.2 20.2 4.2 20.2 4.2 20.1 4.1 20 4.1 19.8 4.1L19.8 5.8 18.5 5.8 17.3 5.8 15.2 5.8 15.2 4.3 15.2 4C15.1 4 15.1 3.9 15.1 3.9L13.7 3.9C13.8 4.2 13.6 4.5 13.3 4.5 13 4.7 12.6 4.8 12.3 4.9 12.2 5 12.1 5 12.1 5 11.8 5 11.6 4.8 11.5 4.6 11.4 4.3 11.5 4.1 11.7 3.9L4.6 3.9C4.3 5 3.4 5.8 2.3 5.8ZM18.6 19.5L18.6 6.7 29 23 26 23C24.2 23 22.7 24.6 22.7 26.5L22.7 28.4 13.3 28.4 13.3 26.5C13.3 24.6 11.8 23 10 23L7 23 17.4 6.7 17.4 19.5C16.4 19.8 15.7 20.7 15.7 21.9 15.7 23.2 16.7 24.2 18 24.2 19.3 24.2 20.3 23.2 20.3 21.9 20.3 20.7 19.6 19.8 18.6 19.5Z"/></g></g></svg>