<?xml version="1.0" encoding="UTF-8"?>
<svg width="36px" height="33px" viewBox="0 0 36 33" version="1.1" xmlns="http://www.w3.org/2000/svg" xmlns:xlink="http://www.w3.org/1999/xlink">
    <!-- Generator: Sketch 51.2 (57519) - http://www.bohemiancoding.com/sketch -->
    <title>sketch</title>
    <desc>Created with Sketch.</desc>
    <defs></defs>
    <g id="Eva-Icons-Landing" stroke="none" stroke-width="1" fill="none" fill-rule="evenodd">
        <g id="Desktop-1920-px-1.6" transform="translate(-982.000000, -595.000000)" fill-rule="nonzero">
            <g id="Group-11" transform="translate(972.000000, 584.000000)">
                <g id="sketch" transform="translate(10.000000, 11.808307)">
                    <g id="a-link" transform="translate(0.000000, 11.829206)" fill="#EA6C00">
                        <polygon id="a" points="7.24964211 0 17.8980632 20.2639021 0 0"></polygon>
                    </g>
                    <g id="b-link" transform="translate(27.000000, 22.161475) scale(-1, 1) translate(-27.000000, -22.161475) translate(18.000000, 11.829206)" fill="#EA6C00">
                        <polygon id="b" points="7.24964211 0 17.8980632 20.2639021 0 0"></polygon>
                    </g>
                    <g id="c-link" transform="translate(7.000000, 11.829206)" fill="#FDAD00">
                        <polygon id="c" points="0 0 21.2968421 0 10.6484211 20.2639021"></polygon>
                    </g>
                    <g id="d-link" transform="translate(7.000000, 0.000000)" fill="#FDD231">
                        <polygon id="d" points="10.6484211 0 0.560463158 1.03677492 0 11.2302545"></polygon>
                    </g>
                    <g id="e-link" transform="translate(23.500000, 5.904153) scale(-1, 1) translate(-23.500000, -5.904153) translate(18.000000, 0.000000)" fill="#FDD231">
                        <polygon id="e" points="10.6484211 0 0.560463158 1.03677492 0 11.2302545"></polygon>
                    </g>
                    <g id="f-link" transform="translate(32.000000, 6.397908) scale(-1, 1) translate(-32.000000, -6.397908) translate(28.000000, 0.985767)" fill="#FDAD00">
                        <polygon id="f" points="0 10.1934796 7.81010526 0 7.24964211 10.1934796"></polygon>
                    </g>
                    <g id="g-link" transform="translate(0.000000, 0.985767)" fill="#FDAD00">
                        <polygon id="g" points="0 10.1934796 7.81010526 0 7.24964211 10.1934796"></polygon>
                    </g>
                    <g id="h-link" transform="translate(7.000000, 0.000000)" fill="#FEEEB7">
                        <polygon id="h" points="10.6484211 0 0 11.2302545 21.2968421 11.2302545"></polygon>
                    </g>
                </g>
            </g>
        </g>
    </g>
</svg>