<svg xmlns="http://www.w3.org/2000/svg" viewBox="0 0 24 24"><defs><style>.cls-2{fill:#231f20}</style></defs><g id="Layer_2" data-name="Layer 2"><g id="arrowhead-right"><g id="arrowhead-right-2" data-name="arrowhead-right"><path class="cls-2" d="M18.78 11.37l-4.78-6a1 1 0 0 0-1.41-.15 1 1 0 0 0-.15 1.41L16.71 12l-4.48 5.37a1 1 0 0 0 .13 1.41A1 1 0 0 0 13 19a1 1 0 0 0 .77-.36l5-6a1 1 0 0 0 .01-1.27z"/><path class="cls-2" d="M7 5.37a1 1 0 0 0-1.61 1.26L9.71 12l-4.48 5.36a1 1 0 0 0 .13 1.41A1 1 0 0 0 6 19a1 1 0 0 0 .77-.36l5-6a1 1 0 0 0 0-1.27z"/></g></g></g></svg>