<svg xmlns="http://www.w3.org/2000/svg" viewBox="0 0 24 24"><defs><style>.cls-2{fill:#231f20}</style></defs><g id="Layer_2" data-name="Layer 2"><g id="charging"><g id="charging-2" data-name="charging"><path class="cls-2" d="M11.28 13H7a1 1 0 0 1-.86-.5 1 1 0 0 1 0-1L9.28 6H4.17A2.31 2.31 0 0 0 2 8.43v7.14A2.31 2.31 0 0 0 4.17 18h4.25z"/><path class="cls-2" d="M15.83 6h-4.25l-2.86 5H13a1 1 0 0 1 .86.5 1 1 0 0 1 0 1L10.72 18h5.11A2.31 2.31 0 0 0 18 15.57V8.43A2.31 2.31 0 0 0 15.83 6z"/><path class="cls-2" d="M21 9a1 1 0 0 0-1 1v4a1 1 0 0 0 2 0v-4a1 1 0 0 0-1-1z"/></g></g></g></svg>