<svg xmlns="http://www.w3.org/2000/svg" viewBox="0 0 24 24"><defs><style>.cls-2{fill:#231f20}</style></defs><g id="Layer_2" data-name="Layer 2"><g id="compass"><g id="compass-2" data-name="compass"><polygon class="cls-2" points="10.8 13.21 12.49 12.53 13.2 10.79 11.51 11.47 10.8 13.21"/><path class="cls-2" d="M12 2a10 10 0 1 0 10 10A10 10 0 0 0 12 2zm3.93 7.42l-1.75 4.26a1 1 0 0 1-.55.55l-4.21 1.7A1 1 0 0 1 9 16a1 1 0 0 1-.71-.31h-.05a1 1 0 0 1-.18-1l1.75-4.26a1 1 0 0 1 .55-.55l4.21-1.7a1 1 0 0 1 1.1.25 1 1 0 0 1 .26.99z"/></g></g></g></svg>