<svg xmlns="http://www.w3.org/2000/svg" viewBox="0 0 24 24"><defs><style>.cls-2{fill:#231f20}</style></defs><g id="Layer_2" data-name="Layer 2"><g id="droplet-off"><g id="droplet-off-2" data-name="droplet-off"><path class="cls-2" d="M19 16.14A7.73 7.73 0 0 0 17.34 8l-4.56-4.69a1 1 0 0 0-.71-.31 1 1 0 0 0-.72.3L8.74 5.92z"/><path class="cls-2" d="M6 8.82a7.73 7.73 0 0 0 .64 9.9A7.44 7.44 0 0 0 11.92 21a7.34 7.34 0 0 0 4.64-1.6z"/><path class="cls-2" d="M20.71 19.29l-16-16a1 1 0 0 0-1.42 1.42l16 16a1 1 0 0 0 1.42 0 1 1 0 0 0 0-1.42z"/></g></g></g></svg>