<svg xmlns="http://www.w3.org/2000/svg" viewBox="0 0 24 24"><defs><style>.cls-2{fill:#231f20}</style></defs><g id="Layer_2" data-name="Layer 2"><g id="flash-off"><g id="flash-off-2" data-name="flash-off"><path class="cls-2" d="M17.33 14.5l2.5-3.74A1 1 0 0 0 19 9.2h-5.89l.77-7.09a1 1 0 0 0-.65-1 1 1 0 0 0-1.17.38L8.94 6.11z"/><path class="cls-2" d="M6.67 9.5l-2.5 3.74A1 1 0 0 0 5 14.8h5.89l-.77 7.09a1 1 0 0 0 .65 1.05 1 1 0 0 0 .34.06 1 1 0 0 0 .83-.44l3.12-4.67z"/><path class="cls-2" d="M20.71 19.29l-16-16a1 1 0 0 0-1.42 1.42l16 16a1 1 0 0 0 1.42 0 1 1 0 0 0 0-1.42z"/></g></g></g></svg>