<svg xmlns="http://www.w3.org/2000/svg" viewBox="0 0 24 24"><defs><style>.cls-2{fill:#231f20}</style></defs><g id="Layer_2" data-name="Layer 2"><g id="options"><g id="options-2" data-name="options"><path class="cls-2" d="M7 14.18V3a1 1 0 0 0-2 0v11.18a3 3 0 0 0 0 5.64V21a1 1 0 0 0 2 0v-1.18a3 3 0 0 0 0-5.64z"/><path class="cls-2" d="M21 13a3 3 0 0 0-2-2.82V3a1 1 0 0 0-2 0v7.18a3 3 0 0 0 0 5.64V21a1 1 0 0 0 2 0v-5.18A3 3 0 0 0 21 13z"/><path class="cls-2" d="M15 5a3 3 0 1 0-4 2.82V21a1 1 0 0 0 2 0V7.82A3 3 0 0 0 15 5z"/></g></g></g></svg>