<svg xmlns="http://www.w3.org/2000/svg" viewBox="0 0 24 24"><defs><style>.cls-2{fill:#231f20}</style></defs><g id="Layer_2" data-name="Layer 2"><g id="percent"><g id="percent-2" data-name="percent"><path class="cls-2" d="M8 11a3.5 3.5 0 1 0-3.5-3.5A3.5 3.5 0 0 0 8 11zm0-5a1.5 1.5 0 1 1-1.5 1.5A1.5 1.5 0 0 1 8 6z"/><path class="cls-2" d="M16 14a3.5 3.5 0 1 0 3.5 3.5A3.5 3.5 0 0 0 16 14zm0 5a1.5 1.5 0 1 1 1.5-1.5A1.5 1.5 0 0 1 16 19z"/><path class="cls-2" d="M19.74 4.26a.89.89 0 0 0-1.26 0L4.26 18.48a.91.91 0 0 0-.26.63.89.89 0 0 0 1.52.63L19.74 5.52a.89.89 0 0 0 0-1.26z"/></g></g></g></svg>