<svg xmlns="http://www.w3.org/2000/svg" viewBox="0 0 24 24"><defs><style>.cls-2{fill:#231f20}</style></defs><g id="Layer_2" data-name="Layer 2"><g id="person-delete"><g id="person-delete-2" data-name="person-delete"><path class="cls-2" d="M20.47 7.5l.73-.73a1 1 0 0 0-1.47-1.47L19 6l-.73-.73a1 1 0 0 0-1.47 1.5l.73.73-.73.73a1 1 0 0 0 1.47 1.47L19 9l.73.73a1 1 0 0 0 1.47-1.5z"/><path class="cls-2" d="M10 11a4 4 0 1 0-4-4 4 4 0 0 0 4 4z"/><path class="cls-2" d="M16 21a1 1 0 0 0 1-1 7 7 0 0 0-14 0 1 1 0 0 0 1 1z"/></g></g></g></svg>