<svg xmlns="http://www.w3.org/2000/svg" viewBox="0 0 24 24"><defs><style>.cls-1{fill:#fff;opacity:0;}.cls-2{fill:#231f20;}</style></defs><title>arrow-circle-down</title><g id="Layer_2" data-name="Layer 2"><g id="arrow-circle-down"><g id="arrow-circle-down-2" data-name="arrow-circle-down"><rect class="cls-1" width="24" height="24"/><path class="cls-2" d="M12,2A10,10,0,1,0,22,12,10,10,0,0,0,12,2Zm3.69,11.86-3,2.86a.49.49,0,0,1-.15.1.54.54,0,0,1-.16.1.94.94,0,0,1-.76,0,1,1,0,0,1-.33-.21l-3-3a1,1,0,0,1,1.42-1.42L11,13.59V8a1,1,0,0,1,2,0v5.66l1.31-1.25a1,1,0,0,1,1.38,1.45Z"/></g></g></g></svg>