<svg xmlns="http://www.w3.org/2000/svg" viewBox="0 0 24 24"><defs><style>.cls-1{fill:#fff;opacity:0;}.cls-2{fill:#231f20;}</style></defs><title>backspace</title><g id="Layer_2" data-name="Layer 2"><g id="backspace"><g id="backspace-2" data-name="backspace"><rect class="cls-1" width="24" height="24"/><path class="cls-2" d="M20.14,4H10.37a3,3,0,0,0-2,.78l-.1.11-6,7.48a1,1,0,0,0,.11,1.37l6,5.48a3,3,0,0,0,2,.78h9.77A1.84,1.84,0,0,0,22,18.18V5.82A1.84,1.84,0,0,0,20.14,4Zm-3.43,9.29a1,1,0,0,1,0,1.42,1,1,0,0,1-1.42,0L14,13.41l-1.29,1.3a1,1,0,0,1-1.42,0,1,1,0,0,1,0-1.42L12.59,12l-1.3-1.29a1,1,0,0,1,1.42-1.42L14,10.59l1.29-1.3a1,1,0,0,1,1.42,1.42L15.41,12Z"/></g></g></g></svg>