<svg xmlns="http://www.w3.org/2000/svg" viewBox="0 0 24 24"><defs><style>.cls-1{fill:#fff;opacity:0;}.cls-2{fill:#231f20;}</style></defs><title>bell</title><g id="Layer_2" data-name="Layer 2"><g id="bell"><g id="bell-2" data-name="bell"><rect class="cls-1" width="24" height="24"/><path class="cls-2" d="M20.52,15.21l-1.8-1.81V8.94A6.86,6.86,0,0,0,12.9,2.06,6.74,6.74,0,0,0,5.28,8.73V13.4l-1.8,1.81A1.64,1.64,0,0,0,4.64,18H8v.34A3.84,3.84,0,0,0,12,22a3.84,3.84,0,0,0,4-3.66V18h3.36a1.64,1.64,0,0,0,1.16-2.79ZM14,18.34A1.88,1.88,0,0,1,12,20a1.88,1.88,0,0,1-2-1.66V18h4Z"/></g></g></g></svg>