<svg xmlns="http://www.w3.org/2000/svg" viewBox="0 0 24 24"><g data-name="Layer 2"><g data-name="bell-off"><rect width="24" height="24" opacity="0"/><path d="M15.88 18.71l-.59-.59L14 16.78l-.07-.07L6.58 9.4 5.31 8.14a5.68 5.68 0 0 0 0 .59v4.67l-1.8 1.81A1.64 1.64 0 0 0 4.64 18H8v.34A3.84 3.84 0 0 0 12 22a3.88 3.88 0 0 0 4-3.22zM14 18.34A1.88 1.88 0 0 1 12 20a1.88 1.88 0 0 1-2-1.66V18h4z"/><path d="M7.13 4.3l1.46 1.46 9.53 9.53 2 2 .31.3a1.58 1.58 0 0 0 .45-.6 1.62 1.62 0 0 0-.35-1.78l-1.8-1.81V8.94a6.86 6.86 0 0 0-5.83-6.88 6.71 6.71 0 0 0-5.32 1.61 6.88 6.88 0 0 0-.58.54z"/><path d="M20.71 19.29L19.41 18l-2-2-9.52-9.53L6.42 5 4.71 3.29a1 1 0 0 0-1.42 1.42L5.53 7l1.75 1.7 7.31 7.3.07.07L16 17.41l.59.59 2.7 2.71a1 1 0 0 0 1.42 0 1 1 0 0 0 0-1.42z"/></g></g></svg>