<svg xmlns="http://www.w3.org/2000/svg" viewBox="0 0 24 24"><defs><style>.cls-1{fill:#fff;opacity:0;}.cls-2{fill:#231f20;}</style></defs><title>browser</title><g id="Layer_2" data-name="Layer 2"><g id="browser"><g id="browser-2" data-name="browser"><rect class="cls-1" width="24" height="24"/><path class="cls-2" d="M18,3H6A3,3,0,0,0,3,6V18a3,3,0,0,0,3,3H18a3,3,0,0,0,3-3V6A3,3,0,0,0,18,3ZM12,6a1,1,0,1,1-1,1A1,1,0,0,1,12,6ZM8,6A1,1,0,1,1,7,7,1,1,0,0,1,8,6ZM19,18a1,1,0,0,1-1,1H6a1,1,0,0,1-1-1V11H19Z"/></g></g></g></svg>