<svg xmlns="http://www.w3.org/2000/svg" viewBox="0 0 24 24"><defs><style>.cls-1{fill:#fff;opacity:0;}.cls-2{fill:#231f20;}</style></defs><title>bulb</title><g id="Layer_2" data-name="Layer 2"><g id="bulb"><g id="bulb-2" data-name="bulb"><rect class="cls-1" width="24" height="24" transform="translate(24 24) rotate(180)"/><path class="cls-2" d="M12,7a5,5,0,0,0-3,9v4a2,2,0,0,0,2,2h2a2,2,0,0,0,2-2V16a5,5,0,0,0-3-9Z"/><path class="cls-2" d="M12,6a1,1,0,0,0,1-1V3a1,1,0,0,0-2,0V5A1,1,0,0,0,12,6Z"/><path class="cls-2" d="M21,11H19a1,1,0,0,0,0,2h2a1,1,0,0,0,0-2Z"/><path class="cls-2" d="M5,11H3a1,1,0,0,0,0,2H5a1,1,0,0,0,0-2Z"/><path class="cls-2" d="M7.66,6.42,6.22,5A1,1,0,0,0,4.83,6.47L6.27,7.86A1,1,0,0,0,7,8.14a1,1,0,0,0,.72-.31A1,1,0,0,0,7.66,6.42Z"/><path class="cls-2" d="M19.19,5.05a1,1,0,0,0-1.41,0L16.34,6.42a1,1,0,0,0,0,1.41,1,1,0,0,0,.72.31,1,1,0,0,0,.69-.28l1.44-1.39A1,1,0,0,0,19.19,5.05Z"/></g></g></g></svg>