<svg xmlns="http://www.w3.org/2000/svg" viewBox="0 0 24 24"><defs><style>.cls-1{fill:#fff;opacity:0;}.cls-2{fill:#231f20;}</style></defs><title>color-palette</title><g id="Layer_2" data-name="Layer 2"><g id="color-palette"><g id="color-palette-2" data-name="color-palette"><rect class="cls-1" width="24" height="24"/><path class="cls-2" d="M19.54,5.08A10.61,10.61,0,0,0,11.91,2h0a10,10,0,0,0-.05,20h0a2.58,2.58,0,0,0,2.53-1.89,2.52,2.52,0,0,0-.57-2.28.5.5,0,0,1,.37-.83h1.65A6.15,6.15,0,0,0,22,11.33,8.48,8.48,0,0,0,19.54,5.08ZM6.84,14.74a1.5,1.5,0,1,1,.4-2.08A1.49,1.49,0,0,1,6.84,14.74ZM8.3,9.25a1.5,1.5,0,1,1-.55-2A1.5,1.5,0,0,1,8.3,9.25ZM11,7a1.5,1.5,0,1,1,1.5-1.5A1.5,1.5,0,0,1,11,7Zm5.75.8a1.5,1.5,0,1,1,.55-2A1.5,1.5,0,0,1,16.75,7.8Z"/></g></g></g></svg>