<svg xmlns="http://www.w3.org/2000/svg" viewBox="0 0 24 24"><defs><style>.cls-1{fill:#fff;opacity:0;}.cls-2{fill:#231f20;}</style></defs><title>corner-right-up</title><g id="Layer_2" data-name="Layer 2"><g id="corner-right-up"><g id="corner-right-up-2" data-name="corner-right-up"><rect class="cls-1" width="24" height="24" transform="translate(24 24) rotate(180)"/><path class="cls-2" d="M18.62,8.22l-5-4a1,1,0,0,0-1.24,0l-5,4A1,1,0,0,0,8.62,9.78L12,7.08V16a1,1,0,0,1-1,1H6a1,1,0,0,0,0,2h5a3,3,0,0,0,3-3V7.08l3.38,2.7A1,1,0,0,0,18,10a1,1,0,0,0,.78-.38A1,1,0,0,0,18.62,8.22Z"/></g></g></g></svg>