<svg xmlns="http://www.w3.org/2000/svg" viewBox="0 0 24 24"><defs><style>.cls-1{fill:#fff;opacity:0;}.cls-2{fill:#231f20;}</style></defs><title>cube</title><g id="Layer_2" data-name="Layer 2"><g id="cube"><g id="cube-2" data-name="cube"><rect class="cls-1" width="24" height="24"/><path class="cls-2" d="M11.25,11.83,3,8.36v7.73a1.69,1.69,0,0,0,1,1.52L11.19,21l.06,0Z"/><path class="cls-2" d="M12,10.5l8.51-3.57A1.62,1.62,0,0,0,20,6.55L12.8,3.18a1.87,1.87,0,0,0-1.6,0L4,6.55a1.62,1.62,0,0,0-.51.38Z"/><path class="cls-2" d="M12.75,11.83V21l.05,0L20,17.61a1.69,1.69,0,0,0,1-1.51V8.36Z"/></g></g></g></svg>