<svg xmlns="http://www.w3.org/2000/svg" viewBox="0 0 24 24"><defs><style>.cls-1{fill:#fff;opacity:0;}.cls-2{fill:#231f20;}</style></defs><title>droplet-off</title><g id="Layer_2" data-name="Layer 2"><g id="droplet-off"><g id="droplet-off-2" data-name="droplet-off"><rect class="cls-1" width="24" height="24"/><path class="cls-2" d="M19,16.14A7.73,7.73,0,0,0,17.34,8L12.78,3.31A1,1,0,0,0,12.07,3h0a1,1,0,0,0-.72.3L8.74,5.92Z"/><path class="cls-2" d="M6,8.82a7.73,7.73,0,0,0,.64,9.9A7.44,7.44,0,0,0,11.92,21h0a7.34,7.34,0,0,0,4.64-1.6Z"/><path class="cls-2" d="M20.71,19.29l-16-16A1,1,0,0,0,3.29,4.71l16,16a1,1,0,0,0,1.42,0A1,1,0,0,0,20.71,19.29Z"/></g></g></g></svg>