<svg xmlns="http://www.w3.org/2000/svg" viewBox="0 0 24 24"><defs><style>.cls-1{fill:#fff;opacity:0;}.cls-2{fill:#231f20;}</style></defs><title>eye</title><g id="Layer_2" data-name="Layer 2"><g id="eye"><g id="eye-2" data-name="eye"><rect class="cls-1" width="24" height="24"/><circle class="cls-2" cx="12" cy="12" r="1.5"/><path class="cls-2" d="M21.87,11.5c-.64-1.11-4.16-6.68-10.14-6.5C6.2,5.14,3,10,2.13,11.5a1,1,0,0,0,0,1c.63,1.09,4,6.5,9.89,6.5h.25c5.53-.14,8.74-5,9.6-6.5A1,1,0,0,0,21.87,11.5ZM12,15.5A3.5,3.5,0,1,1,15.5,12,3.5,3.5,0,0,1,12,15.5Z"/></g></g></g></svg>