<svg xmlns="http://www.w3.org/2000/svg" viewBox="0 0 24 24"><defs><style>.cls-1{fill:#fff;opacity:0;}.cls-2{fill:#231f20;}</style></defs><title>facebook</title><g id="Layer_2" data-name="Layer 2"><g id="facebook"><g id="facebook-2" data-name="facebook"><rect class="cls-1" width="24" height="24" transform="translate(24 24) rotate(180)"/><path class="cls-2" d="M17,3.5a.5.5,0,0,0-.5-.5H14A4.77,4.77,0,0,0,9,7.5v2.7H6.5a.5.5,0,0,0-.5.5v2.6a.5.5,0,0,0,.5.5H9v6.7a.5.5,0,0,0,.5.5h3a.5.5,0,0,0,.5-.5V13.8h2.62a.5.5,0,0,0,.49-.37l.72-2.6a.5.5,0,0,0-.48-.63H13V7.5a1,1,0,0,1,1-.9h2.5a.5.5,0,0,0,.5-.5Z"/></g></g></g></svg>