<svg xmlns="http://www.w3.org/2000/svg" viewBox="0 0 24 24"><defs><style>.cls-1{fill:#fff;opacity:0;}.cls-2{fill:#231f20;}</style></defs><title>globe</title><g id="Layer_2" data-name="Layer 2"><g id="globe"><g id="globe-2" data-name="globe"><rect class="cls-1" width="24" height="24" transform="translate(24 24) rotate(180)"/><path class="cls-2" d="M22,12A10,10,0,0,0,12,2h0a10,10,0,0,0,0,20h0A10,10,0,0,0,22,12Zm-2.07-1H17a12.91,12.91,0,0,0-2.33-6.54A8,8,0,0,1,19.93,11ZM9.08,13H15a11.44,11.44,0,0,1-3,6.61A11,11,0,0,1,9.08,13Zm0-2A11.4,11.4,0,0,1,12,4.4,11.19,11.19,0,0,1,15,11Zm.36-6.57A13.18,13.18,0,0,0,7.07,11h-3A8,8,0,0,1,9.44,4.43ZM4.07,13h3a12.86,12.86,0,0,0,2.35,6.56A8,8,0,0,1,4.07,13Zm10.55,6.55A13.14,13.14,0,0,0,17,13h2.95A8,8,0,0,1,14.62,19.55Z"/></g></g></g></svg>