<svg xmlns="http://www.w3.org/2000/svg" viewBox="0 0 24 24"><defs><style>.cls-1{fill:#fff;opacity:0;}.cls-2{fill:#231f20;}</style></defs><title>headphones</title><g id="Layer_2" data-name="Layer 2"><g id="headphones"><g id="headphones-2" data-name="headphones"><rect class="cls-1" width="24" height="24"/><path class="cls-2" d="M12,2A10.2,10.2,0,0,0,2,12.37V17a4,4,0,1,0,4-4,3.91,3.91,0,0,0-2,.56V12.37A8.2,8.2,0,0,1,12,4a8.2,8.2,0,0,1,8,8.37v1.19A3.91,3.91,0,0,0,18,13a4,4,0,1,0,4,4V12.37A10.2,10.2,0,0,0,12,2Z"/></g></g></g></svg>