<svg xmlns="http://www.w3.org/2000/svg" viewBox="0 0 24 24"><g data-name="Layer 2"><g data-name="layers"><rect width="24" height="24" transform="rotate(180 12 12)" opacity="0"/><path d="M3.24 7.29l8.52 4.63a.51.51 0 0 0 .48 0l8.52-4.63a.44.44 0 0 0-.05-.81L12.19 3a.5.5 0 0 0-.38 0L3.29 6.48a.44.44 0 0 0-.05.81z"/><path d="M20.71 10.66l-1.83-.78-6.64 3.61a.51.51 0 0 1-.48 0L5.12 9.88l-1.83.78a.48.48 0 0 0 0 .85l8.52 4.9a.46.46 0 0 0 .48 0l8.52-4.9a.48.48 0 0 0-.1-.85z"/><path d="M20.71 15.1l-1.56-.68-6.91 3.76a.51.51 0 0 1-.48 0l-6.91-3.76-1.56.68a.49.49 0 0 0 0 .87l8.52 5a.51.51 0 0 0 .48 0l8.52-5a.49.49 0 0 0-.1-.87z"/></g></g></svg>