<svg xmlns="http://www.w3.org/2000/svg" viewBox="0 0 24 24"><defs><style>.cls-1{fill:#fff;opacity:0;}.cls-2{fill:#231f20;}</style></defs><title>link</title><g id="Layer_2" data-name="Layer 2"><g id="link"><g id="link-2" data-name="link"><rect class="cls-1" width="24" height="24"/><path class="cls-2" d="M8,12a1,1,0,0,0,1,1h6a1,1,0,0,0,0-2H9A1,1,0,0,0,8,12Z"/><path class="cls-2" d="M9,16H7.21A4.13,4.13,0,0,1,3,12.37,4,4,0,0,1,7,8H9A1,1,0,0,0,9,6H7.21a6.15,6.15,0,0,0-6.16,5.21A6,6,0,0,0,7,18H9a1,1,0,0,0,0-2Z"/><path class="cls-2" d="M23,11.24A6.16,6.16,0,0,0,16.76,6H15.25C14.44,6,14,6.45,14,7a1,1,0,0,0,1,1h1.79A4.13,4.13,0,0,1,21,11.63,4,4,0,0,1,17,16H15a1,1,0,0,0,0,2h2A6,6,0,0,0,23,11.24Z"/></g></g></g></svg>