<svg xmlns="http://www.w3.org/2000/svg" viewBox="0 0 24 24"><defs><style>.cls-1{fill:#fff;opacity:0;}.cls-2{fill:#231f20;}</style></defs><title>linkedin</title><g id="Layer_2" data-name="Layer 2"><g id="linkedin"><g id="linkedin-2" data-name="linkedin"><rect class="cls-1" width="24" height="24" transform="translate(24 24) rotate(180)"/><path class="cls-2" d="M15.15,8.4A5.83,5.83,0,0,0,9.3,14.22V20.1a.9.9,0,0,0,.9.9h2.1a.9.9,0,0,0,.9-.9V14.22a1.94,1.94,0,0,1,2.15-1.93,2,2,0,0,1,1.75,2V20.1a.9.9,0,0,0,.9.9h2.1a.9.9,0,0,0,.9-.9V14.22A5.83,5.83,0,0,0,15.15,8.4Z"/><rect class="cls-2" x="3" y="9.3" width="4.5" height="11.7" rx="0.9" ry="0.9"/><circle class="cls-2" cx="5.25" cy="5.25" r="2.25"/></g></g></g></svg>