<svg xmlns="http://www.w3.org/2000/svg" viewBox="0 0 24 24"><defs><style>.cls-1{fill:none;opacity:0;}.cls-2{fill:#231f20;}</style></defs><title>message-circle</title><g id="Layer_2" data-name="Layer 2"><g id="message-circle"><g id="message-circle-2" data-name="message-circle"><rect class="cls-1" width="24" height="24"/><path class="cls-2" d="M19.07,4.93a10,10,0,0,0-16.28,11,1.06,1.06,0,0,1,.09.64L2,20.8a1,1,0,0,0,.27.91A1,1,0,0,0,3,22l.2,0,4.28-.86a1.26,1.26,0,0,1,.64.09,10,10,0,0,0,11-16.28ZM8,13a1,1,0,1,1,1-1A1,1,0,0,1,8,13Zm4,0a1,1,0,1,1,1-1A1,1,0,0,1,12,13Zm4,0a1,1,0,1,1,1-1A1,1,0,0,1,16,13Z"/></g></g></g></svg>