<svg xmlns="http://www.w3.org/2000/svg" viewBox="0 0 24 24"><defs><style>.cls-1{fill:#fff;opacity:0;}.cls-2{fill:#231f20;}</style></defs><title>mic-off</title><g id="Layer_2" data-name="Layer 2"><g id="mic-off"><g id="mic-off-2" data-name="mic-off"><rect class="cls-1" width="24" height="24"/><path class="cls-2" d="M15.58,12.75A4,4,0,0,0,16,11V6a4,4,0,0,0-7.92-.75"/><path class="cls-2" d="M19,11a1,1,0,0,0-2,0,4.86,4.86,0,0,1-.69,2.48L17.78,15A7,7,0,0,0,19,11Z"/><path class="cls-2" d="M12,15l.16,0L8,10.83V11A4,4,0,0,0,12,15Z"/><path class="cls-2" d="M20.71,19.29l-16-16A1,1,0,0,0,3.29,4.71l16,16a1,1,0,0,0,1.42,0A1,1,0,0,0,20.71,19.29Z"/><path class="cls-2" d="M15,20H13V17.92a7,7,0,0,0,1.65-.44l-1.6-1.6A4.57,4.57,0,0,1,12,16a5,5,0,0,1-5-5,1,1,0,0,0-2,0,7,7,0,0,0,6,6.92V20H9a1,1,0,0,0,0,2h6a1,1,0,0,0,0-2Z"/></g></g></g></svg>