<svg xmlns="http://www.w3.org/2000/svg" viewBox="0 0 24 24"><defs><style>.cls-1{fill:#fff;opacity:0;}.cls-2{fill:#231f20;}</style></defs><title>pantone</title><g id="Layer_2" data-name="Layer 2"><g id="pantone"><g id="pantone-2" data-name="pantone"><rect class="cls-1" width="24" height="24"/><path class="cls-2" d="M20,13.18H17.3l-1.86,2L11.88,19l-1.41,1.52L10,21H20a1,1,0,0,0,1-1V14.18A1,1,0,0,0,20,13.18Z"/><path class="cls-2" d="M18.19,9.3,14.05,5.44a.89.89,0,0,0-.71-.26,1,1,0,0,0-.7.31l-.82.89V17.09a5.23,5.23,0,0,1-.06.57l6.48-6.95A1,1,0,0,0,18.19,9.3Z"/><path class="cls-2" d="M10.82,4a1,1,0,0,0-1-1H4A1,1,0,0,0,3,4V17.09a3.91,3.91,0,0,0,7.82,0Zm-2,13.09a1.91,1.91,0,0,1-3.82,0V15H8.82Zm0-4.09H5V10H8.82Zm0-5H5V5H8.82Z"/></g></g></g></svg>