<svg xmlns="http://www.w3.org/2000/svg" viewBox="0 0 24 24"><defs><style>.cls-1{fill:#fff;opacity:0;}.cls-2{fill:#231f20;}</style></defs><title>people</title><g id="Layer_2" data-name="Layer 2"><g id="people"><g id="people-2" data-name="people"><rect class="cls-1" width="24" height="24"/><path class="cls-2" d="M9,11A4,4,0,1,0,5,7,4,4,0,0,0,9,11Z"/><path class="cls-2" d="M17,13a3,3,0,1,0-3-3A3,3,0,0,0,17,13Z"/><path class="cls-2" d="M21,20a1,1,0,0,0,1-1,5,5,0,0,0-8.06-3.95A7,7,0,0,0,2,20a1,1,0,0,0,1,1H15a1,1,0,0,0,1-1"/></g></g></g></svg>