<svg xmlns="http://www.w3.org/2000/svg" viewBox="0 0 24 24"><defs><style>.cls-1{fill:#fff;opacity:0;}.cls-2{fill:#231f20;}</style></defs><title>person-done</title><g id="Layer_2" data-name="Layer 2"><g id="person-done"><g id="person-done-2" data-name="person-done"><rect class="cls-1" width="24" height="24"/><path class="cls-2" d="M21.66,4.25a1,1,0,0,0-1.41.09L18.38,6.49l-.63-.71a1,1,0,0,0-1.5,1.33l1.39,1.56a1,1,0,0,0,.75.33h0a1,1,0,0,0,.74-.34l2.61-3A1,1,0,0,0,21.66,4.25Z"/><path class="cls-2" d="M10,11A4,4,0,1,0,6,7,4,4,0,0,0,10,11Z"/><path class="cls-2" d="M16,21a1,1,0,0,0,1-1A7,7,0,0,0,3,20a1,1,0,0,0,1,1"/></g></g></g></svg>