<svg xmlns="http://www.w3.org/2000/svg" viewBox="0 0 24 24"><g data-name="Layer 2"><g data-name="phone-off"><rect width="24" height="24" opacity="0"/><path d="M9.27 12.06a10.37 10.37 0 0 1-.8-1.42C9.71 10 9.72 10 9.85 9.85a1 1 0 0 0 .26-.92L8.74 3a1 1 0 0 0-.65-.72 3.79 3.79 0 0 0-.72-.18A3.94 3.94 0 0 0 6.6 2 4.6 4.6 0 0 0 2 6.6a15.33 15.33 0 0 0 3.27 9.46z"/><path d="M21.94 16.64a4.34 4.34 0 0 0-.19-.73 1 1 0 0 0-.72-.65l-6-1.37a1 1 0 0 0-.92.26c-.14.13-.15.14-.8 1.38a10.88 10.88 0 0 1-1.41-.8l-4 4A15.33 15.33 0 0 0 17.4 22a4.6 4.6 0 0 0 4.6-4.6 4.77 4.77 0 0 0-.06-.76z"/><path d="M19.74 4.26a.89.89 0 0 0-1.26 0L4.26 18.48a.91.91 0 0 0-.26.63.89.89 0 0 0 1.52.63L19.74 5.52a.89.89 0 0 0 0-1.26z"/></g></g></svg>