<svg xmlns="http://www.w3.org/2000/svg" viewBox="0 0 24 24"><defs><style>.cls-1{fill:#fff;opacity:0;}.cls-2{fill:#231f20;}</style></defs><title>menu-arrow-circle</title><g id="Layer_2" data-name="Layer 2"><g id="menu-arrow-circle"><g id="menu-arrow-circle-2" data-name="menu-arrow-circle"><rect class="cls-1" width="24" height="24" transform="translate(24 24) rotate(180)"/><path class="cls-2" d="M12,2A10,10,0,1,0,22,12,10,10,0,0,0,12,2Zm0,16a1,1,0,1,1,1-1A1,1,0,0,1,12,18Zm1-5.16V14a1,1,0,0,1-2,0V12a1,1,0,0,1,1-1,1.5,1.5,0,1,0-1.5-1.5,1,1,0,0,1-2,0A3.5,3.5,0,1,1,13,12.84Z"/></g></g></g></svg>