<svg xmlns="http://www.w3.org/2000/svg" viewBox="0 0 24 24"><g data-name="Layer 2"><g data-name="repeat"><rect width="24" height="24" opacity="0"/><path d="M17.91 5h-12l1.3-1.29a1 1 0 0 0-1.42-1.42l-3 3a1 1 0 0 0 0 1.42l3 3a1 1 0 0 0 1.42 0 1 1 0 0 0 0-1.42L5.91 7h12a1.56 1.56 0 0 1 1.59 1.53V11a1 1 0 0 0 2 0V8.53A3.56 3.56 0 0 0 17.91 5z"/><path d="M18.21 14.29a1 1 0 0 0-1.42 1.42l1.3 1.29h-12a1.56 1.56 0 0 1-1.59-1.53V13a1 1 0 0 0-2 0v2.47A3.56 3.56 0 0 0 6.09 19h12l-1.3 1.29a1 1 0 0 0 0 1.42 1 1 0 0 0 1.42 0l3-3a1 1 0 0 0 0-1.42z"/></g></g></svg>