<svg xmlns="http://www.w3.org/2000/svg" viewBox="0 0 24 24"><g data-name="Layer 2"><g data-name="rewind-right"><rect width="24" height="24" opacity="0"/><path d="M20.86 10.67l-5.1-4.21a2.1 2.1 0 0 0-2.21-.26 1.76 1.76 0 0 0-1.05 1.59v2.59L7.76 6.46a2.1 2.1 0 0 0-2.21-.26 1.76 1.76 0 0 0-1 1.59v8.42a1.76 1.76 0 0 0 1 1.59 2.23 2.23 0 0 0 .91.2 2.06 2.06 0 0 0 1.3-.46l4.74-3.92v2.59a1.76 1.76 0 0 0 1.05 1.59 2.23 2.23 0 0 0 .91.2 2.06 2.06 0 0 0 1.3-.46l5.1-4.21a1.7 1.7 0 0 0 0-2.66z"/></g></g></svg>