<svg xmlns="http://www.w3.org/2000/svg" viewBox="0 0 24 24"><g data-name="Layer 2"><g data-name="rewind-left"><rect width="24" height="24" transform="rotate(180 12 12)" opacity="0"/><path d="M18.45 6.2a2.1 2.1 0 0 0-2.21.26l-4.74 3.92V7.79a1.76 1.76 0 0 0-1.05-1.59 2.1 2.1 0 0 0-2.21.26l-5.1 4.21a1.7 1.7 0 0 0 0 2.66l5.1 4.21a2.06 2.06 0 0 0 1.3.46 2.23 2.23 0 0 0 .91-.2 1.76 1.76 0 0 0 1.05-1.59v-2.59l4.74 3.92a2.06 2.06 0 0 0 1.3.46 2.23 2.23 0 0 0 .91-.2 1.76 1.76 0 0 0 1.05-1.59V7.79a1.76 1.76 0 0 0-1.05-1.59z"/></g></g></svg>