<svg xmlns="http://www.w3.org/2000/svg" viewBox="0 0 24 24"><defs><style>.cls-1{fill:#fff;opacity:0;}.cls-2{fill:#231f20;}</style></defs><title>rewind-left</title><g id="Layer_2" data-name="Layer 2"><g id="rewind-left"><g id="rewind-left-2" data-name="rewind-left"><rect class="cls-1" width="24" height="24" transform="translate(24 24) rotate(180)"/><path class="cls-2" d="M18.45,6.2a2.1,2.1,0,0,0-2.21.26L11.5,10.38V7.79A1.76,1.76,0,0,0,10.45,6.2a2.1,2.1,0,0,0-2.21.26l-5.1,4.21a1.7,1.7,0,0,0,0,2.66l5.1,4.21a2.06,2.06,0,0,0,1.3.46,2.23,2.23,0,0,0,.91-.2,1.76,1.76,0,0,0,1.05-1.59V13.62l4.74,3.92a2.06,2.06,0,0,0,1.3.46,2.23,2.23,0,0,0,.91-.2,1.76,1.76,0,0,0,1.05-1.59V7.79A1.76,1.76,0,0,0,18.45,6.2Z"/></g></g></g></svg>