<svg xmlns="http://www.w3.org/2000/svg" viewBox="0 0 24 24"><defs><style>.cls-1{fill:#fff;opacity:0;}.cls-2{fill:#231f20;}</style></defs><title>shield-off</title><g id="Layer_2" data-name="Layer 2"><g id="shield-off"><g id="shield-off-2" data-name="shield-off"><rect class="cls-1" width="24" height="24"/><path class="cls-2" d="M3.73,6.56A2,2,0,0,0,3,8.09v.14a15.17,15.17,0,0,0,7.72,13.2l.3.17a2,2,0,0,0,2,0l.3-.17a15.22,15.22,0,0,0,3-2.27Z"/><path class="cls-2" d="M18.84,16A15.08,15.08,0,0,0,21,8.23V8.09a2,2,0,0,0-1-1.75L13,2.4a2,2,0,0,0-2,0L7.32,4.49Z"/><path class="cls-2" d="M4.71,3.29A1,1,0,0,0,3.29,4.71l16,16a1,1,0,0,0,1.42,0,1,1,0,0,0,0-1.42Z"/></g></g></g></svg>