<svg xmlns="http://www.w3.org/2000/svg" viewBox="0 0 24 24"><defs><style>.cls-1{fill:#fff;opacity:0;}.cls-2{fill:#231f20;}</style></defs><title>shopping-bag</title><g id="Layer_2" data-name="Layer 2"><g id="shopping-bag"><g id="shopping-bag-2" data-name="shopping-bag"><rect class="cls-1" width="24" height="24"/><path class="cls-2" d="M20.12,6.71,17.29,3.88A3,3,0,0,0,15.17,3H8.83a3,3,0,0,0-2.12.88L3.88,6.71A3,3,0,0,0,3,8.83V18a3,3,0,0,0,3,3H18a3,3,0,0,0,3-3V8.83A3,3,0,0,0,20.12,6.71ZM12,16a4,4,0,0,1-4-4,1,1,0,0,1,2,0,2,2,0,0,0,4,0,1,1,0,0,1,2,0A4,4,0,0,1,12,16ZM6.41,7,8.12,5.29A1.05,1.05,0,0,1,8.83,5h6.34a1.05,1.05,0,0,1,.71.29L17.59,7Z"/></g></g></g></svg>