<svg xmlns="http://www.w3.org/2000/svg" viewBox="0 0 24 24"><g data-name="Layer 2"><g data-name="shuffle-2"><rect width="24" height="24" transform="rotate(180 12 12)" opacity="0"/><path d="M18.71 14.29a1 1 0 0 0-1.42 1.42l.29.29H16a4 4 0 0 1 0-8h1.59l-.3.29a1 1 0 0 0 0 1.42A1 1 0 0 0 18 10a1 1 0 0 0 .71-.29l2-2A1 1 0 0 0 21 7a1 1 0 0 0-.29-.71l-2-2a1 1 0 0 0-1.42 1.42l.29.29H16a6 6 0 0 0-5 2.69A6 6 0 0 0 6 6H4a1 1 0 0 0 0 2h2a4 4 0 0 1 0 8H4a1 1 0 0 0 0 2h2a6 6 0 0 0 5-2.69A6 6 0 0 0 16 18h1.59l-.3.29a1 1 0 0 0 0 1.42A1 1 0 0 0 18 20a1 1 0 0 0 .71-.29l2-2A1 1 0 0 0 21 17a1 1 0 0 0-.29-.71z"/></g></g></svg>