<svg xmlns="http://www.w3.org/2000/svg" viewBox="0 0 24 24"><defs><style>.cls-1{fill:#fff;opacity:0;}.cls-2{fill:#231f20;}</style></defs><title>speaker</title><g id="Layer_2" data-name="Layer 2"><g id="speaker"><g id="speaker-2" data-name="speaker"><rect class="cls-1" width="24" height="24" transform="translate(24 0) rotate(90)"/><circle class="cls-2" cx="12" cy="15.5" r="1.5"/><circle class="cls-2" cx="12" cy="8" r="1"/><path class="cls-2" d="M17,2H7A3,3,0,0,0,4,5V19a3,3,0,0,0,3,3H17a3,3,0,0,0,3-3V5A3,3,0,0,0,17,2ZM12,5A3,3,0,1,1,9,8,3,3,0,0,1,12,5Zm0,14a3.5,3.5,0,1,1,3.5-3.5A3.5,3.5,0,0,1,12,19Z"/></g></g></g></svg>