<svg xmlns="http://www.w3.org/2000/svg" viewBox="0 0 24 24"><defs><style>.cls-1{fill:#fff;opacity:0;}.cls-2{fill:#231f20;}</style></defs><title>swap</title><g id="Layer_2" data-name="Layer 2"><g id="swap"><g id="swap-2" data-name="swap"><rect class="cls-1" width="24" height="24" transform="translate(0 24) rotate(-90)"/><path class="cls-2" d="M4,9H17l-1.6,1.2a1,1,0,0,0-.2,1.4,1,1,0,0,0,.8.4,1,1,0,0,0,.6-.2l4-3a1,1,0,0,0,0-1.59l-3.86-3a1,1,0,0,0-1.23,1.58L17.08,7H4A1,1,0,0,0,4,9Z"/><path class="cls-2" d="M20,16H7l1.6-1.2a1,1,0,0,0-1.2-1.6l-4,3a1,1,0,0,0,0,1.59l3.86,3a1,1,0,0,0,.61.21,1,1,0,0,0,.79-.39,1,1,0,0,0-.17-1.4L6.92,18H20a1,1,0,0,0,0-2Z"/></g></g></g></svg>