<svg xmlns="http://www.w3.org/2000/svg" viewBox="0 0 24 24"><defs><style>.cls-1{opacity:0;}.cls-2{fill:#fff;}.cls-3{fill:#231f20;}</style></defs><title>sync</title><g id="Layer_2" data-name="Layer 2"><g id="sync"><g id="sync-2" data-name="sync"><g class="cls-1"><rect class="cls-2" width="24" height="24"/></g><path class="cls-3" d="M21.66,10.37a.62.62,0,0,0,.07-.19l.75-4a1,1,0,0,0-2-.36l-.37,2a9.22,9.22,0,0,0-16.58.84,1,1,0,0,0,.55,1.3,1,1,0,0,0,1.31-.55A7.08,7.08,0,0,1,12.07,5a7.17,7.17,0,0,1,6.24,3.58l-1.65-.27a1,1,0,1,0-.32,2l4.25.71h.16a.93.93,0,0,0,.34-.06.33.33,0,0,0,.1-.06.78.78,0,0,0,.2-.11l.08-.1a1.07,1.07,0,0,0,.14-.16A.58.58,0,0,0,21.66,10.37Z"/><path class="cls-3" d="M19.88,14.07a1,1,0,0,0-1.31.56A7.08,7.08,0,0,1,11.93,19a7.17,7.17,0,0,1-6.24-3.58l1.65.27.16,0a1,1,0,0,0,.16-2L3.41,13a.91.91,0,0,0-.33,0H3a1.15,1.15,0,0,0-.32.14l0,0a1,1,0,0,0-.18.18l-.09.1a.84.84,0,0,0-.07.19.44.44,0,0,0-.07.17l-.75,4A1,1,0,0,0,2.32,19l.18,0a1,1,0,0,0,1-.82l.37-2a9.22,9.22,0,0,0,16.58-.83A1,1,0,0,0,19.88,14.07Z"/></g></g></g></svg>