<svg xmlns="http://www.w3.org/2000/svg" viewBox="0 0 24 24"><defs><style>.cls-1{fill:#fff;opacity:0;}.cls-2{fill:#231f20;}</style></defs><title>video-off</title><g id="Layer_2" data-name="Layer 2"><g id="video-off"><g id="video-off-2" data-name="video-off"><rect class="cls-1" width="24" height="24"/><path class="cls-2" d="M14.22,17.05,4.88,7.71,3.12,6,3,5.8A3,3,0,0,0,2,8v8a3,3,0,0,0,3,3h9a2.94,2.94,0,0,0,1.66-.51Z"/><path class="cls-2" d="M21,7.15a1.7,1.7,0,0,0-1.85.3L17,9.45V8a3,3,0,0,0-3-3H7.83L9.12,6.29l6.59,6.59,2,2,2,2a1.73,1.73,0,0,0,.6.11,1.68,1.68,0,0,0,.69-.15,1.6,1.6,0,0,0,1-1.48V8.63A1.6,1.6,0,0,0,21,7.15Z"/><path class="cls-2" d="M17,15.59l-2-2L8.41,7l-2-2L4.71,3.29A1,1,0,0,0,3.29,4.71l.54.53L5.59,7l9.34,9.34,1.46,1.46,2.9,2.91a1,1,0,0,0,1.42,0,1,1,0,0,0,0-1.42Z"/></g></g></g></svg>