<svg xmlns="http://www.w3.org/2000/svg" viewBox="0 0 24 24"><g data-name="Layer 2"><g data-name="volume-up"><rect width="24" height="24" opacity="0"/><path d="M18.28 8.37a1 1 0 1 0-1.56 1.26 4 4 0 0 1 0 4.74A1 1 0 0 0 17.5 16a1 1 0 0 0 .78-.37 6 6 0 0 0 0-7.26z"/><path d="M19.64 5.23a1 1 0 1 0-1.28 1.54A6.8 6.8 0 0 1 21 12a6.8 6.8 0 0 1-2.64 5.23 1 1 0 0 0-.13 1.41A1 1 0 0 0 19 19a1 1 0 0 0 .64-.23A8.75 8.75 0 0 0 23 12a8.75 8.75 0 0 0-3.36-6.77z"/><path d="M14.47 3.12a1 1 0 0 0-1 0L7 7.57H2a1 1 0 0 0-1 1v6.86a1 1 0 0 0 1 1h5l6.41 4.4A1.06 1.06 0 0 0 14 21a1 1 0 0 0 1-1V4a1 1 0 0 0-.53-.88z"/></g></g></svg>