<svg xmlns="http://www.w3.org/2000/svg" viewBox="0 0 24 24"><g data-name="Layer 2"><g data-name="volume-off"><rect width="24" height="24" opacity="0"/><path d="M16.91 14.08l1.44 1.44a6 6 0 0 0-.07-7.15 1 1 0 1 0-1.56 1.26 4 4 0 0 1 .19 4.45z"/><path d="M21 12a6.51 6.51 0 0 1-1.78 4.39l1.42 1.42A8.53 8.53 0 0 0 23 12a8.75 8.75 0 0 0-3.36-6.77 1 1 0 1 0-1.28 1.54A6.8 6.8 0 0 1 21 12z"/><path d="M15 12.17V4a1 1 0 0 0-1.57-.83L9 6.2z"/><path d="M4.74 7.57H2a1 1 0 0 0-1 1v6.86a1 1 0 0 0 1 1h5l6.41 4.4A1.06 1.06 0 0 0 14 21a1 1 0 0 0 1-1v-2.17z"/><path d="M4.71 3.29a1 1 0 0 0-1.42 1.42l16 16a1 1 0 0 0 1.42 0 1 1 0 0 0 0-1.42z"/></g></g></svg>