<svg width="24" height="24" xmlns="http://www.w3.org/2000/svg" xmlns:xlink="http://www.w3.org/1999/xlink"><defs><path d="M14.33 20c-.068 0-.137-.003-.206-.01-.88-.086-1.57-.707-1.76-1.582L9.681 6.014l-2.763 6.383A1 1 0 0 1 6 13H3a1 1 0 1 1 0-2h2.344L7.85 5.21c.355-.816 1.137-1.29 2.026-1.202.88.087 1.57.708 1.76 1.583l2.683 12.393 2.763-6.383A1 1 0 0 1 18 11h3a1 1 0 1 1 0 2h-2.344l-2.506 5.787A1.968 1.968 0 0 1 14.33 20" id="a"/></defs><g fill-rule="evenodd"><mask id="b"><use xlink:href="#a"/></mask><use xlink:href="#a"/><g mask="url(#b)"><rect width="24" height="24"/></g></g></svg>