<svg width="24" height="24" xmlns="http://www.w3.org/2000/svg" xmlns:xlink="http://www.w3.org/1999/xlink"><defs><path d="M12 15a1 1 0 1 1 0 2 1 1 0 0 1 0-2zm0-7a1 1 0 0 1 1 1v4a1 1 0 0 1-2 0V9a1 1 0 0 1 1-1zm8.865 10.353c-.23.405-.675.647-1.193.647H4.328c-.518 0-.964-.242-1.192-.647a.971.971 0 0 1 .017-1.017l7.67-12.718c.468-.774 1.886-.774 2.353 0l7.672 12.718c.266.44.125.827.017 1.017m1.696-2.05L14.889 3.584c-.6-.992-1.68-1.584-2.89-1.584-1.21 0-2.29.592-2.887 1.584L1.44 16.303a2.973 2.973 0 0 0-.046 3.033C1.973 20.363 3.098 21 4.328 21h15.344c1.23 0 2.355-.637 2.935-1.664.54-.956.523-2.09-.046-3.033" id="a"/></defs><g fill-rule="evenodd"><mask id="b"><use xlink:href="#a"/></mask><use xlink:href="#a"/><g mask="url(#b)"><rect width="24" height="24"/></g></g></svg>