<svg xmlns="http://www.w3.org/2000/svg" viewBox="0 0 24 24"><defs><style>.cls-1{fill:#fff;opacity:0;}.cls-2{fill:#231f20;}</style></defs><title>alert-triangle</title><g id="Layer_2" data-name="Layer 2"><g id="alert-triangle"><g id="alert-triangle-2" data-name="alert-triangle"><rect class="cls-1" width="24" height="24" transform="translate(24 0) rotate(90)"/><path class="cls-2" d="M22.56,16.3,14.89,3.58a3.43,3.43,0,0,0-5.78,0L1.44,16.3a3,3,0,0,0-.05,3A3.37,3.37,0,0,0,4.33,21H19.67a3.37,3.37,0,0,0,2.94-1.66A3,3,0,0,0,22.56,16.3Zm-1.7,2.05a1.31,1.31,0,0,1-1.19.65H4.33a1.31,1.31,0,0,1-1.19-.65,1,1,0,0,1,0-1L10.82,4.62a1.48,1.48,0,0,1,2.36,0l7.67,12.72A1,1,0,0,1,20.86,18.35Z"/><circle class="cls-2" cx="12" cy="16" r="1"/><path class="cls-2" d="M12,8a1,1,0,0,0-1,1v4a1,1,0,0,0,2,0V9A1,1,0,0,0,12,8Z"/></g></g></g></svg>