<svg width="24" height="24" xmlns="http://www.w3.org/2000/svg" xmlns:xlink="http://www.w3.org/1999/xlink"><defs><path d="M16.616 6.213c.436.34.512.969.171 1.403l-7.83 10a.998.998 0 0 1-.78.384h-.008c-.303 0-.589-.137-.78-.373L3.22 12.449a1 1 0 0 1 1.56-1.254l3.378 4.197 7.055-9.008a.998.998 0 0 1 1.403-.171zm5 0c.436.34.512.969.171 1.403l-7.83 10a.998.998 0 0 1-.78.384h-.008c-.303 0-.589-.137-.78-.373l-1.1-1.367 1.265-1.617.604.749 7.055-9.008a.998.998 0 0 1 1.403-.171zM8.713 13.06l-.492-.61a1 1 0 0 1 1.558-1.255l.2.25-1.266 1.615z" id="a"/></defs><g fill-rule="evenodd"><mask id="b"><use xlink:href="#a"/></mask><use xlink:href="#a"/><g mask="url(#b)"><rect width="24" height="24"/></g></g></svg>