<svg width="24" height="24" xmlns="http://www.w3.org/2000/svg" xmlns:xlink="http://www.w3.org/1999/xlink"><defs><path d="M9.866 14h4.268c.476 0 .866-.39.866-.866v-.268a.869.869 0 0 0-.866-.866H9.866a.868.868 0 0 0-.866.866v.268c0 .476.39.866.866.866M18 18c0 .551-.448 1-1 1H7c-.551 0-1-.449-1-1V9h12v9zM6 5h12a1.001 1.001 0 0 1 0 2H6c-.551 0-1-.449-1-1 0-.551.449-1 1-1zm15 1c0-1.654-1.346-3-3-3H6C4.346 3 3 4.346 3 6c0 .883.391 1.67 1 2.22V18c0 1.654 1.346 3 3 3h10c1.654 0 3-1.346 3-3V8.22c.609-.55 1-1.337 1-2.22z" id="a"/></defs><g fill-rule="evenodd"><mask id="b"><use xlink:href="#a"/></mask><use xlink:href="#a"/><g mask="url(#b)"><rect width="24" height="24"/></g></g></svg>