<svg xmlns="http://www.w3.org/2000/svg" viewBox="0 0 24 24"><defs><style>.cls-1{fill:#fff;opacity:0;}.cls-2{fill:#231f20;}</style></defs><title>arrowhead-down</title><g id="Layer_2" data-name="Layer 2"><g id="arrowhead-down"><g id="arrowhead-down-2" data-name="arrowhead-down"><rect class="cls-1" width="24" height="24"/><path class="cls-2" d="M17.37,12.39,12,16.71,6.64,12.23a1,1,0,1,0-1.28,1.54l6,5a1,1,0,0,0,1.27,0l6-4.83a1,1,0,0,0,.15-1.41A1,1,0,0,0,17.37,12.39Z"/><path class="cls-2" d="M11.36,11.77a1,1,0,0,0,1.27,0l6-4.83a1,1,0,0,0,.15-1.41,1,1,0,0,0-1.41-.15L12,9.71,6.64,5.23A1,1,0,0,0,5.36,6.77Z"/></g></g></g></svg>