<svg width="24" height="24" xmlns="http://www.w3.org/2000/svg" xmlns:xlink="http://www.w3.org/1999/xlink"><defs><path d="M10.5 8.015v7.894l4.821-3.911L10.5 8.015zM10.456 18c-.307 0-.617-.066-.906-.202-.648-.305-1.05-.913-1.05-1.586V7.787c0-.672.402-1.28 1.05-1.585a2.085 2.085 0 0 1 2.209.258l5.099 4.214c.409.336.642.82.642 1.326 0 .506-.233.99-.642 1.327l-5.099 4.212a2.04 2.04 0 0 1-1.303.462z" id="a"/></defs><g fill-rule="evenodd"><mask id="b"><use xlink:href="#a"/></mask><use xlink:href="#a"/><g mask="url(#b)"><rect width="24" height="24"/></g></g></svg>