<svg width="24" height="24" xmlns="http://www.w3.org/2000/svg" xmlns:xlink="http://www.w3.org/1999/xlink"><defs><path d="M11.64 5.232a1 1 0 0 1 .128 1.408l-4.476 5.37 4.315 5.363a1 1 0 0 1-1.558 1.254l-4.828-6a1 1 0 0 1 .011-1.267l5-6a1 1 0 0 1 1.408-.128zm2.652 6.78l4.316 5.361a1 1 0 0 1-1.56 1.254l-4.827-6a1 1 0 0 1 .01-1.267l5-6a1 1 0 0 1 1.537 1.28l-4.476 5.371z" id="a"/></defs><g fill-rule="evenodd"><mask id="b"><use xlink:href="#a"/></mask><use xlink:href="#a"/><g mask="url(#b)"><rect width="24" height="24"/></g></g></svg>