<svg width="24" height="24" xmlns="http://www.w3.org/2000/svg" xmlns:xlink="http://www.w3.org/1999/xlink"><defs><path d="M18.78 11.373a1 1 0 0 1-.012 1.267l-5 6a1 1 0 1 1-1.536-1.28l4.476-5.371-4.316-5.362a1 1 0 1 1 1.56-1.254l4.827 6zm-11.829-6l4.828 6a1 1 0 0 1-.01 1.267l-5 6a1 1 0 1 1-1.537-1.28l4.475-5.371-4.315-5.362a1 1 0 0 1 1.56-1.254z" id="a"/></defs><g fill-rule="evenodd"><mask id="b"><use xlink:href="#a"/></mask><use xlink:href="#a"/><g mask="url(#b)"><rect width="24" height="24"/></g></g></svg>