<svg xmlns="http://www.w3.org/2000/svg" viewBox="0 0 24 24"><defs><style>.cls-1{fill:#fff;opacity:0;}.cls-2{fill:#231f20;}</style></defs><title>arrow-down (2)</title><g id="Layer_2" data-name="Layer 2"><g id="arrow-down"><g id="arrow-down-2" data-name="arrow-down"><rect class="cls-1" width="24" height="24" transform="translate(0 24) rotate(-90)"/><path class="cls-2" d="M12,17a1.72,1.72,0,0,1-1.33-.64l-4.21-5.1A2.1,2.1,0,0,1,6.2,9.05,1.76,1.76,0,0,1,7.79,8h8.42A1.76,1.76,0,0,1,17.8,9.05a2.1,2.1,0,0,1-.26,2.21l-4.21,5.1A1.72,1.72,0,0,1,12,17ZM8.09,10,12,14.82,16,10Z"/></g></g></g></svg>