<svg width="24" height="24" xmlns="http://www.w3.org/2000/svg" xmlns:xlink="http://www.w3.org/1999/xlink"><defs><path d="M6.627 11.607a1 1 0 0 1-1.254-1.559l6-4.828a.998.998 0 0 1 1.267.012l6 5A.998.998 0 0 1 18 12c-.226 0-.453-.077-.64-.232l-5.371-4.476-5.362 4.315zm6.013.625l6 5a1 1 0 0 1-1.28 1.536l-5.37-4.475-5.363 4.314a.999.999 0 1 1-1.254-1.558l6-4.828a.998.998 0 0 1 1.267.01z" id="a"/></defs><g fill-rule="evenodd"><mask id="b"><use xlink:href="#a"/></mask><use xlink:href="#a"/><g mask="url(#b)"><rect width="24" height="24"/></g></g></svg>