<svg width="24" height="24" xmlns="http://www.w3.org/2000/svg" xmlns:xlink="http://www.w3.org/1999/xlink"><defs><path d="M17.373 12.393a1.002 1.002 0 0 1 1.406.152c.346.43.278 1.06-.152 1.407l-6 4.828a.999.999 0 0 1-1.267-.012l-6-5a1 1 0 1 1 1.28-1.536l5.371 4.476 5.362-4.315zm-6.013-.625l-6-5a1 1 0 0 1 1.28-1.536l5.37 4.475 5.363-4.314a1 1 0 0 1 1.254 1.558l-6 4.828a1 1 0 0 1-1.267-.01z" id="a"/></defs><g fill-rule="evenodd"><mask id="b"><use xlink:href="#a"/></mask><use xlink:href="#a"/><g mask="url(#b)"><rect width="24" height="24"/></g></g></svg>