<svg width="24" height="24" xmlns="http://www.w3.org/2000/svg" xmlns:xlink="http://www.w3.org/1999/xlink"><defs><path d="M16.999 12.005L17 12c0-.033-.016-.06-.019-.092a.937.937 0 0 0-.057-.282c-.027-.068-.073-.122-.114-.182-.031-.044-.048-.095-.086-.135l-2.863-3a1 1 0 1 0-1.447 1.381l1.25 1.31H8a1 1 0 1 0 0 2h5.586l-1.293 1.293a.999.999 0 1 0 1.414 1.414l3-3a.994.994 0 0 0 .292-.702M12 20c-4.411 0-8-3.589-8-8s3.589-8 8-8 8 3.589 8 8-3.589 8-8 8m0-18C6.486 2 2 6.486 2 12s4.486 10 10 10 10-4.486 10-10S17.514 2 12 2" id="a"/></defs><g fill-rule="evenodd"><mask id="b"><use xlink:href="#a"/></mask><use xlink:href="#a"/><g mask="url(#b)"><rect width="24" height="24"/></g></g></svg>