<svg xmlns="http://www.w3.org/2000/svg" viewBox="0 0 24 24"><defs><style>.cls-1{fill:#fff;opacity:0;}.cls-2{fill:#231f20;}</style></defs><title>arrow-circle-right</title><g id="Layer_2" data-name="Layer 2"><g id="arrow-circle-right"><g id="arrow-circle-right-2" data-name="arrow-circle-right"><rect class="cls-1" width="24" height="24" transform="translate(0 24) rotate(-90)"/><path class="cls-2" d="M17,12h0s0-.06,0-.09a.88.88,0,0,0-.06-.28.72.72,0,0,0-.11-.19,1,1,0,0,0-.09-.13l-2.86-3a1,1,0,0,0-1.45,1.38L13.66,11H8a1,1,0,0,0,0,2h5.59l-1.3,1.29a1,1,0,0,0,0,1.42,1,1,0,0,0,1.42,0l3-3a1,1,0,0,0,.21-.32A1,1,0,0,0,17,12Z"/><path class="cls-2" d="M12,2A10,10,0,1,0,22,12,10,10,0,0,0,12,2Zm0,18a8,8,0,1,1,8-8A8,8,0,0,1,12,20Z"/></g></g></g></svg>