<svg width="24" height="24" xmlns="http://www.w3.org/2000/svg" xmlns:xlink="http://www.w3.org/1999/xlink"><defs><path d="M8.678 12.002l4.822 3.983V8.092l-4.822 3.91zm4.866 5.999c-.47 0-.935-.157-1.303-.461l-5.1-4.214A1.724 1.724 0 0 1 6.501 12c0-.506.233-.99.64-1.326l5.1-4.213c.608-.504 1.475-.605 2.21-.26.646.306 1.05.913 1.05 1.586v8.426c0 .673-.404 1.28-1.05 1.586a2.127 2.127 0 0 1-.907.202z" id="a"/></defs><g fill-rule="evenodd"><mask id="b"><use xlink:href="#a"/></mask><use xlink:href="#a"/><g mask="url(#b)"><rect width="24" height="24"/></g></g></svg>