<svg width="24" height="24" xmlns="http://www.w3.org/2000/svg" xmlns:xlink="http://www.w3.org/1999/xlink"><defs><path d="M11.182 15.09A3.095 3.095 0 0 1 8.09 12a3.095 3.095 0 0 1 3.09-3.091 3.095 3.095 0 0 1 3.092 3.09 3.095 3.095 0 0 1-3.091 3.092m1.773-13.047a9.988 9.988 0 0 0-8.05 2.909 10 10 0 0 0-2.854 8.073c.358 3.572 2.609 6.682 5.876 8.115 1.307.573 2.693.854 4.069.854 2.168 0 4.313-.7 6.084-2.055a1 1 0 1 0-1.216-1.588c-2.318 1.775-5.434 2.139-8.134.957-2.568-1.126-4.407-3.67-4.69-6.483a8.007 8.007 0 0 1 8.73-8.79C16.825 4.413 20 8.01 20 12.225v.675c0 .468-.186.904-.525 1.228-.338.324-.786.49-1.253.47-.894-.04-1.622-.88-1.622-1.874V8.4a1 1 0 0 0-1-1 .987.987 0 0 0-.975.875 5.056 5.056 0 0 0-3.443-1.366 5.098 5.098 0 0 0-5.091 5.09 5.097 5.097 0 0 0 5.09 5.092c1.7 0 3.2-.846 4.125-2.13.645.94 1.668 1.584 2.828 1.635a3.646 3.646 0 0 0 2.724-1.023A3.666 3.666 0 0 0 22 12.9v-.675c0-5.237-3.972-9.708-9.045-10.181" id="a"/></defs><g fill-rule="evenodd"><mask id="b"><use xlink:href="#a"/></mask><use xlink:href="#a"/><g mask="url(#b)"><rect width="24" height="24"/></g></g></svg>