<svg width="24" height="24" xmlns="http://www.w3.org/2000/svg" xmlns:xlink="http://www.w3.org/1999/xlink"><defs><path d="M12 22c-3.309 0-6-2.557-6-5.698V6.132C6 3.854 7.944 2 10.333 2c2.39 0 4.334 1.854 4.334 4.132l-.006 10.177c0 1.414-1.197 2.565-2.667 2.565-1.47 0-2.666-1.151-2.666-2.566l.005-9.391a1 1 0 0 1 1-.999h.001a1 1 0 0 1 .999 1.001l-.005 9.39c0 .311.298.565.666.565.368 0 .667-.254.667-.566l.006-10.177C12.667 4.956 11.62 4 10.333 4 9.047 4 8 4.956 8 6.132v10.17C8 18.341 9.794 20 12 20s4-1.659 4-3.698V6.132a1 1 0 1 1 2 0v10.17C18 19.443 15.309 22 12 22" id="a"/></defs><g fill-rule="evenodd"><mask id="b"><use xlink:href="#a"/></mask><use xlink:href="#a"/><g mask="url(#b)"><rect width="24" height="24"/></g></g></svg>