<svg width="24" height="24" xmlns="http://www.w3.org/2000/svg" xmlns:xlink="http://www.w3.org/1999/xlink"><defs><path d="M12.306 16.707a.994.994 0 0 0-.99.013l-3.748 2.2 1.468-5.71a5.957 5.957 0 0 0 5.929 0l1.489 5.792-4.148-2.295zM12 4c2.206 0 4 1.794 4 4s-1.794 4-4 4-4-1.794-4-4 1.794-4 4-4zm6.969 16.751l-2.31-8.979A5.972 5.972 0 0 0 18 8c0-3.309-2.69-6-6-6-3.307 0-6 2.691-6 6 0 1.429.505 2.74 1.34 3.772l-2.307 8.979a.999.999 0 0 0 1.474 1.111l5.33-3.129 5.68 3.142a1.001 1.001 0 0 0 1.453-1.124z" id="a"/></defs><g fill-rule="evenodd"><mask id="b"><use xlink:href="#a"/></mask><use xlink:href="#a"/><g mask="url(#b)"><rect width="24" height="24"/></g></g></svg>