<svg width="24" height="24" xmlns="http://www.w3.org/2000/svg" xmlns:xlink="http://www.w3.org/1999/xlink"><defs><path d="M11.293 14.707a.997.997 0 0 0 1.414 0L14 13.414l1.293 1.293a.997.997 0 0 0 1.414 0 .999.999 0 0 0 0-1.414L15.414 12l1.293-1.293a.999.999 0 1 0-1.414-1.414L14 10.586l-1.293-1.293a.999.999 0 1 0-1.414 1.414L12.586 12l-1.293 1.293a.999.999 0 0 0 0 1.414M20 18h-9.63a1 1 0 0 1-.673-.261l-5.328-4.845 5.377-6.675A.997.997 0 0 1 10.37 6H20v12zm.141-14H10.37a2.99 2.99 0 0 0-2.018.781.87.87 0 0 0-.106.113l-6.024 7.479a1 1 0 0 0 .105 1.367l6.025 5.479A2.99 2.99 0 0 0 10.37 20h9.771C21.166 20 22 19.185 22 18.182V5.818C22 4.815 21.166 4 20.141 4z" id="a"/></defs><g fill-rule="evenodd"><mask id="b"><use xlink:href="#a"/></mask><use xlink:href="#a"/><g mask="url(#b)"><rect width="24" height="24"/></g></g></svg>