<svg width="24" height="24" xmlns="http://www.w3.org/2000/svg" xmlns:xlink="http://www.w3.org/1999/xlink"><defs><path d="M21 9a1 1 0 0 1 1 1v4a1 1 0 0 1-2 0v-4a1 1 0 0 1 1-1zm-5.166-3C17.029 6 18 7.089 18 8.429v7.142c0 1.34-.97 2.429-2.166 2.429h-3.958l1.142-2h2.81c.052-.023.172-.176.172-.429V8.429c0-.259-.126-.412-.175-.43h-4.236L12.732 6h3.102zM4 15.571c0 .258.126.412.176.43H8.41l-1.142 2H4.167C2.972 18 2 16.91 2 15.57V8.428C2 7.09 2.972 6 4.167 6h3.958L6.982 8H4.167c-.041.016-.167.17-.167.428v7.143zM8.999 20a1 1 0 0 1-.867-1.496L11.277 13H7a1.001 1.001 0 0 1-.868-1.496l4-7a1 1 0 1 1 1.736.992L8.723 11H13a1.001 1.001 0 0 1 .868 1.496l-4 7a.999.999 0 0 1-.869.504z" id="a"/></defs><g fill-rule="evenodd"><mask id="b"><use xlink:href="#a"/></mask><use xlink:href="#a"/><g mask="url(#b)"><rect width="24" height="24"/></g></g></svg>