<svg width="24" height="24" xmlns="http://www.w3.org/2000/svg" xmlns:xlink="http://www.w3.org/1999/xlink"><defs><path d="M16 15.571c0 .253-.121.406-.172.43H4.176c-.05-.018-.176-.172-.176-.43V8.428c0-.258.126-.412.167-.428l11.657-.002c.05.018.176.172.176.43v7.143zm-.167-9.57C17.028 6 18 7.088 18 8.427v7.143c0 1.34-.972 2.43-2.167 2.43H4.167C2.972 18 2 16.91 2 15.57V8.428C2 7.09 2.972 6 4.167 6h11.666zM21 9a1 1 0 0 1 1 1v4a1 1 0 0 1-2 0v-4a1 1 0 0 1 1-1z" id="a"/></defs><g fill-rule="evenodd"><mask id="b"><use xlink:href="#a"/></mask><use xlink:href="#a"/><g mask="url(#b)"><rect width="24" height="24"/></g></g></svg>