<svg width="24" height="24" xmlns="http://www.w3.org/2000/svg" xmlns:xlink="http://www.w3.org/1999/xlink"><defs><path d="M12 20c-1.084 0-2-.76-2-1.659V18h4v.341C14 19.24 13.084 20 12 20zm2.029-3.143L15.172 18l.779.78C15.712 20.589 14.042 22 12 22c-2.206 0-4-1.641-4-3.659V18H4.637a1.632 1.632 0 0 1-1.512-1.01 1.631 1.631 0 0 1 .354-1.782l1.8-1.804.001-4.677c0-.197.015-.392.032-.587l1.968 1.968v3.296c0 .534-.208 1.036-.586 1.414L5.515 16h7.657l.857.857zM8.9 5.171c-.162.142-.293.309-.433.469L7.035 4.207A6.718 6.718 0 0 1 12.9 2.06c3.318.439 5.82 3.396 5.82 6.877v4.467l1.801 1.804a1.63 1.63 0 0 1 .353 1.783 1.62 1.62 0 0 1-.453.6l-3.605-3.604a1.994 1.994 0 0 1-.096-.583V8.937c0-2.482-1.755-4.586-4.082-4.895A4.662 4.662 0 0 0 8.9 5.17zm11.807 14.122a.999.999 0 1 1-1.414 1.414L16.586 18 16 17.414l-1.345-1.345-.069-.069-7.303-7.303-1.752-1.751-2.238-2.239a.999.999 0 1 1 1.414-1.414L6.42 5.006l1.466 1.465L17.414 16l1.993 1.993 1.3 1.3z" id="a"/></defs><g fill-rule="evenodd"><mask id="b"><use xlink:href="#a"/></mask><use xlink:href="#a"/><g mask="url(#b)"><rect width="24" height="24"/></g></g></svg>