<svg width="24" height="24" xmlns="http://www.w3.org/2000/svg" xmlns:xlink="http://www.w3.org/1999/xlink"><defs><path d="M13 18.25v-4.072l2.467 2.38L13 18.25zm0-12.49l2.497 1.734L13 9.85V5.76zm.629 6.247l4.015-3.79a1.133 1.133 0 0 0-.137-1.763l-4.674-3.243a1.169 1.169 0 0 0-1.215-.077A1.141 1.141 0 0 0 11 4.146v6.205L7.807 6.374a.999.999 0 1 0-1.56 1.252l3.474 4.327-3.505 4.427a1 1 0 1 0 1.568 1.24L11 13.56v6.293c0 .424.235.811.613 1.011a1.184 1.184 0 0 0 1.214-.07l4.642-3.186a1.135 1.135 0 0 0 .147-1.757l-3.987-3.845z" id="a"/></defs><g fill-rule="evenodd"><mask id="b"><use xlink:href="#a"/></mask><use xlink:href="#a"/><g mask="url(#b)"><rect width="24" height="24"/></g></g></svg>