<svg width="24" height="24" xmlns="http://www.w3.org/2000/svg" xmlns:xlink="http://www.w3.org/1999/xlink"><defs><path d="M11.821 15.506a1 1 0 0 1 .492.129L17 18.285V5.335c0-.201-.12-.334-.2-.334H7.2c-.08 0-.2.133-.2.334v12.9l4.306-2.585c.16-.095.337-.143.515-.143M6.001 21a1 1 0 0 1-1-1V5.334C5 4.047 5.986 3 7.2 3h9.6C18.012 3 19 4.047 19 5.334V20a1 1 0 0 1-1.493.87l-5.672-3.207-5.322 3.195A1.006 1.006 0 0 1 6 21" id="a"/></defs><g fill-rule="evenodd"><mask id="b"><use xlink:href="#a"/></mask><use xlink:href="#a"/><g mask="url(#b)"><rect width="24" height="24"/></g></g></svg>