<svg width="24" height="24" xmlns="http://www.w3.org/2000/svg" xmlns:xlink="http://www.w3.org/1999/xlink"><defs><path d="M19 16.402l-6 1.348V7.597l6-1.347v10.152zM5 6.25l6 1.347V17.75l-6-1.348V6.25zm15.625-2.032a1.003 1.003 0 0 0-.845-.194L12 5.772 4.22 4.024A.999.999 0 0 0 3 5v12.202c0 .468.324.873.78.975l8 1.798a.977.977 0 0 0 .44 0l8-1.798a.998.998 0 0 0 .78-.975V5c0-.304-.138-.59-.375-.782z" id="a"/></defs><g fill-rule="evenodd"><mask id="b"><use xlink:href="#a"/></mask><use xlink:href="#a"/><g mask="url(#b)"><rect width="24" height="24"/></g></g></svg>