<svg xmlns="http://www.w3.org/2000/svg" viewBox="0 0 24 24"><defs><style>.cls-1{fill:#fff;opacity:0;}.cls-2{fill:#231f20;}</style></defs><title>book-open</title><g id="Layer_2" data-name="Layer 2"><g id="book-open"><g id="book-open-2" data-name="book-open"><rect class="cls-1" width="24" height="24" transform="translate(24 24) rotate(180)"/><path class="cls-2" d="M20.62,4.22a1,1,0,0,0-.84-.2L12,5.77,4.22,4A1,1,0,0,0,3,5V17.2a1,1,0,0,0,.78,1l8,1.8L12,20l.22,0,8-1.8a1,1,0,0,0,.78-1V5A1,1,0,0,0,20.62,4.22ZM5,6.25,11,7.6V17.75L5,16.4ZM19,16.4l-6,1.35V7.6l6-1.35Z"/></g></g></g></svg>