<svg width="24" height="24" xmlns="http://www.w3.org/2000/svg" xmlns:xlink="http://www.w3.org/1999/xlink"><defs><path d="M8 6a1 1 0 1 1 0 2 1 1 0 0 1 0-2zm4 0a1 1 0 1 1 0 2 1 1 0 0 1 0-2zM5 9V6c0-.552.449-1 1-1h12c.551 0 1 .448 1 1v3H5zm14 9c0 .552-.449 1-1 1H6c-.551 0-1-.448-1-1v-7h14v7zM18 3H6C4.346 3 3 4.346 3 6v12c0 1.654 1.346 3 3 3h12c1.654 0 3-1.346 3-3V6c0-1.654-1.346-3-3-3z" id="a"/></defs><g fill-rule="evenodd"><mask id="b"><use xlink:href="#a"/></mask><use xlink:href="#a"/><g mask="url(#b)"><rect width="24" height="24"/></g></g></svg>