<svg width="24" height="24" xmlns="http://www.w3.org/2000/svg" xmlns:xlink="http://www.w3.org/1999/xlink"><defs><path d="M17.766 7.393l-5.867 5.865a4.137 4.137 0 0 0-.521-.636 3.994 3.994 0 0 0-.637-.517l5.869-5.867a.84.84 0 0 1 1.157 0 .794.794 0 0 1 .233.59.782.782 0 0 1-.234.565M8.246 17.94l-2.228.04.039-2.23a2.4 2.4 0 0 1 2.339-2.338l.04-.001c.584 0 1.125.22 1.528.624.413.412.634.968.624 1.566a2.4 2.4 0 0 1-2.342 2.339M20 6.828a2.76 2.76 0 0 0-.82-2.004c-1.061-1.061-2.924-1.064-3.984 0l-6.613 6.61c-.075-.004-.147-.02-.222-.021-2.334.042-4.265 1.973-4.304 4.304L4 18.983A1 1 0 0 0 5 20h.019l3.266-.06c2.332-.04 4.262-1.971 4.303-4.304 0-.075-.015-.146-.017-.222l6.609-6.607c.538-.538.83-1.25.82-1.98" id="a"/></defs><g fill-rule="evenodd"><mask id="b"><use xlink:href="#a"/></mask><use xlink:href="#a"/><g mask="url(#b)"><rect width="24" height="24"/></g></g></svg>