<svg width="24" height="24" xmlns="http://www.w3.org/2000/svg" xmlns:xlink="http://www.w3.org/1999/xlink"><defs><path d="M13.501 14.593c-.31.179-.501.51-.501.867V20h-2v-4.54c0-.357-.191-.688-.501-.867A2.996 2.996 0 0 1 12 9a2.996 2.996 0 1 1 1.501 5.593M12 7c2.757 0 5 2.243 5 5a5.007 5.007 0 0 1-2 3.996V20c0 1.103-.897 2-2 2h-2c-1.103 0-2-.897-2-2v-4.004A5.005 5.005 0 0 1 7 12c0-2.757 2.243-5 5-5zm0-1a1 1 0 0 1-1-1V3a1 1 0 1 1 2 0v2a1 1 0 0 1-1 1zm9 5a1 1 0 1 1 0 2h-2a1 1 0 1 1 0-2h2zM5 11a1 1 0 1 1 0 2H3a1 1 0 1 1 0-2h2zm2.66-4.582a1 1 0 0 1-1.39 1.439L4.83 6.468a1 1 0 0 1 1.39-1.44l1.44 1.39zm11.532-1.364a.999.999 0 0 1-.024 1.413l-1.439 1.39a.996.996 0 0 1-1.413-.025.999.999 0 0 1 .024-1.413l1.44-1.39a1 1 0 0 1 1.412.025z" id="a"/></defs><g fill-rule="evenodd"><mask id="b"><use xlink:href="#a"/></mask><use xlink:href="#a"/><g mask="url(#b)"><rect width="24" height="24"/></g></g></svg>