<svg width="24" height="24" xmlns="http://www.w3.org/2000/svg" xmlns:xlink="http://www.w3.org/1999/xlink"><defs><path d="M8 15c.55 0 1 .45 1 1s-.45 1-1 1-1-.45-1-1 .45-1 1-1zm8 0c.55 0 1 .45 1 1s-.45 1-1 1h-4c-.55 0-1-.45-1-1s.45-1 1-1h4zm2 5H6c-.551 0-1-.449-1-1v-6h14v6c0 .551-.449 1-1 1M6 6h1v1c0 .55.45 1 1 1s1-.45 1-1V6h6v1c0 .55.45 1 1 1s1-.45 1-1V6h1c.551 0 1 .449 1 1v4H5V7c0-.551.449-1 1-1m12-2h-1V3c0-.55-.45-1-1-1s-1 .45-1 1v1H9V3c0-.55-.45-1-1-1s-1 .45-1 1v1H6C4.346 4 3 5.346 3 7v12c0 1.654 1.346 3 3 3h12c1.654 0 3-1.346 3-3V7c0-1.654-1.346-3-3-3" id="a"/></defs><g fill-rule="evenodd"><mask id="b"><use xlink:href="#a"/></mask><use xlink:href="#a"/><g mask="url(#b)"><rect width="24" height="24"/></g></g></svg>