<svg xmlns="http://www.w3.org/2000/svg" viewBox="0 0 24 24"><defs><style>.cls-1{fill:#fff;opacity:0;}.cls-2{fill:#231f20;}</style></defs><title>cast</title><g id="Layer_2" data-name="Layer 2"><g id="cast"><g id="cast-2" data-name="cast"><polyline class="cls-1" points="24 24 0 24 0 0"/><path class="cls-2" d="M18.4,3H5.6A2.7,2.7,0,0,0,3,5.78V7A1,1,0,0,0,5,7V5.78A.72.72,0,0,1,5.6,5H18.4a.72.72,0,0,1,.6.78V18.22a.72.72,0,0,1-.6.78H17a1,1,0,0,0,0,2h1.4A2.7,2.7,0,0,0,21,18.22V5.78A2.7,2.7,0,0,0,18.4,3Z"/><path class="cls-2" d="M3.86,14A1,1,0,0,0,3,15.17,1,1,0,0,0,4.14,16a2.49,2.49,0,0,1,2.12.72,2.52,2.52,0,0,1,.51,2.84,1,1,0,0,0,.48,1.33,1.06,1.06,0,0,0,.42.09,1,1,0,0,0,.91-.58A4.52,4.52,0,0,0,3.86,14Z"/><path class="cls-2" d="M3.86,10.08a1,1,0,0,0,.28,2,6,6,0,0,1,5.09,1.71,6,6,0,0,1,1.53,5.95A1,1,0,0,0,11.44,21a.9.9,0,0,0,.28,0,1,1,0,0,0,1-.72,8,8,0,0,0-8.82-10.2Z"/><circle class="cls-2" cx="4" cy="19" r="1"/></g></g></g></svg>