<svg width="24" height="24" xmlns="http://www.w3.org/2000/svg" xmlns:xlink="http://www.w3.org/1999/xlink"><defs><path d="M18.4 3C19.834 3 21 4.246 21 5.777v12.446C21 19.754 19.834 21 18.4 21H17a1 1 0 1 1 0-2h1.4c.325 0 .6-.356.6-.777V5.777c0-.421-.275-.777-.6-.777H5.6c-.326 0-.6.356-.6.777V7a1 1 0 1 1-2 0V5.777C3 4.246 4.166 3 5.6 3h12.8zM3.863 14.043a4.486 4.486 0 0 1 3.814 1.278 4.533 4.533 0 0 1 .901 5.102 1.001 1.001 0 0 1-1.813-.846 2.521 2.521 0 0 0-.502-2.841 2.514 2.514 0 0 0-2.127-.713.993.993 0 0 1-1.127-.853 1 1 0 0 1 .854-1.127zm0-3.966a7.96 7.96 0 0 1 6.785 2.274 8.038 8.038 0 0 1 2.031 7.928.999.999 0 1 1-1.92-.558 6.038 6.038 0 0 0-1.525-5.956 6 6 0 0 0-5.097-1.708 1 1 0 0 1-.275-1.98zM4 18a1 1 0 1 1 0 2 1 1 0 1 1 0-2z" id="a"/></defs><g fill-rule="evenodd"><mask id="b"><use xlink:href="#a"/></mask><use xlink:href="#a"/><g mask="url(#b)"><rect width="24" height="24"/></g></g></svg>