<svg xmlns="http://www.w3.org/2000/svg" viewBox="0 0 24 24"><defs><style>.cls-1{fill:#fff;opacity:0;}.cls-2{fill:#231f20;}</style></defs><title>charging</title><g id="Layer_2" data-name="Layer 2"><g id="charging"><g id="charging-2" data-name="charging"><rect class="cls-1" width="24" height="24"/><path class="cls-2" d="M21,9a1,1,0,0,0-1,1v4a1,1,0,0,0,2,0V10A1,1,0,0,0,21,9Z"/><path class="cls-2" d="M15.83,6h-3.1L11.59,8h4.23a.5.5,0,0,1,.18.43v7.14a.52.52,0,0,1-.17.43H13l-1.15,2h4A2.31,2.31,0,0,0,18,15.57V8.43A2.31,2.31,0,0,0,15.83,6Z"/><path class="cls-2" d="M4,15.57V8.43A.53.53,0,0,1,4.17,8H7L8.13,6h-4A2.31,2.31,0,0,0,2,8.43v7.14A2.31,2.31,0,0,0,4.17,18h3.1l1.14-2H4.18A.5.5,0,0,1,4,15.57Z"/><path class="cls-2" d="M9,20a1,1,0,0,1-.87-1.5L11.28,13H7a1,1,0,0,1-.86-.5,1,1,0,0,1,0-1l4-7a1,1,0,0,1,1.74,1L8.72,11H13a1,1,0,0,1,.86.5,1,1,0,0,1,0,1l-4,7A1,1,0,0,1,9,20Z"/></g></g></g></svg>