<svg width="24" height="24" xmlns="http://www.w3.org/2000/svg" xmlns:xlink="http://www.w3.org/1999/xlink"><defs><path d="M14.705 8.395l-3.784 4.969-1.633-2.087a.999.999 0 1 0-1.575 1.232l2.43 3.107a1 1 0 0 0 .789.383h.007a.994.994 0 0 0 .788-.394l4.569-6a.999.999 0 1 0-1.591-1.21M12 20c-4.411 0-8-3.589-8-8s3.589-8 8-8 8 3.589 8 8-3.589 8-8 8m0-18C6.477 2 2 6.478 2 12s4.477 10 10 10 10-4.478 10-10S17.523 2 12 2" id="a"/></defs><g fill-rule="evenodd"><mask id="b"><use xlink:href="#a"/></mask><use xlink:href="#a"/><g mask="url(#b)"><rect width="24" height="24"/></g></g></svg>