<svg width="24" height="24" xmlns="http://www.w3.org/2000/svg" xmlns:xlink="http://www.w3.org/1999/xlink"><defs><path d="M14.705 8.395l-3.784 4.969-1.633-2.087a.999.999 0 1 0-1.575 1.232l2.43 3.107a1 1 0 0 0 .789.383h.007a.994.994 0 0 0 .788-.394l4.569-6a.999.999 0 1 0-1.591-1.21M19 18c0 .552-.449 1-1 1H6c-.551 0-1-.448-1-1V6c0-.552.449-1 1-1h12c.551 0 1 .448 1 1v12zM18 3H6C4.346 3 3 4.346 3 6v12c0 1.654 1.346 3 3 3h12c1.654 0 3-1.346 3-3V6c0-1.654-1.346-3-3-3z" id="a"/></defs><g fill-rule="evenodd"><mask id="b"><use xlink:href="#a"/></mask><use xlink:href="#a"/><g mask="url(#b)"><rect width="24" height="24"/></g></g></svg>