<svg width="24" height="24" xmlns="http://www.w3.org/2000/svg" xmlns:xlink="http://www.w3.org/1999/xlink"><defs><path d="M20 11.834a1 1 0 0 1 1 1V18.4a2.604 2.604 0 0 1-2.6 2.6H5.6A2.604 2.604 0 0 1 3 18.4V5.6C3 4.168 4.167 3 5.6 3h9.567a1 1 0 1 1 0 2H5.6a.6.6 0 0 0-.6.6v12.8c0 .33.269.6.6.6h12.8c.331 0 .6-.27.6-.6v-5.566a1 1 0 0 1 1-1zm-9.276-.854l1.505 1.577 6.053-6.253a1 1 0 1 1 1.437 1.391l-6.777 7a.997.997 0 0 1-.718.306h-.004a1 1 0 0 1-.72-.31l-2.223-2.33a1 1 0 1 1 1.447-1.382z" id="a"/></defs><g fill-rule="evenodd"><mask id="b"><use xlink:href="#a"/></mask><use xlink:href="#a"/><g mask="url(#b)"><rect width="24" height="24"/></g></g></svg>