<svg xmlns="http://www.w3.org/2000/svg" viewBox="0 0 24 24"><defs><style>.cls-1{fill:#fff;opacity:0;}.cls-2{fill:#231f20;}</style></defs><title>clipboard</title><g id="Layer_2" data-name="Layer 2"><g id="clipboard"><g id="clipboard-2" data-name="clipboard"><rect class="cls-1" width="24" height="24"/><path class="cls-2" d="M18,5V4a2,2,0,0,0-2-2H8A2,2,0,0,0,6,4V5A3,3,0,0,0,3,8V19a3,3,0,0,0,3,3H18a3,3,0,0,0,3-3V8A3,3,0,0,0,18,5ZM8,4h8V8H8V4ZM19,19a1,1,0,0,1-1,1H6a1,1,0,0,1-1-1V8A1,1,0,0,1,6,7V8a2,2,0,0,0,2,2h8a2,2,0,0,0,2-2V7a1,1,0,0,1,1,1Z"/></g></g></g></svg>