<svg width="24" height="24" xmlns="http://www.w3.org/2000/svg" xmlns:xlink="http://www.w3.org/1999/xlink"><defs><path d="M8.64 5.231c.425.354.482.984.129 1.41l-4.477 5.37 4.316 5.362a1 1 0 0 1-1.56 1.254l-4.827-6a1 1 0 0 1 .01-1.268l5-6a1.001 1.001 0 0 1 1.41-.128zm13.14 6.142a1 1 0 0 1-.012 1.268l-5 6a.998.998 0 0 1-1.409.128 1.003 1.003 0 0 1-.128-1.41l4.477-5.37-4.316-5.362a1 1 0 0 1 1.56-1.254l4.827 6z" id="a"/></defs><g fill-rule="evenodd"><mask id="b"><use xlink:href="#a"/></mask><use xlink:href="#a"/><g mask="url(#b)"><rect width="24" height="24"/></g></g></svg>