<svg width="24" height="24" xmlns="http://www.w3.org/2000/svg" xmlns:xlink="http://www.w3.org/1999/xlink"><defs><path d="M4.292 12.01l4.315 5.363a1 1 0 1 1-1.558 1.254l-4.828-6a1 1 0 0 1 .01-1.267l5-6a1.003 1.003 0 0 1 1.41-.128c.423.353.481.984.128 1.409l-4.477 5.37zm17.487-.637a1 1 0 0 1-.01 1.268l-5 6a.998.998 0 0 1-1.41.128 1.003 1.003 0 0 1-.128-1.41l4.477-5.37-4.316-5.362a1 1 0 0 1 1.56-1.254l4.827 6zm-6.06.036a1 1 0 0 1-.024 1.414l-3 2.897a1.003 1.003 0 0 1-1.402-.013l-3-3a1 1 0 0 1 1.414-1.414L11 12.585V8a1 1 0 1 1 2 0v4.644l1.306-1.26a1 1 0 0 1 1.414.025z" id="a"/></defs><g fill-rule="evenodd"><mask id="b"><use xlink:href="#a"/></mask><use xlink:href="#a"/><g mask="url(#b)"><rect width="24" height="24"/></g></g></svg>