<svg width="24" height="24" xmlns="http://www.w3.org/2000/svg" xmlns:xlink="http://www.w3.org/1999/xlink"><defs><path d="M19 9a1 1 0 0 1 0 2l-4.976-.003a1 1 0 0 1-1-.995l-.023-4.997A1 1 0 0 1 13.995 4H14a1 1 0 0 1 1 .995l.011 2.578 3.28-3.28a1 1 0 1 1 1.415 1.414l-3.291 3.292L19 9zm-8.998 4.025a1 1 0 0 1 .994 1l.005 4.974a1.001 1.001 0 0 1-2 .002l-.002-2.585-3.292 3.291a1 1 0 0 1-1.413-1.414l3.279-3.28L4.995 15A1 1 0 0 1 5 13h.005l4.997.025z" id="a"/></defs><g fill-rule="evenodd"><mask id="b"><use xlink:href="#a"/></mask><use xlink:href="#a"/><g mask="url(#b)"><rect width="24" height="24"/></g></g></svg>