<svg xmlns="http://www.w3.org/2000/svg" viewBox="0 0 24 24"><defs><style>.cls-1{fill:#fff;opacity:0;}.cls-2{fill:#231f20;}</style></defs><title>color-palette</title><g id="Layer_2" data-name="Layer 2"><g id="color-palette"><g id="color-palette-2" data-name="color-palette"><rect class="cls-1" width="24" height="24"/><path class="cls-2" d="M19.54,5.08A10.61,10.61,0,0,0,11.91,2h0a10,10,0,0,0-.05,20h0a2.58,2.58,0,0,0,2.53-1.89,2.52,2.52,0,0,0-.57-2.28.5.5,0,0,1,.37-.83h1.65A6.15,6.15,0,0,0,22,11.33,8.48,8.48,0,0,0,19.54,5.08ZM15.88,15H14.23a2.49,2.49,0,0,0-1.87,4.15.49.49,0,0,1,.12.49c-.05.21-.28.34-.59.36a8,8,0,0,1-7.82-9.11A8.1,8.1,0,0,1,11.92,4H12a8.47,8.47,0,0,1,6.1,2.48A6.5,6.5,0,0,1,20,11.25,4.17,4.17,0,0,1,15.88,15Z"/><circle class="cls-2" cx="12" cy="6.5" r="1.5"/><path class="cls-2" d="M15.25,7.2a1.5,1.5,0,1,0,2.05.55A1.5,1.5,0,0,0,15.25,7.2Z"/><path class="cls-2" d="M8.75,7.2A1.5,1.5,0,1,0,9.3,9.25,1.5,1.5,0,0,0,8.75,7.2Z"/><path class="cls-2" d="M6.16,11.26a1.5,1.5,0,1,0,2.08.4A1.49,1.49,0,0,0,6.16,11.26Z"/></g></g></g></svg>