<svg width="24" height="24" xmlns="http://www.w3.org/2000/svg" xmlns:xlink="http://www.w3.org/1999/xlink"><defs><path d="M10.797 13.213l.714-1.742 1.692-.684-.714 1.742-1.692.684zm4.886-4.895a1.002 1.002 0 0 0-1.1-.246l-4.212 1.702a.998.998 0 0 0-.551.548L8.075 14.58a.991.991 0 0 0 .178 1.028c.008.01.014.023.023.034.016.017.035.03.053.048a1 1 0 0 0 .713.31c.125 0 .252-.023.374-.072l4.213-1.701a1 1 0 0 0 .55-.55l1.746-4.257a.993.993 0 0 0-.242-1.102zM12 20c-4.411 0-8-3.589-8-8s3.589-8 8-8 8 3.589 8 8-3.589 8-8 8m0-18C6.486 2 2 6.486 2 12s4.486 10 10 10 10-4.486 10-10S17.514 2 12 2" id="a"/></defs><g fill-rule="evenodd"><mask id="b"><use xlink:href="#a"/></mask><use xlink:href="#a"/><g mask="url(#b)"><rect width="24" height="24"/></g></g></svg>