<svg xmlns="http://www.w3.org/2000/svg" viewBox="0 0 24 24"><defs><style>.cls-1{fill:#fff;opacity:0;}.cls-2{fill:#231f20;}</style></defs><title>compass</title><g id="Layer_2" data-name="Layer 2"><g id="compass"><g id="compass-2" data-name="compass"><rect class="cls-1" width="24" height="24"/><path class="cls-2" d="M12,2A10,10,0,1,0,22,12,10,10,0,0,0,12,2Zm0,18a8,8,0,1,1,8-8A8,8,0,0,1,12,20Z"/><path class="cls-2" d="M15.68,8.32a1,1,0,0,0-1.1-.25l-4.21,1.7a1,1,0,0,0-.55.55L8.07,14.58a1,1,0,0,0,.18,1l0,0,.05,0A1,1,0,0,0,9,16a1,1,0,0,0,.38-.07l4.21-1.7a1,1,0,0,0,.55-.55l1.75-4.26A1,1,0,0,0,15.68,8.32ZM10.8,13.21l.71-1.74,1.69-.68-.71,1.74Z"/></g></g></g></svg>