<svg xmlns="http://www.w3.org/2000/svg" viewBox="0 0 24 24"><defs><style>.cls-1{fill:#fff;opacity:0;}.cls-2{fill:#231f20;}</style></defs><title>corner-down-right</title><g id="Layer_2" data-name="Layer 2"><g id="corner-down-right"><g id="corner-down-right-2" data-name="corner-down-right"><rect class="cls-1" width="24" height="24" transform="translate(0 24) rotate(-90)"/><path class="cls-2" d="M19.78,12.38l-4-5a1,1,0,0,0-1.56,1.24L16.92,12H8a1,1,0,0,1-1-1V6A1,1,0,0,0,5,6v5a3,3,0,0,0,3,3h8.92l-2.7,3.38a1,1,0,0,0,.16,1.4A1,1,0,0,0,15,19a1,1,0,0,0,.78-.38l4-5A1,1,0,0,0,19.78,12.38Z"/></g></g></g></svg>