<svg xmlns="http://www.w3.org/2000/svg" viewBox="0 0 24 24"><defs><style>.cls-1{fill:#fff;opacity:0;}.cls-2{fill:#231f20;}</style></defs><title>corner-up-right</title><g id="Layer_2" data-name="Layer 2"><g id="corner-up-right"><g id="corner-up-right-2" data-name="corner-up-right"><rect class="cls-1" width="24" height="24" transform="translate(0 24) rotate(-90)"/><path class="cls-2" d="M19.78,10.38l-4-5a1,1,0,0,0-1.56,1.24L16.92,10H8a3,3,0,0,0-3,3v5a1,1,0,0,0,2,0V13a1,1,0,0,1,1-1h8.92l-2.7,3.38a1,1,0,0,0,.16,1.4A1,1,0,0,0,15,17a1,1,0,0,0,.78-.38l4-5A1,1,0,0,0,19.78,10.38Z"/></g></g></g></svg>