<svg width="24" height="24" xmlns="http://www.w3.org/2000/svg" xmlns:xlink="http://www.w3.org/1999/xlink"><defs><path d="M19.97 5.996a1 1 0 0 0-1-.996h-.003a1 1 0 0 0-.996 1.004l.02 5a.997.997 0 0 1-.995 1.004l-8.92.037 2.687-3.386a1 1 0 0 0-1.567-1.243l-3.98 5.016c-.29.367-.287.885.006 1.25l4.02 4.983a.998.998 0 0 0 1.407.15 1 1 0 0 0 .15-1.406l-2.714-3.364 8.919-.037a2.981 2.981 0 0 0 2.118-.887 2.984 2.984 0 0 0 .87-2.125l-.021-5z" id="a"/></defs><g fill-rule="evenodd"><mask id="b"><use xlink:href="#a"/></mask><use xlink:href="#a"/><g mask="url(#b)"><rect width="24" height="24"/></g></g></svg>