<svg xmlns="http://www.w3.org/2000/svg" viewBox="0 0 24 24"><defs><style>.cls-1{fill:#fff;opacity:0;}.cls-2{fill:#231f20;}</style></defs><title>credit-card</title><g id="Layer_2" data-name="Layer 2"><g id="credit-card"><g id="credit-card-2" data-name="credit-card"><rect class="cls-1" width="24" height="24"/><path class="cls-2" d="M19,5H5A3,3,0,0,0,2,8v8a3,3,0,0,0,3,3H19a3,3,0,0,0,3-3V8A3,3,0,0,0,19,5ZM4,8A1,1,0,0,1,5,7H19a1,1,0,0,1,1,1V9H4Zm16,8a1,1,0,0,1-1,1H5a1,1,0,0,1-1-1V11H20Z"/><path class="cls-2" d="M7,15h4a1,1,0,0,0,0-2H7a1,1,0,0,0,0,2Z"/><path class="cls-2" d="M15,15h2a1,1,0,0,0,0-2H15a1,1,0,0,0,0,2Z"/></g></g></g></svg>