<svg width="24" height="24" xmlns="http://www.w3.org/2000/svg" xmlns:xlink="http://www.w3.org/1999/xlink"><defs><path d="M8.556 16A.557.557 0 0 1 8 15.444V8h7.445c.306 0 .555.249.555.556V16H8.556zM21 16h-3V8.556A2.558 2.558 0 0 0 15.445 6H8V3a1 1 0 1 0-2 0v3H3a1 1 0 1 0 0 2h3v7.444A2.559 2.559 0 0 0 8.556 18H16v3a1 1 0 1 0 2 0v-3h3a1 1 0 1 0 0-2z" id="a"/></defs><g fill-rule="evenodd"><mask id="b"><use xlink:href="#a"/></mask><use xlink:href="#a"/><g mask="url(#b)"><rect width="24" height="24"/></g></g></svg>