<svg width="24" height="24" xmlns="http://www.w3.org/2000/svg" xmlns:xlink="http://www.w3.org/1999/xlink"><defs><path d="M18.69 15.963L13 18.607V11.89l6-2.787v6.435c0 .174-.118.336-.31.424zm-13.387 0c-.189-.087-.305-.25-.303-.431V9.104l6 2.787v6.718l-5.697-2.645zm6.404-10.9a.687.687 0 0 1 .585 0l5.33 2.475L12 10.15 6.378 7.538l5.33-2.474zm8.95 2.196c-.004-.008-.003-.017-.007-.025-.003-.008-.01-.013-.016-.021-.046-.076-.102-.143-.155-.213-.03-.034-.056-.072-.09-.101a2.523 2.523 0 0 0-.856-.678l-6.4-2.973-.002-.001a2.7 2.7 0 0 0-2.265 0L4.47 6.22a2.524 2.524 0 0 0-.857.677c-.037.03-.064.073-.097.11-.052.067-.105.132-.149.204-.005.009-.013.015-.017.023-.004.009-.003.018-.007.027A2.379 2.379 0 0 0 3 8.458v7.067c-.008.95.564 1.834 1.458 2.252l6.4 2.972a2.688 2.688 0 0 0 2.275 0l6.397-2.971c.892-.412 1.47-1.29 1.47-2.238V8.457a2.387 2.387 0 0 0-.344-1.198z" id="a"/></defs><g fill-rule="evenodd"><mask id="b"><use xlink:href="#a"/></mask><use xlink:href="#a"/><g mask="url(#b)"><rect width="24" height="24"/></g></g></svg>