<svg xmlns="http://www.w3.org/2000/svg" viewBox="0 0 24 24"><defs><style>.cls-1{fill:#fff;opacity:0;}.cls-2{fill:#231f20;}</style></defs><title>diagonal-arrow-right-up</title><g id="Layer_2" data-name="Layer 2"><g id="diagonal-arrow-right-up"><g id="diagonal-arrow-right-up-2" data-name="diagonal-arrow-right-up"><rect class="cls-1" width="24" height="24" transform="translate(24 24) rotate(180)"/><path class="cls-2" d="M18,7.05a1,1,0,0,0-1-1L9,6H9A1,1,0,0,0,9,8l5.56,0L6.29,16.29a1,1,0,0,0,0,1.42,1,1,0,0,0,1.42,0L16,9.42V15a1,1,0,0,0,1,1h0a1,1,0,0,0,1-1Z"/></g></g></g></svg>