<svg xmlns="http://www.w3.org/2000/svg" viewBox="0 0 24 24"><defs><style>.cls-1{fill:#fff;opacity:0;}.cls-2{fill:#231f20;}</style></defs><title>diagonal-arrow-left-up</title><g id="Layer_2" data-name="Layer 2"><g id="diagonal-arrow-left-up"><g id="diagonal-arrow-left-up-2" data-name="diagonal-arrow-left-up"><rect class="cls-1" width="24" height="24" transform="translate(24 0) rotate(90)"/><path class="cls-2" d="M17.71,16.29,9.42,8H15a1,1,0,0,0,0-2H7.05a1,1,0,0,0-1,1l0,8a1,1,0,0,0,1,1H7a1,1,0,0,0,1-1L8,9.45l8.26,8.26a1,1,0,0,0,1.42,0A1,1,0,0,0,17.71,16.29Z"/></g></g></g></svg>