<svg width="24" height="24" xmlns="http://www.w3.org/2000/svg" xmlns:xlink="http://www.w3.org/1999/xlink"><defs><path d="M11.003 12.076A1.015 1.015 0 0 1 11 12V4a1 1 0 1 1 2 0v8l2.4-1.8a1 1 0 1 1 1.2 1.6l-4 3a1 1 0 0 1-1.175.018l-4-2.814a1 1 0 1 1 1.15-1.636l2.428 1.708zM20 19c0 .55-.45 1-1 1H5c-.55 0-1-.45-1-1v-2c0-.55.45-1 1-1s1 .45 1 1v1h12v-1c0-.55.45-1 1-1s1 .45 1 1v2z" id="a"/></defs><g fill-rule="evenodd"><mask id="b"><use xlink:href="#a"/></mask><use xlink:href="#a"/><g mask="url(#b)"><rect width="24" height="24"/></g></g></svg>