<svg xmlns="http://www.w3.org/2000/svg" viewBox="0 0 24.2 24.2"><defs><style>.cls-1{fill:#fff;opacity:0;}.cls-2{fill:#231f20;}</style></defs><title>droplet-outline</title><g id="Layer_2" data-name="Layer 2"><g id="droplet-outline"><g id="droplet-outline-2" data-name="droplet-outline"><rect class="cls-1" x="0.1" y="0.1" width="24" height="24" transform="translate(0.1 -0.1) rotate(0.48)"/><path class="cls-2" d="M12,21.1a7.4,7.4,0,0,1-5.28-2.28A7.73,7.73,0,0,1,6.82,8.05L11.46,3.4a.94.94,0,0,1,.71-.3h0a1,1,0,0,1,.71.31l4.56,4.72a7.73,7.73,0,0,1-.09,10.77A7.33,7.33,0,0,1,12,21.1Zm.13-15.57L8.24,9.45a5.74,5.74,0,0,0-.07,8A5.43,5.43,0,0,0,12,19.1h0a5.42,5.42,0,0,0,3.9-1.61,5.72,5.72,0,0,0,.06-8Z"/></g></g></g></svg>