<svg width="24" height="24" xmlns="http://www.w3.org/2000/svg" xmlns:xlink="http://www.w3.org/1999/xlink"><defs><path d="M12.559 5.429l-3.91 3.926c-2.176 2.183-2.205 5.759-.068 7.972A5.4 5.4 0 0 0 12.448 19h.002a5.405 5.405 0 0 0 3.895-1.61c2.174-2.179 2.203-5.754.065-7.969l-3.851-3.992zM12.432 21a7.388 7.388 0 0 1-5.29-2.284c-2.89-2.992-2.85-7.823.087-10.77l4.633-4.651c.19-.19.448-.297.717-.295.269.003.525.114.71.306l4.56 4.727c2.889 2.993 2.85 7.825-.087 10.769A7.387 7.387 0 0 1 12.434 21h-.002z" id="a"/></defs><g fill-rule="evenodd"><mask id="b"><use xlink:href="#a"/></mask><use xlink:href="#a"/><g mask="url(#b)"><rect width="24" height="24"/></g></g></svg>