<svg width="24" height="24" xmlns="http://www.w3.org/2000/svg" xmlns:xlink="http://www.w3.org/1999/xlink"><defs><path d="M12.002 19a5.372 5.372 0 0 0 3.145-1.024l1.431 1.43A7.355 7.355 0 0 1 12.002 21H12a7.387 7.387 0 0 1-5.309-2.239c-2.657-2.706-2.884-6.957-.698-9.939l1.432 1.432c-1.429 2.191-1.198 5.18.693 7.106A5.403 5.403 0 0 0 12 19h.002zm-.005-13.571l-1.851 1.89-1.414-1.415 2.55-2.603A1 1 0 0 1 11.996 3c.269 0 .526.109.714.3l4.599 4.688c2.162 2.203 2.718 5.43 1.67 8.164l-1.607-1.61c.373-1.802-.12-3.757-1.491-5.154l-3.884-3.96zm8.71 13.864a.999.999 0 1 1-1.414 1.414l-16-16a.999.999 0 1 1 1.414-1.414l16 16z" id="a"/></defs><g fill-rule="evenodd"><mask id="b"><use xlink:href="#a"/></mask><use xlink:href="#a"/><g mask="url(#b)"><rect width="24" height="24"/></g></g></svg>