<svg width="24" height="24" xmlns="http://www.w3.org/2000/svg" xmlns:xlink="http://www.w3.org/1999/xlink"><defs><path d="M6.366 12.94l5.617-5.617 2.696 2.696-5.6 5.606-2.977.27.264-2.955zm8.905-8.905l2.695 2.694-1.948 1.95-2.695-2.696 1.948-1.948zM5.001 18a.999.999 0 0 1-.996-1.09l.378-4.171a1.97 1.97 0 0 1 .57-1.213l8.995-8.997c.702-.704 1.976-.67 2.716.07l2.738 2.738h.001c.766.767.796 1.984.068 2.714l-8.997 8.997a1.967 1.967 0 0 1-1.213.569l-4.17.379a.937.937 0 0 1-.09.004zM19 20c.55 0 1 .45 1 1s-.45 1-1 1H5c-.55 0-1-.45-1-1s.45-1 1-1h14z" id="a"/></defs><g fill-rule="evenodd"><mask id="b"><use xlink:href="#a"/></mask><use xlink:href="#a"/><g mask="url(#b)"><rect width="24" height="24"/></g></g></svg>