<svg width="24" height="24" xmlns="http://www.w3.org/2000/svg" xmlns:xlink="http://www.w3.org/1999/xlink"><defs><path d="M19.997 5.024L20 10a1 1 0 0 1-1 1 1 1 0 0 1-1-.999l-.002-2.585-3.291 3.291a.997.997 0 0 1-1.414 0 1 1 0 0 1 0-1.414l3.28-3.28L13.996 6A1.001 1.001 0 0 1 14 4h.005l4.997.025a1 1 0 0 1 .995 1zm-9.29 8.269a.999.999 0 0 1 0 1.414l-3.292 3.292L10 18a1 1 0 1 1 0 2h-.001l-4.975-.003a1 1 0 0 1-.999-.995L4 14.005A1 1 0 0 1 4.995 13H5a1 1 0 0 1 1 .995l.013 2.578 3.28-3.28a.999.999 0 0 1 1.414 0z" id="a"/></defs><g fill-rule="evenodd"><mask id="b"><use xlink:href="#a"/></mask><use xlink:href="#a"/><g mask="url(#b)"><rect width="24" height="24"/></g></g></svg>