<svg width="24" height="24" xmlns="http://www.w3.org/2000/svg" xmlns:xlink="http://www.w3.org/1999/xlink"><defs><path d="M17.81 13.395a8.947 8.947 0 0 0 3.182-5.771 1 1 0 0 0-1.984-.249C18.57 10.867 15.556 13.5 12 13.5s-6.569-2.633-7.008-6.125a1 1 0 1 0-1.984.249 8.947 8.947 0 0 0 3.183 5.771L3.88 15.707a1.003 1.003 0 0 0 0 1.414 1.003 1.003 0 0 0 1.414 0l2.603-2.603c.954.482 2.001.8 3.104.921V19c0 .55.45 1 1 1s1-.45 1-1v-3.561a9.062 9.062 0 0 0 3.103-.921l2.604 2.603a1.003 1.003 0 0 0 1.414 0 1.003 1.003 0 0 0 0-1.414l-2.312-2.312z" id="a"/></defs><g fill-rule="evenodd"><mask id="b"><use xlink:href="#a"/></mask><use xlink:href="#a"/><g mask="url(#b)"><rect width="24" height="24"/></g></g></svg>