<svg width="24" height="24" xmlns="http://www.w3.org/2000/svg" xmlns:xlink="http://www.w3.org/1999/xlink"><defs><path d="M12 13.5c-.827 0-1.5-.673-1.5-1.5 0-.025.011-.049.012-.074l1.562 1.562c-.025.001-.049.012-.074.012zM4.707 3.293l16 16a.999.999 0 1 1-1.414 1.414l-5.63-5.63A3.471 3.471 0 0 1 12 15.5c-1.93 0-3.5-1.57-3.5-3.5 0-.589.147-1.154.423-1.663l-5.63-5.63a.999.999 0 1 1 1.414-1.414zm7.513 13.705a7.29 7.29 0 0 0 1.698-.251l1.58 1.58a9.35 9.35 0 0 1-3.473.673c-5.863 0-9.263-5.405-9.892-6.502a.999.999 0 0 1 0-.995 15.605 15.605 0 0 1 2.912-3.63l1.41 1.412a13.432 13.432 0 0 0-2.282 2.71c.932 1.42 3.742 5.103 8.047 5.003zm9.648-5.496c.176.308.176.687 0 .995a15.644 15.644 0 0 1-2.913 3.63l-1.411-1.412a13.398 13.398 0 0 0 2.283-2.71c-.932-1.42-3.755-5.11-8.046-5.003-.6.015-1.163.11-1.7.251l-1.58-1.58a9.356 9.356 0 0 1 3.229-.67c5.975-.187 9.5 5.387 10.138 6.5z" id="a"/></defs><g fill-rule="evenodd"><mask id="b"><use xlink:href="#a"/></mask><use xlink:href="#a"/><g mask="url(#b)"><rect width="24" height="24"/></g></g></svg>