<svg width="24" height="24" xmlns="http://www.w3.org/2000/svg" xmlns:xlink="http://www.w3.org/1999/xlink"><defs><path d="M12 13.5c-.827 0-1.5-.673-1.5-1.5s.673-1.5 1.5-1.5 1.5.673 1.5 1.5-.673 1.5-1.5 1.5m0-5c-1.93 0-3.5 1.57-3.5 3.5s1.57 3.5 3.5 3.5 3.5-1.57 3.5-3.5-1.57-3.5-3.5-3.5m.22 8.498c-4.306.1-7.115-3.583-8.047-5.002 1.026-1.605 3.61-4.891 7.608-4.993 4.289-.11 7.114 3.583 8.046 5.002-1.025 1.605-3.61 4.89-7.607 4.993m9.648-5.495c-.638-1.112-4.162-6.686-10.138-6.5-5.528.14-8.743 5.01-9.597 6.5a.999.999 0 0 0 0 .995C2.762 13.595 6.162 19 12.025 19l.246-.003c5.527-.141 8.743-5.01 9.597-6.5a1.004 1.004 0 0 0 0-.994" id="a"/></defs><g fill-rule="evenodd"><mask id="b"><use xlink:href="#a"/></mask><use xlink:href="#a"/><g mask="url(#b)"><rect width="24" height="24"/></g></g></svg>