<svg xmlns="http://www.w3.org/2000/svg" viewBox="0 0 24 24"><defs><style>.cls-1{fill:#fff;opacity:0;}.cls-2{fill:#231f20;}</style></defs><title>facebook</title><g id="Layer_2" data-name="Layer 2"><g id="facebook"><g id="facebook-2" data-name="facebook"><rect class="cls-1" width="24" height="24" transform="translate(24 24) rotate(180)"/><rect class="cls-1" width="24" height="24" transform="translate(24 24) rotate(180)"/><path class="cls-2" d="M13,22H9a1,1,0,0,1-1-1V14.8H6a1,1,0,0,1-1-1V10.2a1,1,0,0,1,1-1H8V7.5A5.77,5.77,0,0,1,14,2h3a1,1,0,0,1,1,1V6.6a1,1,0,0,1-1,1H14V9.2h3a1,1,0,0,1,.8.39,1,1,0,0,1,.16.88l-1,3.6a1,1,0,0,1-1,.73H14V21A1,1,0,0,1,13,22Zm-3-2h2V13.8a1,1,0,0,1,1-1h2.24l.44-1.6H13a1,1,0,0,1-1-1V7.5a2,2,0,0,1,2-1.9h2V4H14a3.78,3.78,0,0,0-4,3.5v2.7a1,1,0,0,1-1,1H7v1.6H9a1,1,0,0,1,1,1Z"/></g></g></g></svg>