<svg width="24" height="24" xmlns="http://www.w3.org/2000/svg" xmlns:xlink="http://www.w3.org/1999/xlink"><defs><path d="M10 20h2v-6.2a1 1 0 0 1 1-1h2.24l.445-1.6H13a1 1 0 0 1-1-1V7.5c0-1.048.897-1.9 2-1.9h2V4h-2c-2.206 0-4 1.57-4 3.5v2.7a1 1 0 0 1-1 1H7v1.6h2a1 1 0 0 1 1 1V20zm3 2H9a1 1 0 0 1-1-1v-6.2H6a1 1 0 0 1-1-1v-3.6a1 1 0 0 1 1-1h2V7.5C8 4.468 10.691 2 14 2h3a1 1 0 0 1 1 1v3.6a1 1 0 0 1-1 1h-3v1.6h3a1.003 1.003 0 0 1 .964 1.268l-1 3.599A1 1 0 0 1 16 14.8h-2V21a1 1 0 0 1-1 1z" id="a"/></defs><g fill-rule="evenodd"><mask id="b"><use xlink:href="#a"/></mask><use xlink:href="#a"/><g mask="url(#b)"><rect width="24" height="24"/></g></g></svg>