<svg xmlns="http://www.w3.org/2000/svg" viewBox="0 0 24 24"><defs><style>.cls-1{fill:#fff;opacity:0;}.cls-2{fill:#231f20;}</style></defs><title>file-remove</title><g id="Layer_2" data-name="Layer 2"><g id="file-remove"><g id="file-remove-2" data-name="file-remove"><rect class="cls-1" width="24" height="24"/><path class="cls-2" d="M19.74,8.33l-5.44-6A1,1,0,0,0,13.56,2h-7A2.53,2.53,0,0,0,4,4.5v15A2.53,2.53,0,0,0,6.56,22H17.44A2.53,2.53,0,0,0,20,19.5V9A1,1,0,0,0,19.74,8.33ZM14,5l2.74,3h-2A.79.79,0,0,1,14,7.15Zm3.44,15H6.56A.53.53,0,0,1,6,19.5V4.5A.53.53,0,0,1,6.56,4H12V7.15A2.79,2.79,0,0,0,14.71,10H18v9.5A.53.53,0,0,1,17.44,20Z"/><path class="cls-2" d="M14,13H10a1,1,0,0,0,0,2h4a1,1,0,0,0,0-2Z"/></g></g></g></svg>