<svg width="24" height="24" xmlns="http://www.w3.org/2000/svg" xmlns:xlink="http://www.w3.org/1999/xlink"><defs><path d="M15 16a1 1 0 1 1 0 2H9a1 1 0 0 1 0-2h6zm-6-2a1 1 0 0 1 0-2h3a1 1 0 0 1 0 2H9zm8.444 6H6.555C6.25 20 6 19.776 6 19.5v-15c0-.276.25-.5.555-.5H12v3.15C12 8.722 13.217 10 14.714 10H18v9.5c0 .276-.249.5-.556.5zM14 4.978L16.742 8h-2.028C14.32 8 14 7.619 14 7.15V4.978zm5.74 3.35l-5.444-6a1 1 0 0 0-.74-.328h-7C5.145 2 4 3.122 4 4.5v15C4 20.878 5.146 22 6.555 22h10.89C18.852 22 20 20.878 20 19.5V9a1 1 0 0 0-.26-.672z" id="a"/></defs><g fill-rule="evenodd"><mask id="b"><use xlink:href="#a"/></mask><use xlink:href="#a"/><g mask="url(#b)"><rect width="24" height="24"/></g></g></svg>