<svg width="24" height="24" xmlns="http://www.w3.org/2000/svg" xmlns:xlink="http://www.w3.org/1999/xlink"><defs><path d="M20.707 19.293a.999.999 0 1 1-1.414 1.414l-16-16a.999.999 0 1 1 1.414-1.414l16 16zm-8.162-1.236l1.075-1.608 1.442 1.44-3.12 4.667a.997.997 0 0 1-1.172.384 1 1 0 0 1-.653-1.047l.769-7.093H5a1 1 0 0 1-.831-1.555L6.672 9.5l1.44 1.442-1.24 1.858h3.1l2.836 2.836-.262 2.42zm-1.09-12.114L10.38 7.551l-1.442-1.44 3.12-4.667a1 1 0 1 1 1.825.663L13.114 9.2H19a1 1 0 0 1 .831 1.555L17.328 14.5l-1.44-1.442 1.241-1.858h-3.1l-2.836-2.836.262-2.42z" id="a"/></defs><g fill-rule="evenodd"><mask id="b"><use xlink:href="#a"/></mask><use xlink:href="#a"/><g mask="url(#b)"><rect width="24" height="24"/></g></g></svg>