<svg width="24" height="24" xmlns="http://www.w3.org/2000/svg" xmlns:xlink="http://www.w3.org/1999/xlink"><defs><path d="M14 13h-1v-1c0-.55-.45-1-1-1s-1 .45-1 1v1h-1c-.55 0-1 .45-1 1s.45 1 1 1h1v1c0 .55.45 1 1 1s1-.45 1-1v-1h1c.55 0 1-.45 1-1s-.45-1-1-1m6 5.068c0 .238-.224.432-.5.432h-15c-.276 0-.5-.194-.5-.432V5.931c0-.238.224-.43.5-.43h4.126l2.6 3.177c.19.233.474.368.774.368h7.5c.276 0 .5.193.5.432v8.59zm-.5-11.022h-7.026L9.875 3.867a1 1 0 0 0-.774-.367H4.5C3.122 3.5 2 4.59 2 5.931v12.137C2 19.41 3.122 20.5 4.5 20.5h15c1.378 0 2.5-1.09 2.5-2.432v-8.59c0-1.342-1.122-2.432-2.5-2.432z" id="a"/></defs><g fill-rule="evenodd"><mask id="b"><use xlink:href="#a"/></mask><use xlink:href="#a"/><g mask="url(#b)"><rect width="24" height="24"/></g></g></svg>