<svg xmlns="http://www.w3.org/2000/svg" viewBox="0 0 24 24"><defs><style>.cls-1{fill:#fff;opacity:0;}.cls-2{fill:#231f20;}</style></defs><title>funnel</title><g id="Layer_2" data-name="Layer 2"><g id="funnel"><g id="funnel-2" data-name="funnel"><rect class="cls-1" width="24" height="24"/><path class="cls-2" d="M13.9,22a1,1,0,0,1-.6-.2l-4-3.05a1,1,0,0,1-.39-.8V14.68L4.11,5.46A1,1,0,0,1,5,4H19a1,1,0,0,1,.86.49,1,1,0,0,1,0,1l-5,9.21V21a1,1,0,0,1-.55.9A1,1,0,0,1,13.9,22Zm-3-4.54,2,1.53V14.44A1,1,0,0,1,13,14l4.3-8H6.64l4.13,8a1,1,0,0,1,.11.46Z"/></g></g></g></svg>