<svg xmlns="http://www.w3.org/2000/svg" viewBox="0 0 24 24"><defs><style>.cls-1{fill:#fff;opacity:0;}.cls-2{fill:#231f20;}</style></defs><title>gift</title><g id="Layer_2" data-name="Layer 2"><g id="gift"><g id="gift-2" data-name="gift"><rect class="cls-1" width="24" height="24" transform="translate(24 24) rotate(180)"/><path class="cls-2" d="M19.2,7h-.39A3,3,0,0,0,19,6a3.08,3.08,0,0,0-3.14-3A4.46,4.46,0,0,0,12,5.4,4.46,4.46,0,0,0,8.14,3,3.08,3.08,0,0,0,5,6a3,3,0,0,0,.19,1H4.8A2,2,0,0,0,3,9.2v3.6A2.08,2.08,0,0,0,4.5,15v4.37A1.75,1.75,0,0,0,6.31,21H17.69a1.75,1.75,0,0,0,1.81-1.67V15A2.08,2.08,0,0,0,21,12.8V9.2A2,2,0,0,0,19.2,7ZM19,9.2v3.6a.56.56,0,0,1,0,.2H13V9h6A.56.56,0,0,1,19,9.2ZM15.86,5A1.08,1.08,0,0,1,17,6a1.08,1.08,0,0,1-1.14,1H13.4A2.93,2.93,0,0,1,15.86,5ZM7,6A1.08,1.08,0,0,1,8.14,5a2.93,2.93,0,0,1,2.45,2H8.14A1.08,1.08,0,0,1,7,6ZM5,9.2A.56.56,0,0,1,5,9h6v4H5a.56.56,0,0,1,0-.2ZM6.5,15H11v4H6.5ZM13,19V15h4.5v4Z"/></g></g></g></svg>