<svg width="24" height="24" xmlns="http://www.w3.org/2000/svg" xmlns:xlink="http://www.w3.org/1999/xlink"><defs><path d="M16.889 18.318c-.172-.433-.416-.81-.63-1.134-.108-.162-.22-.327-.316-.497-.39-.676-.255-.95.376-2.007l.102-.173c.51-.86.539-1.687.565-2.415.012-.358.024-.695.093-1.012.16-.732 1.708-.927 2.667-1.042.16.63.254 1.284.254 1.962a7.982 7.982 0 0 1-3.111 6.318M4.962 15.8a8.262 8.262 0 0 0 2.026.274c1.08 0 2.183-.264 3.137-1.01 1.716-1.343 1.716-3.059 1.716-4.439 0-.892 0-1.66.372-2.344.2-.366.626-.62 1.119-.915a8.37 8.37 0 0 0 .915-.603 4.592 4.592 0 0 0 1.417-1.866A8.045 8.045 0 0 1 18.99 8.12c-1.428.198-3.455.666-3.864 2.533-.108.494-.125.96-.138 1.37-.021.583-.037 1.044-.287 1.466l-.1.168c-.647 1.083-1.38 2.311-.392 4.028.119.208.252.408.383.607.344.516.513.801.514 1.081A7.955 7.955 0 0 1 12 20a8.008 8.008 0 0 1-7.038-4.2M12 4c.616 0 1.21.076 1.787.208-.17.372-.43.711-.774.98-.218.172-.463.315-.706.46-.651.388-1.388.828-1.85 1.674-.616 1.13-.616 2.284-.616 3.302 0 1.355-.044 2.156-.948 2.863-1.37 1.073-3.464.474-4.76-.07A8.071 8.071 0 0 1 4 12c0-4.41 3.589-8 8-8m0-2C6.486 2 2 6.486 2 12c0 5.513 4.486 10 10 10s10-4.487 10-10c0-5.514-4.486-10-10-10" id="a"/></defs><g fill-rule="evenodd"><mask id="b"><use xlink:href="#a"/></mask><use xlink:href="#a"/><g mask="url(#b)"><rect width="24" height="24"/></g></g></svg>