<svg xmlns="http://www.w3.org/2000/svg" viewBox="0 0 24 24"><defs><style>.cls-1{fill:#fff;opacity:0;}.cls-2{fill:#231f20;}</style></defs><title>google</title><g id="Layer_2" data-name="Layer 2"><g id="google"><g id="google-2" data-name="google"><polyline class="cls-1" points="0 0 24 0 24 24 0 24"/><path class="cls-2" d="M12,22h-.43A10.16,10.16,0,0,1,2,12.29,10,10,0,0,1,16.12,2.88a1.48,1.48,0,0,1,.77.86,1.47,1.47,0,0,1-.1,1.16L15.5,7.28a1.44,1.44,0,0,1-1.83.64A4.5,4.5,0,0,0,8.77,9a4.41,4.41,0,0,0-1.16,3.34,4.36,4.36,0,0,0,1.66,3,4.52,4.52,0,0,0,3.45,1,3.89,3.89,0,0,0,2.63-1.57h-2.9A1.45,1.45,0,0,1,11,13.33V10.65A1.45,1.45,0,0,1,12.45,9.2h8.1A1.46,1.46,0,0,1,22,10.64c0,.63,0,1.7,0,1.88A10,10,0,0,1,12,22ZM12,4a8,8,0,0,0-8,8.24A8.12,8.12,0,0,0,11.65,20,8,8,0,0,0,20,12.42V11.2H13v1.58h5.31l-.41,1.3A6,6,0,0,1,13,18.33,6.58,6.58,0,0,1,8,17a6.33,6.33,0,0,1-.72-9.3A6.52,6.52,0,0,1,14,5.91l.77-1.43A7.9,7.9,0,0,0,12,4Z"/></g></g></g></svg>