<svg width="24" height="24" xmlns="http://www.w3.org/2000/svg" xmlns:xlink="http://www.w3.org/1999/xlink"><defs><path d="M12.003 4c-2.182 0-4.22.861-5.74 2.426a7.936 7.936 0 0 0-2.26 5.809c.118 4.104 3.55 7.583 7.65 7.757 4.382.173 8.119-3.212 8.342-7.573.007-.128.006-.693.004-1.219h-7.002v1.582h5.309L17.9 14.08c-.721 2.314-2.55 3.902-4.89 4.248-1.746.253-3.565-.246-4.988-1.383-1.397-1.113-2.273-2.731-2.405-4.44a6.347 6.347 0 0 1 1.685-4.852c1.666-1.8 4.359-2.493 6.667-1.744l.773-1.429a7.962 7.962 0 0 0-2.74-.48m-.007 17.999c-.141 0-.284-.003-.427-.009-5.128-.217-9.418-4.567-9.565-9.698a9.93 9.93 0 0 1 2.824-7.26A9.927 9.927 0 0 1 12.003 2c1.434 0 2.82.298 4.119.885.36.163.642.473.769.851.129.383.093.807-.1 1.162L15.5 7.282a1.447 1.447 0 0 1-1.835.643c-1.653-.673-3.673-.233-4.895 1.087a4.37 4.37 0 0 0-1.158 3.339c.09 1.158.694 2.262 1.658 3.031.994.793 2.256 1.146 3.448.968 1.1-.163 2.012-.715 2.632-1.568h-2.903c-.8 0-1.45-.65-1.45-1.45V10.65c0-.799.65-1.45 1.45-1.45h8.1c.793 0 1.444.645 1.45 1.438a88.28 88.28 0 0 1-.004 1.882c-.273 5.312-4.716 9.479-9.997 9.479" id="a"/></defs><g fill-rule="evenodd"><mask id="b"><use xlink:href="#a"/></mask><use xlink:href="#a"/><g mask="url(#b)"><rect width="24" height="24"/></g></g></svg>