<svg width="24" height="24" xmlns="http://www.w3.org/2000/svg" xmlns:xlink="http://www.w3.org/1999/xlink"><defs><path d="M15 19v-4h4l.001 4H15zm4-6h-4c-1.103 0-2 .897-2 2v4c0 1.103.897 2 2 2h4c1.103 0 2-.897 2-2v-4c0-1.103-.897-2-2-2zM5 19v-4h4l.001 4H5zm4-6H5c-1.103 0-2 .897-2 2v4c0 1.103.897 2 2 2h4c1.103 0 2-.897 2-2v-4c0-1.103-.897-2-2-2zm6-4V5h4l.001 4H15zm4-6h-4c-1.103 0-2 .897-2 2v4c0 1.103.897 2 2 2h4c1.103 0 2-.897 2-2V5c0-1.103-.897-2-2-2zM5 9V5h4l.001 4H5zm4-6H5c-1.103 0-2 .897-2 2v4c0 1.103.897 2 2 2h4c1.103 0 2-.897 2-2V5c0-1.103-.897-2-2-2z" id="a"/></defs><g fill-rule="evenodd"><mask id="b"><use xlink:href="#a"/></mask><use xlink:href="#a"/><g mask="url(#b)"><rect width="24" height="24"/></g></g></svg>