<svg width="24" height="24" xmlns="http://www.w3.org/2000/svg" xmlns:xlink="http://www.w3.org/1999/xlink"><defs><path d="M16 15c.55 0 1 .45 1 1s-.45 1-1 1h-4c-.55 0-1-.45-1-1s.45-1 1-1h4zm-8 0c.55 0 1 .45 1 1s-.45 1-1 1-1-.45-1-1 .45-1 1-1zm10 4H6c-.551 0-1-.448-1-1v-5h14v5c0 .552-.449 1-1 1zM8.342 5.553A.994.994 0 0 1 9.236 5h5.528c.381 0 .724.212.894.553L18.382 11H5.618l2.724-5.447zm12.447 5.789l-3.342-6.684A2.984 2.984 0 0 0 14.764 3H9.236a2.984 2.984 0 0 0-2.683 1.658l-3.342 6.684a2.012 2.012 0 0 0-.211.894V18c0 1.654 1.346 3 3 3h12c1.654 0 3-1.346 3-3v-5.764c0-.308-.073-.618-.211-.894z" id="a"/></defs><g fill-rule="evenodd"><mask id="b"><use xlink:href="#a"/></mask><use xlink:href="#a"/><g mask="url(#b)"><rect width="24" height="24"/></g></g></svg>