<svg width="24" height="24" xmlns="http://www.w3.org/2000/svg" xmlns:xlink="http://www.w3.org/1999/xlink"><defs><path d="M9.698 14l.73-4h3.874l-.729 4H9.698zM20 14h-4.302l.73-4H20c.55 0 1-.45 1-1s-.45-1-1-1h-3.21l.694-3.811c.1-.548-.282-1.077-.849-1.173-.567-.097-1.112.273-1.212.822L14.665 8H10.79l.694-3.811c.1-.548-.282-1.077-.849-1.173-.567-.097-1.112.273-1.212.822L8.665 8H4c-.55 0-1 .45-1 1s.45 1 1 1h4.302l-.729 4H4c-.55 0-1 .45-1 1s.45 1 1 1h3.21l-.695 3.811c-.099.548.283 1.077.85 1.173.566.097 1.112-.273 1.211-.822L9.334 16h3.875l-.694 3.811c-.099.548.283 1.077.85 1.173.566.097 1.112-.273 1.211-.822L15.334 16H20c.55 0 1-.45 1-1s-.45-1-1-1z" id="a"/></defs><g fill-rule="evenodd"><mask id="b"><use xlink:href="#a"/></mask><use xlink:href="#a"/><g mask="url(#b)"><rect width="24" height="24"/></g></g></svg>