<svg width="24" height="24" xmlns="http://www.w3.org/2000/svg" xmlns:xlink="http://www.w3.org/1999/xlink"><defs><path d="M18 19c-1.103 0-2-.897-2-2s.897-2 2-2 2 .897 2 2-.897 2-2 2M6 15c1.103 0 2 .897 2 2s-.897 2-2 2-2-.897-2-2 .897-2 2-2m6-13C6.486 2 2 6.65 2 12.366V17c0 2.206 1.794 4 4 4s4-1.794 4-4-1.794-4-4-4a3.95 3.95 0 0 0-2 .557v-1.191C4 7.753 7.589 4 12 4s8 3.753 8 8.366v1.191A3.95 3.95 0 0 0 18 13c-2.206 0-4 1.794-4 4s1.794 4 4 4 4-1.794 4-4v-4.634C22 6.65 17.514 2 12 2" id="a"/></defs><g fill-rule="evenodd"><mask id="b"><use xlink:href="#a"/></mask><use xlink:href="#a"/><g mask="url(#b)"><rect width="24" height="24"/></g></g></svg>