<svg width="24" height="24" xmlns="http://www.w3.org/2000/svg" xmlns:xlink="http://www.w3.org/1999/xlink"><defs><path d="M18.99 20H16v-7a1 1 0 0 0-1-1H9a1 1 0 0 0-1 1v7H5l.006-8.417 6.992-7.151L19 11.624 18.99 20zM10 20h4v-6h-4v6zm10.424-9.815l-7.709-7.884c-.377-.385-1.053-.385-1.43 0l-7.71 7.885A2.075 2.075 0 0 0 3 11.624V20c0 1.103.847 2 1.888 2h14.223c1.041 0 1.89-.897 1.89-2v-8.376c0-.539-.21-1.063-.577-1.439z" id="a"/></defs><g fill-rule="evenodd"><mask id="b"><use xlink:href="#a"/></mask><use xlink:href="#a"/><g mask="url(#b)"><rect width="24" height="24"/></g></g></svg>