<svg xmlns="http://www.w3.org/2000/svg" viewBox="0 0 24 24"><defs><style>.cls-1{fill:#fff;opacity:0;}.cls-2{fill:#231f20;}</style></defs><title>image</title><g id="Layer_2" data-name="Layer 2"><g id="image"><g id="image-2" data-name="image"><rect class="cls-1" width="24" height="24"/><path class="cls-2" d="M18,3H6A3,3,0,0,0,3,6V18a3,3,0,0,0,3,3H18a3,3,0,0,0,3-3V6A3,3,0,0,0,18,3ZM6,5H18a1,1,0,0,1,1,1v8.36l-3.2-2.73a2.77,2.77,0,0,0-3.52,0L5,17.7V6A1,1,0,0,1,6,5ZM18,19H6.56l7-5.84a.78.78,0,0,1,.93,0L19,17v1A1,1,0,0,1,18,19Z"/><circle class="cls-2" cx="8" cy="8.5" r="1.5"/></g></g></g></svg>