<svg width="24" height="24" xmlns="http://www.w3.org/2000/svg" xmlns:xlink="http://www.w3.org/1999/xlink"><defs><path d="M5 7a1.5 1.5 0 1 0-.001-3.001A1.5 1.5 0 0 0 5 7m10 9H3.561l7.005-5.845c.246-.209.692-.208.933-.001L16 13.994V15a1 1 0 0 1-1 1M3 2h12a1 1 0 0 1 1 1v8.364l-3.203-2.732c-.99-.842-2.539-.842-3.52-.006L2 14.698V3a1 1 0 0 1 1-1m12-2H3C1.346 0 0 1.346 0 3v12c0 1.654 1.346 3 3 3h12c1.654 0 3-1.346 3-3V3c0-1.654-1.346-3-3-3" id="a"/></defs><g transform="translate(3 3)" fill-rule="evenodd"><mask id="b"><use xlink:href="#a"/></mask><use xlink:href="#a"/><g mask="url(#b)"><rect width="24" height="24" transform="translate(-3 -3)"/></g></g></svg>