<svg xmlns="http://www.w3.org/2000/svg" viewBox="0 0 24 24"><defs><style>.cls-1{fill:#fff;opacity:0;}.cls-2{fill:#231f20;}</style></defs><title>inbox</title><g id="Layer_2" data-name="Layer 2"><g id="inbox"><g id="inbox-2" data-name="inbox"><rect class="cls-1" width="24" height="24" transform="translate(24 24) rotate(180)"/><path class="cls-2" d="M20.79,11.34,17.45,4.66A3,3,0,0,0,14.76,3H9.24A3,3,0,0,0,6.55,4.66L3.21,11.34a2,2,0,0,0-.21.9V18a3,3,0,0,0,3,3H18a3,3,0,0,0,3-3V12.24A2,2,0,0,0,20.79,11.34ZM8.34,5.55A1,1,0,0,1,9.24,5h5.52a1,1,0,0,1,.9.55L18.38,11H16a1,1,0,0,0-1,1v3H9V12a1,1,0,0,0-1-1H5.62ZM18,19H6a1,1,0,0,1-1-1V13H7v3a1,1,0,0,0,1,1h8a1,1,0,0,0,1-1V13h2v5A1,1,0,0,1,18,19Z"/></g></g></g></svg>