<svg width="24" height="24" xmlns="http://www.w3.org/2000/svg" xmlns:xlink="http://www.w3.org/1999/xlink"><defs><path d="M19 20a1 1 0 1 1 0-2 1 1 0 1 1 0 2m0-4c-1.654 0-3 1.346-3 3s1.346 3 3 3 3-1.346 3-3-1.346-3-3-3m-7 4a1 1 0 1 1 0-2 1 1 0 1 1 0 2m0-4c-1.654 0-3 1.346-3 3s1.346 3 3 3 3-1.346 3-3-1.346-3-3-3m-7 4a1 1 0 1 1 0-2 1 1 0 1 1 0 2m0-4c-1.654 0-3 1.346-3 3s1.346 3 3 3 3-1.346 3-3-1.346-3-3-3m14-3a1 1 0 1 1 0-2 1 1 0 1 1 0 2m0-4c-1.654 0-3 1.346-3 3s1.346 3 3 3 3-1.346 3-3-1.346-3-3-3m-7 4a1 1 0 1 1 0-2 1 1 0 1 1 0 2m0-4c-1.654 0-3 1.346-3 3s1.346 3 3 3 3-1.346 3-3-1.346-3-3-3m-7 4a1 1 0 1 1 0-2 1 1 0 1 1 0 2m0-4c-1.654 0-3 1.346-3 3s1.346 3 3 3 3-1.346 3-3-1.346-3-3-3m14-5a1 1 0 1 1 0 2 1 1 0 1 1 0-2m0 4c1.654 0 3-1.346 3-3s-1.346-3-3-3-3 1.346-3 3 1.346 3 3 3m-7-2a1 1 0 1 1 0-2 1 1 0 0 1 0 2m0-4c-1.654 0-3 1.346-3 3s1.346 3 3 3 3-1.346 3-3-1.346-3-3-3M5 6a1 1 0 1 1 0-2 1 1 0 1 1 0 2m0-4C3.346 2 2 3.346 2 5s1.346 3 3 3 3-1.346 3-3-1.346-3-3-3" id="a"/></defs><g fill-rule="evenodd"><mask id="b"><use xlink:href="#a"/></mask><use xlink:href="#a"/><g mask="url(#b)"><rect width="24" height="24"/></g></g></svg>