<svg xmlns="http://www.w3.org/2000/svg" viewBox="0 0 24 24"><defs><style>.cls-1{fill:#fff;opacity:0;}.cls-2{fill:#231f20;}</style></defs><title>layers</title><g id="Layer_2" data-name="Layer 2"><g id="layers"><g id="layers-2" data-name="layers"><rect class="cls-1" width="24" height="24" transform="translate(24 24) rotate(180)"/><path class="cls-2" d="M21,11.35a1,1,0,0,0-.61-.86l-2.15-.92,2.26-1.3a1,1,0,0,0,.5-.92,1,1,0,0,0-.61-.86l-8-3.41a1,1,0,0,0-.78,0l-8,3.41A1,1,0,0,0,3,7.35a1,1,0,0,0,.5.92l2.26,1.3-2.15.92a1,1,0,0,0-.61.86,1,1,0,0,0,.5.92l2.26,1.3-2.15.92a1,1,0,0,0-.61.86,1,1,0,0,0,.5.92l8,4.6a1,1,0,0,0,1,0l8-4.6a1,1,0,0,0,.5-.92,1,1,0,0,0-.61-.86l-2.15-.92,2.26-1.3A1,1,0,0,0,21,11.35ZM12,5.09l5.76,2.45L12,10.85,6.24,7.54Zm-.5,7.78a1,1,0,0,0,1,0l3.57-2,1.69.72L12,14.85,6.24,11.54l1.69-.72Zm6.26,2.67L12,18.85,6.24,15.54l1.69-.72,3.57,2.05a1,1,0,0,0,1,0l3.57-2.05Z"/></g></g></g></svg>