<svg width="24" height="24" xmlns="http://www.w3.org/2000/svg" xmlns:xlink="http://www.w3.org/1999/xlink"><defs><path d="M13.293 9.293a.999.999 0 1 1 1.414 1.414l-4 4a.997.997 0 0 1-1.414 0 .999.999 0 0 1 0-1.414l4-4zm-1.013 8.104a1.009 1.009 0 0 1 1.425 0 1.004 1.004 0 0 1 0 1.42l-1.425 1.42c-2.542 2.535-6.802 2.337-9.073-.596-1.878-2.424-1.497-5.908.675-8.074l1.275-1.274a1.012 1.012 0 0 1 1.425 0 1.004 1.004 0 0 1 0 1.421l-1.425 1.42a4.015 4.015 0 0 0 .273 5.931c1.628 1.357 4.075 1.1 5.576-.398l1.274-1.27zM19.662 3.22c2.913 2.278 3.104 6.523.573 9.06l-1.423 1.425a1.003 1.003 0 0 1-1.422 0 1.009 1.009 0 0 1 0-1.425l1.422-1.426a4.04 4.04 0 0 0-.272-5.95c-1.627-1.363-4.069-1.103-5.568.399L11.7 6.578a1.003 1.003 0 0 1-1.422 0c-.393-.393-.397-1.028.177-1.603L11.527 3.9c2.182-2.187 5.703-2.582 8.135-.68z" id="a"/></defs><g fill-rule="evenodd"><mask id="b"><use xlink:href="#a"/></mask><use xlink:href="#a"/><g mask="url(#b)"><rect width="24" height="24"/></g></g></svg>