<svg width="24" height="24" xmlns="http://www.w3.org/2000/svg" xmlns:xlink="http://www.w3.org/1999/xlink"><defs><path d="M8 12a1 1 0 0 1 1-1h6a1 1 0 1 1 0 2H9a1 1 0 0 1-1-1zm1 4a1 1 0 1 1 0 2H7a6.007 6.007 0 0 1-5.949-6.789C1.439 8.187 4.16 6 7.209 6H9a1 1 0 1 1 0 2H7a4.003 4.003 0 0 0-3.983 4.366C3.204 14.465 5.104 16 7.21 16H9zm13.953-4.758A6.007 6.007 0 0 1 17 18h-2a1 1 0 1 1 0-2h2a4.003 4.003 0 0 0 3.983-4.366C20.796 9.535 18.896 8 16.79 8H15a1 1 0 0 1-1-1c0-.553.443-1 1.25-1h1.51c3.066 0 5.818 2.197 6.193 5.242z" id="a"/></defs><g fill-rule="evenodd"><mask id="b"><use xlink:href="#a"/></mask><use xlink:href="#a"/><g mask="url(#b)"><rect width="24" height="24"/></g></g></svg>