<svg width="24" height="24" xmlns="http://www.w3.org/2000/svg" xmlns:xlink="http://www.w3.org/1999/xlink"><defs><path d="M4 10h-.002L4 20h2V10H4zm2 12H4c-1.103 0-2-.897-2-2V10c0-1.103.897-2 2-2h2c1.103 0 2 .897 2 2v10c0 1.103-.897 2-2 2zm9.505-10.308c.153 0 .308.013.46.037 1.35.221 2.368 1.467 2.368 2.9V20H20v-5.462C20 12.036 17.982 10 15.5 10c-2.481 0-4.5 2.036-4.5 4.538V20h1.667v-5.462c0-.839.365-1.63 1.003-2.173a2.83 2.83 0 0 1 1.835-.673M20 22h-1.667c-1.102 0-2-.898-2-2v-5.37c0-.458-.303-.864-.688-.926a.82.82 0 0 0-.68.184.853.853 0 0 0-.298.65V20c0 1.102-.897 2-2 2H11c-1.102 0-2-.898-2-2v-5.462C9 10.932 11.916 8 15.5 8s6.5 2.932 6.5 6.538V20c0 1.102-.897 2-2 2M5 3a1 1 0 1 0 0 2 1 1 0 0 0 0-2m0 4C3.346 7 2 5.654 2 4s1.346-3 3-3 3 1.346 3 3-1.346 3-3 3" id="a"/></defs><g fill-rule="evenodd"><mask id="b"><use xlink:href="#a"/></mask><use xlink:href="#a"/><g mask="url(#b)"><rect width="24" height="24"/></g></g></svg>