<svg width="24" height="24" xmlns="http://www.w3.org/2000/svg" xmlns:xlink="http://www.w3.org/1999/xlink"><defs><path d="M4 6a1 1 0 1 1 0 2 1 1 0 0 1 0-2zm0 5a1 1 0 1 1 0 2 1 1 0 0 1 0-2zm0 5a1 1 0 1 1 0 2 1 1 0 0 1 0-2zm16.064-5c.515 0 .936.421.936.936v.128a.938.938 0 0 1-.936.936H7.936A.938.938 0 0 1 7 12.064v-.128c0-.515.42-.936.936-.936h12.128zm0 5c.515 0 .936.421.936.936v.128a.938.938 0 0 1-.936.936H7.936A.938.938 0 0 1 7 17.064v-.128c0-.515.42-.936.936-.936h12.128zm0-10c.515 0 .936.421.936.936v.128a.938.938 0 0 1-.936.936H7.936A.938.938 0 0 1 7 7.064v-.128C7 6.421 7.42 6 7.936 6h12.128z" id="a"/></defs><g fill-rule="evenodd"><mask id="b"><use xlink:href="#a"/></mask><use xlink:href="#a"/><g mask="url(#b)"><rect width="24" height="24"/></g></g></svg>