<svg width="24" height="24" xmlns="http://www.w3.org/2000/svg" xmlns:xlink="http://www.w3.org/1999/xlink"><defs><path d="M19 4c.55 0 1 .45 1 1v14c0 .55-.45 1-1 1h-2c-.55 0-1-.45-1-1s.45-1 1-1h1V6h-1c-.55 0-1-.45-1-1s.45-1 1-1h2zm-7.2 3.4l3 4c.26.346.268.82.018 1.175l-2.814 4a.999.999 0 0 1-1.393.243 1 1 0 0 1-.243-1.394l1.718-2.442c-.03.003-.056.018-.086.018H4a1 1 0 0 1 0-2h8l-1.8-2.4a.999.999 0 1 1 1.6-1.2z" id="a"/></defs><g fill-rule="evenodd"><mask id="b"><use xlink:href="#a"/></mask><use xlink:href="#a"/><g mask="url(#b)"><rect width="24" height="24"/></g></g></svg>