<svg xmlns="http://www.w3.org/2000/svg" viewBox="0 0 24 24"><defs><style>.cls-1{fill:#fff;opacity:0;}.cls-2{fill:#231f20;}</style></defs><title>log-out</title><g id="Layer_2" data-name="Layer 2"><g id="log-out"><g id="log-out-2" data-name="log-out"><rect class="cls-1" width="24" height="24" transform="translate(24 0) rotate(90)"/><path class="cls-2" d="M7,6A1,1,0,0,0,7,4H5A1,1,0,0,0,4,5V19a1,1,0,0,0,1,1H7a1,1,0,0,0,0-2H6V6Z"/><path class="cls-2" d="M20.82,11.42,18,7.42a1,1,0,0,0-1.39-.24,1,1,0,0,0-.24,1.4L18.09,11,18,11H10a1,1,0,0,0,0,2h8l-1.8,2.4a1,1,0,0,0,.2,1.4,1,1,0,0,0,.6.2,1,1,0,0,0,.8-.4l3-4A1,1,0,0,0,20.82,11.42Z"/></g></g></g></svg>