<svg width="24" height="24" xmlns="http://www.w3.org/2000/svg" xmlns:xlink="http://www.w3.org/1999/xlink"><defs><path d="M7 6H6v12h1c.55 0 1 .45 1 1s-.45 1-1 1H5c-.55 0-1-.45-1-1V5c0-.55.45-1 1-1h2c.55 0 1 .45 1 1s-.45 1-1 1zm13.818 5.425A.998.998 0 0 1 20.8 12.6l-3 4a.998.998 0 0 1-1.4.2.999.999 0 0 1-.2-1.4L18 13h-8a1 1 0 1 1 0-2h8c.03 0 .056.015.086.018l-1.718-2.443a1 1 0 1 1 1.636-1.15l2.814 4z" id="a"/></defs><g fill-rule="evenodd"><mask id="b"><use xlink:href="#a"/></mask><use xlink:href="#a"/><g mask="url(#b)"><rect width="24" height="24"/></g></g></svg>