<svg width="24" height="24" xmlns="http://www.w3.org/2000/svg" xmlns:xlink="http://www.w3.org/1999/xlink"><defs><path d="M20.052 11c.52 0 .948.427.948.948v.104a.951.951 0 0 1-.948.948H5.914l1.293 1.293a.999.999 0 1 1-1.414 1.414l-3-3a1 1 0 0 1 0-1.414l3-3a.999.999 0 1 1 1.414 1.414L5.914 11h14.138zm0 6c.52 0 .948.427.948.948v.104a.951.951 0 0 1-.948.948H3.948A.951.951 0 0 1 3 18.052v-.104c0-.521.427-.948.948-.948h16.104zm0-12c.52 0 .948.427.948.948v.104a.951.951 0 0 1-.948.948H3.948A.951.951 0 0 1 3 6.052v-.104C3 5.427 3.427 5 3.948 5h16.104z" id="a"/></defs><g fill-rule="evenodd"><mask id="b"><use xlink:href="#a"/></mask><use xlink:href="#a"/><g mask="url(#b)"><rect width="24" height="24"/></g></g></svg>