<svg width="24" height="24" xmlns="http://www.w3.org/2000/svg" xmlns:xlink="http://www.w3.org/1999/xlink"><defs><path d="M20.051 11c.522 0 .95.427.95.949v.102a.952.952 0 0 1-.95.949H3.948A.95.95 0 0 1 3 12.051v-.102A.95.95 0 0 1 3.948 11h16.103zm0 5c.522 0 .95.427.95.949v.102a.952.952 0 0 1-.95.949H3.948A.95.95 0 0 1 3 17.051v-.102A.95.95 0 0 1 3.948 16h16.103zm0-10c.522 0 .95.427.95.949v.102a.952.952 0 0 1-.95.949H3.948A.95.95 0 0 1 3 7.051v-.102A.95.95 0 0 1 3.948 6h16.103z" id="a"/></defs><g fill-rule="evenodd"><mask id="b"><use xlink:href="#a"/></mask><use xlink:href="#a"/><g mask="url(#b)"><rect width="24" height="24"/></g></g></svg>