<svg width="24" height="24" xmlns="http://www.w3.org/2000/svg" xmlns:xlink="http://www.w3.org/1999/xlink"><defs><path d="M12 9a1 1 0 1 1 0 2 1 1 0 0 1 0-2zm4 0a1 1 0 1 1 0 2 1 1 0 0 1 0-2zM8 9a1 1 0 1 1 0 2 1 1 0 0 1 0-2zm12 6c0 .551-.449 1-1 1H8.554c-.543 0-1.077.148-1.544.428L4 18.234V5c0-.551.449-1 1-1h14c.551 0 1 .449 1 1v10zM19 2H5C3.346 2 2 3.346 2 5v15a1 1 0 0 0 1.515.857l4.524-2.714A.997.997 0 0 1 8.554 18H19c1.654 0 3-1.346 3-3V5c0-1.654-1.346-3-3-3z" id="a"/></defs><g fill-rule="evenodd"><mask id="b"><use xlink:href="#a"/></mask><use xlink:href="#a"/><g mask="url(#b)"><rect width="24" height="24"/></g></g></svg>