<svg xmlns="http://www.w3.org/2000/svg" viewBox="0 0 24 24"><defs><style>.cls-1{fill:none;opacity:0;}.cls-2{fill:#231f20;}</style></defs><title>message-square</title><g id="Layer_2" data-name="Layer 2"><g id="message-square"><g id="message-square-2" data-name="message-square"><rect class="cls-1" width="24" height="24"/><circle class="cls-2" cx="12" cy="11" r="1"/><circle class="cls-2" cx="16" cy="11" r="1"/><circle class="cls-2" cx="8" cy="11" r="1"/><path class="cls-2" d="M19,3H5A3,3,0,0,0,2,6V21a1,1,0,0,0,.51.87A1,1,0,0,0,3,22a1,1,0,0,0,.51-.14L8,19.14A1,1,0,0,1,8.55,19H19a3,3,0,0,0,3-3V6A3,3,0,0,0,19,3Zm1,13a1,1,0,0,1-1,1H8.55A3,3,0,0,0,7,17.43l-3,1.8V6A1,1,0,0,1,5,5H19a1,1,0,0,1,1,1Z"/></g></g></g></svg>