<svg width="24" height="24" xmlns="http://www.w3.org/2000/svg" xmlns:xlink="http://www.w3.org/1999/xlink"><defs><path d="M10 6c0-1.103.897-2 2-2s2 .897 2 2v5c0 1.103-.897 2-2 2s-2-.897-2-2V6zm2 9c-2.206 0-4-1.794-4-4V6c0-2.206 1.794-4 4-4s4 1.794 4 4v5c0 2.206-1.794 4-4 4zm7-4c0 3.52-2.613 6.432-6 6.92V20h2.105c.493 0 .895.402.895.895v.21a.897.897 0 0 1-.895.895h-6.21A.897.897 0 0 1 8 21.105v-.21c0-.493.402-.895.895-.895H11v-2.08c-3.387-.488-6-3.4-6-6.92a1 1 0 1 1 2 0c0 2.757 2.243 5 5 5s5-2.243 5-5a1 1 0 1 1 2 0z" id="a"/></defs><g fill-rule="evenodd"><mask id="b"><use xlink:href="#a"/></mask><use xlink:href="#a"/><g mask="url(#b)"><rect width="24" height="24"/></g></g></svg>