<svg width="24" height="24" xmlns="http://www.w3.org/2000/svg" xmlns:xlink="http://www.w3.org/1999/xlink"><defs><path d="M10 6v1.172L8.076 5.248A4.003 4.003 0 0 1 12 2c2.206 0 4 1.794 4 4v5c0 .631-.16 1.22-.421 1.751l-1.595-1.595c.004-.052.016-.102.016-.156V6c0-1.103-.897-2-2-2s-2 .897-2 2zm9 5a6.948 6.948 0 0 1-1.225 3.947l-1.463-1.463A4.928 4.928 0 0 0 17 11a1 1 0 1 1 2 0zm-7 4c-2.206 0-4-1.794-4-4v-.172l4.156 4.156c-.052.002-.102.016-.156.016zm8.707 4.293a.999.999 0 1 1-1.414 1.414l-16-16a.999.999 0 1 1 1.414-1.414l16 16zM15 20c.55 0 1 .45 1 1s-.45 1-1 1H9c-.55 0-1-.45-1-1s.45-1 1-1h2v-2.08c-3.387-.488-6-3.4-6-6.92a1 1 0 1 1 2 0c0 2.757 2.243 5 5 5 .362 0 .714-.043 1.055-.117l1.593 1.593a6.96 6.96 0 0 1-1.648.443V20h2z" id="a"/></defs><g fill-rule="evenodd"><mask id="b"><use xlink:href="#a"/></mask><use xlink:href="#a"/><g mask="url(#b)"><rect width="24" height="24"/></g></g></svg>