<svg xmlns="http://www.w3.org/2000/svg" viewBox="0 0 24 24"><defs><style>.cls-1{fill:#fff;opacity:0;}.cls-2{fill:#231f20;}</style></defs><title>monitor</title><g id="Layer_2" data-name="Layer 2"><g id="monitor"><g id="monitor-2" data-name="monitor"><rect class="cls-1" width="24" height="24"/><path class="cls-2" d="M19,3H5A3,3,0,0,0,2,6v8a3,3,0,0,0,3,3h6v2H7a1,1,0,0,0,0,2H17a1,1,0,0,0,0-2H13V17h6a3,3,0,0,0,3-3V6A3,3,0,0,0,19,3Zm1,11a1,1,0,0,1-1,1H5a1,1,0,0,1-1-1V6A1,1,0,0,1,5,5H19a1,1,0,0,1,1,1Z"/></g></g></g></svg>