<svg width="24" height="24" xmlns="http://www.w3.org/2000/svg" xmlns:xlink="http://www.w3.org/1999/xlink"><defs><path d="M20 14c0 .551-.448 1-1 1H5c-.552 0-1-.449-1-1V6c0-.551.448-1 1-1h14c.552 0 1 .449 1 1v8zM19 3H5C3.346 3 2 4.346 2 6v8c0 1.654 1.346 3 3 3h6v2H7c-.55 0-1 .45-1 1s.45 1 1 1h10c.55 0 1-.45 1-1s-.45-1-1-1h-4v-2h6c1.654 0 3-1.346 3-3V6c0-1.654-1.346-3-3-3z" id="a"/></defs><g fill-rule="evenodd"><mask id="b"><use xlink:href="#a"/></mask><use xlink:href="#a"/><g mask="url(#b)"><rect width="24" height="24"/></g></g></svg>