<svg width="24" height="24" xmlns="http://www.w3.org/2000/svg" xmlns:xlink="http://www.w3.org/1999/xlink"><defs><path d="M7.44 4.918c-.5.354-.958.764-1.374 1.228-2.85 3.171-2.756 8.245.207 11.31A8.274 8.274 0 0 0 12.197 20l.077.001a8.277 8.277 0 0 0 5.89-2.436c.328-.327.626-.678.893-1.052-3.146.392-6.371-.662-8.662-2.948A10.402 10.402 0 0 1 7.44 4.918m4.833 17.083L12.179 22a10.26 10.26 0 0 1-7.344-3.153C1.158 15.042 1.043 8.745 4.577 4.81A10.227 10.227 0 0 1 8.57 2.067a1 1 0 1 1 1.296 1.278 8.4 8.4 0 0 0 1.94 8.804c2.299 2.293 5.764 3.054 8.829 1.938a1 1 0 0 1 1.276 1.298 10.225 10.225 0 0 1-2.336 3.596 10.26 10.26 0 0 1-7.302 3.02" id="a"/></defs><g fill-rule="evenodd"><mask id="b"><use xlink:href="#a"/></mask><use xlink:href="#a"/><g mask="url(#b)"><rect width="24" height="24"/></g></g></svg>