<svg width="24" height="24" xmlns="http://www.w3.org/2000/svg" xmlns:xlink="http://www.w3.org/1999/xlink"><defs><path d="M21.709 11.308l-3-3.013a.999.999 0 0 0-1.414-.003.999.999 0 0 0-.004 1.414L18.58 11H13V5.409l1.291 1.297a.999.999 0 1 0 1.418-1.411l-2.987-3a.998.998 0 0 0-1.415-.003l-3.013 3a1 1 0 1 0 1.412 1.417L11 5.419V11H5.408l1.297-1.29a.999.999 0 1 0-1.41-1.417l-3 2.987a.997.997 0 0 0-.004 1.414l3 3.013a.997.997 0 0 0 1.414.003.999.999 0 0 0 .004-1.414L5.42 13H11v5.592l-1.291-1.297a1 1 0 1 0-1.418 1.41l2.987 3a1 1 0 0 0 .707.295h.002c.265 0 .519-.105.706-.291l3.013-3a1 1 0 1 0-1.412-1.417L13 18.58V13h5.592l-1.297 1.292a.999.999 0 1 0 1.41 1.417l3-2.987a.997.997 0 0 0 .004-1.414" id="a"/></defs><g fill-rule="evenodd"><mask id="b"><use xlink:href="#a"/></mask><use xlink:href="#a"/><g mask="url(#b)"><rect width="24" height="24"/></g></g></svg>