<svg xmlns="http://www.w3.org/2000/svg" viewBox="0 0 24 24"><defs><style>.cls-1{fill:#fff;opacity:0;}.cls-2{fill:#231f20;}</style></defs><title>music</title><g id="Layer_2" data-name="Layer 2"><g id="music"><g id="music-2" data-name="music"><rect class="cls-1" width="24" height="24"/><path class="cls-2" d="M19,15V4a1,1,0,0,0-.38-.78,1,1,0,0,0-.84-.2l-9,2A1,1,0,0,0,8,6v8.34a3.49,3.49,0,1,0,2,3.18A4.36,4.36,0,0,0,10,17V6.8l7-1.55v7.09A3.49,3.49,0,1,0,19,15.51,4.57,4.57,0,0,0,19,15ZM6.54,19A1.49,1.49,0,1,1,8,17.21H8a1.53,1.53,0,0,1,0,.3A1.49,1.49,0,0,1,6.54,19Zm9-2A1.5,1.5,0,1,1,17,15.21h0a1.53,1.53,0,0,1,0,.3A1.5,1.5,0,0,1,15.51,17Z"/></g></g></g></svg>