<svg width="24" height="24" xmlns="http://www.w3.org/2000/svg" xmlns:xlink="http://www.w3.org/1999/xlink"><defs><path d="M15.508 17.006a1.493 1.493 0 0 1-1.492-1.492 1.493 1.493 0 0 1 2.954-.3 1.493 1.493 0 0 1-1.462 1.792M6.536 19c-.823 0-1.492-.67-1.492-1.493 0-.822.669-1.492 1.492-1.492.72 0 1.322.512 1.462 1.191v.003A1.494 1.494 0 0 1 6.536 19m12.41-4.008V4a1 1 0 0 0-1.215-.976L8.759 5.017a1 1 0 0 0-.783.976v8.341a3.471 3.471 0 0 0-1.44-.319 3.497 3.497 0 0 0-3.492 3.492A3.497 3.497 0 0 0 6.536 21a3.497 3.497 0 0 0 3.493-3.493c0-.178-.027-.35-.053-.522V6.796l6.97-1.55v7.094c-.44-.2-.923-.318-1.438-.318a3.495 3.495 0 0 0-3.492 3.492 3.495 3.495 0 0 0 3.492 3.492A3.495 3.495 0 0 0 19 15.514c0-.179-.026-.35-.053-.522" id="a"/></defs><g fill-rule="evenodd"><mask id="b"><use xlink:href="#a"/></mask><use xlink:href="#a"/><g mask="url(#b)"><rect width="24" height="24"/></g></g></svg>