<svg width="24" height="24" xmlns="http://www.w3.org/2000/svg" xmlns:xlink="http://www.w3.org/1999/xlink"><defs><path d="M12 13.702c.192 0 .385.056.552.166l4.88 3.231L12 6.236 6.568 17.1l4.88-3.23c.167-.11.36-.167.552-.167M20 21a1 1 0 0 1-.552-.166L12 15.901l-7.448 4.933a1.002 1.002 0 0 1-1.447-1.28l8-16c.339-.679 1.451-.679 1.79 0l8 16A1.001 1.001 0 0 1 20 21" id="a"/></defs><g fill-rule="evenodd"><mask id="b"><use xlink:href="#a"/></mask><use xlink:href="#a"/><g mask="url(#b)"><rect width="24" height="24"/></g></g></svg>