<svg width="24" height="24" xmlns="http://www.w3.org/2000/svg" xmlns:xlink="http://www.w3.org/1999/xlink"><defs><path d="M7.866 9.099l5.198 1.057a.996.996 0 0 1 .781.78l1.056 5.198L18.42 5.58 7.866 9.099zm6.801 11.9l-.06-.001a1 1 0 0 1-.92-.798l-1.67-8.217-8.216-1.67a.999.999 0 0 1-.118-1.928l16-5.333a1.002 1.002 0 0 1 1.266 1.265l-5.334 16a1 1 0 0 1-.948.683z" id="a"/></defs><g fill-rule="evenodd"><mask id="b"><use xlink:href="#a"/></mask><use xlink:href="#a"/><g mask="url(#b)"><rect width="24" height="24"/></g></g></svg>