<svg xmlns="http://www.w3.org/2000/svg" viewBox="0 0 24 24"><defs><style>.cls-1{fill:#fff;opacity:0;}.cls-2{fill:#231f20;}</style></defs><title>npm</title><g id="Layer_2" data-name="Layer 2"><g id="npm"><g id="npm-2" data-name="npm"><rect class="cls-1" width="24" height="24"/><path class="cls-2" d="M18,21H6a3,3,0,0,1-3-3V6A3,3,0,0,1,6,3H18a3,3,0,0,1,3,3V18A3,3,0,0,1,18,21ZM6,5A1,1,0,0,0,5,6V18a1,1,0,0,0,1,1H18a1,1,0,0,0,1-1V6a1,1,0,0,0-1-1Z"/><rect class="cls-2" x="12" y="9" width="4" height="10"/></g></g></g></svg>