<svg width="24" height="24" xmlns="http://www.w3.org/2000/svg" xmlns:xlink="http://www.w3.org/1999/xlink"><defs><path d="M12 6a1 1 0 1 1 0-2 1 1 0 0 1 0 2m3-1c0-1.654-1.346-3-3-3S9 3.346 9 5c0 1.302.839 2.401 2 2.815V21a1 1 0 1 0 2 0V7.815A2.995 2.995 0 0 0 15 5M6 18a1 1 0 1 1 0-2 1 1 0 0 1 0 2m1-3.815V3a1 1 0 1 0-2 0v11.185A2.995 2.995 0 0 0 3 17c0 1.302.839 2.401 2 2.815V21a1 1 0 1 0 2 0v-1.185A2.995 2.995 0 0 0 9 17a2.995 2.995 0 0 0-2-2.815M18 14a1 1 0 1 1 0-2 1 1 0 0 1 0 2m3-1a2.995 2.995 0 0 0-2-2.815V3a1 1 0 1 0-2 0v7.185A2.995 2.995 0 0 0 15 13c0 1.302.839 2.401 2 2.815V21a1 1 0 1 0 2 0v-5.185A2.995 2.995 0 0 0 21 13" id="a"/></defs><g fill-rule="evenodd"><mask id="b"><use xlink:href="#a"/></mask><use xlink:href="#a"/><g mask="url(#b)"><rect width="24" height="24"/></g></g></svg>