<svg width="24" height="24" xmlns="http://www.w3.org/2000/svg" xmlns:xlink="http://www.w3.org/1999/xlink"><defs><path d="M11 19a1 1 0 1 1 0-2 1 1 0 0 1 0 2m10-2h-7.185A2.995 2.995 0 0 0 11 15a2.995 2.995 0 0 0-2.815 2H3a1 1 0 1 0 0 2h5.185A2.995 2.995 0 0 0 11 21a2.995 2.995 0 0 0 2.815-2H21a1 1 0 1 0 0-2m-2-4a1 1 0 1 1 0-2 1 1 0 0 1 0 2m0-4a2.995 2.995 0 0 0-2.815 2H3a1 1 0 1 0 0 2h13.185A2.995 2.995 0 0 0 19 15c1.654 0 3-1.346 3-3s-1.346-3-3-3M7 5a1 1 0 1 1 0 2 1 1 0 0 1 0-2M3 7h1.185A2.995 2.995 0 0 0 7 9a2.995 2.995 0 0 0 2.815-2H21a1 1 0 1 0 0-2H9.815A2.995 2.995 0 0 0 7 3a2.995 2.995 0 0 0-2.815 2H3a1 1 0 1 0 0 2" id="a"/></defs><g fill-rule="evenodd"><mask id="b"><use xlink:href="#a"/></mask><use xlink:href="#a"/><g mask="url(#b)"><rect width="24" height="24"/></g></g></svg>