<svg xmlns="http://www.w3.org/2000/svg" viewBox="0 0 24 24"><defs><style>.cls-1{fill:#fff;opacity:0;}.cls-2{fill:#231f20;}</style></defs><title>options-2</title><g id="Layer_2" data-name="Layer 2"><g id="options-2"><g id="options-2-2" data-name="options-2"><rect class="cls-1" width="24" height="24" transform="translate(24 0) rotate(90)"/><path class="cls-2" d="M19,9a3,3,0,0,0-2.82,2H3a1,1,0,0,0,0,2H16.18A3,3,0,1,0,19,9Zm0,4a1,1,0,1,1,1-1A1,1,0,0,1,19,13Z"/><path class="cls-2" d="M3,7H4.18A3,3,0,0,0,9.82,7H21a1,1,0,0,0,0-2H9.82A3,3,0,0,0,4.18,5H3A1,1,0,0,0,3,7ZM7,5A1,1,0,1,1,6,6,1,1,0,0,1,7,5Z"/><path class="cls-2" d="M21,17H13.82a3,3,0,0,0-5.64,0H3a1,1,0,0,0,0,2H8.18a3,3,0,0,0,5.64,0H21a1,1,0,0,0,0-2ZM11,19a1,1,0,1,1,1-1A1,1,0,0,1,11,19Z"/></g></g></g></svg>