<svg width="24" height="24" xmlns="http://www.w3.org/2000/svg" xmlns:xlink="http://www.w3.org/1999/xlink"><defs><path d="M19 19h-8.486l3.559-3.818H19V19zM5 17.091V15h3.818v2.091A1.91 1.91 0 0 1 6.909 19 1.91 1.91 0 0 1 5 17.091zM5 8h3.818V5H5v3zm0 5h3.818v-3H5v3zm8.422-5.412l2.673 2.493-5.277 5.659v-5.359l2.604-2.793zM20 13.182h-4.063l2.302-2.469a.998.998 0 0 0-.05-1.413l-4.135-3.857a.96.96 0 0 0-.717-.267.996.996 0 0 0-.696.317l-1.823 1.955V4a1 1 0 0 0-1-1H4a1 1 0 0 0-1 1v13.091A3.914 3.914 0 0 0 6.909 21H20a1 1 0 0 0 1-1v-5.818a1 1 0 0 0-1-1z" id="a"/></defs><g fill-rule="evenodd"><mask id="b"><use xlink:href="#a"/></mask><use xlink:href="#a"/><g mask="url(#b)"><rect width="24" height="24"/></g></g></svg>