<svg width="24" height="24" xmlns="http://www.w3.org/2000/svg" xmlns:xlink="http://www.w3.org/1999/xlink"><defs><path d="M15 17.838l-1.856-5.567 5.568-5.57L15 17.839zm2.298-12.55l-5.568 5.568L6.162 9l11.136-3.712zm4.692-2.34a.951.951 0 0 0-.088-.361.967.967 0 0 0-.195-.294.96.96 0 0 0-.384-.23.987.987 0 0 0-.275-.054c-.022-.001-.042-.006-.065-.006-.1.002-.201.016-.299.048l-18 6a1 1 0 0 0 0 1.898l8.525 2.842 2.843 8.526a.998.998 0 0 0 1.896 0l6-18a1 1 0 0 0 .048-.3c.001-.023-.005-.045-.006-.07z" id="a"/></defs><g fill-rule="evenodd"><mask id="b"><use xlink:href="#a"/></mask><use xlink:href="#a"/><g mask="url(#b)"><rect width="24" height="24"/></g></g></svg>