<svg width="24" height="24" xmlns="http://www.w3.org/2000/svg" xmlns:xlink="http://www.w3.org/1999/xlink"><defs><path d="M15 8c.55 0 1 .45 1 1v6c0 .55-.45 1-1 1s-1-.45-1-1V9c0-.55.45-1 1-1zM9 8c.55 0 1 .45 1 1v6c0 .55-.45 1-1 1s-1-.45-1-1V9c0-.55.45-1 1-1zm3 12c-4.411 0-8-3.589-8-8s3.589-8 8-8 8 3.589 8 8-3.589 8-8 8m0-18C6.486 2 2 6.486 2 12s4.486 10 10 10 10-4.486 10-10S17.514 2 12 2" id="a"/></defs><g fill-rule="evenodd"><mask id="b"><use xlink:href="#a"/></mask><use xlink:href="#a"/><g mask="url(#b)"><rect width="24" height="24"/></g></g></svg>