<svg width="24" height="24" xmlns="http://www.w3.org/2000/svg" xmlns:xlink="http://www.w3.org/1999/xlink"><defs><path d="M17 9a1.001 1.001 0 0 1 0 2 1.001 1.001 0 0 1 0-2m0 4c1.654 0 3-1.346 3-3s-1.346-3-3-3-3 1.346-3 3 1.346 3 3 3M9 5c1.103 0 2 .897 2 2s-.897 2-2 2-2-.897-2-2 .897-2 2-2m0 6c-2.206 0-4-1.794-4-4s1.794-4 4-4 4 1.794 4 4-1.794 4-4 4zm8 3c2.757 0 5 2.243 5 5a1 1 0 1 1-2 0c0-1.654-1.346-3-3-3-.683 0-1.332.234-1.856.649.544.996.856 2.138.856 3.351a1 1 0 1 1-2 0c0-2.757-2.243-5-5-5s-5 2.243-5 5a1 1 0 1 1-2 0c0-3.86 3.141-7 7-7 1.927 0 3.673.783 4.94 2.046A4.994 4.994 0 0 1 17 14z" id="a"/></defs><g fill-rule="evenodd"><mask id="b"><use xlink:href="#a"/></mask><use xlink:href="#a"/><g mask="url(#b)"><rect width="24" height="24"/></g></g></svg>