<svg width="24" height="24" xmlns="http://www.w3.org/2000/svg" xmlns:xlink="http://www.w3.org/1999/xlink"><defs><path d="M10 5c1.103 0 2 .897 2 2s-.897 2-2 2-2-.897-2-2 .897-2 2-2m0 6c-2.206 0-4-1.794-4-4s1.794-4 4-4 4 1.794 4 4-1.794 4-4 4zm10.465-3.5l.733.732a1.04 1.04 0 0 1 0 1.466 1.039 1.039 0 0 1-1.465 0L19 8.965l-.732.733a1.04 1.04 0 0 1-1.466 0 1.042 1.042 0 0 1 0-1.466l.733-.732-.733-.732a1.042 1.042 0 0 1 0-1.466 1.04 1.04 0 0 1 1.466 0l.732.733.733-.733a1.039 1.039 0 0 1 1.465 0 1.04 1.04 0 0 1 0 1.466l-.733.732zM10 13c3.859 0 7 3.141 7 7a1 1 0 1 1-2 0c0-2.757-2.243-5-5-5s-5 2.243-5 5a1 1 0 1 1-2 0c0-3.859 3.141-7 7-7z" id="a"/></defs><g fill-rule="evenodd"><mask id="b"><use xlink:href="#a"/></mask><use xlink:href="#a"/><g mask="url(#b)"><rect width="24" height="24"/></g></g></svg>