<svg xmlns="http://www.w3.org/2000/svg" viewBox="0 0 24 24"><defs><style>.cls-1{fill:#fff;opacity:0;}.cls-2{fill:#231f20;}</style></defs><title>person</title><g id="Layer_2" data-name="Layer 2"><g id="person"><g id="person-2" data-name="person"><rect class="cls-1" width="24" height="24"/><path class="cls-2" d="M12,11A4,4,0,1,0,8,7,4,4,0,0,0,12,11Zm0-6a2,2,0,1,1-2,2A2,2,0,0,1,12,5Z"/><path class="cls-2" d="M12,13a7,7,0,0,0-7,7,1,1,0,0,0,2,0,5,5,0,0,1,10,0,1,1,0,0,0,2,0A7,7,0,0,0,12,13Z"/></g></g></g></svg>