<svg width="24" height="24" xmlns="http://www.w3.org/2000/svg" xmlns:xlink="http://www.w3.org/1999/xlink"><defs><path d="M10 5c1.103 0 2 .897 2 2s-.897 2-2 2-2-.897-2-2 .897-2 2-2m0 6c-2.206 0-4-1.794-4-4s1.794-4 4-4 4 1.794 4 4-1.794 4-4 4zm11.656-6.754a1 1 0 0 1 .1 1.41l-2.612 3a1.001 1.001 0 0 1-.748.344h-.007a1 1 0 0 1-.745-.333l-1.389-1.553a1 1 0 1 1 1.49-1.334l.634.709 1.866-2.145a1 1 0 0 1 1.411-.098zM10 13c3.859 0 7 3.14 7 7a1 1 0 1 1-2 0c0-2.757-2.243-5-5-5s-5 2.243-5 5a1 1 0 1 1-2 0c0-3.86 3.141-7 7-7z" id="a"/></defs><g fill-rule="evenodd"><mask id="b"><use xlink:href="#a"/></mask><use xlink:href="#a"/><g mask="url(#b)"><rect width="24" height="24"/></g></g></svg>