<svg width="24" height="24" xmlns="http://www.w3.org/2000/svg" xmlns:xlink="http://www.w3.org/1999/xlink"><defs><path d="M17.4 20C10.011 20 4 13.988 4 6.6a2.602 2.602 0 0 1 2.927-2.579l1.061 4.621-.538.281c-.862.45-1.542.806-1.185 1.591 1.176 3.346 3.875 6.046 7.181 7.206.846.339 1.172-.293 1.627-1.163l.285-.545 4.62 1.06A2.602 2.602 0 0 1 17.4 20m4.351-4.092c.082.236.144.481.184.731.042.248.065.503.065.761 0 2.537-2.064 4.6-4.6 4.6C8.908 22 2 15.092 2 6.6a4.605 4.605 0 0 1 6.091-4.352c.325.113.57.386.647.722l1.37 5.964a1 1 0 0 1-.254.916c-.137.142-.14.145-1.379.794a9.949 9.949 0 0 0 4.88 4.883c.65-1.241.652-1.245.795-1.381.243-.234.587-.327.916-.253l5.964 1.369a1 1 0 0 1 .721.646zM13 8a1 1 0 1 1 0-2c2.757 0 5 2.243 5 5a1 1 0 1 1-2 0c0-1.654-1.346-3-3-3zm0-4a1 1 0 1 1 0-2c4.963 0 9 4.037 9 9a1 1 0 1 1-2 0c0-3.859-3.141-7-7-7z" id="a"/></defs><g fill-rule="evenodd"><mask id="b"><use xlink:href="#a"/></mask><use xlink:href="#a"/><g mask="url(#b)"><rect width="24" height="24"/></g></g></svg>