<svg xmlns="http://www.w3.org/2000/svg" viewBox="0 0 24 24"><defs><style>.cls-1{fill:#fff;opacity:0;}.cls-2{fill:#231f20;}</style></defs><title>phone-call</title><g id="Layer_2" data-name="Layer 2"><g id="phone-call"><g id="phone-call-2" data-name="phone-call"><rect class="cls-1" width="24" height="24"/><path class="cls-2" d="M13,8a3,3,0,0,1,3,3,1,1,0,0,0,2,0,5,5,0,0,0-5-5,1,1,0,0,0,0,2Z"/><path class="cls-2" d="M13,4a7,7,0,0,1,7,7,1,1,0,0,0,2,0,9,9,0,0,0-9-9,1,1,0,0,0,0,2Z"/><path class="cls-2" d="M21.75,15.91a1,1,0,0,0-.72-.65l-6-1.37a1,1,0,0,0-.92.26c-.14.13-.15.14-.8,1.38a9.91,9.91,0,0,1-4.87-4.89C9.71,10,9.72,10,9.85,9.85a1,1,0,0,0,.26-.92L8.74,3a1,1,0,0,0-.65-.72,3.79,3.79,0,0,0-.72-.18A3.94,3.94,0,0,0,6.6,2,4.6,4.6,0,0,0,2,6.6,15.42,15.42,0,0,0,17.4,22,4.6,4.6,0,0,0,22,17.4a4.77,4.77,0,0,0-.06-.76A4.34,4.34,0,0,0,21.75,15.91ZM17.4,20A13.41,13.41,0,0,1,4,6.6,2.61,2.61,0,0,1,6.6,4l.33,0L8,8.64l-.54.28c-.86.45-1.54.81-1.18,1.59a11.85,11.85,0,0,0,7.18,7.21c.84.34,1.17-.29,1.62-1.16l.29-.55L20,17.07c0,.11,0,.22,0,.33A2.61,2.61,0,0,1,17.4,20Z"/></g></g></g></svg>