<svg width="24" height="24" xmlns="http://www.w3.org/2000/svg" xmlns:xlink="http://www.w3.org/1999/xlink"><defs><path d="M19.74 4.26a.887.887 0 0 1 0 1.258L5.516 19.74a.889.889 0 0 1-1.257-1.257L18.482 4.26a.887.887 0 0 1 1.257 0zM6.697 14.63L5.27 16.057A15.31 15.31 0 0 1 2.001 6.6 4.603 4.603 0 0 1 6.598 2a4.5 4.5 0 0 1 .766.066c.243.039.49.1.727.183a.997.997 0 0 1 .646.72l1.37 5.965a1 1 0 0 1-.254.916c-.136.142-.14.145-1.38.795.227.494.497.964.8 1.41l-1.43 1.429a11.664 11.664 0 0 1-1.579-2.97c-.322-.803.307-1.132 1.178-1.587l.545-.285-1.06-4.62A2.602 2.602 0 0 0 4 6.6c0 3.013 1.011 5.789 2.697 8.03zm15.238 2.009A4.604 4.604 0 0 1 17.4 22a15.306 15.306 0 0 1-9.457-3.271l1.426-1.427A13.311 13.311 0 0 0 17.4 20a2.602 2.602 0 0 0 2.579-2.927l-4.62-1.061-.286.545c-.455.87-.782 1.502-1.627 1.163a11.521 11.521 0 0 1-2.934-1.561l1.43-1.43c.447.304.918.574 1.412.799.65-1.243.654-1.245.796-1.382.243-.234.588-.326.916-.253l5.964 1.369a.995.995 0 0 1 .72.647c.082.235.145.48.186.73z" id="a"/></defs><g fill-rule="evenodd"><mask id="b"><use xlink:href="#a"/></mask><use xlink:href="#a"/><g mask="url(#b)"><rect width="24" height="24"/></g></g></svg>