<svg width="24" height="24" xmlns="http://www.w3.org/2000/svg" xmlns:xlink="http://www.w3.org/1999/xlink"><defs><path d="M17.4 20C10.011 20 4 13.988 4 6.6a2.602 2.602 0 0 1 2.927-2.579l1.061 4.621a72.81 72.81 0 0 0-.545.285c-.87.455-1.5.784-1.178 1.587 1.175 3.346 3.874 6.046 7.181 7.206.848.339 1.172-.293 1.627-1.163l.285-.545 4.62 1.06A2.602 2.602 0 0 1 17.4 20m4.535-3.361c.042.248.065.503.065.761 0 2.537-2.064 4.6-4.6 4.6C8.908 22 2 15.092 2 6.6a4.604 4.604 0 0 1 6.091-4.351c.326.112.57.385.647.721l1.37 5.964a1 1 0 0 1-.254.916c-.137.142-.14.145-1.38.795a9.921 9.921 0 0 0 4.88 4.882c.65-1.242.653-1.245.796-1.381.243-.234.587-.327.916-.253l5.964 1.369a1 1 0 0 1 .721.646c.082.236.144.481.184.731zm-6.133-7.94a1.042 1.042 0 0 1 0-1.467l.733-.732-.733-.733a1.04 1.04 0 0 1 0-1.465 1.04 1.04 0 0 1 1.466 0l.732.733.733-.733a1.039 1.039 0 0 1 1.465 0 1.039 1.039 0 0 1 0 1.465l-.733.733.733.732a1.04 1.04 0 0 1 0 1.466 1.04 1.04 0 0 1-1.465 0L18 7.965l-.732.733a1.042 1.042 0 0 1-1.466 0z" id="a"/></defs><g fill-rule="evenodd"><mask id="b"><use xlink:href="#a"/></mask><use xlink:href="#a"/><g mask="url(#b)"><rect width="24" height="24"/></g></g></svg>