<svg xmlns="http://www.w3.org/2000/svg" viewBox="0 0 24 24"><defs><style>.cls-1{fill:#fff;opacity:0;}.cls-2{fill:#231f20;}</style></defs><title>pie-chart</title><g id="Layer_2" data-name="Layer 2"><g id="pie-chart"><g id="pie-chart-2" data-name="pie-chart"><rect class="cls-1" width="24" height="24"/><path class="cls-2" d="M13,2a1,1,0,0,0-1,1v8a1,1,0,0,0,1,1h8a1,1,0,0,0,1-1A9,9,0,0,0,13,2Zm1,8V4.07A7,7,0,0,1,19.93,10Z"/><path class="cls-2" d="M20.82,14.06a1,1,0,0,0-1.28.61A8,8,0,1,1,9.33,4.46a1,1,0,0,0-.66-1.89A10,10,0,1,0,21.43,15.33,1,1,0,0,0,20.82,14.06Z"/></g></g></g></svg>