<svg width="24" height="24" xmlns="http://www.w3.org/2000/svg" xmlns:xlink="http://www.w3.org/1999/xlink"><defs><path d="M20.821 14.058a.996.996 0 0 0-1.276.609A8.016 8.016 0 0 1 12 20c-4.41 0-8-3.588-8-8a8.016 8.016 0 0 1 5.333-7.545.998.998 0 1 0-.666-1.884A10.015 10.015 0 0 0 2 12c0 5.514 4.486 10 10 10 4.231 0 8.02-2.678 9.43-6.667a.999.999 0 0 0-.609-1.275M14 10V4.071A7.016 7.016 0 0 1 19.929 10H14zm-1-8a1 1 0 0 0-1 1v8a1 1 0 0 0 1 1h8a1 1 0 0 0 1-1c0-4.963-4.038-9-9-9z" id="a"/></defs><g fill-rule="evenodd"><mask id="b"><use xlink:href="#a"/></mask><use xlink:href="#a"/><g mask="url(#b)"><rect width="24" height="24"/></g></g></svg>