<svg width="24" height="24" xmlns="http://www.w3.org/2000/svg" xmlns:xlink="http://www.w3.org/1999/xlink"><defs><path d="M12 13a1 1 0 0 1-1-1V2a1 1 0 1 1 2 0v10a1 1 0 0 1-1 1zm4.586-9.889A9.973 9.973 0 0 1 22 12.001c0 5.512-4.486 10-10 10S2 17.512 2 12a9.972 9.972 0 0 1 5.415-8.89 1 1 0 0 1 .918 1.777A7.977 7.977 0 0 0 4 12c0 4.411 3.589 8 8 8 4.41 0 8-3.589 8-8a7.978 7.978 0 0 0-4.332-7.112.999.999 0 1 1 .918-1.777z" id="a"/></defs><g fill-rule="evenodd"><mask id="b"><use xlink:href="#a"/></mask><use xlink:href="#a"/><g mask="url(#b)"><rect width="24" height="24"/></g></g></svg>