<svg xmlns="http://www.w3.org/2000/svg" viewBox="0 0 24 24"><defs><style>.cls-1{fill:#fff;opacity:0;}.cls-2{fill:#231f20;}</style></defs><title>pricetags</title><g id="Layer_2" data-name="Layer 2"><g id="pricetags"><g id="pricetags-2" data-name="pricetags"><rect class="cls-1" width="24" height="24"/><path class="cls-2" d="M12.87,22a1.84,1.84,0,0,1-1.29-.53L5.17,15.05a1,1,0,0,1-.29-.61L4,5.09a1,1,0,0,1,.29-.8A1,1,0,0,1,5.09,4l9.35.88a1,1,0,0,1,.61.29l6.42,6.41a1.82,1.82,0,0,1,0,2.57l-7.32,7.32A1.82,1.82,0,0,1,12.87,22Zm-6-8.11,6,6,7.05-7.05-6-6L6.11,6.11Z"/><circle class="cls-2" cx="10.5" cy="10.5" r="1.5"/></g></g></g></svg>