<svg width="24" height="24" xmlns="http://www.w3.org/2000/svg" xmlns:xlink="http://www.w3.org/1999/xlink"><defs><path d="M12 6c1.93 0 3.5 1.57 3.5 3.5 0 1.58-1.06 2.903-2.5 3.337V14a1 1 0 1 1-2 0v-2a1 1 0 0 1 1-1c.827 0 1.5-.673 1.5-1.5S12.827 8 12 8s-1.5.673-1.5 1.5a1 1 0 1 1-2 0C8.5 7.57 10.07 6 12 6zm0 10a1 1 0 1 1 0 2 1 1 0 1 1 0-2zm0 4c-4.411 0-8-3.589-8-8s3.589-8 8-8 8 3.589 8 8-3.589 8-8 8m0-18C6.486 2 2 6.486 2 12s4.486 10 10 10 10-4.486 10-10S17.514 2 12 2" id="a"/></defs><g fill-rule="evenodd"><mask id="b"><use xlink:href="#a"/></mask><use xlink:href="#a"/><g mask="url(#b)"><rect width="24" height="24"/></g></g></svg>