<svg xmlns="http://www.w3.org/2000/svg" viewBox="0 0 24 24"><defs><style>.cls-1{fill:#fff;opacity:0;}.cls-2{fill:#231f20;}</style></defs><title>radio</title><g id="Layer_2" data-name="Layer 2"><g id="radio"><g id="radio-2" data-name="radio"><rect class="cls-1" width="24" height="24"/><path class="cls-2" d="M12,8a3,3,0,0,0-1,5.83A1,1,0,0,0,11,14v6a1,1,0,0,0,2,0V14a1,1,0,0,0,0-.17A3,3,0,0,0,12,8Zm0,4a1,1,0,1,1,1-1A1,1,0,0,1,12,12Z"/><path class="cls-2" d="M3.5,11A6.87,6.87,0,0,1,6.14,5.77,1,1,0,1,0,4.86,4.23,8.84,8.84,0,0,0,1.5,11a8.84,8.84,0,0,0,3.36,6.77,1,1,0,1,0,1.28-1.54A6.87,6.87,0,0,1,3.5,11Z"/><path class="cls-2" d="M16.64,6.24a1,1,0,0,0-1.28,1.52A4.28,4.28,0,0,1,17,11a4.28,4.28,0,0,1-1.64,3.24A1,1,0,0,0,16,16a1,1,0,0,0,.64-.24A6.2,6.2,0,0,0,19,11,6.2,6.2,0,0,0,16.64,6.24Z"/><path class="cls-2" d="M8.76,6.36a1,1,0,0,0-1.4-.12A6.2,6.2,0,0,0,5,11a6.2,6.2,0,0,0,2.36,4.76,1,1,0,0,0,1.4-.12,1,1,0,0,0-.12-1.4A4.28,4.28,0,0,1,7,11,4.28,4.28,0,0,1,8.64,7.76,1,1,0,0,0,8.76,6.36Z"/><path class="cls-2" d="M19.14,4.23a1,1,0,1,0-1.28,1.54A6.87,6.87,0,0,1,20.5,11a6.87,6.87,0,0,1-2.64,5.23,1,1,0,0,0,1.28,1.54A8.84,8.84,0,0,0,22.5,11,8.84,8.84,0,0,0,19.14,4.23Z"/></g></g></g></svg>