<svg width="24" height="24" xmlns="http://www.w3.org/2000/svg" xmlns:xlink="http://www.w3.org/1999/xlink"><defs><path d="M12 12a1 1 0 1 1 0-2 1 1 0 0 1 0 2m0-4c1.654 0 3 1.346 3 3a2.993 2.993 0 0 1-2.035 2.826c.011.059.035.112.035.174v6a1 1 0 1 1-2 0v-6c0-.062.024-.115.035-.174A2.993 2.993 0 0 1 9 11c0-1.654 1.346-3 3-3zm-8.5 3c0 1.941.938 3.8 2.644 5.234.422.357.477.988.122 1.41a1.002 1.002 0 0 1-1.41.122C2.692 15.944 1.5 13.541 1.5 11c0-2.541 1.192-4.944 3.356-6.766a1.002 1.002 0 0 1 1.41.122c.355.422.3 1.053-.122 1.41C4.438 7.2 3.5 9.059 3.5 11zm13.144-4.765C18.164 7.513 19 9.206 19 11c0 1.794-.836 3.486-2.356 4.764a.993.993 0 0 1-1.408-.121.997.997 0 0 1 .12-1.408C16.417 13.342 17 12.193 17 11c0-1.194-.584-2.343-1.643-3.236a.997.997 0 0 1-.121-1.408.998.998 0 0 1 1.408-.12zm-7.88.121a.998.998 0 0 1-.12 1.408C7.584 8.657 7 9.806 7 11c0 1.193.584 2.342 1.644 3.235a.998.998 0 0 1 .12 1.408.997.997 0 0 1-1.407.121C5.837 14.486 5 12.794 5 11s.837-3.487 2.357-4.765a.996.996 0 0 1 1.408.121zm10.38-2.122C21.308 6.055 22.5 8.46 22.5 11c0 2.541-1.192 4.944-3.356 6.765a1 1 0 1 1-1.287-1.53C19.562 14.798 20.5 12.94 20.5 11c0-1.942-.938-3.8-2.643-5.235a1 1 0 1 1 1.287-1.53z" id="a"/></defs><g fill-rule="evenodd"><mask id="b"><use xlink:href="#a"/></mask><use xlink:href="#a"/><g mask="url(#b)"><rect width="24" height="24"/></g></g></svg>