<svg xmlns="http://www.w3.org/2000/svg" viewBox="0 0 24 24"><defs><style>.cls-1{fill:#fff;opacity:0;}.cls-2{fill:#231f20;}</style></defs><title>recording</title><g id="Layer_2" data-name="Layer 2"><g id="recording"><g id="recording-2" data-name="recording"><rect class="cls-1" width="24" height="24"/><path class="cls-2" d="M18,8a4,4,0,0,0-4,4,3.91,3.91,0,0,0,.56,2H9.44A3.91,3.91,0,0,0,10,12a4,4,0,1,0-4,4H18a4,4,0,0,0,0-8ZM4,12a2,2,0,1,1,2,2A2,2,0,0,1,4,12Zm14,2a2,2,0,1,1,2-2A2,2,0,0,1,18,14Z"/></g></g></g></svg>