<svg width="24" height="24" xmlns="http://www.w3.org/2000/svg" xmlns:xlink="http://www.w3.org/1999/xlink"><defs><path d="M18 14c-1.103 0-2-.897-2-2s.897-2 2-2 2 .897 2 2-.897 2-2 2M4 12c0-1.103.897-2 2-2s2 .897 2 2-.897 2-2 2-2-.897-2-2m14-4c-2.206 0-4 1.794-4 4 0 .731.212 1.409.557 2H9.443A3.953 3.953 0 0 0 10 12c0-2.206-1.794-4-4-4s-4 1.794-4 4 1.794 4 4 4h12c2.206 0 4-1.794 4-4s-1.794-4-4-4" id="a"/></defs><g fill-rule="evenodd"><mask id="b"><use xlink:href="#a"/></mask><use xlink:href="#a"/><g mask="url(#b)"><rect width="24" height="24"/></g></g></svg>