<svg width="24" height="24" xmlns="http://www.w3.org/2000/svg" xmlns:xlink="http://www.w3.org/1999/xlink"><defs><path d="M14.5 15.908V8.014l4.822 3.984-4.822 3.91zm-8 0V8.014l4.822 3.984-4.822 3.91zm14.358-5.234L15.759 6.46a2.088 2.088 0 0 0-2.209-.259c-.648.306-1.05.913-1.05 1.586v2.591L7.759 6.46a2.088 2.088 0 0 0-2.209-.259c-.648.306-1.05.913-1.05 1.586v8.426c0 .673.402 1.28 1.05 1.586.289.135.599.202.906.202a2.04 2.04 0 0 0 1.303-.462l4.741-3.916v2.59c0 .673.402 1.28 1.05 1.586.289.135.599.202.906.202a2.04 2.04 0 0 0 1.303-.462l5.1-4.213c.407-.336.641-.82.641-1.326 0-.506-.234-.99-.642-1.326z" id="a"/></defs><g fill-rule="evenodd"><mask id="b"><use xlink:href="#a"/></mask><use xlink:href="#a"/><g mask="url(#b)"><rect width="24" height="24"/></g></g></svg>