<svg width="24" height="24" xmlns="http://www.w3.org/2000/svg" xmlns:xlink="http://www.w3.org/1999/xlink"><defs><path d="M19 18c0 .551-.448 1-1 1h-2v-3a1 1 0 0 0-1-1H9a1 1 0 0 0-1 1v3H6c-.552 0-1-.449-1-1V6c0-.551.448-1 1-1h2v5a1 1 0 0 0 1 1h4a1 1 0 1 0 0-2h-3V5h3.172c.263 0 .52.107.707.293l4.828 4.828a.996.996 0 0 1 .293.708V18zm-9 1h4v-2h-4v2zM20.121 8.707l-4.828-4.828A2.978 2.978 0 0 0 13.172 3H6C4.346 3 3 4.346 3 6v12c0 1.654 1.346 3 3 3h12c1.654 0 3-1.346 3-3v-7.171c0-.802-.313-1.556-.879-2.122z" id="a"/></defs><g fill-rule="evenodd"><mask id="b"><use xlink:href="#a"/></mask><use xlink:href="#a"/><g mask="url(#b)"><rect width="24" height="24"/></g></g></svg>