<svg width="24" height="24" xmlns="http://www.w3.org/2000/svg" xmlns:xlink="http://www.w3.org/1999/xlink"><defs><path d="M6.5 19a1.001 1.001 0 0 1 0-2 1.001 1.001 0 0 1 0 2zm0-12a1.001 1.001 0 0 1 0-2 1.001 1.001 0 0 1 0 2zm13.708-1.294L9.214 16.74c.179.385.286.809.286 1.26 0 1.654-1.346 3-3 3s-3-1.346-3-3 1.346-3 3-3c.473 0 .913.12 1.312.314l3.288-3.3-3.307-3.307c-.003-.002-.003-.006-.006-.009A2.957 2.957 0 0 1 6.5 9c-1.654 0-3-1.346-3-3s1.346-3 3-3 3 1.346 3 3c0 .462-.114.896-.302 1.287l.009.006 3.305 3.304 6.28-6.303a1 1 0 0 1 1.416 1.412zm-5.001 7.587l5 5a.999.999 0 1 1-1.414 1.414l-5-5a.999.999 0 1 1 1.414-1.414z" id="a"/></defs><g fill-rule="evenodd"><mask id="b"><use xlink:href="#a"/></mask><use xlink:href="#a"/><g mask="url(#b)"><rect width="24" height="24"/></g></g></svg>