<svg xmlns="http://www.w3.org/2000/svg" viewBox="0 0 24 24"><defs><style>.cls-1{fill:#fff;opacity:0;}.cls-2{fill:#231f20;}</style></defs><title>scissors</title><g id="Layer_2" data-name="Layer 2"><g id="scissors"><g id="scissors-2" data-name="scissors"><rect class="cls-1" width="24" height="24"/><path class="cls-2" d="M20.21,5.71a1,1,0,1,0-1.42-1.42L12.51,10.6,9.21,7.29h0A3,3,0,0,0,9.5,6a3,3,0,1,0-3,3,3,3,0,0,0,1.29-.3h0L11.1,12l-3.29,3.3A3,3,0,0,0,6.5,15a3,3,0,1,0,3,3,3,3,0,0,0-.29-1.26ZM6.5,7a1,1,0,1,1,1-1A1,1,0,0,1,6.5,7Zm0,12a1,1,0,1,1,1-1A1,1,0,0,1,6.5,19Z"/><path class="cls-2" d="M15.21,13.29a1,1,0,0,0-1.42,1.42l5,5a1,1,0,0,0,1.42,0,1,1,0,0,0,0-1.42Z"/></g></g></g></svg>