<svg xmlns="http://www.w3.org/2000/svg" viewBox="0 0 24 24"><defs><style>.cls-1{fill:#fff;opacity:0;}.cls-2{fill:#231f20;}</style></defs><title>shake</title><g id="Layer_2" data-name="Layer 2"><g id="shake"><g id="shake-2" data-name="shake"><rect class="cls-1" width="24" height="24"/><path class="cls-2" d="M5.5,18a1,1,0,0,1-.64-.24A8.81,8.81,0,0,1,1.5,11,8.81,8.81,0,0,1,4.86,4.24,1,1,0,1,1,6.14,5.76,6.9,6.9,0,0,0,3.5,11a6.9,6.9,0,0,0,2.64,5.24,1,1,0,0,1,.13,1.4A1,1,0,0,1,5.5,18Z"/><path class="cls-2" d="M12,7a4.09,4.09,0,0,1,1,.14V3a1,1,0,0,0-2,0V7.14A4.09,4.09,0,0,1,12,7Z"/><path class="cls-2" d="M12,15a4.09,4.09,0,0,1-1-.14V20a1,1,0,0,0,2,0V14.86A4.09,4.09,0,0,1,12,15Z"/><path class="cls-2" d="M16,16a1,1,0,0,1-.77-.36,1,1,0,0,1,.13-1.4A4.28,4.28,0,0,0,17,11a4.28,4.28,0,0,0-1.64-3.24,1,1,0,1,1,1.28-1.52A6.2,6.2,0,0,1,19,11a6.2,6.2,0,0,1-2.36,4.76A1,1,0,0,1,16,16Z"/><path class="cls-2" d="M8,16a1,1,0,0,1-.64-.24A6.2,6.2,0,0,1,5,11,6.2,6.2,0,0,1,7.36,6.24,1,1,0,1,1,8.64,7.76,4.28,4.28,0,0,0,7,11a4.28,4.28,0,0,0,1.64,3.24,1,1,0,0,1,.13,1.4A1,1,0,0,1,8,16Z"/><path class="cls-2" d="M18.5,18a1,1,0,0,1-.77-.36,1,1,0,0,1,.13-1.4A6.9,6.9,0,0,0,20.5,11a6.9,6.9,0,0,0-2.64-5.24,1,1,0,1,1,1.28-1.52A8.81,8.81,0,0,1,22.5,11a8.81,8.81,0,0,1-3.36,6.76A1,1,0,0,1,18.5,18Z"/><path class="cls-2" d="M12,12a1,1,0,1,1,1-1A1,1,0,0,1,12,12Zm0-1Zm0,0Zm0,0Zm0,0Zm0,0Zm0,0Zm0,0Z"/></g></g></g></svg>