<svg width="24" height="24" xmlns="http://www.w3.org/2000/svg" xmlns:xlink="http://www.w3.org/1999/xlink"><defs><path d="M12 4.146L5 8.085v.144a13.16 13.16 0 0 0 6.698 11.454l.302.17.302-.17A13.16 13.16 0 0 0 19 8.23v-.144l-7-3.939zm0 17.704c-.339 0-.678-.084-.979-.254l-.303-.17A15.158 15.158 0 0 1 3 8.23v-.146c0-.718.39-1.386 1.018-1.741l7.002-3.938a2.009 2.009 0 0 1 1.959-.001l7.001 3.938A2.006 2.006 0 0 1 21 8.085v.144a15.158 15.158 0 0 1-7.718 13.197l-.302.17c-.302.17-.641.255-.98.255z" id="a"/></defs><g fill-rule="evenodd"><mask id="b"><use xlink:href="#a"/></mask><use xlink:href="#a"/><g mask="url(#b)"><rect width="24" height="24"/></g></g></svg>