<svg width="24" height="24" xmlns="http://www.w3.org/2000/svg" xmlns:xlink="http://www.w3.org/1999/xlink"><defs><path d="M4.707 3.293l16 16a.999.999 0 1 1-1.414 1.414l-16-16a.999.999 0 1 1 1.414-1.414zm7.595 16.39a13.093 13.093 0 0 0 2.613-1.94l1.414 1.415a15.056 15.056 0 0 1-3.047 2.268l-.301.17a2.005 2.005 0 0 1-1.96 0l-.303-.17A15.159 15.159 0 0 1 3 8.23v-.145c0-.598.28-1.15.732-1.525l1.432 1.433L5 8.085v.145c0 4.74 2.567 9.129 6.698 11.454l.302.17.302-.17zm7.678-13.34A2.004 2.004 0 0 1 21 8.085v.145a15.12 15.12 0 0 1-2.162 7.78l-1.465-1.466A13.126 13.126 0 0 0 19 8.23v-.145l-7-3.938-3.216 1.809-1.469-1.468 3.705-2.084a2.013 2.013 0 0 1 1.96 0l7 3.938z" id="a"/></defs><g fill-rule="evenodd"><mask id="b"><use xlink:href="#a"/></mask><use xlink:href="#a"/><g mask="url(#b)"><rect width="24" height="24"/></g></g></svg>