<?xml version="1.0" encoding="UTF-8"?>
<svg width="18px" height="18px" viewBox="0 0 18 18" version="1.1" xmlns="http://www.w3.org/2000/svg" xmlns:xlink="http://www.w3.org/1999/xlink">
    <!-- Generator: Sketch 63.1 (92452) - https://sketch.com -->
    <title>archive</title>
    <desc>Created with Sketch.</desc>
    <g id="Page-1" stroke="none" stroke-width="1" fill="none" fill-rule="evenodd">
        <g id="archive" transform="translate(-3.000000, -3.000000)">
            <rect id="Rectangle" opacity="0" transform="translate(12.000000, 12.000000) rotate(90.000000) translate(-12.000000, -12.000000) " x="0" y="0" width="24" height="24"></rect>
            <path d="M20.0168167,5.04423374 L13.8973073,3.00037925 L13.5244793,3.81670609 C13.253243,4.41059269 12.6640681,4.79685476 12.0071174,4.79685476 C11.3499455,4.79685476 10.7606045,4.41032929 10.4894967,3.81613892 L10.1171216,3 L3.98435118,5.04313358 L3.8248363,5.10838889 C3.2849129,5.40103495 3,5.8798656 3,6.40034912 L3,10.8252179 L3.01105591,10.9921497 C3.14557132,11.7555354 3.74026309,12.2571016 4.44483986,12.2571016 L4.57179682,12.2515634 C4.65614396,12.24419 4.73974714,12.2294766 4.82163264,12.2075557 L6.383,11.6661637 L5.58781219,18.9066985 L5.57733089,19.0546936 C5.569801,20.0567878 6.27796248,20.8669446 7.23445339,20.9837616 C7.31078192,20.9930836 7.38761436,20.9977698 7.464522,20.9977931 L16.5208919,21 L16.6829487,20.9923805 C17.6921893,20.8771667 18.4107996,20.0759773 18.4110882,19.1237742 L18.4033725,18.9537783 L17.602,11.6651767 L19.1103356,12.1864567 L19.2682503,12.2270732 L19.3473604,12.240737 C20.1341317,12.3086211 20.773221,11.862054 20.95213,11.1904944 C20.9839148,11.0711856 21,10.9483233 21,10.8249628 L21,6.40105956 L20.9886972,6.23247397 C20.8831587,5.6351599 20.5178529,5.21166137 20.0168167,5.04423374 Z M9.149,5.40478503 L9.20021775,5.46978726 C9.88256682,6.27703175 10.8992194,6.77080767 12.0071174,6.77080767 L12.2136508,6.76506909 C13.2403827,6.70790312 14.1736486,6.22693877 14.8133558,5.47056875 L14.863,5.40675898 L19.003,6.789513 L19.001,10.057392 L15.2728448,8.76976255 L16.4,19.0270341 L7.585,19.0230862 L8.71419491,8.76583986 L4.997,10.0564051 L5,6.78359114 L9.149,5.40478503 Z" id="Path" fill="#000000"></path>
        </g>
    </g>
</svg>