<svg width="24" height="24" xmlns="http://www.w3.org/2000/svg" xmlns:xlink="http://www.w3.org/1999/xlink"><defs><path d="M15 11a1 1 0 0 0-1 1c0 1.103-.897 2-2 2s-2-.897-2-2a1 1 0 1 0-2 0c0 2.206 1.794 4 4 4s4-1.794 4-4a1 1 0 0 0-1-1m3 8H6c-.552 0-1-.449-1-1V9h14v9c0 .551-.448 1-1 1zM8.121 5.293A1.01 1.01 0 0 1 8.828 5h6.344c.263 0 .52.107.707.293L17.586 7H6.414l1.707-1.707zm12 1.414l-2.828-2.828A2.978 2.978 0 0 0 15.172 3H8.828c-.801 0-1.555.312-2.121.879L3.879 6.707A2.978 2.978 0 0 0 3 8.829V18c0 1.654 1.346 3 3 3h12c1.654 0 3-1.346 3-3V8.829c0-.802-.312-1.556-.879-2.122z" id="a"/></defs><g fill-rule="evenodd"><mask id="b"><use xlink:href="#a"/></mask><use xlink:href="#a"/><g mask="url(#b)"><rect width="24" height="24"/></g></g></svg>