<svg xmlns="http://www.w3.org/2000/svg" viewBox="0 0 24 24"><defs><style>.cls-1{fill:#fff;opacity:0;}.cls-2{fill:#231f20;}</style></defs><title>shopping-cart</title><g id="Layer_2" data-name="Layer 2"><g id="shopping-cart"><g id="shopping-cart-2" data-name="shopping-cart"><rect class="cls-1" width="24" height="24"/><path class="cls-2" d="M21.08,7a2,2,0,0,0-1.7-1H6.58L6,3.74A1,1,0,0,0,5,3H3A1,1,0,0,0,3,5H4.24L7,15.26A1,1,0,0,0,8,16h9a1,1,0,0,0,.89-.55l3.28-6.56A2,2,0,0,0,21.08,7ZM16.38,14H8.76L7.13,8H19.38Z"/><circle class="cls-2" cx="7.5" cy="19.5" r="1.5"/><circle class="cls-2" cx="17.5" cy="19.5" r="1.5"/></g></g></g></svg>