<svg width="24" height="24" xmlns="http://www.w3.org/2000/svg" xmlns:xlink="http://www.w3.org/1999/xlink"><defs><path d="M16.382 14H8.764L7.127 8h12.255l-3 6zm4.7-7.052c.368.594.402 1.321.089 1.946l-3.276 6.553c-.17.339-.516.553-.895.553H8a1 1 0 0 1-.965-.737L4.235 5H3a1 1 0 1 1 0-2h2a1 1 0 0 1 .965.737L6.582 6h12.8c.698 0 1.334.354 1.7.948zM7.5 18a1.5 1.5 0 1 1 0 3 1.5 1.5 0 0 1 0-3zm10 0a1.5 1.5 0 1 1 0 3 1.5 1.5 0 0 1 0-3z" id="a"/></defs><g fill-rule="evenodd"><mask id="b"><use xlink:href="#a"/></mask><use xlink:href="#a"/><g mask="url(#b)"><rect width="24" height="24"/></g></g></svg>