<svg width="24" height="24" xmlns="http://www.w3.org/2000/svg" xmlns:xlink="http://www.w3.org/1999/xlink"><defs><path d="M18 9.308l-.001-1.893L5.707 19.707a.997.997 0 0 1-1.414 0 .999.999 0 0 1 0-1.414l6.287-6.287-5.832-5.83A.999.999 0 1 1 6.162 4.76l5.832 5.831 4.582-4.583L14.687 6a1 1 0 0 1-.995-1.005c.003-.552.477-.985 1.005-.995l4.305.021a1 1 0 0 1 .995 1L20 9.307c0 .552-.447 1-.999 1.001H19a1 1 0 0 1-1-1zm1.005 4.371A1 1 0 0 1 20 14.684l-.021 4.208a.98.98 0 0 1-.98 1.108c-.026 0-.052-.013-.08-.016l-4.226.003a1 1 0 0 1-.001-2h1.879l-2.778-2.78a.999.999 0 1 1 1.414-1.414l2.783 2.783.01-1.902a1 1 0 0 1 1-.995h.005z" id="a"/></defs><g fill-rule="evenodd"><mask id="b"><use xlink:href="#a"/></mask><use xlink:href="#a"/><g mask="url(#b)"><rect width="24" height="24"/></g></g></svg>