<svg xmlns="http://www.w3.org/2000/svg" viewBox="0 0 24 24"><defs><style>.cls-1{fill:#fff;opacity:0;}.cls-2{fill:#231f20;}</style></defs><title>shuffle</title><g id="Layer_2" data-name="Layer 2"><g id="shuffle"><g id="shuffle-2" data-name="shuffle"><rect class="cls-1" width="24" height="24" transform="translate(24 24) rotate(180)"/><path class="cls-2" d="M18,9.31a1,1,0,0,0,1,1h0a1,1,0,0,0,1-1V5a1,1,0,0,0-1-1L14.7,4a1,1,0,0,0-1,1,1,1,0,0,0,1,1h1.89L12,10.59,6.16,4.76A1,1,0,0,0,4.75,6.17L10.58,12,4.29,18.29a1,1,0,0,0,0,1.42,1,1,0,0,0,1.42,0L18,7.42Z"/><path class="cls-2" d="M19,13.68h0a1,1,0,0,0-1,1v1.91l-2.78-2.79a1,1,0,0,0-1.42,1.42L16.57,18H14.69a1,1,0,0,0,0,2h4.23L19,20a1,1,0,0,0,1-1.11l0-4.21A1,1,0,0,0,19,13.68Z"/></g></g></g></svg>