<svg width="24" height="24" xmlns="http://www.w3.org/2000/svg" xmlns:xlink="http://www.w3.org/1999/xlink"><defs><path d="M18.709 14.294a.998.998 0 0 0-1.414-.003.999.999 0 0 0-.004 1.414l.293.295H16c-2.206 0-4-1.795-4-4 0-2.206 1.794-4 4-4h1.588l-.293.291a.999.999 0 1 0 1.41 1.417l2-1.99a.997.997 0 0 0 .004-1.415l-2-2.009a.998.998 0 0 0-1.414-.003.999.999 0 0 0-.004 1.414l.293.295H16a5.995 5.995 0 0 0-5 2.69A5.995 5.995 0 0 0 6 6H4a1 1 0 1 0 0 2h2c2.206 0 4 1.794 4 4 0 2.205-1.794 4-4 4H4a1 1 0 1 0 0 2h2a5.996 5.996 0 0 0 5-2.69A5.996 5.996 0 0 0 16 18h1.588l-.293.291a.999.999 0 1 0 1.41 1.417l2-1.99a.997.997 0 0 0 .004-1.415l-2-2.009z" id="a"/></defs><g fill-rule="evenodd"><mask id="b"><use xlink:href="#a"/></mask><use xlink:href="#a"/><g mask="url(#b)"><rect width="24" height="24"/></g></g></svg>