<svg xmlns="http://www.w3.org/2000/svg" viewBox="0 0 24 24"><defs><style>.cls-1{fill:#fff;opacity:0;}.cls-2{fill:#231f20;}</style></defs><title>skip-back</title><g id="Layer_2" data-name="Layer 2"><g id="skip-back"><g id="skip-back-2" data-name="skip-back"><rect class="cls-1" width="24" height="24" transform="translate(24 24) rotate(180)"/><path class="cls-2" d="M16.45,6.2a2.1,2.1,0,0,0-2.21.26l-5.1,4.21L9,10.82V7A1,1,0,0,0,7,7V17a1,1,0,0,0,2,0V13.18l.14.15,5.1,4.21a2.06,2.06,0,0,0,1.3.46,2.23,2.23,0,0,0,.91-.2,1.76,1.76,0,0,0,1.05-1.59V7.79A1.76,1.76,0,0,0,16.45,6.2ZM15.5,16l-4.82-4L15.5,8.09Z"/></g></g></g></svg>