<svg width="24" height="24" xmlns="http://www.w3.org/2000/svg" xmlns:xlink="http://www.w3.org/1999/xlink"><defs><path d="M8.5 15.908V8.014l4.822 3.984-4.822 3.91zM16 6a1 1 0 0 0-1 1v3.818c-.047-.049-.088-.1-.142-.144L9.759 6.46a2.088 2.088 0 0 0-2.209-.259c-.648.306-1.05.913-1.05 1.586v8.426c0 .673.402 1.28 1.05 1.586.289.135.599.202.906.202a2.04 2.04 0 0 0 1.303-.462l5.1-4.213c.053-.044.094-.096.141-.145v3.82a1 1 0 1 0 2 0V7a1 1 0 0 0-1-1z" id="a"/></defs><g fill-rule="evenodd"><mask id="b"><use xlink:href="#a"/></mask><use xlink:href="#a"/><g mask="url(#b)"><rect width="24" height="24"/></g></g></svg>