<svg width="24" height="24" xmlns="http://www.w3.org/2000/svg" xmlns:xlink="http://www.w3.org/1999/xlink"><defs><path d="M15.5 15.985l-4.822-3.983 4.822-3.91v7.893zm.95-9.784a2.085 2.085 0 0 0-2.209.26l-5.1 4.212c-.053.044-.094.096-.141.145V7a1 1 0 1 0-2 0v10a1 1 0 0 0 2 0v-3.819c.047.05.088.101.142.145l5.099 4.214a2.05 2.05 0 0 0 1.303.461c.307 0 .617-.067.906-.203.648-.305 1.05-.913 1.05-1.585V7.787c0-.673-.402-1.28-1.05-1.586z" id="a"/></defs><g fill-rule="evenodd"><mask id="b"><use xlink:href="#a"/></mask><use xlink:href="#a"/><g mask="url(#b)"><rect width="24" height="24"/></g></g></svg>