<svg width="24" height="24" xmlns="http://www.w3.org/2000/svg" xmlns:xlink="http://www.w3.org/1999/xlink"><defs><path d="M4 12c0-1.846.635-3.542 1.688-4.897l11.209 11.209A7.948 7.948 0 0 1 12 20c-4.411 0-8-3.589-8-8m16 0a7.954 7.954 0 0 1-1.688 4.897L7.103 5.688A7.948 7.948 0 0 1 12 4c4.411 0 8 3.589 8 8M12 2C6.486 2 2 6.486 2 12s4.486 10 10 10 10-4.486 10-10S17.514 2 12 2" id="a"/></defs><g fill-rule="evenodd"><mask id="b"><use xlink:href="#a"/></mask><use xlink:href="#a"/><g mask="url(#b)"><rect width="24" height="24"/></g></g></svg>