<svg xmlns="http://www.w3.org/2000/svg" viewBox="0 0 24 24"><defs><style>.cls-1{fill:#fff;opacity:0;}.cls-2{fill:#231f20;}</style></defs><title>slash</title><g id="Layer_2" data-name="Layer 2"><g id="slash"><g id="slash-2" data-name="slash"><rect class="cls-1" width="24" height="24"/><path class="cls-2" d="M12,2A10,10,0,1,0,22,12,10,10,0,0,0,12,2Zm8,10a7.92,7.92,0,0,1-1.69,4.9L7.1,5.69A7.92,7.92,0,0,1,12,4,8,8,0,0,1,20,12ZM4,12A7.92,7.92,0,0,1,5.69,7.1L16.9,18.31A7.92,7.92,0,0,1,12,20,8,8,0,0,1,4,12Z"/></g></g></g></svg>