<svg width="24" height="24" xmlns="http://www.w3.org/2000/svg" xmlns:xlink="http://www.w3.org/1999/xlink"><defs><path d="M12 15a1.5 1.5 0 1 1-.001 3.001A1.5 1.5 0 0 1 12 15zm2.5-9a1 1 0 1 1 0 2h-5a1 1 0 1 1 0-2h5zM18 19a1 1 0 0 1-1 1H7a1 1 0 0 1-1-1V5a1 1 0 0 1 1-1h10a1 1 0 0 1 1 1v14zM17 2H7C5.346 2 4 3.346 4 5v14c0 1.654 1.346 3 3 3h10c1.654 0 3-1.346 3-3V5c0-1.654-1.346-3-3-3z" id="a"/></defs><g fill-rule="evenodd"><mask id="b"><use xlink:href="#a"/></mask><use xlink:href="#a"/><g mask="url(#b)"><rect width="24" height="24"/></g></g></svg>