<svg xmlns="http://www.w3.org/2000/svg" viewBox="0 0 24 24"><defs><style>.cls-1{fill:#fff;opacity:0;}.cls-2{fill:#231f20;}</style></defs><title>slash</title><g id="Layer_2" data-name="Layer 2"><g id="smiling-face"><g id="smiling-face" data-name="smiling-face"><rect class="cls-1" width="24" height="24"/>            <path d="M12,2 C17.5228475,2 22,6.4771525 22,12 C22,17.5228475 17.5228475,22 12,22 C6.4771525,22 2,17.5228475 2,12 C2,6.4771525 6.4771525,2 12,2 Z M12,4 C7.581722,4 4,7.581722 4,12 C4,16.418278 7.581722,20 12,20 C16.418278,20 20,16.418278 20,12 C20,7.581722 16.418278,4 12,4 Z M17,13 C17,15.7614237 14.7614237,18 12,18 C9.23857625,18 7,15.7614237 7,13 L7,13 Z" id="🎨-Icon-Сolor"></path></g></g></g></svg>
