<svg width="24" height="24" xmlns="http://www.w3.org/2000/svg" xmlns:xlink="http://www.w3.org/1999/xlink"><defs><path d="M18 19a1 1 0 0 1-1 1H7a1 1 0 0 1-1-1V5a1 1 0 0 1 1-1h10a1 1 0 0 1 1 1v14zM17 2H7C5.346 2 4 3.346 4 5v14c0 1.654 1.346 3 3 3h10c1.654 0 3-1.346 3-3V5c0-1.654-1.346-3-3-3zm-5 15c-.827 0-1.5-.673-1.5-1.5S11.173 14 12 14s1.5.673 1.5 1.5S12.827 17 12 17m0-5c-1.93 0-3.5 1.57-3.5 3.5S10.07 19 12 19s3.5-1.57 3.5-3.5S13.93 12 12 12m0-5a1 1 0 1 1 0 2 1 1 0 0 1 0-2m0 4c1.654 0 3-1.346 3-3s-1.346-3-3-3-3 1.346-3 3 1.346 3 3 3" id="a"/></defs><g fill-rule="evenodd"><mask id="b"><use xlink:href="#a"/></mask><use xlink:href="#a"/><g mask="url(#b)"><rect width="24" height="24"/></g></g></svg>