<svg xmlns="http://www.w3.org/2000/svg" viewBox="0 0 24 24"><defs><style>.cls-1{fill:#fff;opacity:0;}.cls-2{fill:#231f20;}</style></defs><title>speaker</title><g id="Layer_2" data-name="Layer 2"><g id="speaker"><g id="speaker-2" data-name="speaker"><rect class="cls-1" width="24" height="24" transform="translate(24 0) rotate(90)"/><path class="cls-2" d="M12,11A3,3,0,1,0,9,8,3,3,0,0,0,12,11Zm0-4a1,1,0,1,1-1,1A1,1,0,0,1,12,7Z"/><path class="cls-2" d="M12,12a3.5,3.5,0,1,0,3.5,3.5A3.5,3.5,0,0,0,12,12Zm0,5a1.5,1.5,0,1,1,1.5-1.5A1.5,1.5,0,0,1,12,17Z"/><path class="cls-2" d="M17,2H7A3,3,0,0,0,4,5V19a3,3,0,0,0,3,3H17a3,3,0,0,0,3-3V5A3,3,0,0,0,17,2Zm1,17a1,1,0,0,1-1,1H7a1,1,0,0,1-1-1V5A1,1,0,0,1,7,4H17a1,1,0,0,1,1,1Z"/></g></g></g></svg>