<svg xmlns="http://www.w3.org/2000/svg" viewBox="0 0 24 24"><defs><style>.cls-1{fill:#fff;opacity:0;}.cls-2{fill:#231f20;}</style></defs><title>star</title><g id="Layer_2" data-name="Layer 2"><g id="star"><g id="star-2" data-name="star"><rect class="cls-1" width="24" height="24" transform="translate(24 0) rotate(90)"/><path class="cls-2" d="M17.56,21a1,1,0,0,1-.46-.11L12,18.22,6.9,20.89a1,1,0,0,1-1.45-1.06l1-5.63-4.12-4a1,1,0,0,1-.25-1,1,1,0,0,1,.81-.68l5.7-.83L11.1,2.56a1,1,0,0,1,1.8,0l2.54,5.12,5.7.83a1,1,0,0,1,.81.68,1,1,0,0,1-.25,1l-4.12,4,1,5.63a1,1,0,0,1-.4,1A1,1,0,0,1,17.56,21ZM12,16.1a.92.92,0,0,1,.46.11l3.77,2L15.51,14a1,1,0,0,1,.29-.89l3-2.93-4.2-.62A1,1,0,0,1,13.89,9L12,5.25,10.11,9a1,1,0,0,1-.75.54l-4.2.62,3,2.93a1,1,0,0,1,.29.89l-.72,4.16,3.77-2A.92.92,0,0,1,12,16.1Z"/></g></g></g></svg>