<svg xmlns="http://www.w3.org/2000/svg" viewBox="0 0 24 24"><defs><style>.cls-1{fill:#fff;opacity:0;}.cls-2{fill:#231f20;}</style></defs><title>stop-circle</title><g id="Layer_2" data-name="Layer 2"><g id="stop-circle"><g id="stop-circle-2" data-name="stop-circle"><rect class="cls-1" width="24" height="24"/><path class="cls-2" d="M12,2A10,10,0,1,0,22,12,10,10,0,0,0,12,2Zm0,18a8,8,0,1,1,8-8A8,8,0,0,1,12,20Z"/><path class="cls-2" d="M14.75,8H9.25A1.25,1.25,0,0,0,8,9.25v5.5A1.25,1.25,0,0,0,9.25,16h5.5A1.25,1.25,0,0,0,16,14.75V9.25A1.25,1.25,0,0,0,14.75,8ZM14,14H10V10h4Z"/></g></g></g></svg>