<svg width="24" height="24" xmlns="http://www.w3.org/2000/svg" xmlns:xlink="http://www.w3.org/1999/xlink"><defs><path d="M10 14h4v-4h-4v4zm4.75-6h-5.5C8.561 8 8 8.561 8 9.25v5.5c0 .689.561 1.25 1.25 1.25h5.5c.689 0 1.25-.561 1.25-1.25v-5.5C16 8.561 15.439 8 14.75 8zM12 20c-4.411 0-8-3.589-8-8s3.589-8 8-8 8 3.589 8 8-3.589 8-8 8m0-18C6.486 2 2 6.486 2 12s4.486 10 10 10 10-4.486 10-10S17.514 2 12 2" id="a"/></defs><g fill-rule="evenodd"><mask id="b"><use xlink:href="#a"/></mask><use xlink:href="#a"/><g mask="url(#b)"><rect width="24" height="24"/></g></g></svg>