<svg width="24" height="24" xmlns="http://www.w3.org/2000/svg" xmlns:xlink="http://www.w3.org/1999/xlink"><defs><path d="M12 14c-1.103 0-2-.897-2-2s.897-2 2-2 2 .897 2 2-.897 2-2 2m0-6c2.206 0 4 1.794 4 4s-1.794 4-4 4-4-1.794-4-4 1.794-4 4-4zm0-2a1 1 0 0 1-1-1V3a1 1 0 1 1 2 0v2a1 1 0 0 1-1 1zm9 5a1 1 0 1 1 0 2h-2a1 1 0 1 1 0-2h2zM6 12a1 1 0 0 1-1 1H3a1 1 0 1 1 0-2h2a1 1 0 0 1 1 1zm.22-6.972l1.44 1.39a1 1 0 0 1-1.39 1.44l-1.44-1.39a1 1 0 0 1 1.39-1.44zm10.815 3.11a1 1 0 0 1-.695-1.72l1.44-1.39a1 1 0 1 1 1.39 1.439l-1.44 1.39a1 1 0 0 1-.695.28zM12 18a1 1 0 0 1 1 1v2a1 1 0 1 1-2 0v-2a1 1 0 0 1 1-1zm5.73-1.857l1.439 1.39a1 1 0 0 1-1.39 1.439l-1.439-1.39a1 1 0 0 1 1.39-1.44zm-11.46 0a1 1 0 1 1 1.39 1.439l-1.439 1.39a.996.996 0 0 1-.695.28 1 1 0 0 1-.695-1.719l1.439-1.39z" id="a"/></defs><g fill-rule="evenodd"><mask id="b"><use xlink:href="#a"/></mask><use xlink:href="#a"/><g mask="url(#b)"><rect width="24" height="24"/></g></g></svg>