<svg xmlns="http://www.w3.org/2000/svg" viewBox="0 0 24 24"><defs><style>.cls-1{fill:#fff;opacity:0;}.cls-2{fill:#231f20;}</style></defs><title>sun</title><g id="Layer_2" data-name="Layer 2"><g id="sun"><g id="sun-2" data-name="sun"><rect class="cls-1" width="24" height="24" transform="translate(24 24) rotate(180)"/><path class="cls-2" d="M12,6a1,1,0,0,0,1-1V3a1,1,0,0,0-2,0V5A1,1,0,0,0,12,6Z"/><path class="cls-2" d="M21,11H19a1,1,0,0,0,0,2h2a1,1,0,0,0,0-2Z"/><path class="cls-2" d="M6,12a1,1,0,0,0-1-1H3a1,1,0,0,0,0,2H5A1,1,0,0,0,6,12Z"/><path class="cls-2" d="M6.22,5A1,1,0,0,0,4.83,6.47L6.27,7.86A1,1,0,0,0,7,8.14a1,1,0,0,0,.72-.31,1,1,0,0,0,0-1.41Z"/><path class="cls-2" d="M17,8.14a1,1,0,0,0,.69-.28l1.44-1.39A1,1,0,0,0,17.78,5L16.34,6.42a1,1,0,0,0,0,1.41A1,1,0,0,0,17,8.14Z"/><path class="cls-2" d="M12,18a1,1,0,0,0-1,1v2a1,1,0,0,0,2,0V19A1,1,0,0,0,12,18Z"/><path class="cls-2" d="M17.73,16.14a1,1,0,0,0-1.39,1.44L17.78,19a1,1,0,0,0,.69.28,1,1,0,0,0,.72-.3,1,1,0,0,0,0-1.42Z"/><path class="cls-2" d="M6.27,16.14,4.83,17.53a1,1,0,0,0,0,1.42,1,1,0,0,0,.72.3A1,1,0,0,0,6.22,19l1.44-1.39a1,1,0,0,0-1.39-1.44Z"/><path class="cls-2" d="M12,8a4,4,0,1,0,4,4A4,4,0,0,0,12,8Zm0,6a2,2,0,1,1,2-2A2,2,0,0,1,12,14Z"/></g></g></g></svg>