<svg width="24" height="24" xmlns="http://www.w3.org/2000/svg" xmlns:xlink="http://www.w3.org/1999/xlink"><defs><path d="M21.662 10.374c-.018.044-.026.093-.05.133-.038.063-.091.113-.14.167-.03.03-.05.067-.082.094-.06.049-.13.082-.2.116-.032.016-.061.042-.096.054a.982.982 0 0 1-.507.048l-4.25-.705a1 1 0 1 1 .327-1.972l1.644.272C17.063 6.395 14.686 5 12.07 5 9.11 5 6.504 6.718 5.427 9.375a.998.998 0 0 1-1.302.552.999.999 0 0 1-.551-1.302C4.958 5.208 8.293 3 12.07 3c3.412 0 6.513 1.87 8.078 4.788l.369-1.973a1 1 0 1 1 1.966.37l-.75 4c-.012.069-.045.127-.071.189zm-1.787 3.7c.512.206.76.79.552 1.301C19.043 18.792 15.707 21 11.93 21c-3.412 0-6.513-1.87-8.078-4.788l-.37 1.972a.998.998 0 0 1-1.167.798.999.999 0 0 1-.798-1.167l.749-4c.012-.062.046-.113.069-.17.025-.064.04-.134.077-.19.024-.037.06-.062.089-.095.057-.066.11-.135.18-.183.011-.008.026-.01.038-.017a.949.949 0 0 1 .315-.137c.014-.003.027.001.04 0a.98.98 0 0 1 .338-.01l4.25.706a1 1 0 1 1-.327 1.972l-1.644-.272C6.938 17.605 9.316 19 11.931 19c2.959 0 5.566-1.718 6.643-4.375a1 1 0 0 1 1.301-.552z" id="a"/></defs><g fill-rule="evenodd"><mask id="b"><use xlink:href="#a"/></mask><use xlink:href="#a"/><g mask="url(#b)"><rect width="24" height="24"/></g></g></svg>