<svg width="24" height="24" xmlns="http://www.w3.org/2000/svg" xmlns:xlink="http://www.w3.org/1999/xlink"><defs><path d="M12 4c-.552 0-1 .449-1 1v8.54a.998.998 0 0 1-.502.867A2.997 2.997 0 0 0 12 20a2.997 2.997 0 1 0 1.502-5.593.998.998 0 0 1-.502-.867V5a.965.965 0 0 0-.287-.694A.976.976 0 0 0 12 4m0 18c-2.757 0-5-2.243-5-5a5.01 5.01 0 0 1 2-3.997V5c0-1.654 1.346-3 3-3 .812 0 1.566.317 2.127.892C14.684 3.434 15 4.189 15 5v8.003A5.01 5.01 0 0 1 17 17c0 2.757-2.243 5-5 5" id="a"/></defs><g fill-rule="evenodd"><mask id="b"><use xlink:href="#a"/></mask><use xlink:href="#a"/><g mask="url(#b)"><rect width="24" height="24"/></g></g></svg>