<svg width="24" height="24" xmlns="http://www.w3.org/2000/svg" xmlns:xlink="http://www.w3.org/1999/xlink"><defs><path d="M14 4c-.552 0-1 .449-1 1v8.54a.998.998 0 0 1-.502.867A2.997 2.997 0 0 0 14 20a2.997 2.997 0 1 0 1.502-5.593.998.998 0 0 1-.502-.867V5a.965.965 0 0 0-.287-.694A.976.976 0 0 0 14 4m0 18c-2.757 0-5-2.243-5-5a5.01 5.01 0 0 1 2-3.997V5c0-1.654 1.346-3 3-3 .812 0 1.566.317 2.127.892C16.684 3.434 17 4.189 17 5v8.003A5.01 5.01 0 0 1 19 17c0 2.757-2.243 5-5 5zM7 7H3c-.55 0-1-.45-1-1s.45-1 1-1h4c.55 0 1 .45 1 1s-.45 1-1 1z" id="a"/></defs><g fill-rule="evenodd"><mask id="b"><use xlink:href="#a"/></mask><use xlink:href="#a"/><g mask="url(#b)"><rect width="24" height="24"/></g></g></svg>