<svg width="24" height="24" xmlns="http://www.w3.org/2000/svg" xmlns:xlink="http://www.w3.org/1999/xlink"><defs><path d="M9 13a1 1 0 1 1 0-2 1 1 0 0 1 0 2m0-4c-1.654 0-3 1.346-3 3s1.346 3 3 3 3-1.346 3-3-1.346-3-3-3m6 8H9c-2.757 0-5-2.243-5-5s2.243-5 5-5h6c2.757 0 5 2.243 5 5s-2.243 5-5 5m0-12H9c-3.859 0-7 3.141-7 7s3.141 7 7 7h6c3.859 0 7-3.141 7-7s-3.141-7-7-7" id="a"/></defs><g fill-rule="evenodd"><mask id="b"><use xlink:href="#a"/></mask><use xlink:href="#a"/><g mask="url(#b)"><rect width="24" height="24"/></g></g></svg>