<svg width="24" height="24" xmlns="http://www.w3.org/2000/svg" xmlns:xlink="http://www.w3.org/1999/xlink"><defs><path d="M18 19c0 .551-.448 1-1 1H7c-.552 0-1-.449-1-1V8h12v11zM10 4.328c0-.155.214-.328.5-.328h3c.286 0 .5.173.5.328V6h-4V4.328zM21 6h-5V4.328C16 3.044 14.879 2 13.5 2h-3C9.121 2 8 3.044 8 4.328V6H3c-.55 0-1 .45-1 1s.45 1 1 1h1v11c0 1.654 1.346 3 3 3h10c1.654 0 3-1.346 3-3V8h1c.55 0 1-.45 1-1s-.45-1-1-1z" id="a"/></defs><g fill-rule="evenodd"><mask id="b"><use xlink:href="#a"/></mask><use xlink:href="#a"/><g mask="url(#b)"><rect width="24" height="24"/></g></g></svg>