<svg width="24" height="24" xmlns="http://www.w3.org/2000/svg" xmlns:xlink="http://www.w3.org/1999/xlink"><defs><path d="M20.992 6.963c-.002-.072-.023-.14-.042-.21-.015-.057-.022-.116-.047-.17-.023-.051-.062-.093-.096-.141-.042-.061-.08-.122-.134-.172-.009-.01-.013-.021-.023-.03-.036-.03-.08-.041-.119-.066-.06-.04-.119-.08-.187-.105-.067-.024-.133-.03-.202-.04-.048-.007-.09-.03-.142-.03h-5a1 1 0 1 0 0 2h2.826l-4.036 4.709-4.276-2.565a.997.997 0 0 0-1.283.217l-5 6a1 1 0 0 0 1.537 1.28l4.452-5.342 4.265 2.56a1 1 0 0 0 1.274-.207L19 9.703V12a1 1 0 1 0 2 0V7c0-.013-.007-.024-.008-.037" id="a"/></defs><g fill-rule="evenodd"><mask id="b"><use xlink:href="#a"/></mask><use xlink:href="#a"/><g mask="url(#b)"><rect width="24" height="24"/></g></g></svg>