<svg xmlns="http://www.w3.org/2000/svg" viewBox="0 0 24 24"><defs><style>.cls-1{fill:#fff;opacity:0;}.cls-2{fill:#231f20;}</style></defs><title>trending-up</title><g id="Layer_2" data-name="Layer 2"><g id="trending-up"><g id="trending-up-2" data-name="trending-up"><rect class="cls-1" width="24" height="24" transform="translate(0 24) rotate(-90)"/><path class="cls-2" d="M21,7a.78.78,0,0,0,0-.21.64.64,0,0,0-.05-.17,1.1,1.1,0,0,0-.09-.14.75.75,0,0,0-.14-.17l0,0-.12-.07a.69.69,0,0,0-.19-.1l-.2,0A.7.7,0,0,0,20,6H15a1,1,0,0,0,0,2h2.83l-4,4.71L9.51,10.14a1,1,0,0,0-1.28.22l-5,6a1,1,0,0,0,.13,1.41A1,1,0,0,0,4,18a1,1,0,0,0,.77-.36L9.22,12.3l4.27,2.56a1,1,0,0,0,1.27-.21L19,9.7V12a1,1,0,0,0,2,0V7S21,7,21,7Z"/></g></g></g></svg>