<svg width="24" height="24" xmlns="http://www.w3.org/2000/svg" xmlns:xlink="http://www.w3.org/1999/xlink"><defs><path d="M19 19a1 1 0 0 1-1 1H6a1 1 0 0 1-1-1V9a1 1 0 0 1 1-1h12a1 1 0 0 1 1 1v10zM18 6h-3.586l2.293-2.293a.999.999 0 1 0-1.414-1.414L12 5.586 8.707 2.293a.999.999 0 1 0-1.414 1.414L9.586 6H6C4.346 6 3 7.346 3 9v10c0 1.654 1.346 3 3 3h12c1.654 0 3-1.346 3-3V9c0-1.654-1.346-3-3-3z" id="a"/></defs><g fill-rule="evenodd"><mask id="b"><use xlink:href="#a"/></mask><use xlink:href="#a"/><g mask="url(#b)"><rect width="24" height="24"/></g></g></svg>