<svg xmlns="http://www.w3.org/2000/svg" viewBox="0 0 24 24"><defs><style>.cls-1{fill:#fff;opacity:0;}.cls-2{fill:#231f20;}</style></defs><title>tv</title><g id="Layer_2" data-name="Layer 2"><g id="tv"><g id="tv-2" data-name="tv"><rect class="cls-1" width="24" height="24"/><path class="cls-2" d="M18,6H14.41l2.3-2.29a1,1,0,1,0-1.42-1.42L12,5.59,8.71,2.29A1,1,0,1,0,7.29,3.71L9.59,6H6A3,3,0,0,0,3,9V19a3,3,0,0,0,3,3H18a3,3,0,0,0,3-3V9A3,3,0,0,0,18,6Zm1,13a1,1,0,0,1-1,1H6a1,1,0,0,1-1-1V9A1,1,0,0,1,6,8H18a1,1,0,0,1,1,1Z"/></g></g></g></svg>