<svg width="24" height="24" xmlns="http://www.w3.org/2000/svg" xmlns:xlink="http://www.w3.org/1999/xlink"><defs><path d="M19.016 6.654v.002-.002zM8.513 17.997c.024 0 .05.001.074.003 5.695-.037 9.094-4.388 9.094-8.594 0-.382.196-.629.37-.848.158-.2.403-.508.62-.952-.792-.008-1.5-.36-1.912-.842a2.453 2.453 0 0 0-1.718-.763 2.483 2.483 0 0 0-1.79.685 2.568 2.568 0 0 0-.725 2.428l.26 1.14-1.165.081c-3.016.226-5.106-1.065-6.541-2.4.006 2.02.677 4.714 3.727 6.452l.958.546-.637.901c-.663.94-1.661 1.538-2.677 1.921a8.85 8.85 0 0 0 2.049.242h.012zm0 2.003a1.07 1.07 0 0 1-.08-.003 10.915 10.915 0 0 1-4.655-1.083 1.376 1.376 0 0 1-.763-1.442 1.394 1.394 0 0 1 1.158-1.18c1.045-.173 1.912-.479 2.54-.888-3.877-2.899-3.775-7.239-3.524-9.077.074-.538.457-.987.975-1.144.526-.16 1.07 0 1.43.41 1.537 1.74 3.072 2.615 4.872 2.748a4.57 4.57 0 0 1 1.409-3.106 4.46 4.46 0 0 1 3.228-1.233 4.459 4.459 0 0 1 3.147 1.43c.084.096.398.27.777.1a1.393 1.393 0 0 1 1.474.195c.41.341.586.878.458 1.401a6.667 6.667 0 0 1-1.283 2.6C19.508 14.833 15.36 20 8.513 20z" id="a"/></defs><g fill-rule="evenodd"><mask id="b"><use xlink:href="#a"/></mask><use xlink:href="#a"/><g mask="url(#b)"><rect width="24" height="24"/></g></g></svg>