<svg width="24" height="24" xmlns="http://www.w3.org/2000/svg" xmlns:xlink="http://www.w3.org/1999/xlink"><defs><path d="M4.063 11c.493-3.94 3.865-7 7.936-7 4.074 0 7.446 3.06 7.938 7H4.063zm7.936-9C6.486 2 2 6.486 2 12a1 1 0 0 0 1.002 1H11v6c0 1.654 1.346 3 3.002 3 1.654 0 3-1.346 3-3a1 1 0 1 0-2 0 1.001 1.001 0 0 1-2 0v-6H21a1 1 0 0 0 1-1c0-5.514-4.486-10-10-10z" id="a"/></defs><g fill-rule="evenodd"><mask id="b"><use xlink:href="#a"/></mask><use xlink:href="#a"/><g mask="url(#b)"><rect width="24" height="24"/></g></g></svg>