<svg width="24" height="24" xmlns="http://www.w3.org/2000/svg" xmlns:xlink="http://www.w3.org/1999/xlink"><defs><path d="M10.454 11.5c3.563 0 6.777 1.634 8.81 4.259C18.33 11.89 14.734 9 10.454 9a1 1 0 0 1-1-1V6.077L4.63 10.251l4.824 4.212V12.5a1 1 0 0 1 1-1m9.767 9.5a1 1 0 0 1-.972-.763c-.89-3.649-4.02-6.285-7.795-6.684v1.121c0 .706-.419 1.335-1.093 1.64a2.032 2.032 0 0 1-2.177-.304l-5.066-4.424A1.782 1.782 0 0 1 2.5 10.25c0-.505.225-.992.618-1.336L8.184 4.49a2.032 2.032 0 0 1 2.177-.304c.674.305 1.093.934 1.093 1.64v1.218C17.078 7.537 21.5 12.15 21.5 17.75c0 .81-.104 1.646-.308 2.486a.997.997 0 0 1-.97.764" id="a"/></defs><g fill-rule="evenodd"><mask id="b"><use xlink:href="#a"/></mask><use xlink:href="#a"/><g mask="url(#b)"><rect width="24" height="24"/></g></g></svg>