<svg width="24" height="24" xmlns="http://www.w3.org/2000/svg" xmlns:xlink="http://www.w3.org/1999/xlink"><defs><path d="M20 14.6L17.191 12 20 9.4v5.2zm1.012-7.454c.609.266.988.835.988 1.484v6.74c0 .65-.379 1.219-.988 1.485a1.724 1.724 0 0 1-1.294.035L15 12.172V8c0-.551-.448-1-1-1H9.828l-2-2H14c1.654 0 3 1.346 3 3v1.452l2.161-2a1.717 1.717 0 0 1 1.851-.306zM17 15.586l3.707 3.707a.999.999 0 1 1-1.414 1.414L16.386 17.8l-1.455-1.455L5.586 7l-1.76-1.76-.533-.533a.999.999 0 1 1 1.414-1.414L6.414 5l2 2L15 13.586l2 2zM14 17c.051 0 .094-.021.143-.029l1.522 1.522A2.985 2.985 0 0 1 14 19H5c-1.654 0-3-1.346-3-3V8c0-.871.379-1.649.974-2.198l1.422 1.422A.982.982 0 0 0 4 8v8a1 1 0 0 0 1 1h9z" id="a"/></defs><g fill-rule="evenodd"><mask id="b"><use xlink:href="#a"/></mask><use xlink:href="#a"/><g mask="url(#b)"><rect width="24" height="24"/></g></g></svg>