<svg width="24" height="24" xmlns="http://www.w3.org/2000/svg" xmlns:xlink="http://www.w3.org/1999/xlink"><defs><path d="M6 14.429h4.333c.202 0 .399.062.566.175L16 18.102V5.899l-5.101 3.498a1.011 1.011 0 0 1-.566.175H6v4.857zm11 6.57a.992.992 0 0 1-.565-.174l-6.412-4.396H5a1 1 0 0 1-1-1V8.572a1 1 0 0 1 1-1h5.023l6.412-4.397A.999.999 0 1 1 18 4v16a1.001 1.001 0 0 1-1 1z" id="a"/></defs><g fill-rule="evenodd"><mask id="b"><use xlink:href="#a"/></mask><use xlink:href="#a"/><g mask="url(#b)"><rect width="24" height="24"/></g></g></svg>