<svg width="24" height="24" xmlns="http://www.w3.org/2000/svg" xmlns:xlink="http://www.w3.org/1999/xlink"><defs><path d="M4.707 3.293l16 16a.999.999 0 1 1-1.414 1.414l-16-16a.999.999 0 1 1 1.414-1.414zm12.204 10.789c.828-1.304.773-3.259-.19-4.455a1 1 0 0 1 1.559-1.254c1.609 2.001 1.627 5.11.069 7.148l-1.438-1.439zM21 12c0-1.964-.937-3.82-2.638-5.229a1 1 0 0 1 1.276-1.542C21.806 7.025 23 9.431 23 12c0 2.137-.837 4.155-2.363 5.809l-1.415-1.415C20.37 15.121 21 13.599 21 12zm-7.5 6.102v-1.773l2 2v1.67a1 1 0 0 1-1.565.827l-6.412-4.397H2.5a1 1 0 0 1-1-1V8.572a1 1 0 0 1 1-1h2.243l2 2H3.5v4.857h4.333c.202 0 .399.062.566.175l5.101 3.498zm0-12.204L10.668 7.84 9.229 6.401l4.706-3.227A1 1 0 0 1 15.5 4v8.671l-2-2V5.898z" id="a"/></defs><g fill-rule="evenodd"><mask id="b"><use xlink:href="#a"/></mask><use xlink:href="#a"/><g mask="url(#b)"><rect width="24" height="24"/></g></g></svg>