<svg width="24" height="24" xmlns="http://www.w3.org/2000/svg" xmlns:xlink="http://www.w3.org/1999/xlink"><defs><path d="M13.5 18.102l-5.101-3.498a1.011 1.011 0 0 0-.566-.175H3.5V9.572h4.333c.202 0 .399-.062.566-.175L13.5 5.899v12.203zm1.466-14.986A1 1 0 0 1 15.5 4v16a1 1 0 0 1-1.565.826l-6.412-4.397H2.5a1 1 0 0 1-1-1V8.572a1 1 0 0 1 1-1h5.023l6.412-4.397a.996.996 0 0 1 1.031-.06zm3.313 5.257c1.636 2.034 1.636 5.22 0 7.254a1.001 1.001 0 0 1-1.559-1.254c1.036-1.286 1.036-3.46 0-4.746a1 1 0 0 1 1.56-1.254zm1.359-3.143C21.806 7.024 23 9.43 23 12c0 2.57-1.194 4.974-3.362 6.77a1 1 0 1 1-1.275-1.54C20.063 15.82 21 13.963 21 12c0-1.963-.937-3.82-2.637-5.23a1 1 0 1 1 1.275-1.54z" id="a"/></defs><g fill-rule="evenodd"><mask id="b"><use xlink:href="#a"/></mask><use xlink:href="#a"/><g mask="url(#b)"><rect width="24" height="24"/></g></g></svg>