<svg width="24" height="24" xmlns="http://www.w3.org/2000/svg" xmlns:xlink="http://www.w3.org/1999/xlink"><defs><path d="M15 18.102l-5.101-3.498a1.011 1.011 0 0 0-.566-.175H5V9.572h4.333c.202 0 .399-.062.566-.175L15 5.899v12.203zm1.466-14.986A1 1 0 0 1 17 4v16a1 1 0 0 1-1.565.826l-6.412-4.397H4a1 1 0 0 1-1-1V8.572a1 1 0 0 1 1-1h5.023l6.412-4.397a.996.996 0 0 1 1.031-.06zm4.313 5.257c1.636 2.034 1.636 5.22 0 7.254a1.001 1.001 0 0 1-1.559-1.254c1.036-1.286 1.036-3.46 0-4.746a1 1 0 0 1 1.56-1.254z" id="a"/></defs><g fill-rule="evenodd"><mask id="b"><use xlink:href="#a"/></mask><use xlink:href="#a"/><g mask="url(#b)"><rect width="24" height="24"/></g></g></svg>