<svg xmlns="http://www.w3.org/2000/svg" viewBox="0 0 24 24"><defs><style>.cls-1{fill:#fff;opacity:0;}.cls-2{fill:#231f20;}</style></defs><title>volume-off</title><g id="Layer_2" data-name="Layer 2"><g id="volume-off"><g id="volume-off-2" data-name="volume-off"><rect class="cls-1" width="24" height="24"/><path class="cls-2" d="M4.71,3.29A1,1,0,0,0,3.29,4.71l16,16a1,1,0,0,0,1.42,0,1,1,0,0,0,0-1.42Z"/><path class="cls-2" d="M16.91,14.08l1.44,1.44a6,6,0,0,0-.07-7.15,1,1,0,1,0-1.56,1.26A4,4,0,0,1,16.91,14.08Z"/><path class="cls-2" d="M21,12a6.51,6.51,0,0,1-1.78,4.39l1.42,1.42A8.53,8.53,0,0,0,23,12a8.75,8.75,0,0,0-3.36-6.77,1,1,0,1,0-1.28,1.54A6.8,6.8,0,0,1,21,12Z"/><path class="cls-2" d="M13.5,18.1,8.4,14.6a1,1,0,0,0-.57-.17H3.5V9.57H6.74l-2-2H2.5a1,1,0,0,0-1,1v6.86a1,1,0,0,0,1,1h5l6.41,4.4a1.06,1.06,0,0,0,.57.17,1,1,0,0,0,1-1V18.33l-2-2Z"/><path class="cls-2" d="M13.5,5.9v4.77l2,2V4a1,1,0,0,0-1.57-.83L9.23,6.4l1.44,1.44Z"/></g></g></g></svg>