<svg width="24" height="24" xmlns="http://www.w3.org/2000/svg" xmlns:xlink="http://www.w3.org/1999/xlink"><defs><path d="M12 18a1 1 0 1 1 0 2 1 1 0 0 1 0-2zm0-4c1.303 0 2.536.499 3.473 1.403a1 1 0 0 1-1.389 1.439c-1.125-1.086-3.043-1.086-4.168 0a1 1 0 1 1-1.389-1.439A4.978 4.978 0 0 1 12 14zm0-5a9.047 9.047 0 0 1 6.475 2.748 1 1 0 0 1-1.44 1.39A7.03 7.03 0 0 0 12 11a7.03 7.03 0 0 0-5.035 2.138 1 1 0 0 1-1.44-1.39A9.047 9.047 0 0 1 12 9zm9.725-1.07a1 1 0 0 1-1.39 1.437A11.947 11.947 0 0 0 12 6a11.947 11.947 0 0 0-8.336 3.367.998.998 0 1 1-1.388-1.438A13.93 13.93 0 0 1 12 4a13.93 13.93 0 0 1 9.725 3.93z" id="a"/></defs><g fill-rule="evenodd"><mask id="b"><use xlink:href="#a"/></mask><use xlink:href="#a"/><g mask="url(#b)"><rect width="24" height="24"/></g></g></svg>