<svg width="24" height="24" xmlns="http://www.w3.org/2000/svg" xmlns:xlink="http://www.w3.org/1999/xlink"><defs><path d="M12 18a1 1 0 1 1 0 2 1 1 0 0 1 0-2zm.437-6.977l8.27 8.27a1 1 0 0 1-1.415 1.415l-3.85-3.852-2.793-2.794-2.74-2.739-1.546-1.546L6.13 7.544l-1.462-1.46-1.376-1.377a1 1 0 0 1 1.415-1.413l1.825 1.823 1.55 1.55 2.462 2.463 1.893 1.893zm9.288-3.094a1 1 0 0 1-1.39 1.438A11.947 11.947 0 0 0 12 6c-.963 0-1.908.127-2.824.347L7.56 4.732A14.018 14.018 0 0 1 12 4a13.93 13.93 0 0 1 9.725 3.93zm-17.9-1.276l1.431 1.43c-.56.383-1.096.806-1.592 1.285a1 1 0 1 1-1.389-1.44c.487-.468 1.01-.885 1.55-1.275zm13.21 6.485a6.999 6.999 0 0 0-2.849-1.78l-2.349-2.35c.054 0 .108-.008.163-.008a9.047 9.047 0 0 1 6.474 2.748 1 1 0 0 1-1.439 1.39zM7.432 10.26l1.474 1.474a6.99 6.99 0 0 0-1.941 1.403 1 1 0 1 1-1.44-1.389 8.913 8.913 0 0 1 1.907-1.488zm1.095 5.143a4.956 4.956 0 0 1 2.717-1.33l2.517 2.517c-1.142-.815-2.82-.738-3.845.251a1 1 0 0 1-1.389-1.438z" id="a"/></defs><g fill-rule="evenodd"><mask id="b"><use xlink:href="#a"/></mask><use xlink:href="#a"/><g mask="url(#b)"><rect width="24" height="24"/></g></g></svg>