<svg xmlns="http://www.w3.org/2000/svg" viewBox="0 0 24 24"><defs><style>.cls-1{fill:#fff;opacity:0;}.cls-2{fill:#231f20;}</style></defs><title>wifi</title><g id="Layer_2" data-name="Layer 2"><g id="wifi"><g id="wifi-2" data-name="wifi"><rect class="cls-1" width="24" height="24"/><circle class="cls-2" cx="12" cy="19" r="1"/><path class="cls-2" d="M12,14a5,5,0,0,0-3.47,1.4,1,1,0,1,0,1.39,1.44,3.08,3.08,0,0,1,4.16,0,1,1,0,1,0,1.39-1.44A5,5,0,0,0,12,14Z"/><path class="cls-2" d="M12,9a9,9,0,0,0-6.47,2.75A1,1,0,0,0,7,13.14a7,7,0,0,1,10.08,0,1,1,0,0,0,.71.3,1,1,0,0,0,.72-1.69A9,9,0,0,0,12,9Z"/><path class="cls-2" d="M21.72,7.93a14,14,0,0,0-19.44,0A1,1,0,0,0,3.66,9.37a12,12,0,0,1,16.68,0,1,1,0,0,0,.69.28,1,1,0,0,0,.72-.31A1,1,0,0,0,21.72,7.93Z"/></g></g></g></svg>