<svg xmlns="http://www.w3.org/2000/svg" viewBox="0 0 24 24"><defs><style>.cls-1{fill:#fff;opacity:0;}.cls-2{fill:#231f20;}</style></defs><title>activity</title><g id="Layer_2" data-name="Layer 2"><g id="activity"><g id="activity-2" data-name="activity"><rect class="cls-1" width="24" height="24" transform="translate(24 0) rotate(90)"/><path class="cls-2" d="M14.33,20h-.21a2,2,0,0,1-1.76-1.58L9.68,6,6.92,12.4A1,1,0,0,1,6,13H3a1,1,0,0,1,0-2H5.34L7.85,5.21a2,2,0,0,1,3.79.38L14.32,18l2.76-6.38A1,1,0,0,1,18,11h3a1,1,0,0,1,0,2H18.66l-2.51,5.79A2,2,0,0,1,14.33,20Z"/></g></g></g></svg>