<svg xmlns="http://www.w3.org/2000/svg" viewBox="0 0 24 24"><defs><style>.cls-1{fill:#fff;opacity:0;}.cls-2{fill:#231f20;}</style></defs><title>alert-triangle</title><g id="Layer_2" data-name="Layer 2"><g id="alert-triangle"><g id="alert-triangle-2" data-name="alert-triangle"><rect class="cls-1" width="24" height="24" transform="translate(24 0) rotate(90)"/><path class="cls-2" d="M22.56,16.3,14.89,3.58a3.43,3.43,0,0,0-5.78,0L1.44,16.3a3,3,0,0,0-.05,3A3.37,3.37,0,0,0,4.33,21H19.67a3.37,3.37,0,0,0,2.94-1.66A3,3,0,0,0,22.56,16.3ZM12,17a1,1,0,1,1,1-1A1,1,0,0,1,12,17Zm1-4a1,1,0,0,1-2,0V9a1,1,0,0,1,2,0Z"/></g></g></g></svg>