<svg xmlns="http://www.w3.org/2000/svg" viewBox="0 0 24 24"><defs><style>.cls-1{fill:#fff;opacity:0;}.cls-2{fill:#231f20;}</style></defs><title>arrow-back</title><g id="Layer_2" data-name="Layer 2"><g id="arrow-back"><g id="arrow-back-2" data-name="arrow-back"><rect class="cls-1" width="24" height="24" transform="translate(24 0) rotate(90)"/><path class="cls-2" d="M19,11H7.14l3.63-4.36A1,1,0,1,0,9.23,5.36l-5,6a1.19,1.19,0,0,0-.09.15c0,.05,0,.08-.07.13A1,1,0,0,0,4,12H4a1,1,0,0,0,.07.36c0,.05,0,.08.07.13a1.19,1.19,0,0,0,.09.15l5,6A1,1,0,0,0,10,19a1,1,0,0,0,.64-.23,1,1,0,0,0,.13-1.41L7.14,13H19a1,1,0,0,0,0-2Z"/></g></g></g></svg>