<svg xmlns="http://www.w3.org/2000/svg" viewBox="0 0 24 24"><defs><style>.cls-1{fill:#fff;opacity:0;}.cls-2{fill:#231f20;}</style></defs><title>arrow-upward</title><g id="Layer_2" data-name="Layer 2"><g id="arrow-upward"><g id="arrow-upward-2" data-name="arrow-upward"><rect class="cls-1" width="24" height="24" transform="translate(24 24) rotate(180)"/><path class="cls-2" d="M5.23,10.64a1,1,0,0,0,1.41.13L11,7.14V19a1,1,0,0,0,2,0V7.14l4.36,3.63a1,1,0,1,0,1.28-1.54l-6-5-.15-.09-.13-.07a1,1,0,0,0-.72,0l-.13.07-.15.09-6,5A1,1,0,0,0,5.23,10.64Z"/></g></g></g></svg>