<svg xmlns="http://www.w3.org/2000/svg" viewBox="0 0 24 24"><defs><style>.cls-1{fill:#fff;opacity:0;}.cls-2{fill:#231f20;}</style></defs><title>arrow-circle-up</title><g id="Layer_2" data-name="Layer 2"><g id="arrow-circle-up"><g id="arrow-circle-up-2" data-name="arrow-circle-up"><rect class="cls-1" width="24" height="24" transform="translate(24 24) rotate(180)"/><path class="cls-2" d="M12,22A10,10,0,1,0,2,12,10,10,0,0,0,12,22ZM8.31,10.14l3-2.86a.49.49,0,0,1,.15-.1.54.54,0,0,1,.16-.1.94.94,0,0,1,.76,0,1,1,0,0,1,.33.21l3,3a1,1,0,0,1-1.42,1.42L13,10.41V16a1,1,0,0,1-2,0V10.34L9.69,11.59a1,1,0,0,1-1.38-1.45Z"/></g></g></g></svg>