<svg xmlns="http://www.w3.org/2000/svg" viewBox="0 0 24 24"><defs><style>.cls-1{fill:#fff;opacity:0;}.cls-2{fill:#231f20;}</style></defs><title>arrow-forward</title><g id="Layer_2" data-name="Layer 2"><g id="arrow-forward"><g id="arrow-forward-2" data-name="arrow-forward"><rect class="cls-1" width="24" height="24" transform="translate(0 24) rotate(-90)"/><path class="cls-2" d="M5,13H16.86l-3.63,4.36a1,1,0,0,0,1.54,1.28l5-6a1.19,1.19,0,0,0,.09-.15c0-.05.05-.08.07-.13A1,1,0,0,0,20,12h0a1,1,0,0,0-.07-.36c0-.05-.05-.08-.07-.13a1.19,1.19,0,0,0-.09-.15l-5-6A1,1,0,0,0,14,5a1,1,0,0,0-.64.23,1,1,0,0,0-.13,1.41L16.86,11H5a1,1,0,0,0,0,2Z"/></g></g></g></svg>