<svg xmlns="http://www.w3.org/2000/svg" viewBox="0 0 24 24"><defs><style>.cls-1{fill:#fff;opacity:0;}.cls-2{fill:#231f20;}</style></defs><title>at</title><g id="Layer_2" data-name="Layer 2"><g id="at"><g id="at-2" data-name="at"><rect class="cls-1" width="24" height="24"/><path class="cls-2" d="M13,2a10,10,0,0,0-5,19.1A10.15,10.15,0,0,0,12,22a10,10,0,0,0,6.08-2.06,1,1,0,0,0,.19-1.4,1,1,0,0,0-1.41-.19A8,8,0,1,1,12.77,4,8.17,8.17,0,0,1,20,12.22v.68a1.71,1.71,0,0,1-1.78,1.7,1.82,1.82,0,0,1-1.62-1.88V8.4a1,1,0,0,0-1-1,1,1,0,0,0-1,.87,5,5,0,0,0-3.44-1.36A5.09,5.09,0,1,0,15.31,15a3.6,3.6,0,0,0,5.55.61A3.67,3.67,0,0,0,22,12.9v-.68A10.2,10.2,0,0,0,13,2ZM11.18,15.09A3.09,3.09,0,1,1,14.27,12,3.1,3.1,0,0,1,11.18,15.09Z"/></g></g></g></svg>