<svg xmlns="http://www.w3.org/2000/svg" viewBox="0 0 24 24"><defs><style>.cls-1{fill:#fff;opacity:0;}.cls-2{fill:#231f20;}</style></defs><title>award</title><g id="Layer_2" data-name="Layer 2"><g id="award"><g id="award-2" data-name="award"><rect class="cls-1" width="24" height="24"/><path class="cls-2" d="M19,20.75l-2.31-9A5.94,5.94,0,0,0,18,8,6,6,0,0,0,6,8a5.94,5.94,0,0,0,1.34,3.77L5,20.75a1,1,0,0,0,1.48,1.11l5.33-3.13,5.68,3.14A.91.91,0,0,0,18,22a1,1,0,0,0,1-1.25ZM12,4A4,4,0,1,1,8,8,4,4,0,0,1,12,4Z"/></g></g></g></svg>