<svg xmlns="http://www.w3.org/2000/svg" viewBox="0 0 24 24"><defs><style>.cls-1{fill:#fff;opacity:0;}.cls-2{fill:#231f20;}</style></defs><title>bar-chart</title><g id="Layer_2" data-name="Layer 2"><g id="bar-chart"><g id="bar-chart-2" data-name="bar-chart"><rect class="cls-1" width="24" height="24" transform="translate(24 0) rotate(90)"/><path class="cls-2" d="M12,4a1,1,0,0,0-1,1V20a1,1,0,0,0,2,0V5A1,1,0,0,0,12,4Z"/><path class="cls-2" d="M19,12a1,1,0,0,0-1,1v7a1,1,0,0,0,2,0V13A1,1,0,0,0,19,12Z"/><path class="cls-2" d="M5,8A1,1,0,0,0,4,9V20a1,1,0,0,0,2,0V9A1,1,0,0,0,5,8Z"/></g></g></g></svg>