<svg xmlns="http://www.w3.org/2000/svg" viewBox="0 0 24 24"><defs><style>.cls-1{fill:#fff;opacity:0;}.cls-2{fill:#231f20;}</style></defs><title>book-open</title><g id="Layer_2" data-name="Layer 2"><g id="book-open"><g id="book-open-2" data-name="book-open"><rect class="cls-1" width="24" height="24" transform="translate(24 24) rotate(180)"/><path class="cls-2" d="M21,4.34a1.24,1.24,0,0,0-1.08-.23L13,5.89V20.16l7.56-1.94A1.25,1.25,0,0,0,21.5,17V5.32A1.25,1.25,0,0,0,21,4.34Z"/><path class="cls-2" d="M11,5.89,4.06,4.11A1.27,1.27,0,0,0,3,4.34a1.25,1.25,0,0,0-.48,1V17a1.25,1.25,0,0,0,.94,1.21L11,20.16Z"/></g></g></g></svg>