<svg xmlns="http://www.w3.org/2000/svg" viewBox="0 0 24 24"><defs><style>.cls-1{fill:#fff;opacity:0;}.cls-2{fill:#231f20;}</style></defs><title>bookmark</title><g id="Layer_2" data-name="Layer 2"><g id="bookmark"><g id="bookmark-2" data-name="bookmark"><rect class="cls-1" width="24" height="24"/><path class="cls-2" d="M6,21a1,1,0,0,1-.49-.13A1,1,0,0,1,5,20V5.33A2.28,2.28,0,0,1,7.2,3h9.6A2.28,2.28,0,0,1,19,5.33V20a1,1,0,0,1-.5.86,1,1,0,0,1-1,0l-5.67-3.21-5.33,3.2A1,1,0,0,1,6,21Z"/></g></g></g></svg>