<svg xmlns="http://www.w3.org/2000/svg" viewBox="0 0 24 24"><defs><style>.cls-1{fill:#fff;opacity:0;}.cls-2{fill:#231f20;}</style></defs><title>calendar</title><g id="Layer_2" data-name="Layer 2"><g id="calendar"><g id="calendar-2" data-name="calendar"><rect class="cls-1" width="24" height="24"/><path class="cls-2" d="M18,4H17V3a1,1,0,0,0-2,0V4H9V3A1,1,0,0,0,7,3V4H6A3,3,0,0,0,3,7V19a3,3,0,0,0,3,3H18a3,3,0,0,0,3-3V7A3,3,0,0,0,18,4ZM8,17a1,1,0,1,1,1-1A1,1,0,0,1,8,17Zm8,0H12a1,1,0,0,1,0-2h4a1,1,0,0,1,0,2Zm3-6H5V7A1,1,0,0,1,6,6H7V7A1,1,0,0,0,9,7V6h6V7a1,1,0,0,0,2,0V6h1a1,1,0,0,1,1,1Z"/></g></g></g></svg>