<svg xmlns="http://www.w3.org/2000/svg" viewBox="0 0 24 24"><defs><style>.cls-1{fill:#fff;opacity:0;}.cls-2{fill:#231f20;}</style></defs><title>camera</title><g id="Layer_2" data-name="Layer 2"><g id="camera"><g id="camera-2" data-name="camera"><rect class="cls-1" width="24" height="24"/><circle class="cls-2" cx="12" cy="14" r="1.5"/><path class="cls-2" d="M19,7H16V5.5A2.5,2.5,0,0,0,13.5,3h-3A2.5,2.5,0,0,0,8,5.5V7H5a3,3,0,0,0-3,3v8a3,3,0,0,0,3,3H19a3,3,0,0,0,3-3V10A3,3,0,0,0,19,7ZM10,5.5a.5.5,0,0,1,.5-.5h3a.5.5,0,0,1,.5.5V7H10Zm2,12A3.5,3.5,0,1,1,15.5,14,3.5,3.5,0,0,1,12,17.5Z"/></g></g></g></svg>