<svg xmlns="http://www.w3.org/2000/svg" viewBox="0 0 24 24"><defs><style>.cls-1{fill:#fff;opacity:0;}.cls-2{fill:#231f20;}</style></defs><title>charging</title><g id="Layer_2" data-name="Layer 2"><g id="charging"><g id="charging-2" data-name="charging"><rect class="cls-1" width="24" height="24"/><path class="cls-2" d="M11.28,13H7a1,1,0,0,1-.86-.5,1,1,0,0,1,0-1L9.28,6H4.17A2.31,2.31,0,0,0,2,8.43v7.14A2.31,2.31,0,0,0,4.17,18H8.42Z"/><path class="cls-2" d="M15.83,6H11.58L8.72,11H13a1,1,0,0,1,.86.5,1,1,0,0,1,0,1L10.72,18h5.11A2.31,2.31,0,0,0,18,15.57V8.43A2.31,2.31,0,0,0,15.83,6Z"/><path class="cls-2" d="M21,9a1,1,0,0,0-1,1v4a1,1,0,0,0,2,0V10A1,1,0,0,0,21,9Z"/></g></g></g></svg>