<svg xmlns="http://www.w3.org/2000/svg" viewBox="0 0 24 24"><defs><style>.cls-1{fill:#fff;opacity:0;}.cls-2{fill:#231f20;}</style></defs><title>checkmark-square-2</title><g id="Layer_2" data-name="Layer 2"><g id="checkmark-square-2"><g id="checkmark-square-2-2" data-name="checkmark-square-2"><rect class="cls-1" width="24" height="24" transform="translate(24 24) rotate(180)"/><path class="cls-2" d="M18,3H6A3,3,0,0,0,3,6V18a3,3,0,0,0,3,3H18a3,3,0,0,0,3-3V6A3,3,0,0,0,18,3ZM16.3,9.61l-4.57,6a1,1,0,0,1-.79.39h0a1,1,0,0,1-.79-.38L7.71,12.51a1,1,0,0,1,1.58-1.23l1.63,2.08,3.78-5a1,1,0,1,1,1.6,1.22Z"/></g></g></g></svg>