<svg xmlns="http://www.w3.org/2000/svg" viewBox="0 0 24 24"><defs><style>.cls-1{fill:#fff;opacity:0;}.cls-2{fill:#231f20;}</style></defs><title>checkmark-square</title><g id="Layer_2" data-name="Layer 2"><g id="checkmark-square"><g id="checkmark-square-2" data-name="checkmark-square"><rect class="cls-1" width="24" height="24"/><path class="cls-2" d="M20,11.83a1,1,0,0,0-1,1V18.4a.6.6,0,0,1-.6.6H5.6a.6.6,0,0,1-.6-.6V5.6A.6.6,0,0,1,5.6,5h9.57a1,1,0,1,0,0-2H5.6A2.61,2.61,0,0,0,3,5.6V18.4A2.61,2.61,0,0,0,5.6,21H18.4A2.61,2.61,0,0,0,21,18.4V12.83A1,1,0,0,0,20,11.83Z"/><path class="cls-2" d="M10.72,11a1,1,0,0,0-1.44,1.38l2.22,2.33a1,1,0,0,0,.72.31h0a1,1,0,0,0,.72-.3l6.78-7a1,1,0,1,0-1.44-1.4l-6.05,6.26Z"/></g></g></g></svg>