<svg xmlns="http://www.w3.org/2000/svg" viewBox="0 0 24 24"><defs><style>.cls-1{fill:#fff;opacity:0;}.cls-2{fill:#231f20;}</style></defs><title>close-square</title><g id="Layer_2" data-name="Layer 2"><g id="close-square"><g id="close-square-2" data-name="close-square"><rect class="cls-1" width="24" height="24"/><path class="cls-2" d="M18,3H6A3,3,0,0,0,3,6V18a3,3,0,0,0,3,3H18a3,3,0,0,0,3-3V6A3,3,0,0,0,18,3ZM14.71,13.29a1,1,0,0,1,0,1.42,1,1,0,0,1-1.42,0L12,13.41l-1.29,1.3a1,1,0,0,1-1.42,0,1,1,0,0,1,0-1.42L10.59,12l-1.3-1.29a1,1,0,0,1,1.42-1.42L12,10.59l1.29-1.3a1,1,0,0,1,1.42,1.42L13.41,12Z"/></g></g></g></svg>