<svg xmlns="http://www.w3.org/2000/svg" viewBox="0 0 24 24"><defs><style>.cls-1{fill:#fff;opacity:0;}.cls-2{fill:#231f20;}</style></defs><title>code</title><g id="Layer_2" data-name="Layer 2"><g id="code"><g id="code-2" data-name="code"><rect class="cls-1" width="24" height="24" transform="translate(24 0) rotate(90)"/><path class="cls-2" d="M8.64,5.23a1,1,0,0,0-1.41.13l-5,6a1,1,0,0,0,0,1.27l4.83,6a1,1,0,0,0,.78.37,1,1,0,0,0,.78-1.63L4.29,12,8.77,6.64A1,1,0,0,0,8.64,5.23Z"/><path class="cls-2" d="M21.78,11.37,17,5.37a1,1,0,0,0-1.41-.15,1,1,0,0,0-.15,1.41L19.71,12l-4.48,5.37a1,1,0,0,0,.13,1.41A1,1,0,0,0,16,19a1,1,0,0,0,.77-.36l5-6A1,1,0,0,0,21.78,11.37Z"/></g></g></g></svg>