<svg xmlns="http://www.w3.org/2000/svg" viewBox="0 0 24 24"><defs><style>.cls-1{fill:#fff;opacity:0;}.cls-2{fill:#231f20;}</style></defs><title>color-picker</title><g id="Layer_2" data-name="Layer 2"><g id="color-picker"><g id="color-picker-2" data-name="color-picker"><rect class="cls-1" width="24" height="24"/><path class="cls-2" d="M19.4,7.34,16.66,4.6A1.92,1.92,0,0,0,14,4.53l-2,2L10.71,5.29A1,1,0,0,0,9.29,6.71L10.53,8,5,13.53a2,2,0,0,0-.57,1.21L4,18.91a1,1,0,0,0,.29.8A1,1,0,0,0,5,20h.09l4.17-.38a2,2,0,0,0,1.21-.57l5.58-5.58,1.24,1.24a1,1,0,0,0,1.42,0,1,1,0,0,0,0-1.42l-1.24-1.24,2-2A1.92,1.92,0,0,0,19.4,7.34Zm-13,7.6L12,9.36l2.69,2.7-2.79,2.79"/></g></g></g></svg>