<svg xmlns="http://www.w3.org/2000/svg" viewBox="0 0 24 24"><defs><style>.cls-1{fill:#fff;opacity:0;}.cls-2{fill:#231f20;}</style></defs><title>copy</title><g id="Layer_2" data-name="Layer 2"><g id="copy"><g id="copy-2" data-name="copy"><rect class="cls-1" width="24" height="24"/><path class="cls-2" d="M18,9H15V5.67A2.68,2.68,0,0,0,12.33,3H5.67A2.68,2.68,0,0,0,3,5.67v6.66A2.68,2.68,0,0,0,5.67,15H9v3a3,3,0,0,0,3,3h6a3,3,0,0,0,3-3V12A3,3,0,0,0,18,9ZM9,12v1H5.67A.67.67,0,0,1,5,12.33V5.67A.67.67,0,0,1,5.67,5h6.66a.67.67,0,0,1,.67.67V9H12A3,3,0,0,0,9,12Z"/></g></g></g></svg>