<svg xmlns="http://www.w3.org/2000/svg" viewBox="0 0 24 24"><defs><style>.cls-1{fill:#fff;opacity:0;}.cls-2{fill:#231f20;}</style></defs><title>corner-right-down</title><g id="Layer_2" data-name="Layer 2"><g id="corner-right-down"><g id="corner-right-down-2" data-name="corner-right-down"><rect class="cls-1" width="24" height="24"/><path class="cls-2" d="M18.78,14.38a1,1,0,0,0-1.4-.16L14,16.92V8a3,3,0,0,0-3-3H6A1,1,0,0,0,6,7h5a1,1,0,0,1,1,1v8.92l-3.38-2.7a1,1,0,0,0-1.24,1.56l5,4a1,1,0,0,0,1.24,0l5-4A1,1,0,0,0,18.78,14.38Z"/></g></g></g></svg>