<svg xmlns="http://www.w3.org/2000/svg" viewBox="0 0 24.1 24.1"><defs><style>.cls-1{fill:#fff;opacity:0;}.cls-2{fill:#231f20;}</style></defs><title>corner-down-left</title><g id="Layer_2" data-name="Layer 2"><g id="corner-down-left"><g id="corner-down-left-2" data-name="corner-down-left"><rect class="cls-1" x="0.05" y="0.05" width="24" height="24" transform="translate(-0.05 24.05) rotate(-89.76)"/><path class="cls-2" d="M20,6a1,1,0,0,0-1-1h0a1,1,0,0,0-1,1l0,5a1,1,0,0,1-.29.71,1,1,0,0,1-.71.29l-8.92,0,2.69-3.39A1,1,0,0,0,9.25,7.44l-4,5a1,1,0,0,0,0,1.25l4,5a1,1,0,0,0,.78.37,1,1,0,0,0,.62-.22,1,1,0,0,0,.15-1.41L8.14,14.07l8.92,0a3,3,0,0,0,3-3Z"/></g></g></g></svg>