<svg xmlns="http://www.w3.org/2000/svg" viewBox="0 0 24 24"><defs><style>.cls-1{fill:#fff;opacity:0;}.cls-2{fill:#231f20;}</style></defs><title>edit</title><g id="Layer_2" data-name="Layer 2"><g id="edit"><g id="edit-2" data-name="edit"><rect class="cls-1" width="24" height="24"/><path class="cls-2" d="M19.4,7.34h0L16.66,4.6A2,2,0,0,0,14,4.53l-9,9a2,2,0,0,0-.57,1.21L4,18.91a1,1,0,0,0,.29.8A1,1,0,0,0,5,20h.09l4.17-.38a2,2,0,0,0,1.21-.57l9-9A1.92,1.92,0,0,0,19.4,7.34ZM16,10.68,13.32,8,15.27,6,18,8.73Z"/></g></g></g></svg>