<svg xmlns="http://www.w3.org/2000/svg" viewBox="0 0 24 24"><defs><style>.cls-1{fill:#fff;opacity:0;}.cls-2{fill:#231f20;}</style></defs><title>eye-off</title><g id="Layer_2" data-name="Layer 2"><g id="eye-off"><g id="eye-off-2" data-name="eye-off"><rect class="cls-1" width="24" height="24"/><circle class="cls-2" cx="12" cy="12" r="1.5"/><path class="cls-2" d="M15.29,18.12,14,16.78l-.07-.07-1.27-1.27a4.07,4.07,0,0,1-.61.06A3.5,3.5,0,0,1,8.5,12a4.07,4.07,0,0,1,.06-.61l-2-2L5,7.87A15.89,15.89,0,0,0,2.13,11.5a1,1,0,0,0,0,1c.63,1.09,4,6.5,9.89,6.5h.25a9.48,9.48,0,0,0,3.23-.67Z"/><path class="cls-2" d="M8.59,5.76l2.8,2.8A4.07,4.07,0,0,1,12,8.5,3.5,3.5,0,0,1,15.5,12a4.07,4.07,0,0,1-.06.61l2.68,2.68.84.84a15.89,15.89,0,0,0,2.91-3.63,1,1,0,0,0,0-1c-.64-1.11-4.16-6.68-10.14-6.5a9.48,9.48,0,0,0-3.23.67Z"/><path class="cls-2" d="M20.71,19.29,19.41,18l-2-2L7.89,6.47,6.42,5,4.71,3.29A1,1,0,0,0,3.29,4.71L5.53,7,7.28,8.7,14.59,16l.07.07L16,17.41l.59.59,2.7,2.71a1,1,0,0,0,1.42,0A1,1,0,0,0,20.71,19.29Z"/></g></g></g></svg>