<svg xmlns="http://www.w3.org/2000/svg" viewBox="0 0 24 24"><defs><style>.cls-1{fill:#fff;opacity:0;}.cls-2{fill:#231f20;}</style></defs><title>file-text</title><g id="Layer_2" data-name="Layer 2"><g id="file-text"><g id="file-text-2" data-name="file-text"><rect class="cls-1" width="24" height="24"/><path class="cls-2" d="M19.74,7.33l-4.44-5A1,1,0,0,0,14.56,2h-8A2.53,2.53,0,0,0,4,4.5v15A2.53,2.53,0,0,0,6.56,22H17.44A2.53,2.53,0,0,0,20,19.5V8A1,1,0,0,0,19.74,7.33ZM9,12h3a1,1,0,0,1,0,2H9a1,1,0,0,1,0-2Zm6,6H9a1,1,0,0,1,0-2h6a1,1,0,0,1,0,2ZM14.71,8A.79.79,0,0,1,14,7.15V4l3.74,4Z"/></g></g></g></svg>