<svg xmlns="http://www.w3.org/2000/svg" viewBox="0 0 24 24"><defs><style>.cls-1{fill:#fff;opacity:0;}.cls-2{fill:#231f20;}</style></defs><title>flash</title><g id="Layer_2" data-name="Layer 2"><g id="flash"><g id="flash-2" data-name="flash"><rect class="cls-1" width="24" height="24"/><path class="cls-2" d="M11.11,23a1,1,0,0,1-.34-.06,1,1,0,0,1-.65-1.05l.77-7.09H5a1,1,0,0,1-.83-1.56l7.89-11.8a1,1,0,0,1,1.17-.38,1,1,0,0,1,.65,1L13.11,9.2H19a1,1,0,0,1,.83,1.56l-7.89,11.8A1,1,0,0,1,11.11,23Z"/></g></g></g></svg>