<svg xmlns="http://www.w3.org/2000/svg" viewBox="0 0 24 24"><defs><style>.cls-1{fill:#fff;opacity:0;}.cls-2{fill:#231f20;}</style></defs><title>gift</title><g id="Layer_2" data-name="Layer 2"><g id="gift"><g id="gift-2" data-name="gift"><rect class="cls-1" width="24" height="24" transform="translate(24 24) rotate(180)"/><path class="cls-2" d="M4.64,15.27v4.82a.92.92,0,0,0,.92.91h5.62V15.27Z"/><path class="cls-2" d="M12.82,21h5.62a.92.92,0,0,0,.92-.91V15.27H12.82Z"/><path class="cls-2" d="M20.1,7.09H18.26a2.82,2.82,0,0,0,.29-1.23A2.87,2.87,0,0,0,15.68,3,4.21,4.21,0,0,0,12,5.57,4.21,4.21,0,0,0,8.32,3,2.87,2.87,0,0,0,5.45,5.86a2.82,2.82,0,0,0,.29,1.23H3.9c-.5,0-.9.59-.9,1.31v3.93c0,.72.4,1.31.9,1.31h7.28V7.09h1.64v6.55H20.1c.5,0,.9-.59.9-1.31V8.4C21,7.68,20.6,7.09,20.1,7.09Zm-11.78,0a1.23,1.23,0,1,1,0-2.45c1.4,0,2.19,1.44,2.58,2.45Zm7.36,0H13.1c.39-1,1.18-2.45,2.58-2.45a1.23,1.23,0,1,1,0,2.45Z"/></g></g></g></svg>