<svg xmlns="http://www.w3.org/2000/svg" viewBox="0 0 24 24"><defs><style>.cls-1{fill:#fff;opacity:0;}.cls-2{fill:#231f20;}</style></defs><title>globe-3</title><g id="Layer_2" data-name="Layer 2"><g id="globe-3"><g id="globe-3-2" data-name="globe-3"><rect class="cls-1" width="24" height="24"/><rect class="cls-1" width="24" height="24"/><path class="cls-2" d="M12,2A10,10,0,1,0,22,12,10,10,0,0,0,12,2ZM5,15.8a8.42,8.42,0,0,0,2,.27,5,5,0,0,0,3.14-1c1.71-1.34,1.71-3.06,1.71-4.44a4.76,4.76,0,0,1,.37-2.34,2.86,2.86,0,0,1,1.12-.91,9.75,9.75,0,0,0,.92-.61A4.55,4.55,0,0,0,15.66,4.9,8,8,0,0,1,19,8.12c-1.43.2-3.46.67-3.86,2.53A7,7,0,0,0,15,12a2.93,2.93,0,0,1-.29,1.47l-.1.17c-.65,1.08-1.38,2.31-.39,4,.12.21.25.41.38.61a2.29,2.29,0,0,1,.52,1.08A7.89,7.89,0,0,1,12,20,8,8,0,0,1,5,15.8Z"/></g></g></g></svg>