<svg xmlns="http://www.w3.org/2000/svg" viewBox="0 0 24 24"><defs><style>.cls-1{fill:#fff;opacity:0;}.cls-2{fill:#231f20;}</style></defs><title>google</title><g id="Layer_2" data-name="Layer 2"><g id="google"><g id="google-2" data-name="google"><polyline class="cls-1" points="0 0 24 0 24 24 0 24"/><path class="cls-2" d="M17.5,14A5.51,5.51,0,0,1,13,17.93,6.15,6.15,0,0,1,6,12.48,6,6,0,0,1,12,6a6.12,6.12,0,0,1,2.27.44.5.5,0,0,0,.64-.21l1.44-2.65a.52.52,0,0,0-.23-.7A10,10,0,0,0,2,12.29,10.12,10.12,0,0,0,11.57,22,10,10,0,0,0,22,12.52c0-.2,0-1.35,0-2a.51.51,0,0,0-.5-.5h-9a.5.5,0,0,0-.5.5v3a.5.5,0,0,0,.5.5h5"/></g></g></g></svg>