<svg xmlns="http://www.w3.org/2000/svg" viewBox="0 0 24 24"><defs><style>.cls-1{fill:#fff;opacity:0;}.cls-2{fill:#231f20;}</style></defs><title>hash</title><g id="Layer_2" data-name="Layer 2"><g id="hash"><g id="hash-2" data-name="hash"><rect class="cls-1" width="24" height="24" transform="translate(24 24) rotate(180)"/><path class="cls-2" d="M20,14H15.7l.73-4H20a1,1,0,0,0,0-2H16.79l.69-3.81A1,1,0,0,0,16.64,3a1,1,0,0,0-1.22.82L14.67,8H10.79l.69-3.81A1,1,0,0,0,10.64,3a1,1,0,0,0-1.22.82L8.67,8H4a1,1,0,0,0,0,2H8.3l-.73,4H4a1,1,0,0,0,0,2H7.21l-.69,3.81A1,1,0,0,0,7.36,21h0a1,1,0,0,0,1.22-.82L9.33,16h3.88l-.69,3.81A1,1,0,0,0,13.36,21h0a1,1,0,0,0,1.22-.82L15.33,16H20a1,1,0,0,0,0-2ZM9.7,14l.73-4H14.3l-.73,4Z"/></g></g></g></svg>