<svg xmlns="http://www.w3.org/2000/svg" viewBox="0 0 24 24"><defs><style>.cls-1{fill:#fff;opacity:0;}.cls-2{fill:#231f20;}</style></defs><title>image-2</title><g id="Layer_2" data-name="Layer 2"><g id="image-2"><g id="image-2-2" data-name="image-2"><rect class="cls-1" width="24" height="24"/><path class="cls-2" d="M18,3H6A3,3,0,0,0,3,6V18a3,3,0,0,0,3,3H18a3,3,0,0,0,3-3V6A3,3,0,0,0,18,3ZM8,7A1.5,1.5,0,1,1,6.5,8.5,1.5,1.5,0,0,1,8,7ZM19,17.83A1.09,1.09,0,0,1,18,19H6l7.57-6.82a.69.69,0,0,1,.93,0L19,16.66Z"/></g></g></g></svg>