<svg xmlns="http://www.w3.org/2000/svg" viewBox="0 0 24 24"><defs><style>.cls-1{fill:#fff;opacity:0;}.cls-2{fill:#231f20;}</style></defs><title>lock</title><g id="Layer_2" data-name="Layer 2"><g id="lock"><g id="lock-2" data-name="lock"><rect class="cls-1" width="24" height="24"/><circle class="cls-2" cx="12" cy="15" r="1"/><path class="cls-2" d="M17,8H16V6.11a4,4,0,1,0-8,0V8H7a3,3,0,0,0-3,3v8a3,3,0,0,0,3,3H17a3,3,0,0,0,3-3V11A3,3,0,0,0,17,8ZM10,6.11A2.06,2.06,0,0,1,12,4a2.06,2.06,0,0,1,2,2.11V8H10ZM12,18a3,3,0,1,1,3-3A3,3,0,0,1,12,18Z"/></g></g></g></svg>