<svg xmlns="http://www.w3.org/2000/svg" viewBox="0 0 24 24"><defs><style>.cls-1{fill:#fff;opacity:0;}.cls-2{fill:#231f20;}</style></defs><title>log-in</title><g id="Layer_2" data-name="Layer 2"><g id="log-in"><g id="log-in-2" data-name="log-in"><rect class="cls-1" width="24" height="24" transform="translate(0 24) rotate(-90)"/><path class="cls-2" d="M19,4H17a1,1,0,0,0,0,2h1V18H17a1,1,0,0,0,0,2h2a1,1,0,0,0,1-1V5A1,1,0,0,0,19,4Z"/><path class="cls-2" d="M11.8,7.4a1,1,0,0,0-1.6,1.2L12,11H4a1,1,0,0,0,0,2h8l.09,0-1.72,2.44a1,1,0,0,0,.24,1.4,1,1,0,0,0,.58.18,1,1,0,0,0,.81-.42l2.82-4a1,1,0,0,0,0-1.18Z"/></g></g></g></svg>