<svg xmlns="http://www.w3.org/2000/svg" viewBox="0 0 24 24"><defs><style>.cls-1{fill:#fff;opacity:0;}.cls-2{fill:#231f20;}</style></defs><title>menu-arrow</title><g id="Layer_2" data-name="Layer 2"><g id="menu-arrow"><g id="menu-arrow-2" data-name="menu-arrow"><rect class="cls-1" width="24" height="24" transform="translate(24 24) rotate(180)"/><path class="cls-2" d="M20.05,11H5.91l1.3-1.29A1,1,0,0,0,5.79,8.29l-3,3a1,1,0,0,0,0,1.42l3,3a1,1,0,0,0,1.42,0,1,1,0,0,0,0-1.42L5.91,13H20.05a1,1,0,0,0,.95-.95V12A1,1,0,0,0,20.05,11Z"/><rect class="cls-2" x="3" y="17" width="18" height="2" rx="0.95" ry="0.95"/><rect class="cls-2" x="3" y="5" width="18" height="2" rx="0.95" ry="0.95"/></g></g></g></svg>