<svg xmlns="http://www.w3.org/2000/svg" viewBox="0 0 24 24"><defs><style>.cls-1{fill:#fff;opacity:0;}.cls-2{fill:#231f20;}</style></defs><title>mic</title><g id="Layer_2" data-name="Layer 2"><g id="mic"><g id="mic-2" data-name="mic"><rect class="cls-1" width="24" height="24"/><path class="cls-2" d="M12,15a4,4,0,0,0,4-4V6A4,4,0,0,0,8,6v5A4,4,0,0,0,12,15Z"/><path class="cls-2" d="M19,11a1,1,0,0,0-2,0A5,5,0,0,1,7,11a1,1,0,0,0-2,0,7,7,0,0,0,6,6.92V20H8.89a.89.89,0,0,0-.89.89v.22a.89.89,0,0,0,.89.89h6.22a.89.89,0,0,0,.89-.89v-.22a.89.89,0,0,0-.89-.89H13V17.92A7,7,0,0,0,19,11Z"/></g></g></g></svg>