<svg xmlns="http://www.w3.org/2000/svg" viewBox="0 0 24 24"><defs><style>.cls-1{fill:#fff;opacity:0;}.cls-2{fill:#231f20;}</style></defs><title>person-delete</title><g id="Layer_2" data-name="Layer 2"><g id="person-delete"><g id="person-delete-2" data-name="person-delete"><rect class="cls-1" width="24" height="24"/><path class="cls-2" d="M20.47,7.5l.73-.73A1,1,0,0,0,19.73,5.3L19,6l-.73-.73A1,1,0,0,0,16.8,6.77l.73.73-.73.73A1,1,0,0,0,18.27,9.7L19,9l.73.73A1,1,0,0,0,21.2,8.23Z"/><path class="cls-2" d="M10,11A4,4,0,1,0,6,7,4,4,0,0,0,10,11Z"/><path class="cls-2" d="M16,21a1,1,0,0,0,1-1A7,7,0,0,0,3,20a1,1,0,0,0,1,1Z"/></g></g></g></svg>