<svg xmlns="http://www.w3.org/2000/svg" viewBox="0 0 24 24"><defs><style>.cls-1{fill:#fff;opacity:0;}.cls-2{fill:#231f20;}</style></defs><title>pricetags</title><g id="Layer_2" data-name="Layer 2"><g id="pricetags"><g id="pricetags-2" data-name="pricetags"><rect class="cls-1" width="24" height="24"/><path class="cls-2" d="M21.47,11.58,15.05,5.17a1,1,0,0,0-.61-.29L5.09,4a1,1,0,0,0-.8.29,1,1,0,0,0-.29.8l.88,9.35a1,1,0,0,0,.29.61l6.41,6.42a1.84,1.84,0,0,0,1.29.53,1.82,1.82,0,0,0,1.28-.53l7.32-7.32a1.82,1.82,0,0,0,0-2.57Zm-9.91,0a1.5,1.5,0,1,1,0-2.12A1.49,1.49,0,0,1,11.56,11.56Z"/></g></g></g></svg>