<svg xmlns="http://www.w3.org/2000/svg" viewBox="0 0 24 24"><defs><style>.cls-1{fill:#fff;opacity:0;}.cls-2{fill:#231f20;}</style></defs><title>printer</title><g id="Layer_2" data-name="Layer 2"><g id="printer"><g id="printer-2" data-name="printer"><rect class="cls-1" width="24" height="24"/><path class="cls-2" d="M19.36,7H18V5a1.92,1.92,0,0,0-1.83-2H7.83A1.92,1.92,0,0,0,6,5V7H4.64A2.66,2.66,0,0,0,2,9.67v6.66A2.66,2.66,0,0,0,4.64,19H5.5a2,2,0,0,0,2,2h9a2,2,0,0,0,2-2h.86A2.66,2.66,0,0,0,22,16.33V9.67A2.66,2.66,0,0,0,19.36,7ZM8,5h8V7H8ZM7.5,19V15h9v4Z"/></g></g></g></svg>