<?xml version="1.0" encoding="UTF-8"?>
<svg width="18px" height="18px" viewBox="0 0 18 18" version="1.1" xmlns="http://www.w3.org/2000/svg" xmlns:xlink="http://www.w3.org/1999/xlink">
    <!-- Generator: Sketch 63.1 (92452) - https://sketch.com -->
    <title>archive</title>
    <desc>Created with Sketch.</desc>
    <g id="Page-1" stroke="none" stroke-width="1" fill="none" fill-rule="evenodd">
        <g id="archive" transform="translate(-3.000000, -3.000000)">
            <rect id="Rectangle" opacity="0" transform="translate(12.000000, 12.000000) rotate(90.000000) translate(-12.000000, -12.000000) " x="0" y="0" width="24" height="24"></rect>
            <path d="M12.0080071,4.78092883 C13.2217455,4.78092883 14.2672856,4.05117315 14.7406567,3.00102497 L20.6581424,5.00348464 C20.833156,5.06273937 20.959307,5.21351959 20.9917784,5.39276847 L21,5.48447336 L21,10.5270365 C21,10.5711171 20.9943284,10.6150095 20.9831287,10.657604 C20.9198749,10.8981688 20.6962026,11.0520577 20.4597065,11.0326399 L20.3707077,11.0170652 L16.9925489,9.83493873 L18.080099,19.862849 C18.0850236,19.9037285 18.0874866,19.9448741 18.0874743,19.9860571 C18.0873187,20.506201 17.7008068,20.9347769 17.2030081,20.9932123 L17.0862812,21 L6.89793286,20.9974845 C6.85748201,20.9974721 6.81706911,20.9949747 6.77691652,20.9900061 C6.2674091,20.9269585 5.89431532,20.4863411 5.89726214,19.9785328 L5.90472652,19.8602948 L6.99243772,9.83392448 L3.62983937,11.017208 C3.58763559,11.0286551 3.54413426,11.0344526 3.50044484,11.0344526 C3.25476657,11.0344526 3.05043646,10.8550569 3.00806284,10.6184838 L3,10.5273274 L3,5.48366357 C3,5.29656462 3.10126842,5.12745822 3.25889084,5.03949164 L3.34219029,5.00256235 L9.27489573,3 C9.74804842,4.05069828 10.7938739,4.78092883 12.0080071,4.78092883 Z" id="Path" fill="#000000"></path>
        </g>
    </g>
</svg>