<svg xmlns="http://www.w3.org/2000/svg" viewBox="0 0 24 24"><defs><style>.cls-1{fill:#fff;opacity:0;}.cls-2{fill:#231f20;}</style></defs><title>skip-forward</title><g id="Layer_2" data-name="Layer 2"><g id="skip-forward"><g id="skip-forward-2" data-name="skip-forward"><rect class="cls-1" width="24" height="24"/><path class="cls-2" d="M16,6a1,1,0,0,0-1,1v3.82l-.14-.15L9.76,6.46A2.1,2.1,0,0,0,7.55,6.2a1.76,1.76,0,0,0-1,1.59v8.42a1.76,1.76,0,0,0,1,1.59,2.23,2.23,0,0,0,.91.2,2.06,2.06,0,0,0,1.3-.46l5.1-4.21.14-.15V17a1,1,0,0,0,2,0V7A1,1,0,0,0,16,6Z"/></g></g></g></svg>