<svg xmlns="http://www.w3.org/2000/svg" viewBox="0 0 24 24"><defs><style>.cls-1{fill:#fff;opacity:0;}.cls-2{fill:#231f20;}</style></defs><title>smartphone</title><g id="Layer_2" data-name="Layer 2"><g id="smartphone"><g id="smartphone-2" data-name="smartphone"><rect class="cls-1" width="24" height="24" transform="translate(24 0) rotate(90)"/><path class="cls-2" d="M17,2H7A3,3,0,0,0,4,5V19a3,3,0,0,0,3,3H17a3,3,0,0,0,3-3V5A3,3,0,0,0,17,2ZM12,18a1.5,1.5,0,1,1,1.5-1.5A1.5,1.5,0,0,1,12,18ZM14.5,8h-5a1,1,0,0,1,0-2h5a1,1,0,0,1,0,2Z"/></g></g></g></svg>