<svg xmlns="http://www.w3.org/2000/svg" viewBox="0 0 24 24"><defs><style>.cls-1{fill:#fff;opacity:0;}.cls-2{fill:#231f20;}</style></defs><title>thermometer-plus</title><g id="Layer_2" data-name="Layer 2"><g id="thermometer-plus"><g id="thermometer-plus-2" data-name="thermometer-plus"><rect class="cls-1" width="24" height="24"/><rect class="cls-2" x="2" y="5" width="6" height="2" rx="1" ry="1"/><rect class="cls-2" x="2" y="5" width="6" height="2" rx="1" ry="1" transform="translate(-1 11) rotate(-90)"/><path class="cls-2" d="M14,22a5,5,0,0,1-3-9V5a3,3,0,0,1,3-3,3,3,0,0,1,3,3v8a5,5,0,0,1-3,9ZM15,9.54V5a.93.93,0,0,0-.29-.69A1,1,0,0,0,14,4a1,1,0,0,0-1,1V9.54Z"/></g></g></g></svg>