<svg xmlns="http://www.w3.org/2000/svg" viewBox="0 0 24 24"><defs><style>.cls-1{fill:#fff;opacity:0;}.cls-2{fill:#231f20;}</style></defs><title>twitter</title><g id="Layer_2" data-name="Layer 2"><g id="twitter"><g id="twitter-2" data-name="twitter"><polyline class="cls-1" points="0 0 24 0 24 24 0 24"/><path class="cls-2" d="M8.08,20A11.07,11.07,0,0,0,19.52,9,8.09,8.09,0,0,0,21,6.16a.44.44,0,0,0-.62-.51,1.88,1.88,0,0,1-2.16-.38,3.89,3.89,0,0,0-5.58-.17A4.13,4.13,0,0,0,11.49,9C8.14,9.2,5.84,7.61,4,5.43a.43.43,0,0,0-.75.24A9.68,9.68,0,0,0,7.85,15.72,6.73,6.73,0,0,1,3.38,18a.45.45,0,0,0-.14.84A11,11,0,0,0,8.08,20"/></g></g></g></svg>