<svg xmlns="http://www.w3.org/2000/svg" viewBox="0 0 24 24"><defs><style>.cls-1{fill:#fff;opacity:0;}.cls-2{fill:#231f20;}</style></defs><title>undo</title><g id="Layer_2" data-name="Layer 2"><g id="undo"><g id="undo-2" data-name="undo"><rect class="cls-1" width="24" height="24" transform="translate(0 24) rotate(-90)"/><path class="cls-2" d="M20.22,21a1,1,0,0,1-1-.76,8.91,8.91,0,0,0-7.8-6.69v1.12a1.78,1.78,0,0,1-1.09,1.64A2,2,0,0,1,8.18,16L3.12,11.59a1.76,1.76,0,0,1,0-2.68L8.18,4.49a2,2,0,0,1,2.18-.3,1.78,1.78,0,0,1,1.09,1.64V7A10.89,10.89,0,0,1,21.5,17.75a10.29,10.29,0,0,1-.31,2.49,1,1,0,0,1-1,.76Z"/></g></g></g></svg>