<svg xmlns="http://www.w3.org/2000/svg" viewBox="0 0 24 24"><defs><style>.cls-1{fill:#fff;opacity:0;}.cls-2{fill:#231f20;}</style></defs><title>volume-down</title><g id="Layer_2" data-name="Layer 2"><g id="volume-down"><g id="volume-down-2" data-name="volume-down"><rect class="cls-1" width="24" height="24"/><path class="cls-2" d="M20.78,8.37a1,1,0,1,0-1.56,1.26,4,4,0,0,1,0,4.74A1,1,0,0,0,20,16a1,1,0,0,0,.78-.37A6,6,0,0,0,20.78,8.37Z"/><path class="cls-2" d="M16.47,3.12a1,1,0,0,0-1,0L9,7.57H4a1,1,0,0,0-1,1v6.86a1,1,0,0,0,1,1H9l6.41,4.4A1.06,1.06,0,0,0,16,21a1,1,0,0,0,1-1V4A1,1,0,0,0,16.47,3.12Z"/></g></g></g></svg>