<svg xmlns="http://www.w3.org/2000/svg" viewBox="0 0 24 24"><defs><style>.cls-1{fill:#fff;opacity:0;}.cls-2{fill:#231f20;}</style></defs><title>wifi-off</title><g id="Layer_2" data-name="Layer 2"><g id="wifi-off"><g id="wifi-off-2" data-name="wifi-off"><rect class="cls-1" width="24" height="24"/><circle class="cls-2" cx="12" cy="19" r="1"/><path class="cls-2" d="M12.44,11l-1.9-1.89L8.08,6.67,6.53,5.12,4.71,3.29A1,1,0,0,0,3.29,4.71L4.67,6.08,6.13,7.54,8.36,9.78l1.55,1.54,2.74,2.74,2.79,2.8,3.85,3.85a1,1,0,0,0,1.42,0,1,1,0,0,0,0-1.42Z"/><path class="cls-2" d="M21.72,7.93A13.93,13.93,0,0,0,12,4a14.1,14.1,0,0,0-4.44.73L9.18,6.35a11.89,11.89,0,0,1,11.16,3,1,1,0,0,0,.69.28,1,1,0,0,0,.72-.31A1,1,0,0,0,21.72,7.93Z"/><path class="cls-2" d="M3.82,6.65A14.32,14.32,0,0,0,2.28,7.93,1,1,0,0,0,3.66,9.37a13.09,13.09,0,0,1,1.6-1.29Z"/><path class="cls-2" d="M17,13.14a1,1,0,0,0,.71.3,1,1,0,0,0,.72-1.69A9,9,0,0,0,12,9h-.16l2.35,2.35A7,7,0,0,1,17,13.14Z"/><path class="cls-2" d="M7.43,10.26a8.8,8.8,0,0,0-1.9,1.49A1,1,0,0,0,7,13.14a7.3,7.3,0,0,1,2-1.41Z"/><path class="cls-2" d="M8.53,15.4a1,1,0,1,0,1.39,1.44,3.06,3.06,0,0,1,3.84-.25l-2.52-2.52A5,5,0,0,0,8.53,15.4Z"/></g></g></g></svg>