<?xml version="1.0" encoding="UTF-8"?>
<svg width="37px" height="35px" viewBox="0 0 37 35" version="1.1" xmlns="http://www.w3.org/2000/svg" xmlns:xlink="http://www.w3.org/1999/xlink">
    <!-- Generator: sketchtool 52.2 (67145) - http://www.bohemiancoding.com/sketch -->
    <title>03E06ED1-7080-41DC-991A-216AEADFA853</title>
    <desc>Created with sketchtool.</desc>
    <defs>
        <polygon id="path-1" points="0.2597 0.0883 29.9827 0.0883 29.9827 23 0.2597 23"></polygon>
        <polygon id="path-3" points="0.0004 0.183 36.242 0.183 36.242 22.1859 0.0004 22.1859"></polygon>
    </defs>
    <g id="New-variant" stroke="none" stroke-width="1" fill="none" fill-rule="evenodd">
        <g id="Desktop-1440-overlay" transform="translate(-638.000000, -642.000000)">
            <g id="Group-26" transform="translate(520.000000, 274.000000)">
                <g id="Group-12" transform="translate(116.000000, 365.000000)">
                    <rect id="Rectangle" fill-rule="nonzero" x="0" y="0" width="40" height="40"></rect>
                    <g id="Group-7">
                        <g id="Group-3" transform="translate(5.000000, 14.816900)">
                            <mask id="mask-2" fill="white">
                                <use xlink:href="#path-1"></use>
                            </mask>
                            <g id="Clip-2"></g>
                            <path d="M17.8947,19.9443 L12.9907,19.9443 C12.9717,19.9443 12.9557,19.9333 12.9477,19.9173 L9.6037,12.9753 C9.5967,12.9603 9.5987,12.9423 9.6077,12.9283 L13.8277,6.5033 C13.8527,6.4633 13.9147,6.4813 13.9147,6.5283 L13.9147,12.0503 C13.9147,12.8943 14.5987,13.5783 15.4427,13.5783 C16.2867,13.5783 16.9707,12.8943 16.9707,12.0503 L16.9707,6.5283 C16.9707,6.4813 17.0327,6.4633 17.0577,6.5033 L21.2777,12.9283 C21.2877,12.9423 21.2887,12.9603 21.2807,12.9753 L17.9377,19.9173 C17.9297,19.9333 17.9137,19.9443 17.8947,19.9443 Z M17.0827,0.9733 C16.3067,-0.2067 14.5777,-0.2067 13.8037,0.9733 L6.1037,12.6963 C6.0947,12.7103 6.0937,12.7283 6.1007,12.7433 L9.5357,19.8763 C9.5507,19.9073 9.5277,19.9443 9.4927,19.9443 L1.7877,19.9443 C0.9437,19.9443 0.2597,20.6283 0.2597,21.4713 C0.2597,22.3163 0.9437,23.0003 1.7877,23.0003 L28.4557,23.0003 C29.2987,23.0003 29.9827,22.3163 29.9827,21.4713 C29.9827,20.6283 29.2987,19.9443 28.4557,19.9443 L21.3927,19.9443 C21.3577,19.9443 21.3337,19.9073 21.3497,19.8763 L24.7847,12.7433 C24.7907,12.7283 24.7907,12.7103 24.7817,12.6963 L17.0827,0.9733 Z" id="Fill-1" fill="#3366FF" mask="url(#mask-2)"></path>
                        </g>
                        <g id="Group-6" transform="translate(2.000000, 2.816900)">
                            <mask id="mask-4" fill="white">
                                <use xlink:href="#path-3"></use>
                            </mask>
                            <g id="Clip-5"></g>
                            <path d="M34.9484,14.4199 L33.5884,14.4199 C33.2184,10.7159 31.2734,7.4789 28.4424,5.3599 L34.9464,5.3599 C35.6614,5.3599 36.2404,4.7799 36.2404,4.0659 C36.2404,3.3519 35.6614,2.7719 34.9464,2.7719 L22.0044,2.7719 L22.0044,1.4779 C22.0044,0.7629 21.4244,0.1829 20.7094,0.1829 L15.5324,0.1829 C14.8174,0.1829 14.2384,0.7629 14.2384,1.4779 L14.2384,2.7719 L1.2954,2.7719 C0.5814,2.7719 0.0004,3.3519 0.0004,4.0659 C0.0004,4.7799 0.5814,5.3599 1.2954,5.3599 L7.7994,5.3599 C4.9684,7.4789 3.0234,10.7159 2.6544,14.4199 L1.2934,14.4199 C0.5794,14.4199 0.0004,14.9999 0.0004,15.7139 L0.0004,20.8909 C0.0004,21.6059 0.5794,22.1859 1.2934,22.1859 L6.4714,22.1859 C7.1864,22.1859 7.7654,21.6059 7.7654,20.8909 L7.7654,15.7139 C7.7654,14.9999 7.1864,14.4199 6.4714,14.4199 L5.2664,14.4199 C5.8534,9.7449 9.5624,6.0359 14.2364,5.4499 L14.2364,6.6549 C14.2364,7.3689 14.8174,7.9489 15.5314,7.9489 L16.8254,7.9489 L19.4144,7.9489 L20.7084,7.9489 C21.4234,7.9489 22.0034,7.3689 22.0034,6.6549 L22.0034,5.4499 C26.6774,6.0369 30.3854,9.7449 30.9724,14.4199 L29.7674,14.4199 C29.0534,14.4199 28.4734,14.9999 28.4734,15.7139 L28.4734,20.8909 C28.4734,21.6059 29.0534,22.1859 29.7674,22.1859 L34.9454,22.1859 C35.6594,22.1859 36.2394,21.6059 36.2394,20.8909 L36.2424,20.8909 L36.2424,15.7139 C36.2424,14.9999 35.6624,14.4199 34.9484,14.4199" id="Fill-4" fill="#3366FF" mask="url(#mask-4)"></path>
                        </g>
                    </g>
                </g>
            </g>
        </g>
    </g>
</svg>