<svg id="Layer_1" data-name="Layer 1" xmlns="http://www.w3.org/2000/svg" viewBox="0 0 400 400"><title>Artboard 188 copy 14</title><path d="M278.7,170.65l-69.61-72.8-.1-.09-.09-.1c-.11-.11-.25-.19-.37-.29A5.93,5.93,0,0,0,208,97a5.69,5.69,0,0,0-.51-.28,3.89,3.89,0,0,0-1.09-.44c-.18-.05-.36-.11-.55-.15s-.38-.05-.58-.07-.38,0-.57,0-.38,0-.57,0-.38,0-.57.07-.37.1-.56.15-.37.1-.55.18a13.13,13.13,0,0,0-1,.55,5.92,5.92,0,0,0-.49.38c-.12.1-.25.18-.37.29l-.09.1-.1.09-69.61,72.8a6,6,0,1,0,8.67,8.29l59.28-62V332a6,6,0,0,0,12,0V117l59.28,62a6,6,0,1,0,8.67-8.29Z"/></svg>