<svg id="Layer_1" data-name="Layer 1" xmlns="http://www.w3.org/2000/svg" viewBox="0 0 400 400"><title>Artboard 104 copy 23</title><path d="M320.34,233.51l-116-121.31-.1-.09-.09-.1c-.12-.11-.25-.19-.37-.29a6.12,6.12,0,0,0-.48-.38,5.83,5.83,0,0,0-.51-.28c-.17-.09-.35-.19-.53-.26s-.37-.12-.56-.18-.36-.11-.55-.15-.38,0-.58-.07-.38,0-.57,0-.38,0-.57,0-.38,0-.57.07-.37.1-.56.15-.37.1-.55.18-.36.17-.53.26-.34.17-.51.28a6.1,6.1,0,0,0-.48.38c-.12.1-.26.18-.37.29l-.09.1-.1.09-116,121.31a6,6,0,0,0,8.67,8.29L200,125,311.66,241.8a6,6,0,1,0,8.67-8.29Z"/></svg>