<svg id="Layer_1" data-name="Layer 1" xmlns="http://www.w3.org/2000/svg" viewBox="0 0 400 400"><title>Artboard 104 copy 26</title><path d="M324.49,262.42l0,0a6,6,0,0,0,.34-1.05v-.06a6,6,0,0,0,.12-1s0-.08,0-.12,0-.06,0-.09a6,6,0,0,0-.08-.93l0-.13a6,6,0,0,0-.27-1l0-.13a6,6,0,0,0-.46-.93l-.07-.12a6,6,0,0,0-.67-.86l0-.05-116-121.31-.1-.09-.09-.1c-.12-.11-.25-.19-.37-.29a6.06,6.06,0,0,0-.48-.38,5.73,5.73,0,0,0-.51-.28c-.17-.09-.35-.19-.53-.26a5.83,5.83,0,0,0-.56-.18c-.18-.05-.36-.11-.55-.15a5.79,5.79,0,0,0-.58-.07c-.19,0-.37,0-.56,0s-.39,0-.58,0-.38,0-.57.07-.38.1-.56.15a5.72,5.72,0,0,0-.55.18,6,6,0,0,0-.54.27c-.17.09-.34.17-.5.28a6.05,6.05,0,0,0-.49.38c-.12.1-.25.18-.37.29l-.09.1-.1.09-116,121.31,0,.05a6,6,0,0,0-.67.86l-.07.12a6,6,0,0,0-.46.93l0,.13a6,6,0,0,0-.27,1l0,.13A6,6,0,0,0,81,260s0,.06,0,.09,0,.08,0,.12a6,6,0,0,0,.12,1v.06a6,6,0,0,0,.34,1.05l0,0a6,6,0,0,0,.54,1l0,.07a6,6,0,0,0,.73.85l0,0,.05,0a6.05,6.05,0,0,0,.83.65l.11.07a6,6,0,0,0,.91.46l.11,0a5.93,5.93,0,0,0,1,.28h.09a6,6,0,0,0,1,.1H319a6,6,0,0,0,1-.1h.09a6,6,0,0,0,1-.28l.11,0a5.92,5.92,0,0,0,.91-.46l.11-.07a6,6,0,0,0,.83-.65l.05,0,0,0a6,6,0,0,0,.73-.85l0-.07A6,6,0,0,0,324.49,262.42ZM195.57,186.5c0-.08.07-.16.12-.25l.22-.18C196,186.11,195.8,186.28,195.57,186.5Z"/></svg>