<svg id="Layer_1" data-name="Layer 1" xmlns="http://www.w3.org/2000/svg" viewBox="0 0 400 400"><title>Artboard 188 copy 15</title><path d="M272.51,237.86a6,6,0,0,0-8.48.19l-59.28,62V85a6,6,0,0,0-12,0V300l-59.28-62a6,6,0,1,0-8.67,8.29l69.61,72.8.14.13,0,.06.07.05a6,6,0,0,0,.82.64l.12.07a5.93,5.93,0,0,0,.91.46l.11,0a6,6,0,0,0,1,.28h.08a6,6,0,0,0,1.06.1h0a6.07,6.07,0,0,0,1.05-.1h.08a5.93,5.93,0,0,0,1-.28l.11,0a6,6,0,0,0,.91-.46L202,320a6,6,0,0,0,.82-.64l.07-.05,0-.06.14-.13,69.61-72.8A6,6,0,0,0,272.51,237.86Z"/></svg>