<svg id="Layer_1" data-name="Layer 1" xmlns="http://www.w3.org/2000/svg" viewBox="0 0 400 400"><title>Artboard 104 copy 22</title><path d="M148,199,264.8,87.34a6,6,0,0,0-8.29-8.67l-121.31,116-.09.1-.1.09c-.11.12-.19.25-.29.37a6.08,6.08,0,0,0-.38.48,5.86,5.86,0,0,0-.28.51c-.09.17-.19.35-.26.53a5.83,5.83,0,0,0-.18.56c-.05.18-.11.36-.15.55s0,.38-.07.57,0,.38,0,.57,0,.38,0,.57,0,.38.07.57.1.37.15.55a5.83,5.83,0,0,0,.18.56c.07.18.17.35.26.53a5.86,5.86,0,0,0,.28.51,6.08,6.08,0,0,0,.38.48c.1.12.18.26.29.37l.14.13,0,.06,121.31,116a6,6,0,0,0,8.29-8.67Z"/></svg>