<svg id="Layer_1" data-name="Layer 1" xmlns="http://www.w3.org/2000/svg" viewBox="0 0 400 400"><title>Artboard 66 copy 51</title><path d="M101.19,177a6,6,0,0,1-6-6,51.7,51.7,0,0,1,51.65-51.65H296.77a6,6,0,1,1,0,12H146.83A39.69,39.69,0,0,0,107.19,171,6,6,0,0,1,101.19,177Z"/><path d="M253.89,281.14H104a6,6,0,0,1,0-12H253.89a39.69,39.69,0,0,0,39.65-39.65,6,6,0,1,1,12,0A51.7,51.7,0,0,1,253.89,281.14Z"/><path d="M330.5,231.62H269.13a6,6,0,0,1,0-12H330.5a6,6,0,0,1,0,12Z"/><path d="M330.5,231.62a6,6,0,0,1-4.34-1.85l-30.69-32.09a6,6,0,0,1,8.67-8.29l30.69,32.09a6,6,0,0,1-4.34,10.15Z"/><path d="M269.13,231.62a6,6,0,0,1-4.34-10.15l30.69-32.09a6,6,0,0,1,8.67,8.29l-30.69,32.09A6,6,0,0,1,269.13,231.62Z"/><path d="M131.87,177.84H70.5a6,6,0,0,1,0-12h61.37a6,6,0,0,1,0,12Z"/><path d="M101.19,209.93a6,6,0,0,1-4.34-1.85L66.16,176a6,6,0,0,1,8.67-8.29l30.69,32.09a6,6,0,0,1-4.34,10.15Z"/><path d="M101.19,209.93a6,6,0,0,1-4.34-10.15l30.69-32.09a6,6,0,0,1,8.67,8.29l-30.69,32.09A6,6,0,0,1,101.19,209.93Z"/></svg>