<svg id="Layer_1" data-name="Layer 1" xmlns="http://www.w3.org/2000/svg" viewBox="0 0 400 400"><title>Artboard 188 copy 12</title><path d="M321.75,194h-215l62-59.28A6,6,0,1,0,160.4,126L87.6,195.66l-.09.1-.1.09c-.11.11-.19.25-.29.37a6.05,6.05,0,0,0-.38.49c-.11.16-.19.34-.28.51a5.89,5.89,0,0,0-.26.53c-.07.18-.12.37-.18.55s-.11.37-.15.55,0,.38-.07.57,0,.38,0,.57,0,.38,0,.57,0,.38.07.57.1.37.15.55.1.37.18.55a5.89,5.89,0,0,0,.26.53c.09.17.17.34.28.51a6.05,6.05,0,0,0,.38.49c.1.12.18.25.29.37l.14.13,0,.06L160.4,274a6,6,0,0,0,8.29-8.67l-62-59.28h215a6,6,0,0,0,0-12Z"/></svg>