<svg id="Layer_1" data-name="Layer 1" xmlns="http://www.w3.org/2000/svg" viewBox="0 0 400 400"><title>Artboard 188 copy 13</title><path d="M328,202.78a5.89,5.89,0,0,0,.26-.53c.07-.18.12-.37.18-.55s.11-.37.15-.55,0-.38.07-.57,0-.38,0-.57,0-.38,0-.57,0-.38-.07-.57-.1-.37-.15-.55-.1-.37-.18-.55a5.89,5.89,0,0,0-.26-.53c-.09-.17-.17-.34-.28-.51a6.05,6.05,0,0,0-.38-.49c-.1-.12-.18-.25-.29-.37l-.1-.09-.09-.1L254.1,126a6,6,0,1,0-8.29,8.67l62,59.28h-215a6,6,0,0,0,0,12h215l-62,59.28A6,6,0,1,0,254.1,274l72.8-69.61,0-.06.14-.13c.11-.11.19-.25.29-.37a6.05,6.05,0,0,0,.38-.49C327.86,203.13,327.95,203,328,202.78Z"/></svg>