<svg id="Layer_1" data-name="Layer 1" xmlns="http://www.w3.org/2000/svg" viewBox="0 0 400 400"><title>Artboard 224</title><path d="M237.12,274.12a6,6,0,0,0,.46-.93l0-.13a6,6,0,0,0,.27-1l0-.13A6,6,0,0,0,238,271V151a6,6,0,0,0-.08-.93l0-.13a6,6,0,0,0-.27-1l0-.13a6,6,0,0,0-.46-.93l-.07-.12a6,6,0,0,0-.67-.86l0-.05,0,0a6,6,0,0,0-.85-.73l-.07,0a6,6,0,0,0-1-.54l0,0a6,6,0,0,0-1.05-.34h-.05a6,6,0,0,0-1.05-.12H232a6,6,0,0,0-.94.08l-.13,0a6,6,0,0,0-1,.27l-.12,0a5.93,5.93,0,0,0-.93.47l-.11.07a6,6,0,0,0-.86.67l-.05,0-62.75,60-.09.1-.1.09c-.11.12-.19.25-.29.37s-.27.31-.38.48a13.24,13.24,0,0,0-.55,1c-.07.18-.12.37-.18.56s-.11.37-.15.55,0,.38-.07.57,0,.38,0,.57,0,.38,0,.57,0,.38.07.57.1.37.15.55.1.37.18.56.17.35.26.53a5.85,5.85,0,0,0,.28.51c.11.17.25.32.38.48s.18.26.29.37l.14.13,0,.06,62.75,60,.05,0a6,6,0,0,0,.84.66l.11.07a5.91,5.91,0,0,0,.91.46l.11,0a6,6,0,0,0,1,.28h.09a6,6,0,0,0,1,.1h0l.57,0,.36-.05.23,0,.4-.1.18,0,.39-.14.17-.06.38-.18.36-.2.29-.18.21-.16.27-.21.18-.16.27-.25,0,0,0-.05a6,6,0,0,0,.67-.86Z"/></svg>