<svg id="Layer_1" data-name="Layer 1" xmlns="http://www.w3.org/2000/svg" viewBox="0 0 400 400"><title>Artboard 66 copy 4</title><path d="M315.19,209.62c.12-1.85.19-3.71.19-5.56a82,82,0,0,0-143.47-54.29,64.78,64.78,0,0,0-79.09,58.1A59.05,59.05,0,0,0,103.56,325H297.44a59.05,59.05,0,0,0,17.75-115.38ZM297.44,313H103.56a47.06,47.06,0,0,1-4.81-93.87,6.74,6.74,0,0,0,5.85-6.25,52.76,52.76,0,0,1,104-12.46,6,6,0,1,0,11.66-2.82A64.5,64.5,0,0,0,184.41,154a70,70,0,0,1,119,50.06,71,71,0,0,1-.61,9.27,6,6,0,0,0,5.16,6.74h0A47.05,47.05,0,0,1,297.44,313Z"/></svg>