<svg id="Layer_1" data-name="Layer 1" xmlns="http://www.w3.org/2000/svg" viewBox="0 0 400 400"><title>Artboard 66 copy 21</title><path d="M288.69,150.53h0a6,6,0,0,0-6,6L282.8,316c0,4.24-3.82,7.69-8.51,7.69H100c-4.69,0-8.51-3.45-8.51-7.69V95.59c0-4.24,3.82-7.69,8.51-7.69L244,87.73a6,6,0,0,0,0-12h0L100,75.9c-11.31,0-20.51,8.83-20.51,19.69V316c0,10.86,9.2,19.69,20.51,19.69H274.29c11.31,0,20.51-8.83,20.51-19.7l-.12-159.51A6,6,0,0,0,288.69,150.53Z"/><path d="M256,228H118.89a6,6,0,1,0,0,12H256a6,6,0,0,0,0-12Z"/><path d="M256,258.06H118.89a6,6,0,1,0,0,12H256a6,6,0,0,0,0-12Z"/><path d="M256,288.11H118.89a6,6,0,1,0,0,12H256a6,6,0,0,0,0-12Z"/><path d="M339.58,70.91l-17-18.5a11.81,11.81,0,0,0-16.66-.69L197.48,151.51a6,6,0,0,0-1.77,5.72l-10.82,28.45a8.88,8.88,0,0,0,2.59,10.27,7.84,7.84,0,0,0,4.85,1.69,8.26,8.26,0,0,0,3.82-1l29.43-9a6,6,0,0,0,6-1.28L338.89,87.57A11.81,11.81,0,0,0,339.58,70.91Zm-141,112.47,5.76-15.15,9.77,10.39Zm28.13-8.88-16.94-18,81.69-75.2,16.77,18.17Zm90.35-83.17L300.32,73.16l13.55-12.47,16.75,18.19Z"/></svg>