<svg id="Layer_1" data-name="Layer 1" xmlns="http://www.w3.org/2000/svg" viewBox="0 0 400 400"><title>Artboard 104 copy 27</title><path d="M177.31,207l58.21-55.66a6,6,0,0,0-8.29-8.67l-62.75,60-.09.1-.1.09c-.11.12-.19.25-.29.37a6.09,6.09,0,0,0-.38.49c-.11.16-.19.34-.28.51s-.19.35-.26.53-.12.37-.18.55-.11.37-.15.55,0,.38-.07.57,0,.38,0,.57,0,.38,0,.57,0,.38.07.57.1.37.15.55.1.37.18.55.17.35.26.53.17.34.28.51a6.09,6.09,0,0,0,.38.49c.1.12.18.25.29.37l.14.13,0,.06,62.75,60a6,6,0,0,0,8.29-8.67Z"/></svg>