<svg id="Layer_1" data-name="Layer 1" xmlns="http://www.w3.org/2000/svg" viewBox="0 0 400 400"><title>Artboard 152 copy 6</title><path d="M338.84,212.84c-1-19-5.18-33.35-13.16-45.28-16.38-24.51-46-36.39-83.39-33.57v-1.84a11.94,11.94,0,0,0-3.16-8.07l3.5-16c0-.07,0-.13,0-.2s0-.24.06-.36,0-.16,0-.24,0-.23,0-.35,0-.18,0-.27,0-.21,0-.31,0-.2,0-.3,0-.18,0-.27,0-.21-.07-.32,0-.16-.06-.25-.06-.21-.1-.31l-.08-.24c0-.1-.08-.2-.12-.29l-.11-.24-.14-.26-.14-.24-.16-.23-.17-.24-.17-.21-.2-.24-.19-.19-.23-.21-.22-.18-.23-.18-.26-.18-.23-.14-.31-.17-.22-.11-.34-.14-.19-.08L104.17,54.43l-.14,0-.32-.09-.26-.06-.32-.06-.28,0-.3,0H102l-.33,0-.24,0-.36.06-.12,0-.11,0-.34.09-.25.08-.28.11-.28.12-.23.12-.29.16-.21.13-.27.18-.21.17-.23.19-.23.21-.18.18-.22.26-.15.18-.2.27-.14.21-.15.27-.14.26-.11.24c0,.11-.09.22-.13.33l0,.1,0,.11c0,.12-.07.24-.11.36l-.05.22c0,.12,0,.23-.06.35s0,.17,0,.25,0,.21,0,.32,0,.19,0,.28,0,.19,0,.29,0,.21,0,.32,0,.17,0,.26,0,.23.06.34,0,.09,0,.13l13.3,61.17a12,12,0,0,0-4.85,9.6v15.58a11.88,11.88,0,0,0,1,4.83,108.76,108.76,0,1,0,176.87,84.78c0-31.09-15.91-63.47-41.24-85.25a11.87,11.87,0,0,0,.84-4.36V146c33.36-2.74,59.43,7.27,73.42,28.2,6.72,10.06,10.27,22.54,11.15,39.25a6,6,0,0,0,6,5.68h.32A6,6,0,0,0,338.84,212.84ZM227.71,120.15H121.4L110.34,69.27l119.43,41.45ZM116.83,147.74l0,0h0V132.18s0,0,0,0H230.29v15.54s0,0,0,0Zm153.87,89.6A96.76,96.76,0,1,1,116.2,159.7c.2,0,.39,0,.59,0h113.5a11.92,11.92,0,0,0,1.46-.1C255.28,179,270.69,209.36,270.69,237.33Z"/><path d="M218.81,216.28c-10.65,1-15.47,8.63-19,14.19-3.42,5.39-5.41,8.23-10,8.67s-7.07-2-11.45-6.62-10.69-11.36-21.33-10.34-15.47,8.63-19,14.19c-3.41,5.39-5.41,8.23-10,8.67s-7.07-2-11.45-6.62S106,227.06,95.31,228.08a6,6,0,0,0-5.4,6.54s0,.09,0,.13a6,6,0,0,0,0,.62c.88,41.79,38.38,75.11,84,75.11l2,0a89,89,0,0,0,56.29-21.14c15.33-13.23,24.64-31,26.24-50.12a6,6,0,0,0-8.52-5.93c-3.59-.24-6-2.59-9.79-6.65C235.63,221.83,229.46,215.26,218.81,216.28Zm26.77,28.4c-5.91,30.36-34.8,53-69.92,53.79-37.47.79-69-24.24-73.27-56.94a35.06,35.06,0,0,1,5.5,5.11c4.19,4.46,9.83,10.45,19.16,10.45.7,0,1.43,0,2.17-.1,10.65-1,15.47-8.63,19-14.19,3.41-5.39,5.41-8.23,10-8.67s7.07,2,11.45,6.62,10.7,11.36,21.33,10.34,15.47-8.63,19-14.19c3.42-5.39,5.41-8.23,10-8.67s7.08,2,11.45,6.62C234.79,238.45,239.12,243,245.59,244.68Z"/></svg>