<svg id="Layer_1" data-name="Layer 1" xmlns="http://www.w3.org/2000/svg" viewBox="0 0 400 400"><title>Artboard 104 copy 33</title><path d="M266.49,234.42l0-.05a5.92,5.92,0,0,0,.34-1l0-.06a6,6,0,0,0,.12-1s0-.08,0-.12,0-.06,0-.09a6,6,0,0,0-.08-.93l0-.14a5.91,5.91,0,0,0-.27-1l0-.13a6,6,0,0,0-.46-.93l-.07-.12a6,6,0,0,0-.67-.86l0-.05-60-62.75-.1-.09-.09-.1c-.12-.11-.25-.19-.37-.29a6,6,0,0,0-.48-.38c-.17-.11-.34-.19-.51-.28s-.35-.19-.53-.26a5.8,5.8,0,0,0-.56-.18c-.18-.05-.36-.11-.55-.15s-.38,0-.58-.07-.38,0-.57,0-.38,0-.57,0-.38,0-.57.07-.37.1-.55.15-.37.1-.55.18-.35.17-.53.26a5.71,5.71,0,0,0-.51.28,6,6,0,0,0-.49.38c-.12.1-.25.18-.37.29l-.09.1-.1.09-60,62.75,0,.05a6,6,0,0,0-.67.86l-.07.12a6,6,0,0,0-.46.93l0,.13a5.91,5.91,0,0,0-.27,1l0,.14a6,6,0,0,0-.08.93s0,.06,0,.09,0,.08,0,.12a6,6,0,0,0,.12,1l0,.06a5.92,5.92,0,0,0,.34,1l0,.05a6,6,0,0,0,.54,1l0,.07a6.05,6.05,0,0,0,.73.85l0,0,.05,0a6,6,0,0,0,.83.66l.11.07a6,6,0,0,0,.91.46l.11,0a6,6,0,0,0,1,.28h.09a6,6,0,0,0,1,.1H261a6,6,0,0,0,1.05-.1h.09a6,6,0,0,0,1-.28l.11,0a5.93,5.93,0,0,0,.91-.46l.11-.07a6,6,0,0,0,.84-.66l.05,0,0,0a6,6,0,0,0,.73-.85l0-.07A6,6,0,0,0,266.49,234.42Z"/></svg>