<svg id="Layer_1" data-name="Layer 1" xmlns="http://www.w3.org/2000/svg" viewBox="0 0 400 400"><title>Artboard 104 copy 32</title><path d="M237.29,202.78c.09-.17.19-.35.26-.53s.12-.37.18-.56.11-.36.15-.55,0-.38.07-.57,0-.38,0-.57,0-.38,0-.57,0-.38-.07-.57-.1-.37-.15-.55-.1-.37-.18-.56a13.24,13.24,0,0,0-.55-1c-.11-.17-.25-.32-.38-.48s-.18-.26-.29-.37l-.1-.09-.09-.1-62.75-60-.05,0a6,6,0,0,0-.86-.67l-.12-.07a5.94,5.94,0,0,0-.93-.46l-.13,0a5.93,5.93,0,0,0-1-.27l-.14,0a6,6,0,0,0-.93-.08H169a6,6,0,0,0-1,.12l-.06,0a6,6,0,0,0-1,.34l-.05,0a6,6,0,0,0-1,.54l-.07.05a6,6,0,0,0-.85.73l0,0,0,.05a6,6,0,0,0-.67.86l-.07.12a6,6,0,0,0-.46.93l0,.13a6,6,0,0,0-.27,1l0,.13a6,6,0,0,0-.08.93V260a6,6,0,0,0,.08.93l0,.13a6,6,0,0,0,.27,1l0,.13a6,6,0,0,0,.46.93l.07.12a6,6,0,0,0,.67.86l0,.05,0,0,.27.25.18.16.27.21.21.16.27.17.4.22.36.17.18.07.38.14.19,0,.39.1.24,0,.35.05.57,0h0a6,6,0,0,0,1-.1h.09a5.91,5.91,0,0,0,1-.28l.11,0a5.93,5.93,0,0,0,.91-.46l.11-.07a6,6,0,0,0,.84-.66l.05,0,62.75-60,0-.06.14-.13c.11-.12.19-.25.29-.37s.27-.31.38-.48A5.85,5.85,0,0,0,237.29,202.78Z"/></svg>