<svg xmlns="http://www.w3.org/2000/svg" viewBox="0 0 32 32"><defs><style>.cls-1{fill:#fff;}</style></defs><title>collapse</title><g id="Layer_2" data-name="Layer 2"><g id="Layer_1-2" data-name="Layer 1"><path class="cls-1" d="M28,0H4A4,4,0,0,0,0,4V28a4,4,0,0,0,4,4H28a4,4,0,0,0,4-4V4A4,4,0,0,0,28,0Zm2,28a2,2,0,0,1-2,2H4a2,2,0,0,1-2-2V4A2,2,0,0,1,4,2H28a2,2,0,0,1,2,2Z"/><polygon class="cls-1" points="17.93 14.11 24.92 14.11 24.92 12.12 21.26 12.12 26.03 7.35 24.62 5.94 19.88 10.68 19.88 7.08 17.89 7.08 17.89 14.07 17.93 14.07 17.93 14.11"/><polygon class="cls-1" points="14.07 17.89 7.08 17.89 7.08 19.88 10.74 19.88 5.97 24.65 7.38 26.06 12.12 21.32 12.12 24.92 14.11 24.92 14.11 17.93 14.07 17.93 14.07 17.89"/><polygon class="cls-1" points="24.92 19.88 24.92 17.89 17.93 17.89 17.93 17.93 17.89 17.93 17.89 24.92 19.88 24.92 19.88 21.26 24.65 26.03 26.06 24.62 21.32 19.88 24.92 19.88"/><polygon class="cls-1" points="12.12 10.74 7.35 5.97 5.94 7.38 10.68 12.12 7.08 12.12 7.08 14.11 14.07 14.11 14.07 14.07 14.11 14.07 14.11 7.08 12.12 7.08 12.12 10.74"/></g></g></svg>