<?xml version="1.0" encoding="UTF-8"?>
<svg width="26px" height="25px" viewBox="0 0 26 25" version="1.1" xmlns="http://www.w3.org/2000/svg" xmlns:xlink="http://www.w3.org/1999/xlink">
    <!-- Generator: Sketch 49 (51002) - http://www.bohemiancoding.com/sketch -->
    <title>drops-light</title>
    <desc>Created with Sketch.</desc>
    <defs>
        <linearGradient x1="50%" y1="3.65787572%" x2="50%" y2="100%" id="linearGradient-1">
            <stop stop-color="#02DCBE" offset="0%"></stop>
            <stop stop-color="#00DB77" offset="100%"></stop>
        </linearGradient>
    </defs>
    <g id="Page-1" stroke="none" stroke-width="1" fill="none" fill-rule="evenodd">
        <g id="nebular-new-header" transform="translate(-397.000000, -322.000000)" fill="url(#linearGradient-1)">
            <g id="Group-2" transform="translate(386.000000, 310.000000)">
                <g id="drops-copy-4" transform="translate(8.000000, 8.000000)">
                    <path d="M10.9159364,4.59090909 L3.99048182,17.052 C2.28039091,20.1270909 2.82402727,24.0152727 5.31411818,26.5018182 C6.85757273,28.0464545 8.88675455,28.8181818 10.9159364,28.8181818 C12.9451182,28.8181818 14.9743,28.0464545 16.5177545,26.5018182 C19.0078455,24.0152727 19.5514818,20.1270909 17.8413909,17.052 L10.9159364,4.59090909 Z" id="Fill-1"></path>
                    <path d="M28.2530909,10.9760364 L24.5811818,4.37085455 L20.9092727,10.9760364 C20.004,12.6069455 20.2911818,14.6680364 21.6112727,15.9869455 C22.4042727,16.7799455 23.4584545,17.2172182 24.5811818,17.2172182 C25.7027273,17.2172182 26.7569091,16.7799455 27.5510909,15.9869455 C28.87,14.6680364 29.1583636,12.6069455 28.2530909,10.9760364" id="Fill-4"></path>
                </g>
            </g>
        </g>
    </g>
</svg>