<svg id="Layer_1" data-name="Layer 1" xmlns="http://www.w3.org/2000/svg" viewBox="0 0 400 400"><title>Artboard 188 copy 10</title><path d="M311.71,109.17H102.65a21.49,21.49,0,0,0-21.47,21.47V269.36a21.49,21.49,0,0,0,21.47,21.47H311.71a21.49,21.49,0,0,0,21.47-21.47V130.64A21.49,21.49,0,0,0,311.71,109.17ZM93.18,149l75.76,51.36L93.18,251.7Zm225.16-21.33a8.92,8.92,0,0,1-3.62,10.29L211.65,207.81h0a9.13,9.13,0,0,1-10.3,0L98.28,137.94a9.18,9.18,0,0,1,5.15-16.77H309.57A8.92,8.92,0,0,1,318.34,127.65ZM95.66,272.35a8.92,8.92,0,0,1,3.62-10.29l80.35-54.47,15,10.16a21.07,21.07,0,0,0,23.76,0l16-10.84,81.35,55.15a9.18,9.18,0,0,1-5.15,16.77H104.43A8.92,8.92,0,0,1,95.66,272.35Zm149.4-72.69,76.12-51.6V251.26Z"/></svg>