<svg id="Layer_1" data-name="Layer 1" xmlns="http://www.w3.org/2000/svg" viewBox="0 0 400 400"><title>Artboard 170</title><path d="M326.86,128.74a15.18,15.18,0,0,0-4-11L295.57,88.15A15.29,15.29,0,0,0,274,87.25L261.81,98.47a18.42,18.42,0,0,0-26.2,24.12L100.41,247a6,6,0,0,0-1.76,5.77L85.37,296.57a10.93,10.93,0,0,0,3.74,12,9.14,9.14,0,0,0,9.47,1l45.56-10.61.05,0a6,6,0,0,0,5.88-1.3L284.15,174.14a18.39,18.39,0,0,0,8.36,2.31h.63a18.43,18.43,0,0,0,16.77-26l12-11.08A15.17,15.17,0,0,0,326.86,128.74ZM112.57,252.14,243.3,131.81l11.15,11.91L125.56,266ZM97.66,297.37l10-32.94,23.6,25.11Zm47-11.13L133.78,274.7,262.65,152.48,275.29,166ZM297.52,162.73h0a6.48,6.48,0,0,1-9.11-.3l-41.21-44a6.45,6.45,0,0,1,.3-9.11,6.38,6.38,0,0,1,4.39-1.72h.22a6.4,6.4,0,0,1,4.49,2l41.21,44a6.48,6.48,0,0,1-.3,9.11Zm16.3-32.21L302.43,141l-32-34.17,11.67-10.74a3.28,3.28,0,0,1,4.63.19L314,125.89a3.28,3.28,0,0,1-.19,4.63Z"/></svg>