<?xml version="1.0" encoding="utf-8"?>
<!-- Generator: Adobe Illustrator 21.0.0, SVG Export Plug-In . SVG Version: 6.00 Build 0)  -->
<svg version="1.1" id="Layer_1" xmlns="http://www.w3.org/2000/svg" xmlns:xlink="http://www.w3.org/1999/xlink" x="0px" y="0px"
	 viewBox="0 0 24.5 25" style="enable-background:new 0 0 24.5 25;" xml:space="preserve">
<style type="text/css">
	.st0{opacity:0;fill:#FFFFFF;}
	.st1{fill:#202020;}
</style>
<title>e-commerce</title>
<g id="Layer_2">
	<g id="Layer_3">
		<polyline class="st0" points="0,0.5 24,0.5 24,24.5 0,24.5 		"/>
		<path class="st1" d="M22,6c-0.1,0-0.3-0.1-0.4-0.2L18.5,2h-13L2.4,5.8C2.2,6,1.9,6.1,1.7,5.9C1.5,5.7,1.4,5.4,1.6,5.2l3.3-4
			C5,1,5.2,1,5.3,1h13.5c0.2,0,0.3,0.1,0.4,0.2l3.2,4c0.2,0.2,0.1,0.5-0.1,0.7C22.2,6,22.1,6,22,6z"/>
		<path class="st1" d="M20,24H4c-1.4,0-2.5-1.1-2.5-2.5v-16C1.5,5.2,1.7,5,2,5h20c0.3,0,0.5,0.2,0.5,0.5v16C22.5,22.9,21.4,24,20,24
			z M2.5,6v15.5C2.5,22.3,3.2,23,4,23h16c0.8,0,1.5-0.7,1.5-1.5V6H2.5z"/>
		<path class="st1" d="M12,15c-2.5,0-4.5-2-4.5-4.5C7.5,10.2,7.7,10,8,10s0.5,0.2,0.5,0.5c0,1.9,1.6,3.5,3.5,3.5s3.5-1.6,3.5-3.5
			c0-0.3,0.2-0.5,0.5-0.5s0.5,0.2,0.5,0.5C16.5,13,14.5,15,12,15z"/>
	</g>
</g>
</svg>
