<svg id="Layer_1" data-name="Layer 1" xmlns="http://www.w3.org/2000/svg" viewBox="0 0 400 400"><title>Artboard 188 copy 7</title><path d="M322,149.32c-11.34-36.24-46.08-59-82.61-54.2A74.63,74.63,0,0,0,203.54,110l-.17.14c-.34.27-.78.61-1.15.87-.47-.35-1.07-.85-1.47-1.2a28.78,28.78,0,0,0-2.28-1.8,78.49,78.49,0,0,0-8.45-5.05,75.77,75.77,0,0,0-24.83-7.81c-36.52-4.83-71.27,18-82.61,54.2C68.91,193,98.94,233.89,112.48,249.44A189.4,189.4,0,0,0,200,306.14h0a7.72,7.72,0,0,0,4.52,0,189.4,189.4,0,0,0,87.55-56.7C305.67,233.89,335.7,193,322,149.32Zm-39,92.23a177.39,177.39,0,0,1-80.77,52.73,177.39,177.39,0,0,1-80.77-52.73c-12.22-14-39.36-50.74-27.5-88.65,8.74-27.93,33.8-46.43,61.42-46.43a62.25,62.25,0,0,1,8.16.54,63.79,63.79,0,0,1,20.91,6.58,66.3,66.3,0,0,1,7.15,4.28c.32.22.83.65,1.32,1.07,2.14,1.81,5.38,4.55,9.7,4.29,3.68-.21,6.34-2.31,8.1-3.69l.17-.13A62.46,62.46,0,0,1,241,107c30.71-4.06,60,15.23,69.58,45.89C322.44,190.82,295.29,227.53,283.07,241.56Z"/></svg>