<svg id="Layer_1" data-name="Layer 1" xmlns="http://www.w3.org/2000/svg" viewBox="0 0 400 400"><title>Artboard 66 copy 42</title><path d="M318.67,185a18,18,0,0,0-18-18h0l-27,0-.07-45.76a68.79,68.79,0,0,0-68.6-68.5h-.11a68.68,68.68,0,0,0-68.5,68.71l.07,45.76-27,0a18,18,0,0,0-18,18l.21,131.49a18,18,0,0,0,18,18h0l191.29-.3a18,18,0,0,0,18-18ZM148.32,121.55a56.67,56.67,0,0,1,56.52-56.69h.09a56.79,56.79,0,0,1,56.6,56.52l.07,45.76-113.21.18Zm-43.18,59.6a6,6,0,0,1,4.23-1.77l191.29-.3h0a6,6,0,0,1,6,6l.17,108.23-203.29.32-.17-108.23A6,6,0,0,1,105.14,181.14Zm200,139.64a6,6,0,0,1-4.23,1.77l-191.29.3h0a6,6,0,0,1-6-6l0-11.26,203.29-.32,0,11.26A6,6,0,0,1,305.11,320.78Z"/><path d="M205.75,277.62h0A19.34,19.34,0,0,0,225,258.29L225,214.51a19.32,19.32,0,0,0-19.3-19.27h0a19.32,19.32,0,0,0-19.27,19.33l.07,43.78A19.32,19.32,0,0,0,205.75,277.62Zm-.08-70.38h0a7.31,7.31,0,0,1,7.3,7.29l.07,43.78a7.34,7.34,0,0,1-7.29,7.31h0a7.31,7.31,0,0,1-7.3-7.29l-.07-43.78A7.31,7.31,0,0,1,205.67,207.25Z"/></svg>