<svg id="Layer_1" data-name="Layer 1" xmlns="http://www.w3.org/2000/svg" viewBox="0 0 400 400"><title>Artboard 152 copy 8</title><path d="M312.34,256.84a6,6,0,0,0-8.19,2.22A118,118,0,0,1,83.69,200.5c0-.16,0-.31,0-.47l9.43,9.77a6,6,0,0,0,8.63-8.34L83.84,182.91a8.42,8.42,0,0,0-11.89-.21L53.39,200.61a6,6,0,0,0,8.34,8.63l10-9.63c0,.29,0,.59,0,.88A130,130,0,0,0,314.56,265,6,6,0,0,0,312.34,256.84Z"/><path d="M349.76,186.58a6,6,0,0,0-8.48-.15l-9.68,9.35C329.1,126.28,271.79,70.5,201.69,70.5A130.41,130.41,0,0,0,88.79,136a6,6,0,1,0,10.41,6,118,118,0,0,1,220.39,54l-9.71-10.06a6,6,0,0,0-8.63,8.34l17.92,18.55a8.42,8.42,0,0,0,11.89.21l18.55-17.92A6,6,0,0,0,349.76,186.58Z"/></svg>