<svg id="Layer_1" data-name="Layer 1" xmlns="http://www.w3.org/2000/svg" viewBox="0 0 400 400"><title>Artboard 160</title><path d="M232.64,284.81a89.91,89.91,0,1,0-65.28,0V328c0,.07,0,.15,0,.22s0,.15,0,.22a6,6,0,0,0,6,6h2.88v19.44c0,.11,0,.22,0,.33s0,.22,0,.33a6,6,0,0,0,6,6h36.41a6,6,0,0,0,6-6c0-.11,0-.23,0-.34a6,6,0,0,0,.06-.83l-.07-18.94h2a6,6,0,0,0,6-6c0-.17,0-.33,0-.5s0-.31,0-.48Zm-7.9-9.89-.11,0-.41.16-.19.09-.33.17-.23.14-.25.16-.25.19-.2.16-.24.22-.18.18-.21.23-.18.21-.17.22-.18.26-.13.21-.17.3-.1.2c-.05.11-.1.21-.14.33l-.08.22c0,.11-.08.22-.11.33s0,.17-.07.26,0,.2-.07.3,0,.22-.05.33,0,.16,0,.23,0,.28,0,.41,0,.09,0,.14v41.82h-.7a6,6,0,0,0-.86.07l-.47,0h0a6,6,0,0,0-6,6l.07,20H188.24V329a7,7,0,0,0-6.51-6.52h-2.37V280.61c0-.11,0-.21,0-.31s0-.13,0-.19,0-.29-.06-.44l0-.13c0-.16-.07-.32-.11-.48l0-.08c0-.17-.1-.33-.16-.49l0-.05q-.09-.24-.21-.47l0-.06c-.07-.15-.15-.29-.24-.43l0-.08c-.08-.13-.17-.25-.26-.37l-.08-.11-.26-.31-.12-.14-.27-.26-.16-.14-.29-.23-.17-.13-.34-.22-.15-.09-.41-.21-.11-.05-.48-.19-.06,0a77.91,77.91,0,1,1,49.47,0Z"/><path d="M79.64,212.1h-31a6,6,0,1,0,0,12h31a6,6,0,0,0,0-12Z"/><path d="M351.33,212.1h-31a6,6,0,0,0,0,12h31a6,6,0,0,0,0-12Z"/><path d="M200.93,81.52a6,6,0,0,0,6-6v-31a6,6,0,0,0-12,0v31A6,6,0,0,0,200.93,81.52Z"/><path d="M77.31,106.79l24.17,19.37a6,6,0,0,0,7.5-9.37L84.81,97.42a6,6,0,0,0-7.5,9.37Z"/><path d="M295.18,128a6,6,0,0,0,3.65-1.24L323.4,107.9a6,6,0,0,0-7.31-9.52l-24.57,18.86A6,6,0,0,0,295.18,128Z"/><path d="M295.93,274.07a6,6,0,0,0-9.47,7.37l19,24.44a6,6,0,1,0,9.47-7.37Z"/><path d="M113,273.65a6,6,0,0,0-8.41,1.11L85.79,299.34a6,6,0,1,0,9.52,7.3l18.84-24.58A6,6,0,0,0,113,273.65Z"/><path d="M236.29,187.72a6,6,0,0,0-7.48,4l-3.63,12H176.12l-3.63-12A6,6,0,1,0,161,195.2l12.4,41.08h0a5.91,5.91,0,0,0,.33.84l.07.15a6,6,0,0,0,.43.71l.11.15a6,6,0,0,0,.49.58l.06.07a6,6,0,0,0,.63.54l.14.1a5.94,5.94,0,0,0,.71.44l.09,0a6,6,0,0,0,.75.31l.08,0a6,6,0,0,0,.81.2l.19,0a5.91,5.91,0,0,0,.79.06h14.73v62.64a6,6,0,0,0,12,0V240.55h15.5l.48,0,.35,0a6,6,0,0,0,5.74-4.27l12.4-41.08A6,6,0,0,0,236.29,187.72ZM217.7,228.55H183.61l-3.87-12.81h41.83Z"/></svg>