<svg id="Layer_1" data-name="Layer 1" xmlns="http://www.w3.org/2000/svg" viewBox="0 0 400 400"><title>Artboard 152 copy 3</title><path d="M200.5,5C93.8,5,7,91.8,7,198.5S93.8,392,200.5,392,394,305.2,394,198.5,307.2,5,200.5,5Zm0,375C100.42,380,19,298.58,19,198.5S100.42,17,200.5,17,382,98.42,382,198.5,300.58,380,200.5,380Z"/><path d="M288.52,241.82a6,6,0,0,0-8.19,2.22,91.78,91.78,0,0,1-171.4-42.73l5.21,5.4a6,6,0,0,0,8.63-8.34l-14.12-14.63a7.91,7.91,0,0,0-11.17-.2L82.84,197.68a6,6,0,1,0,8.34,8.63l5.73-5.53A103.78,103.78,0,0,0,290.74,250,6,6,0,0,0,288.52,241.82Z"/><path d="M309.82,186.5l-5.62,5.43A103.77,103.77,0,0,0,110.53,147a6,6,0,0,0,10.41,6,91.78,91.78,0,0,1,171.21,38.59l-5.29-5.48a6,6,0,1,0-8.63,8.33l14.12,14.63a7.91,7.91,0,0,0,11.17.2l14.63-14.12a6,6,0,0,0-8.34-8.63Z"/></svg>