<svg id="Layer_1" data-name="Layer 1" xmlns="http://www.w3.org/2000/svg" viewBox="0 0 400 400"><title>Artboard 66 copy 8</title><path d="M357.85,309.93l-51-121.59a6,6,0,0,0-5.83-4.61H270.81c.62-1.6,1.21-3.19,1.76-4.77,1-2.86,1.9-5.73,2.68-8.55s1.5-5.81,2.07-8.66,1.06-5.87,1.4-8.75.57-5.91.66-8.8,0-5.94-.15-8.81a85.69,85.69,0,0,0-1-8.78,81.57,81.57,0,0,0-2-8.7A79.54,79.54,0,0,0,269.13,101q-.6-1.08-1.24-2.14A66.47,66.47,0,0,0,210,66.44l-.72,0h-.06A66.76,66.76,0,0,0,152,99.63a81.5,81.5,0,0,0-4.27,8.34,79.87,79.87,0,0,0-5.35,17.21,84.36,84.36,0,0,0-1.2,8.75c-.24,2.87-.34,5.83-.3,8.78s.22,5.82.52,8.77.73,5.79,1.28,8.72,1.2,5.75,2,8.64,1.62,5.68,2.58,8.53c.71,2.09,1.51,4.23,2.35,6.36H114a6.34,6.34,0,0,0-5.71,3.74L56.9,310.05a6.14,6.14,0,0,0,5.6,8.44H352.44a6,6,0,0,0,5.42-8.57Zm-64.47-3.43c-5.89-31.52-36.45-32.38-46.85-32.66-6.81-.19-14.48.27-22.6.75-31.05,1.83-66.25,3.91-74.82-27.35-3.76-13.73,1.68-29.67,12.6-38.8.27.45.52.91.79,1.36,1.5,2.51,3.1,5,4.75,7.55s3.28,4.87,5,7.27,3.42,4.66,5.2,7S181,236,182.8,238.2s3.59,4.21,5.43,6.25,3.63,4,5.47,5.85c3.53,3.64,7.38,7.31,12.49,11.9a6.69,6.69,0,0,0,4.53,1.8h.2l.33,0a6.67,6.67,0,0,0,4.06-1.88l1.47-1.38c3-2.84,6.15-5.77,9.12-8.85,1.83-1.89,3.65-3.84,5.42-5.81s3.63-4.1,5.41-6.22,3.6-4.38,5.33-6.6,3.52-4.62,5.21-6.95,3.43-4.86,5-7.26,3.26-5,4.78-7.55,3.06-5.21,4.47-7.81,2.8-5.3,4.06-7.92H297L343.4,306.5ZM117.85,195.74h37c.33.68.65,1.35,1,2-15.78,11.85-23.58,33.46-18.32,52.65,11.14,40.63,55,38,87.1,36.16,7.85-.46,15.28-.9,21.57-.73,15.7.43,30.57,3.39,34.91,20.67H71.41Zm35.28-60.8a72.81,72.81,0,0,1,1-7.51,69,69,0,0,1,1.84-7.38,67.83,67.83,0,0,1,2.71-7.25,69.49,69.49,0,0,1,3.64-7.11c9.71-16.56,28.1-27.22,46.92-27.22h.39l.71,0c18.83-.28,37.36,10.15,47.23,26.59q.54.9,1.06,1.82a68.46,68.46,0,0,1,3.46,7.12,67.6,67.6,0,0,1,2.55,7.27,69.39,69.39,0,0,1,1.69,7.42,73.18,73.18,0,0,1,.89,7.54c.17,2.49.21,5.07.13,7.66s-.27,5.14-.58,7.74-.72,5.19-1.25,7.8-1.14,5.2-1.87,7.82-1.53,5.19-2.44,7.8-1.89,5.16-3,7.75-2.21,5.1-3.43,7.65-2.49,5-3.85,7.51-2.74,4.91-4.21,7.34-2.94,4.76-4.51,7.13-3.1,4.59-4.75,6.87-3.25,4.42-4.93,6.59-3.34,4.21-5.06,6.26-3.41,4-5.13,5.9-3.41,3.71-5.14,5.5c-2.14,2.22-4.35,4.34-6.64,6.51-3.2-2.95-5.85-5.52-8.31-8.07-1.74-1.8-3.48-3.66-5.17-5.54s-3.48-3.93-5.15-5.93-3.43-4.17-5.07-6.28-3.35-4.39-4.93-6.59-3.22-4.58-4.73-6.87-3.06-4.75-4.47-7.11c-1.21-2-2.37-4.06-3.48-6.09a6.06,6.06,0,0,0-.35-.74,6,6,0,0,0-.39-.59c-1.32-2.46-2.58-4.94-3.73-7.37s-2.34-5.1-3.36-7.61-2-5.18-2.88-7.71-1.67-5.2-2.35-7.76-1.29-5.22-1.77-7.77-.87-5.21-1.14-7.75-.42-5.18-.46-7.69S152.93,137.42,153.14,134.94Z"/><path d="M210.21,171.28a36.44,36.44,0,1,0-36.44-36.44A36.48,36.48,0,0,0,210.21,171.28Zm0-60.88a24.44,24.44,0,1,1-24.44,24.44A24.47,24.47,0,0,1,210.21,110.4Z"/></svg>