<svg id="Layer_1" data-name="Layer 1" xmlns="http://www.w3.org/2000/svg" viewBox="0 0 400 400"><title>Artboard 66 copy 29</title><path d="M303.27,287l-10-25.29v-67h0a93.4,93.4,0,0,0-75.17-91.48V87.95a18.45,18.45,0,1,0-36.9,0v15.46a93.4,93.4,0,0,0-74.42,91.33h0v67L96.73,287a6,6,0,0,0,5.58,8.21l.29,0,.39,0h56.54a40.72,40.72,0,0,0,80.94,0H297.7l.31,0h.14a5.93,5.93,0,0,0,5.13-8.17Zm-192.13-3.79,5.69-14.35H283.17l5.69,14.35Zm82-195.3a6.45,6.45,0,1,1,12.9,0V101.7c-2-.13-4-.2-6.07-.2q-3.44,0-6.83.25ZM200,113.5a81.33,81.33,0,0,1,81.24,81.24h0V256.9H118.76V194.74h0A81.33,81.33,0,0,1,200,113.5Zm0,206a28.77,28.77,0,0,1-28.37-24.25h56.74A28.77,28.77,0,0,1,200,319.5Z"/></svg>