<svg id="Layer_1" data-name="Layer 1" xmlns="http://www.w3.org/2000/svg" viewBox="0 0 400 400"><title>Artboard 188 copy 16</title><path d="M244,77.5a6,6,0,0,0-4,11.31,119.74,119.74,0,1,1-80,0,6,6,0,0,0-4-11.31A132,132,0,0,0,68.26,201.71c0,72.64,59.1,131.74,131.74,131.74s131.74-59.1,131.74-131.74A132,132,0,0,0,244,77.5Z"/><path d="M200,151.38a6,6,0,0,0,6-6V79.46a6,6,0,0,0-12,0v65.92A6,6,0,0,0,200,151.38Z"/><path d="M199.5,7C92.8,7,6,93.8,6,200.5S92.8,394,199.5,394,393,307.2,393,200.5,306.2,7,199.5,7Zm0,375C99.42,382,18,300.58,18,200.5S99.42,19,199.5,19,381,100.42,381,200.5,299.58,382,199.5,382Z"/></svg>