<svg id="Layer_1" data-name="Layer 1" xmlns="http://www.w3.org/2000/svg" viewBox="0 0 400 400"><title>Artboard 188 copy 8</title><path d="M321.12,240.29,296.86,210.5a27,27,0,0,0-38-3.88c-2.64,2.15-5.21,4.38-7.7,6.55-4.28,3.72-8.33,7.24-12.71,10.38-6.13,4.4-12.6,8.54-18.46,6.8a38.89,38.89,0,0,1-14.49-8.63,173.7,173.7,0,0,1-16.66-18,210,210,0,0,1-14.35-20.12A38.9,38.9,0,0,1,169,167.69c-.52-6.09,4.85-11.59,10.4-16.7,4-3.65,8.22-6.9,12.73-10.34,2.62-2,5.33-4.07,8-6.22a27,27,0,0,0,3.88-38L179.74,66.68a27,27,0,0,0-38-3.88L127.36,74.54c-1.14.93-2.32,1.94-3.71,3.19q-1.3,1.17-2.57,2.35-1.49,1.39-3,2.81c-1.11,1.08-2.09,2.07-3,3-1.08,1.13-1.94,2.09-2.7,3-.26.32-.52.64-.78,1a64.47,64.47,0,0,0-9.33,16.62,57.19,57.19,0,0,0-3.51,15.31c-1.25,14.75,1.48,30.92,8.36,49.45a256.73,256.73,0,0,0,17.95,37.57,219.56,219.56,0,0,0,20.48,30l0,0A219.45,219.45,0,0,0,170.85,265,256.65,256.65,0,0,0,204,290.18c16.75,10.49,32,16.44,46.73,18.2a55.31,55.31,0,0,0,6.57.39,58.57,58.57,0,0,0,9.13-.72,64.45,64.45,0,0,0,18.17-5.77l1.11-.56c1.06-.56,2.17-1.21,3.49-2,1.1-.69,2.26-1.44,3.55-2.32q1.69-1.14,3.35-2.33,1.42-1,2.83-2c1.5-1.11,2.74-2.05,3.88-3l14.42-11.75a27,27,0,0,0,3.88-38Zm-6,18.56a14.87,14.87,0,0,1-5.42,10.1l-14.42,11.74c-1,.8-2.07,1.64-3.42,2.63q-1.32,1-2.67,1.93-1.55,1.1-3.12,2.17c-1.17.79-2.21,1.47-3.18,2.08s-2,1.2-2.78,1.63l-.72.37a52.48,52.48,0,0,1-14.79,4.71,45.19,45.19,0,0,1-12.4.27c-12.9-1.54-26.57-6.93-41.79-16.45a245.12,245.12,0,0,1-31.61-24,207.41,207.41,0,0,1-23.84-24.69l-4.65,3.8,4.63-3.82a207.44,207.44,0,0,1-19.35-28.34,245.19,245.19,0,0,1-17.14-35.83c-6.25-16.83-8.75-31.3-7.65-44.25a45.17,45.17,0,0,1,2.78-12.09,52.47,52.47,0,0,1,7.6-13.52l.5-.63c.59-.71,1.28-1.47,2.16-2.4s1.67-1.72,2.68-2.7,1.83-1.76,2.75-2.62,1.61-1.49,2.43-2.22c1.24-1.12,2.28-2,3.26-2.81L149.36,72.1a15,15,0,0,1,21.08,2.16L194.7,104a15,15,0,0,1-2.16,21.08c-2.49,2-5.12,4-7.67,6-4.53,3.46-9.22,7-13.59,11.06-5.34,4.92-15.29,14.09-14.22,26.55a50.53,50.53,0,0,0,7.19,21.09,219.8,219.8,0,0,0,15.21,21.36l.1.12a185.4,185.4,0,0,0,17.85,19.24,50.51,50.51,0,0,0,19.2,11.31c12,3.57,23-4.32,28.88-8.55,4.83-3.46,9.28-7.33,13.58-11.06,2.42-2.1,4.92-4.28,7.41-6.3a15,15,0,0,1,21.08,2.16l24.26,29.79A14.88,14.88,0,0,1,315.08,258.85Z"/></svg>