<svg id="Layer_1" data-name="Layer 1" xmlns="http://www.w3.org/2000/svg" viewBox="0 0 400 400"><title>Artboard 66 copy 6</title><path d="M323.19,151.62c.12-1.85.19-3.71.19-5.56A82,82,0,0,0,179.91,91.77a64.78,64.78,0,0,0-79.09,58.1A59.05,59.05,0,0,0,111.56,267h17.81L77.5,320.72a6,6,0,1,0,8.63,8.33L146.05,267H180l-41.51,42.69a6,6,0,1,0,8.6,8.36L196.71,267h30.41l-56.38,58.88a6,6,0,0,0,8.67,8.3L243.74,267h32.44l-41.51,42.69a6,6,0,1,0,8.6,8.36L292.92,267h12.52a59.05,59.05,0,0,0,17.75-115.38ZM305.44,255H111.56a47.06,47.06,0,0,1-4.81-93.87,6.74,6.74,0,0,0,5.85-6.25,52.76,52.76,0,0,1,104-12.46,6,6,0,1,0,11.66-2.82A64.5,64.5,0,0,0,192.41,96a70,70,0,0,1,119,50.06,71,71,0,0,1-.61,9.27,6,6,0,0,0,5.16,6.74h0A47.05,47.05,0,0,1,305.44,255Z"/></svg>