<svg id="Layer_1" data-name="Layer 1" xmlns="http://www.w3.org/2000/svg" viewBox="0 0 400 400"><title>Artboard 152 copy</title><path d="M201,7.47C94.28,7.47,7.48,94.28,7.48,201s86.8,193.5,193.5,193.5,193.5-86.8,193.5-193.5S307.67,7.47,201,7.47Zm0,375c-100.08,0-181.5-81.42-181.5-181.5S100.9,19.47,201,19.47s181.5,81.42,181.5,181.5S301.06,382.47,201,382.47Z"/><path d="M203,128.94A71.08,71.08,0,1,0,274,200,71.16,71.16,0,0,0,203,128.94Zm0,130.15A59.08,59.08,0,1,1,262,200,59.14,59.14,0,0,1,203,259.09Z"/><path d="M203,115.6a6,6,0,0,0,6-6V86.53a6,6,0,1,0-12,0V109.6A6,6,0,0,0,203,115.6Z"/><path d="M245.18,126.91a6,6,0,0,0,8.2-2.2l11.54-20a6,6,0,1,0-10.39-6l-11.54,20A6,6,0,0,0,245.18,126.91Z"/><path d="M281.28,160.81a6,6,0,0,0,3-.8l20-11.54a6,6,0,1,0-6-10.39l-20,11.54a6,6,0,0,0,3,11.2Z"/><path d="M316.46,194H293.38a6,6,0,0,0,0,12h23.08a6,6,0,0,0,0-12Z"/><path d="M304.26,251.56l-20-11.54a6,6,0,1,0-6,10.39l20,11.54a6,6,0,1,0,6-10.39Z"/><path d="M253.38,275.31a6,6,0,1,0-10.39,6l11.54,20a6,6,0,0,0,10.39-6Z"/><path d="M203,284.42a6,6,0,0,0-6,6V313.5a6,6,0,0,0,12,0V290.42A6,6,0,0,0,203,284.42Z"/><path d="M160.77,273.11a6,6,0,0,0-8.2,2.2l-11.54,20a6,6,0,1,0,10.39,6l11.54-20A6,6,0,0,0,160.77,273.11Z"/><path d="M121.68,240l-20,11.54a6,6,0,1,0,6,10.39l20-11.54a6,6,0,0,0-6-10.39Z"/><path d="M118.56,200a6,6,0,0,0-6-6H89.49a6,6,0,1,0,0,12h23.08A6,6,0,0,0,118.56,200Z"/><path d="M127.68,149.61l-20-11.54a6,6,0,0,0-6,10.39l20,11.54a6,6,0,0,0,6-10.39Z"/><path d="M152.57,124.72a6,6,0,0,0,10.39-6l-11.54-20a6,6,0,0,0-10.39,6Z"/><path d="M196.25,153.52a51.07,51.07,0,0,0-39.16,35.41,6,6,0,1,0,11.48,3.48,39.1,39.1,0,0,1,30-27.11,6,6,0,1,0-2.3-11.78Z"/></svg>