<svg id="Layer_1" data-name="Layer 1" xmlns="http://www.w3.org/2000/svg" viewBox="0 0 400 400"><title>Artboard 66 copy 49</title><path d="M315.21,299.52a5.84,5.84,0,0,0,.26-.53c.07-.18.12-.37.18-.55s.11-.37.15-.55,0-.38.07-.57,0-.38,0-.57,0-.38,0-.57,0-.38-.07-.57-.1-.37-.15-.55-.1-.37-.18-.55a5.84,5.84,0,0,0-.26-.53c-.09-.17-.17-.34-.28-.51a6,6,0,0,0-.38-.49c-.1-.12-.18-.25-.29-.37l-.1-.09-.09-.1L281.5,261.25l-.05,0a6,6,0,0,0-.86-.67l-.12-.07a6,6,0,0,0-.93-.46l-.13,0a6,6,0,0,0-1-.27l-.13,0a6,6,0,0,0-.93-.08h-.21a6,6,0,0,0-1,.12H276a5.93,5.93,0,0,0-1.05.34l0,0a6,6,0,0,0-1,.54l-.06,0a6.05,6.05,0,0,0-.85.73l0,0,0,0a6,6,0,0,0-.68.87l-.07.11a5.93,5.93,0,0,0-.46.93l0,.13a5.9,5.9,0,0,0-.27,1l0,.14a6,6,0,0,0-.08.93v26a6,6,0,0,0-1.67-.24c-45,0-81.53-34.67-81.53-77.29s36.57-77.29,81.53-77.29a6,6,0,0,0,1.32-.15v24.4a6,6,0,0,0,.08.93l0,.14a6,6,0,0,0,.27,1l.05.14a5.93,5.93,0,0,0,.46.92l.08.12a6,6,0,0,0,.67.85l0,.06,0,0,.26.24.19.17.27.2.21.16.28.17.38.21.37.18.17.06.39.14.18,0,.4.1.23,0,.35.05.57,0h0a6,6,0,0,0,1-.1h.09a6,6,0,0,0,1-.28l.11,0a6,6,0,0,0,.91-.46l.11-.07a6.05,6.05,0,0,0,.84-.66l.05,0,32.58-31.15,0-.05.15-.14c.11-.12.19-.25.29-.38a3.83,3.83,0,0,0,.66-1c.09-.17.19-.34.26-.52a5.88,5.88,0,0,0,.18-.56c.05-.18.11-.36.15-.55s0-.38.07-.58,0-.38,0-.57,0-.38,0-.57,0-.39-.07-.58-.1-.37-.15-.55a5.88,5.88,0,0,0-.18-.56c-.07-.18-.17-.35-.26-.52a5.91,5.91,0,0,0-.29-.52,6,6,0,0,0-.37-.48c-.1-.12-.18-.26-.29-.38l-.1-.09-.09-.1L281.14,94.42l-.05,0a6,6,0,0,0-.86-.67l-.12-.07a5.93,5.93,0,0,0-.93-.46l-.13,0a6,6,0,0,0-1-.27l-.13,0a6,6,0,0,0-.93-.08h-.21a6,6,0,0,0-1.05.12h-.05a6,6,0,0,0-1.05.34l0,0a6,6,0,0,0-1,.54l-.07,0a6,6,0,0,0-.85.73l0,0,0,.06a6,6,0,0,0-.67.85l-.08.12a5.93,5.93,0,0,0-.46.92l-.05.14a6,6,0,0,0-.27,1l0,.14a6,6,0,0,0-.08.93V125a6,6,0,0,0-1.32-.15c-42,0-77.61,26.56-89.39,63-10.67-38.1-47.14-66.25-90.37-66.25a6,6,0,1,0,0,12c45,0,81.53,34.67,81.53,77.29s-36.57,77.29-81.53,77.29a6,6,0,0,0,0,12c42,0,77.61-26.56,89.39-63,10.67,38.1,47.14,66.25,90.37,66.25a6,6,0,0,0,1.67-.24v24.73a6,6,0,0,0,.08.93l0,.14a5.9,5.9,0,0,0,.27,1l0,.13a5.93,5.93,0,0,0,.46.93l.07.11a6,6,0,0,0,.68.87l0,0,0,0,.28.26.17.16.28.21.21.15.26.16.44.24.34.16.19.07.37.13.19,0,.39.1.24,0,.35.05.57,0h0a6,6,0,0,0,1-.1h.09a6,6,0,0,0,1-.28l.11,0a6,6,0,0,0,.91-.46l.11-.07a6,6,0,0,0,.84-.66l.05,0,32.58-31.15,0-.06.14-.13c.11-.11.19-.25.29-.37a6,6,0,0,0,.38-.49C315,299.86,315.12,299.69,315.21,299.52ZM283,112.8l17.9,17.11L283,147Zm.35,166.83,17.9,17.11-17.9,17.11Z"/></svg>