<svg id="Layer_1" data-name="Layer 1" xmlns="http://www.w3.org/2000/svg" viewBox="0 0 400 400"><title>Artboard 66 copy 48</title><path d="M279.23,302.44a5.93,5.93,0,0,0,.46-.92l.05-.14a5.91,5.91,0,0,0,.27-1l0-.14a6,6,0,0,0,.08-.93V78A6,6,0,0,0,280,77l0-.14a5.88,5.88,0,0,0-.27-1l-.05-.14a6,6,0,0,0-.46-.92l-.08-.12a6,6,0,0,0-.67-.85l0-.06,0,0a6,6,0,0,0-.85-.73l-.07,0a5.93,5.93,0,0,0-1-.54l0,0a5.93,5.93,0,0,0-1.05-.34h-.05a6,6,0,0,0-1.05-.12h-.21a6,6,0,0,0-.94.08l-.13,0a5.93,5.93,0,0,0-1,.27l-.12,0a6,6,0,0,0-.94.47l-.11.07a6.1,6.1,0,0,0-.87.67l0,0L158,180.71V77.81a11.46,11.46,0,1,0-22.92,0V298.89a11.46,11.46,0,1,0,22.92,0V196.58L270,303.66l.05,0a6,6,0,0,0,.84.66l.11.07a6,6,0,0,0,.91.46l.11,0a6,6,0,0,0,1,.28h.09a6,6,0,0,0,1,.1h0l.56,0,.37-.05.22,0,.4-.1.18,0,.38-.14.19-.07.34-.16.45-.25.24-.15.23-.17.25-.19.19-.18.25-.24.05,0,0-.06a6,6,0,0,0,.67-.85ZM268.1,92V285.29L167,188.65Z"/></svg>