<svg id="Layer_1" data-name="Layer 1" xmlns="http://www.w3.org/2000/svg" viewBox="0 0 400 400"><title>Artboard 152 copy 2</title><path d="M202.5,6.5C95.8,6.5,9,93.3,9,200S95.8,393.5,202.5,393.5,396,306.7,396,200,309.2,6.5,202.5,6.5Zm0,375C102.42,381.5,21,300.08,21,200S102.42,18.5,202.5,18.5,384,99.92,384,200,302.58,381.5,202.5,381.5Z"/><path d="M315.49,194H291.11l19-19a6,6,0,0,0-8.48-8.49L274.14,194H216.49l41.6-41.6h37.49a6,6,0,0,0,0-12H270.09L286.5,124a6,6,0,0,0-8.48-8.49l-16.8,16.8V106a6,6,0,0,0-12,0v38.28L208,185.51v-59l26.6-26.6a6,6,0,0,0-8.48-8.49L208,109.58V86.51a6,6,0,1,0-12,0v23.44L177.52,91.46A6,6,0,0,0,169,99.94l27,27v58.6l-41.38-41.38V106.25a6,6,0,0,0-12,0v25.89L126,115.51a6,6,0,0,0-8.48,8.49l16.63,16.63H108.26a6,6,0,0,0,0,12h37.89L187.52,194H129.4l-26.72-26.72a6,6,0,1,0-8.48,8.49L112.43,194H88.52a6,6,0,0,0,0,12h24L94.19,224.37a6,6,0,1,0,8.48,8.49L129.54,206h58l-40.43,40.43H108.91a6,6,0,1,0,0,12h26.18L117.52,276a6,6,0,0,0,8.48,8.49l17.28-17.28V292.8a6,6,0,0,0,12,0V255.21L196,214.48v57.17l-27,27a6,6,0,0,0,8.48,8.49L196,288.63v24.86a6,6,0,0,0,12,0V289l18.1,18.1a6,6,0,1,0,8.48-8.49L208,272.08V214.49l40.84,40.84v37.41a6,6,0,0,0,12,0V267.32L278,284.49A6,6,0,1,0,286.5,276l-17.64-17.64h26.36a6,6,0,1,0,0-12H256.86L216.49,206h59.1l26.06,26.06a6,6,0,1,0,8.48-8.49L292.56,206h22.93a6,6,0,1,0,0-12Z"/></svg>