<svg id="Layer_1" data-name="Layer 1" xmlns="http://www.w3.org/2000/svg" viewBox="0 0 400 400"><title>Artboard 66 copy 45</title><path d="M262,78.35A16.66,16.66,0,0,0,245.33,95V196.12L130.59,86.4l-.05,0a6,6,0,0,0-.86-.67l-.12-.07a6,6,0,0,0-.93-.46l-.13,0a6,6,0,0,0-1-.27l-.13,0a6,6,0,0,0-.93-.08h-.21a6,6,0,0,0-1.05.12h0a6,6,0,0,0-1.06.34l0,0a6,6,0,0,0-1,.54l-.06,0a6,6,0,0,0-.85.73l0,0,0,.06a6,6,0,0,0-.67.85l-.08.12a6,6,0,0,0-.46.92l-.05.14a6,6,0,0,0-.27,1l0,.14a6,6,0,0,0-.08.93V312.09a6,6,0,0,0,.08.93l0,.14a6,6,0,0,0,.27,1l.05.14a5.93,5.93,0,0,0,.46.92l.08.12a6,6,0,0,0,.67.85l0,.06,0,0,.26.24.19.17.27.2.21.16.28.17.38.21.37.18.17.06.39.14.18,0,.4.1.23,0,.35.05.57,0h0a6,6,0,0,0,1-.1h.09a5.92,5.92,0,0,0,1-.28l.11,0a5.93,5.93,0,0,0,.91-.46l.11-.07a6,6,0,0,0,.84-.66l.05,0L245.33,206.7v99a16.64,16.64,0,1,0,33.28,0V95A16.66,16.66,0,0,0,262,78.35Z"/></svg>