<svg id="Layer_1" data-name="Layer 1" xmlns="http://www.w3.org/2000/svg" viewBox="0 0 400 400"><title>Artboard 200</title><path d="M330.5,171.89a5.92,5.92,0,0,0,.3-.56c.07-.16.14-.32.2-.48a5.92,5.92,0,0,0,.17-.57c0-.18.08-.37.11-.55s0-.17.05-.25a6,6,0,0,0,0-.63v0a6,6,0,0,0-.11-1.12h0a6,6,0,0,0-.32-1.08l0,0a6,6,0,0,0-.53-1l0,0a6,6,0,0,0-.74-.92h0l0,0a6,6,0,0,0-.89-.73l-.08,0a6,6,0,0,0-1-.51l-.1,0a6,6,0,0,0-1-.3l-.1,0-.44-.07-79.95-8.67L206.75,82.3l-.09-.15-.19-.31-.15-.21-.2-.26-.18-.21-.21-.23-.21-.2-.22-.19-.24-.18-.23-.16-.27-.17-.23-.13-.31-.15-.17-.08-.07,0-.3-.11-.27-.09-.23-.06-.35-.08-.16,0-.42-.06h-.12l-.46,0h-.16l-.41,0-.23,0-.34.05-.26.06-.31.08-.23.08-.33.12-.19.09-.35.17,0,0-.12.08-.34.21-.18.13-.29.22-.19.16-.24.23-.19.2-.2.23-.18.23-.17.24-.17.27-.13.23c-.06.1-.11.21-.16.32l-.08.16L164.3,156.64l-79.58,8.63-.42.07-.11,0a6,6,0,0,0-1,.3l-.12,0a6,6,0,0,0-.94.49l-.09.06a6,6,0,0,0-.87.71l0,0v0a6,6,0,0,0-.74.9l0,0a6,6,0,0,0-.54,1v0a6,6,0,0,0-.43,2.21s0,0,0,0a6.06,6.06,0,0,0,0,.64c0,.08,0,.16.05.24s.07.37.11.55.1.38.17.57.12.32.2.48a5.94,5.94,0,0,0,.3.56c.08.14.17.28.26.41a6,6,0,0,0,.44.54c.07.07.12.16.19.23L138.54,233l-7.77,80.77c0,.07,0,.14,0,.21s0,.23,0,.34,0,.19,0,.28,0,.21,0,.31,0,.2,0,.3,0,.19,0,.28,0,.21.07.31,0,.17.07.26.07.21.11.32l.09.24c0,.11.1.22.15.33l.1.2c.06.12.14.24.21.36l.08.13v0a6,6,0,0,0,.42.56l.13.14c.11.12.22.24.34.35l.18.16.38.3.15.11a6,6,0,0,0,.58.35l.09,0q.26.13.53.24l.18.06.47.15.21.05.46.08.23,0h.08l.56,0h0a6,6,0,0,0,1-.1l.31-.07a5.93,5.93,0,0,0,.68-.2l.32-.12a6,6,0,0,0,.63-.32l.26-.15.08,0,66.72-43.82,69,40.38h0a6,6,0,0,0,.84.4l.15.06a5.93,5.93,0,0,0,.89.25l.15,0a6,6,0,0,0,.94.09h.15a6,6,0,0,0,.73-.05h.1l.38-.08.21,0,.25-.08a6,6,0,0,0,1.25-.54l.1-.06.28-.19.21-.14.18-.15a5.94,5.94,0,0,0,.83-.82l.22-.27.1-.15c.08-.12.16-.23.23-.36v0l.07-.14c.07-.12.13-.24.19-.36l.09-.22c0-.11.09-.22.13-.33s.05-.17.08-.25.06-.2.09-.31,0-.18.06-.28,0-.2.05-.3,0-.19,0-.29,0-.19,0-.29,0-.21,0-.32,0-.18,0-.27,0-.23,0-.35,0-.14,0-.21l-12-80.14,56.85-56.61c.07-.07.13-.16.19-.24a6,6,0,0,0,.44-.54C330.33,172.16,330.42,172,330.5,171.89Zm-69.9,57.73L271,299.2,210.84,264a8.26,8.26,0,0,0-8.76.23l-58.17,38.2,6.74-70.06a8.24,8.24,0,0,0-2.38-6.63L98.46,175.85l69.27-7.52a8.34,8.34,0,0,0,6.75-5l27.66-64.47,34.32,62.75a8.33,8.33,0,0,0,6.41,4.29l69.36,7.53L263,222.49A8.36,8.36,0,0,0,260.61,229.62Z"/></svg>