<svg id="Layer_1" data-name="Layer 1" xmlns="http://www.w3.org/2000/svg" viewBox="0 0 400 400"><title>Artboard 66 copy 22</title><path d="M298.58,75.37H111.42A11.4,11.4,0,0,0,100,86.76V148.7a11.4,11.4,0,0,0,11.39,11.39h34.11a11.4,11.4,0,0,0,11.39-11.39V132.25h19.87V254.9H156.53a11.4,11.4,0,0,0-11.39,11.39V300.4a11.4,11.4,0,0,0,11.39,11.39h96.95a11.4,11.4,0,0,0,11.39-11.39V266.29a11.4,11.4,0,0,0-11.39-11.39H233.67V132.25h19.42V148.7a11.4,11.4,0,0,0,11.39,11.39h34.11A11.4,11.4,0,0,0,310,148.7V86.76A11.4,11.4,0,0,0,298.58,75.37ZM298,148.08H265.08V120.25H221.67V266.9h31.19v32.88H157.14V266.9h31.64V120.25H144.92v27.83H112V87.37H298Z"/><path d="M304,323.37H106a6,6,0,1,0,0,12H304a6,6,0,0,0,0-12Z"/></svg>