<svg id="Layer_1" data-name="Layer 1" xmlns="http://www.w3.org/2000/svg" viewBox="0 0 400 400"><title>Artboard 66 copy 50</title><path d="M214.81,92.86l-.37,0a6,6,0,0,0-4,1.22l-80,61.18a6,6,0,0,0-1.07,1.07,17.87,17.87,0,0,0-8.2-2H66.82a18,18,0,0,0-18,18v54.31a18,18,0,0,0,18,18h54.31a17.88,17.88,0,0,0,8.75-2.28,6,6,0,0,0,1.29,1.35l80,61.18a6,6,0,0,0,9.63-5.1c0-.09,0-.18,0-.27V98.86A6,6,0,0,0,214.81,92.86Zm-87.68,133.8a6,6,0,0,1-6,6H66.82a6,6,0,0,1-6-6V172.34a6,6,0,0,1,6-6h54.31a6,6,0,0,1,6,6Zm10.56,7a17.9,17.9,0,0,0,1.44-7V172.34a17.86,17.86,0,0,0-1.62-7.42l.18-.12,71.12-54.39V288l-70.35-53.8A6,6,0,0,0,137.69,233.71Z"/><path d="M281.05,136.33a6,6,0,1,0-7.54,9.34,67.45,67.45,0,0,1-1.4,106.1,6,6,0,0,0,7.29,9.53,79.46,79.46,0,0,0,1.65-125Z"/><path d="M309.72,112.18a6,6,0,1,0-7.54,9.34c23,18.54,37,48.4,36.63,77.93s-15.21,59-38.67,76.94a6,6,0,0,0,7.29,9.53c26.32-20.11,42.94-53.19,43.38-86.31S335.5,133,309.72,112.18Z"/><path d="M255.26,160a6,6,0,1,0-7.54,9.34,37.08,37.08,0,0,1-.77,58.32,6,6,0,0,0,7.29,9.53,49.08,49.08,0,0,0,1-77.19Z"/></svg>