<svg id="Layer_1" data-name="Layer 1" xmlns="http://www.w3.org/2000/svg" viewBox="0 0 400 400"><title>Artboard 104 copy 16</title><path d="M246.5,204.71a6.07,6.07,0,0,0,.55-.52,6,6,0,0,0-.31-8.48L123.32,81a6,6,0,0,0-8.17,8.79L234,200.21l-118,112.88a6,6,0,0,0,8.29,8.67L246,205.32A6,6,0,0,0,246.5,204.71Z"/><path d="M322.85,195.71,199.42,81a6,6,0,0,0-8.17,8.79L310.06,200.21,192,313.09a6,6,0,0,0,8.29,8.67L322.08,205.32a5.93,5.93,0,0,0,.52-.61,6.08,6.08,0,0,0,.56-.52A6,6,0,0,0,322.85,195.71Z"/></svg>