<svg id="Layer_1" data-name="Layer 1" xmlns="http://www.w3.org/2000/svg" viewBox="0 0 400 400"><title>Artboard 104 copy 24</title><path d="M321,157.23l.07-.12a6,6,0,0,0,.46-.93l0-.13a6,6,0,0,0,.27-1l0-.13A6,6,0,0,0,322,154s0-.06,0-.09,0-.08,0-.12a6,6,0,0,0-.12-1v-.06a6,6,0,0,0-.34-1.05l0,0a6,6,0,0,0-.54-1l0-.07a6,6,0,0,0-.73-.85l0,0-.05,0a6,6,0,0,0-.86-.67l-.12-.07a6,6,0,0,0-.93-.46l-.13,0a5.91,5.91,0,0,0-1-.27l-.14,0A6,6,0,0,0,316,148H84a6,6,0,0,0-.93.08l-.13,0a6,6,0,0,0-1,.27l-.13,0a6,6,0,0,0-.93.47l-.11.07a6,6,0,0,0-.86.67l-.05,0,0,0a6,6,0,0,0-.73.85l0,.07a6,6,0,0,0-.54,1l0,0a6,6,0,0,0-.34,1.05v.06a6,6,0,0,0-.12,1s0,.08,0,.12,0,.06,0,.09a6,6,0,0,0,.08.93l0,.13a6,6,0,0,0,.27,1l0,.13a6,6,0,0,0,.46.93l.07.12a6,6,0,0,0,.67.86l0,.05,116,121.31.14.13,0,.06.07.06a6,6,0,0,0,.81.64l.12.07a5.91,5.91,0,0,0,.91.46l.11,0a6,6,0,0,0,1,.28h.08a6,6,0,0,0,1.06.1h0a6,6,0,0,0,1.05-.1h.08a6,6,0,0,0,1-.28l.11,0a5.92,5.92,0,0,0,.91-.46l.12-.07a6,6,0,0,0,.81-.64l.07-.06,0-.06.14-.13,116-121.31,0-.05A6,6,0,0,0,321,157.23ZM207.43,227.5c0,.08-.07.16-.12.25l-.22.18C207,227.89,207.2,227.72,207.43,227.5Z"/></svg>