<svg id="Layer_1" data-name="Layer 1" xmlns="http://www.w3.org/2000/svg" viewBox="0 0 400 400"><title>Artboard 216</title><path d="M253.12,324.12a6,6,0,0,0,.46-.93l0-.13a6,6,0,0,0,.27-1l0-.13A6,6,0,0,0,254,321V89a6,6,0,0,0-.08-.94l0-.13a6,6,0,0,0-.27-1l0-.13a6,6,0,0,0-.46-.93l-.07-.12a6,6,0,0,0-.67-.86l0-.05,0,0a6,6,0,0,0-.85-.73l-.07,0a6,6,0,0,0-1-.54l-.05,0a5.9,5.9,0,0,0-1-.34l-.06,0a6.06,6.06,0,0,0-1-.12H248a6,6,0,0,0-.93.08l-.13,0a6,6,0,0,0-1,.27l-.13,0a6,6,0,0,0-.93.47l-.11.07a6,6,0,0,0-.86.67l-.05,0-121.31,116-.09.1-.1.09c-.11.12-.19.25-.29.37a6.12,6.12,0,0,0-.38.48c-.11.17-.19.34-.28.51a5.89,5.89,0,0,0-.26.53c-.07.18-.12.37-.18.56s-.11.37-.15.55,0,.38-.07.57,0,.38,0,.57,0,.38,0,.57,0,.38.07.57.1.37.15.55.1.37.18.56.17.35.26.53.18.35.28.51a6.12,6.12,0,0,0,.38.48c.1.12.18.26.29.37l.14.13,0,.06,121.31,116,.05,0a6.06,6.06,0,0,0,.83.65l.11.07a6,6,0,0,0,.91.46l.11,0a5.93,5.93,0,0,0,1,.28h.09a6,6,0,0,0,1,.1h0l.57,0,.36-.05.22,0,.41-.1.17,0,.41-.15.16-.06.41-.2.3-.17.32-.2.2-.15.28-.22.17-.16.27-.26,0,0,0-.05a6,6,0,0,0,.67-.86ZM174.5,212.43l-.25-.12-.18-.22C174.11,212,174.28,212.2,174.5,212.43Z"/></svg>