<svg id="Layer_1" data-name="Layer 1" xmlns="http://www.w3.org/2000/svg" viewBox="0 0 400 400"><title>Artboard 104 copy 7</title><path d="M345.37,296.58l.13-.18.17-.28.13-.23.12-.25.13-.28.08-.22c0-.11.08-.22.11-.33s0-.15.06-.22.06-.23.08-.34,0-.19,0-.29,0-.19,0-.29,0-.38,0-.57h0a6,6,0,0,0-.12-1.2c0-.07,0-.14-.05-.2s-.06-.24-.09-.36-.07-.2-.11-.3-.06-.17-.09-.25-.13-.29-.21-.44l0-.09a6,6,0,0,0-.31-.52h0L205.54,83.46h0l-.07-.1-.09-.12-.24-.32-.17-.19-.22-.24-.25-.23-.18-.16-.34-.25-.11-.08,0,0-.36-.22-.16-.09-.31-.15-.24-.11-.22-.08L202.2,81l-.1,0-.46-.11h0l-.52-.07h-.14l-.43,0-.36,0h-.21l-.47.07h-.09l-.44.11-.13,0-.34.12-.22.08-.24.11-.31.15-.17.1-.35.21,0,0-.12.09-.32.24-.19.17-.24.22-.23.24-.16.19-.24.32-.09.12-.07.1h0L55.53,289.71h0a6,6,0,0,0-.31.52l0,.09c-.07.14-.15.29-.21.44s-.06.17-.09.25-.08.2-.11.3-.06.24-.09.36,0,.14-.05.2a6,6,0,0,0-.12,1.2h0q0,.29,0,.57c0,.1,0,.19,0,.29s0,.19,0,.29.05.23.08.34,0,.15.06.22.07.22.11.33l.08.22.13.28.12.25.13.23.17.28.13.18.22.29L56,297l.25.27.2.18.23.21c.13.11.27.21.42.31l0,0h0a6,6,0,0,0,.72.41l.15.07a5.92,5.92,0,0,0,.74.29l.09,0a6,6,0,0,0,.67.15l.22,0a6.06,6.06,0,0,0,.73.05H340.54a6,6,0,0,0,.73-.05l.21,0a6,6,0,0,0,.68-.15l.09,0a6,6,0,0,0,.74-.29l.15-.07a6,6,0,0,0,.72-.41h0l0,0c.14-.1.28-.2.42-.31l.23-.21.2-.18L345,297l.14-.16ZM200.5,97.41,329.18,287.08H71.82Z"/><path d="M184.95,175.85A185.22,185.22,0,0,0,190.14,206q.4,1.55.83,3.08t.9,3q.47,1.52,1,3c.33,1,.68,2,1,2.89l.07.2a7.3,7.3,0,0,0,6.81,4.69h.1a7.27,7.27,0,0,0,6.81-5c.14-.43.28-.86.41-1.29s.26-.83.4-1.23q.5-1.49,1-3t.91-3c.29-1,.57-2.06.84-3.09l.07-.26a185.2,185.2,0,0,0,5.2-30.2,181.29,181.29,0,0,0,.8-18.5c-.08-4.67-.58-11.45-3.91-16.31a14.43,14.43,0,0,0-8.79-6.27,20.18,20.18,0,0,0-4.15-.37,14.87,14.87,0,0,0-4.73.7,15.2,15.2,0,0,0-7.57,5.94c-3.33,4.87-3.83,11.64-3.91,16.31A181.28,181.28,0,0,0,184.95,175.85Z"/><path d="M200.66,234.38a14.81,14.81,0,1,0,14.81,14.81A14.83,14.83,0,0,0,200.66,234.38Z"/></svg>