<svg id="Layer_1" data-name="Layer 1" xmlns="http://www.w3.org/2000/svg" viewBox="0 0 400 400"><title>Artboard 104 copy 25</title><path d="M281.59,201.78c.09-.17.19-.35.26-.53s.12-.37.18-.56.11-.36.15-.55,0-.38.07-.57,0-.38,0-.57,0-.38,0-.57,0-.38-.07-.57-.1-.37-.15-.55-.1-.37-.18-.56a5.89,5.89,0,0,0-.26-.53c-.09-.17-.18-.35-.28-.51a6.12,6.12,0,0,0-.38-.48c-.1-.12-.18-.26-.29-.37l-.1-.09-.09-.1-121.31-116-.05,0a6,6,0,0,0-.86-.67l-.12-.07a6,6,0,0,0-.93-.46l-.13,0a5.91,5.91,0,0,0-1-.27l-.14,0A6,6,0,0,0,155,77h-.21a6,6,0,0,0-1,.12l-.06,0a6,6,0,0,0-1,.34l-.05,0a6,6,0,0,0-1,.54l-.06,0a6,6,0,0,0-.85.73l0,0,0,.05a6,6,0,0,0-.67.86l-.07.12a6,6,0,0,0-.46.93l0,.13a6,6,0,0,0-.27,1l0,.13A6,6,0,0,0,149,83V315a6,6,0,0,0,.08.94l0,.13a6,6,0,0,0,.27,1l0,.13a6,6,0,0,0,.46.93l.07.12a6,6,0,0,0,.67.86l0,.05,0,0,.27.26.17.16.28.22.2.15.31.19.34.19.39.19.17.06.39.14.18,0,.4.1.23,0,.36.05.57,0h0a6,6,0,0,0,1-.1h.09a6,6,0,0,0,1-.28l.11,0a5.93,5.93,0,0,0,.91-.46l.11-.07a6,6,0,0,0,.83-.65l.05,0,121.31-116,0-.06.14-.13c.11-.12.19-.25.29-.37a6.12,6.12,0,0,0,.38-.48C281.42,202.13,281.5,202,281.59,201.78ZM228.5,191.57l.25.12.18.22C228.89,192,228.72,191.8,228.5,191.57Z"/></svg>