<svg id="Layer_1" data-name="Layer 1" xmlns="http://www.w3.org/2000/svg" viewBox="0 0 400 400"><title>Artboard 66 copy 23</title><path d="M350.5,292.32H319.61V140.24c0-7-5.25-12.7-11.71-12.7H266c-6.46,0-11.71,5.7-11.71,12.7V292.32H242.41V186c0-7-5.25-12.7-11.71-12.7H188.84c-6.46,0-11.71,5.7-11.71,12.7V292.32H165.22V231.44c0-7-5.25-12.7-11.71-12.7H111.64c-6.46,0-11.71,5.7-11.71,12.7v60.88H60.5a6,6,0,0,0,0,12h290a6,6,0,0,0,0-12ZM266.32,140.24a1.54,1.54,0,0,1,.15-.7h41a1.54,1.54,0,0,1,.15.7V292.32H266.32ZM189.13,186a1.54,1.54,0,0,1,.15-.7h41a1.54,1.54,0,0,1,.15.7V292.32H189.13Zm-77.2,45.47a1.54,1.54,0,0,1,.15-.7h41a1.54,1.54,0,0,1,.15.7v60.88H111.93Z"/><path d="M99.15,206.83a6,6,0,0,0,4-1.5l71.55-63,11.39,13.93a6.21,6.21,0,0,0,8.92.87l70.28-61.93v20.12a6,6,0,1,0,12,0V84a8.93,8.93,0,0,0-8.92-8.92H237.09a6,6,0,1,0,0,12h19.17l-64.64,57L180.5,130.47a6,6,0,0,0-9.06-1.33l-76.26,67.2a6,6,0,0,0,4,10.5Z"/></svg>