<svg id="Layer_1" data-name="Layer 1" xmlns="http://www.w3.org/2000/svg" viewBox="0 0 400 400"><title>Artboard 104 copy 28</title><path d="M236.66,212.78c.09-.17.19-.35.26-.53s.12-.37.18-.56.11-.36.15-.55,0-.38.07-.58,0-.38,0-.57,0-.38,0-.57,0-.38-.07-.58-.1-.37-.15-.55-.1-.37-.18-.56-.17-.35-.26-.53a5.8,5.8,0,0,0-.28-.51,6.08,6.08,0,0,0-.38-.48c-.1-.12-.18-.26-.29-.37l-.1-.09-.09-.1-62.75-60a6,6,0,0,0-8.29,8.67L222.69,210l-58.21,55.66a6,6,0,1,0,8.29,8.67l62.75-60,0-.06.14-.13c.11-.12.19-.25.29-.37a6.08,6.08,0,0,0,.38-.48A5.8,5.8,0,0,0,236.66,212.78Z"/></svg>