<svg id="Layer_1" data-name="Layer 1" xmlns="http://www.w3.org/2000/svg" viewBox="0 0 400 400"><title>Artboard 104 copy 29</title><path d="M264.34,227.23l-60-62.75-.1-.09-.09-.1c-.12-.11-.25-.19-.37-.29a6,6,0,0,0-.49-.38c-.16-.11-.34-.19-.51-.28s-.35-.19-.53-.26-.37-.12-.55-.18-.37-.11-.55-.15-.38,0-.57-.07-.38,0-.57,0-.38,0-.56,0-.39,0-.58.07-.37.1-.55.15a5.87,5.87,0,0,0-.56.18c-.18.07-.35.17-.52.26s-.35.18-.51.29a6,6,0,0,0-.48.38c-.12.1-.25.18-.37.29l-.09.1-.1.09-60,62.75a6,6,0,0,0,8.67,8.29L200,177.31l55.66,58.21a6,6,0,0,0,8.67-8.29Z"/></svg>