<svg id="Layer_1" data-name="Layer 1" xmlns="http://www.w3.org/2000/svg" viewBox="0 0 400 400"><title>Artboard 104 copy 31</title><path d="M265,173.23l.07-.12a6,6,0,0,0,.46-.93l0-.13a5.91,5.91,0,0,0,.27-1l0-.14A6,6,0,0,0,266,170s0-.06,0-.09,0-.08,0-.12a6,6,0,0,0-.12-1l0-.06a5.92,5.92,0,0,0-.34-1l0-.05a6,6,0,0,0-.54-1l0-.07a6,6,0,0,0-.73-.85l0,0-.05,0a6,6,0,0,0-.86-.67l-.12-.07a6,6,0,0,0-.93-.46l-.13,0a5.91,5.91,0,0,0-1-.27l-.14,0A6.05,6.05,0,0,0,260,164H140a6,6,0,0,0-.93.08l-.13,0a6,6,0,0,0-1,.27l-.13,0a6,6,0,0,0-.93.46l-.11.07a6,6,0,0,0-.86.67l-.05,0,0,0a6,6,0,0,0-.73.85l0,.07a6,6,0,0,0-.54,1l0,.05a5.92,5.92,0,0,0-.34,1l0,.06a6,6,0,0,0-.12,1s0,.08,0,.12,0,.06,0,.09a6,6,0,0,0,.08.93l0,.14a5.91,5.91,0,0,0,.27,1l0,.13a6,6,0,0,0,.46.93l.07.12a6,6,0,0,0,.67.86l0,.05,60,62.75.14.13,0,.06.07.05a6,6,0,0,0,.81.64l.12.07a5.91,5.91,0,0,0,.91.46l.11,0a6,6,0,0,0,1,.28h.08a6,6,0,0,0,1.06.1h0a6,6,0,0,0,1.06-.1h.08a6,6,0,0,0,1-.28l.11,0a5.94,5.94,0,0,0,.91-.46l.12-.07a6,6,0,0,0,.82-.64l.07-.05,0-.06.14-.13,60-62.75,0-.05A6,6,0,0,0,265,173.23Z"/></svg>