<svg xmlns="http://www.w3.org/2000/svg" viewBox="0 0 32 32"><defs><style>.cls-1{fill:#fff;}</style></defs><title>expand</title><g id="Layer_2" data-name="Layer 2"><g id="Layer_1-2" data-name="Layer 1"><path class="cls-1" d="M28,0H4A4,4,0,0,0,0,4V28a4,4,0,0,0,4,4H28a4,4,0,0,0,4-4V4A4,4,0,0,0,28,0Zm2,28a2,2,0,0,1-2,2H4a2,2,0,0,1-2-2V4A2,2,0,0,1,4,2H28a2,2,0,0,1,2,2Z"/><polygon class="cls-1" points="25.98 5.94 18.99 5.94 18.99 7.93 22.66 7.93 17.89 12.7 19.3 14.11 24.03 9.38 24.03 12.97 26.03 12.97 26.03 5.99 25.98 5.99 25.98 5.94"/><polygon class="cls-1" points="6.02 26.06 13.01 26.06 13.01 24.07 9.35 24.07 14.11 19.3 12.7 17.89 7.97 22.62 7.97 19.03 5.97 19.03 5.97 26.01 6.02 26.01 6.02 26.06"/><polygon class="cls-1" points="19.03 24.03 19.03 26.03 26.01 26.03 26.01 25.98 26.06 25.98 26.06 18.99 24.07 18.99 24.07 22.66 19.3 17.89 17.89 19.3 22.62 24.03 19.03 24.03"/><polygon class="cls-1" points="7.93 9.35 12.7 14.11 14.11 12.7 9.38 7.97 12.97 7.97 12.97 5.97 5.99 5.97 5.99 6.02 5.94 6.02 5.94 13.01 7.93 13.01 7.93 9.35"/></g></g></svg>