<svg id="Layer_1" data-name="Layer 1" xmlns="http://www.w3.org/2000/svg" viewBox="0 0 400 400"><title>Artboard 152 copy 4</title><path d="M201.5,7C94.8,7,8,93.8,8,200.5S94.8,394,201.5,394,395,307.2,395,200.5,308.2,7,201.5,7Zm0,375C101.42,382,20,300.58,20,200.5S101.42,19,201.5,19,383,100.42,383,200.5,301.58,382,201.5,382Z"/><path d="M218.16,107.28c-5.92-4.37-12.31-8.9-19.61-12.15a141.47,141.47,0,0,0-14.64-5.36c-5.29-1.57-16.29-4.84-20.09,2.32-2.68,5.05,0,11.24,2,15.76.33.75.63,1.46.79,1.89l.29.79c.68,1.87,1.33,3.63,1.88,5.39a28.79,28.79,0,0,1,1.56,8.35c.23,16.09-12.22,28.61-24.25,40.72-4.26,4.29-8.67,8.72-12.41,13.23-24.52,29.55-26.91,72.49-5.8,104.43a86.6,86.6,0,0,0,52.83,36.59,82.33,82.33,0,0,0,17.94,2,86.61,86.61,0,0,0,42.54-11.34,95.65,95.65,0,0,0,40.76-45.77c11.57-27.26,9.67-58-5.48-88.77C264.15,150.36,242.91,125.56,218.16,107.28Zm-19,101.53h0c-.09-.3-.19-.59-.29-.88,1.15.42,2.26.86,3.18,1.27a46.32,46.32,0,0,1,8.32,5.22c21.64,16,40.13,44.46,29.61,69.27-7.21,17-24.61,26.6-41.39,22.85a35.09,35.09,0,0,1-21.4-14.84,36.49,36.49,0,0,1,2.38-42.55c1.65-2,3.67-4,5.79-6.16,6.77-6.81,15.19-15.28,15-27.31A23.57,23.57,0,0,0,199.12,208.82Zm71.75,50.61a84.35,84.35,0,0,1-19.68,28.42c12.69-30.82-7.72-63.89-33.73-83.09a57.31,57.31,0,0,0-10.57-6.53,74.34,74.34,0,0,0-7.83-2.87c-2.91-.86-10.63-3.16-13.69,2.62-2,3.83-.19,8.06.91,10.59.13.31.26.58.34.8l.14.39c.34.93.66,1.81.93,2.65a12,12,0,0,1,.66,3.42c.1,7-5.55,12.67-11.53,18.69-2.22,2.24-4.52,4.55-6.52,7a48.1,48.1,0,0,0-3.15,56.83,46.64,46.64,0,0,0,4.13,5.36A74.93,74.93,0,0,1,137.86,276a76.3,76.3,0,0,1,5-90.15c3.4-4.1,7.43-8.15,11.69-12.44,13.14-13.22,28-28.21,27.74-49.34a40.61,40.61,0,0,0-2.12-11.79h0c-.64-2-1.36-4-2.06-5.91l-.29-.79c-.28-.77-.66-1.64-1.06-2.56-.31-.72-.83-1.91-1.27-3.08a107.52,107.52,0,0,1,18.15,6.11c6.2,2.76,12,6.87,17.36,10.84C256.62,150.6,292.81,207.71,270.87,259.43Z"/></svg>