<svg id="Layer_1" data-name="Layer 1" xmlns="http://www.w3.org/2000/svg" viewBox="0 0 400 400"><title>Artboard 66 copy 41</title><path d="M309.17,179h-1.83l-8,0-3.5,0q-.19-.61-.4-1.23c-.65-1.94-1.35-3.86-2.09-5.71a94.72,94.72,0,0,0-4.06-8.64l.08-.08L300,152.78a21.87,21.87,0,0,0,0-30.87c-.94-.94-1.92-2-2.92-3-7.2-7.61-18.06-19.11-32.46-12.29-4.21,2-7.33,5.28-9.83,7.92l-6.46,6.81,0,0c-.63-.41-1.22-.8-1.82-1.11-2.14-1.12-4.33-2.16-6.52-3.11a93.52,93.52,0,0,0-10.14-3.71l0-1.77c0-1,0-2.09,0-3.14V99.35A21.86,21.86,0,0,0,208,77.52H192.55a21.85,21.85,0,0,0-21.83,21.83v7.73c0,2.21,0,4.32,0,6.38l-.75.25c-3,1-6.16,2-9.25,3.33a55.87,55.87,0,0,0-5.88,2.77l-.43.22-.27.14-11-11.07a21.87,21.87,0,0,0-30.87,0L101.39,120a21.87,21.87,0,0,0,0,30.87l10.68,10.68-.55,1c-.9,1.71-1.76,3.47-2.56,5.23-1.14,2.52-2.19,5.12-3.12,7.73-.41,1.16-.8,2.31-1.16,3.46L90.83,179A21.85,21.85,0,0,0,69,200.8v15.44a21.85,21.85,0,0,0,21.83,21.83l5.89,0c2.49,0,5,0,7.55,0a79.24,79.24,0,0,0,2.8,7.75c1,2.39,2.17,4.88,3.48,7.38q.75,1.44,1.53,2.85l-9.87,9.87-.54.54a21.85,21.85,0,0,0,0,30.87l10.92,10.92a21.85,21.85,0,0,0,30.87,0l.12-.12c1.17-1.24,2.37-2.44,3.65-3.72l1.93-1.94,4.38-4.45.16-.17a97,97,0,0,0,12.73,5.66l.13,0c1.41.47,2.8.84,4.17,1.15V319a21.85,21.85,0,0,0,21.83,21.83H208A21.87,21.87,0,0,0,229.82,319v-.54q0-2,0-4c0-2.71-.06-5.42-.13-8.13v-.29q0-.59,0-1.17l.13,0a100.59,100.59,0,0,0,10.59-3.91c1.94-.85,3.89-1.77,5.78-2.74l1.31-.69,4.51,4.5,6,5.94a21.85,21.85,0,0,0,30.87,0L299.69,297a21.85,21.85,0,0,0,0-30.87l-10.6-10.6c.46-.87.89-1.74,1.3-2.58a99.82,99.82,0,0,0,4.37-10.41c.53-1.48,1-3,1.38-4.43l13-.06A21.85,21.85,0,0,0,331,216.24V200.8A21.85,21.85,0,0,0,309.17,179ZM319,216.24a9.85,9.85,0,0,1-9.86,9.83l-15.18.07h-2.39a6.14,6.14,0,0,0-5.91,4.63l-.24.93c-.62,2.41-1.21,4.68-2,6.84a88,88,0,0,1-3.84,9.16,43.29,43.29,0,0,1-2.75,5,6.5,6.5,0,0,0-1.09,4.83l.07.41.22.67a6.63,6.63,0,0,0,1.59,2.45l13.57,13.56a9.84,9.84,0,0,1,0,13.9l-10.92,10.92a9.84,9.84,0,0,1-13.91,0l-6-5.94-5-5L252.82,286a6.26,6.26,0,0,0-7.22-1.23,9.17,9.17,0,0,0-1.35.81l-1.13.64q-1.24.69-2.51,1.35c-1.66.86-3.37,1.67-5.08,2.41a88.72,88.72,0,0,1-9.33,3.44c-1.05.32-2.12.62-3.18.92l-.68.19a6.43,6.43,0,0,0-4.78,6.28c0,1.9,0,3.77.07,5.58v.29c.06,2.66.09,5.33.13,8,0,1.33,0,2.66,0,4V319a9.84,9.84,0,0,1-9.83,9.83H192.55a9.84,9.84,0,0,1-9.83-9.83V300.11a6.28,6.28,0,0,0-5.13-6.26l-.94-.19a53.92,53.92,0,0,1-6.25-1.51,87.37,87.37,0,0,1-14.74-7l-.45-.26-.66-.25c-4.07-1.38-6.5,1.39-9.31,4.59l-.32.36L140.6,294l-1.87,1.88c-1.25,1.25-2.55,2.55-3.82,3.89a9.84,9.84,0,0,1-13.85-.05L110.15,288.8a9.88,9.88,0,0,1,0-13.9l.54-.54L122,263.11l1.75-1.75a6.19,6.19,0,0,0,1-7.58l-.7-1.18c-.35-.59-.71-1.18-1-1.78q-.89-1.59-1.74-3.21c-1.15-2.21-2.18-4.4-3.06-6.49a63.51,63.51,0,0,1-3.29-10,6.45,6.45,0,0,0-2.33-3.72l-.31-.23a6.41,6.41,0,0,0-3.54-1.1c-4-.08-8.09-.06-12,0l-5.81,0A9.84,9.84,0,0,1,81,216.24V200.8A9.83,9.83,0,0,1,90.8,191l18,.08h0a6.22,6.22,0,0,0,6-4.42l.33-1.05c.65-2.08,1.26-4,2-6,.82-2.3,1.74-4.58,2.74-6.8.71-1.56,1.46-3.1,2.25-4.6s1.61-3,2.46-4.37a6.16,6.16,0,0,0-1-7.66l-.88-.87L109.88,142.4a9.88,9.88,0,0,1,0-13.9l10.92-10.92a9.88,9.88,0,0,1,13.89,0l11.67,11.75c.77.77,1.54,1.54,2.27,2.3a6.29,6.29,0,0,0,3.3,1.83l1,.2,1-.13a7.17,7.17,0,0,0,3.25-1.33l.41-.23.32-.18q1-.57,2.06-1.11l.44-.23a44.27,44.27,0,0,1,4.69-2.23l.27-.11c2.63-1.14,5.41-2,8.35-3,1.52-.5,3-1,4.53-1.52a6.79,6.79,0,0,0,2.92-1.92,6.71,6.71,0,0,0,1.64-4.73c-.07-3.16-.1-6.38-.1-9.87V99.35a9.84,9.84,0,0,1,9.83-9.83H208a9.84,9.84,0,0,1,9.83,9.83v9.11c0,1,0,2,0,3l0,1.88c0,.86,0,1.73,0,2.55V116a7.92,7.92,0,0,0,1.61,5.48,7.61,7.61,0,0,0,4.13,2.58,80.16,80.16,0,0,1,11.64,4c1.92.83,3.85,1.75,5.7,2.71.22.13.5.32.82.52,2.43,1.59,5.75,3.77,9.5,2.65a10.24,10.24,0,0,0,4.55-3l7.75-8.17c2-2.11,4.08-4.3,6.27-5.34,6.07-2.88,11.3,2,18.6,9.69,1.08,1.15,2.13,2.26,3.15,3.28a9.87,9.87,0,0,1,0,13.9l-10.61,10.61c-.88.89-1.76,1.77-2.66,2.63A6.81,6.81,0,0,0,276.5,160l-.19.55a6.74,6.74,0,0,0,.61,5.17l.37.7a105.43,105.43,0,0,1,4.92,10.13c.65,1.64,1.28,3.34,1.85,5.06a46.59,46.59,0,0,1,1.31,4.65l.12.47c1.33,4.66,5.5,4.49,9.52,4.33l.44,0,4,0,8,0h1.75A9.84,9.84,0,0,1,319,200.8Z"/><path d="M200.27,137.41A71.73,71.73,0,1,0,272,209.14,71.73,71.73,0,0,0,200.27,137.41Zm0,131.46A59.73,59.73,0,1,1,260,209.14,59.8,59.8,0,0,1,200.27,268.87Z"/><path d="M200.27,170.41A38.73,38.73,0,1,0,239,209.14,38.73,38.73,0,0,0,200.27,170.41Zm0,65.46A26.73,26.73,0,1,1,227,209.14,26.76,26.76,0,0,1,200.27,235.87Z"/></svg>