<svg id="Layer_1" data-name="Layer 1" xmlns="http://www.w3.org/2000/svg" viewBox="0 0 400 400"><title>Artboard 66 copy 26</title><path d="M131.44,69.85H88.09a18,18,0,0,0-18,18V131.2a18,18,0,0,0,18,18h43.35a18,18,0,0,0,18-18V87.85A18,18,0,0,0,131.44,69.85Zm6,61.35a6,6,0,0,1-6,6H88.09a6,6,0,0,1-6-6V87.85a6,6,0,0,1,6-6h43.35a6,6,0,0,1,6,6Z"/><path d="M312.71,69.85H269.36a18,18,0,0,0-18,18V131.2a18,18,0,0,0,18,18h43.35a18,18,0,0,0,18-18V87.85A18,18,0,0,0,312.71,69.85Zm6,61.35a6,6,0,0,1-6,6H269.36a6,6,0,0,1-6-6V87.85a6,6,0,0,1,6-6h43.35a6,6,0,0,1,6,6Z"/><path d="M222.08,69.85H178.73a18,18,0,0,0-18,18V131.2a18,18,0,0,0,18,18h43.35a18,18,0,0,0,18-18V87.85A18,18,0,0,0,222.08,69.85Zm6,61.35a6,6,0,0,1-6,6H178.73a6,6,0,0,1-6-6V87.85a6,6,0,0,1,6-6h43.35a6,6,0,0,1,6,6Z"/><path d="M131.44,160.18H88.09a18,18,0,0,0-18,18v43.35a18,18,0,0,0,18,18h43.35a18,18,0,0,0,18-18V178.18A18,18,0,0,0,131.44,160.18Zm6,61.35a6,6,0,0,1-6,6H88.09a6,6,0,0,1-6-6V178.18a6,6,0,0,1,6-6h43.35a6,6,0,0,1,6,6Z"/><path d="M312.71,160.18H269.36a18,18,0,0,0-18,18v43.35a18,18,0,0,0,18,18h43.35a18,18,0,0,0,18-18V178.18A18,18,0,0,0,312.71,160.18Zm6,61.35a6,6,0,0,1-6,6H269.36a6,6,0,0,1-6-6V178.18a6,6,0,0,1,6-6h43.35a6,6,0,0,1,6,6Z"/><path d="M222.08,160.18H178.73a18,18,0,0,0-18,18v43.35a18,18,0,0,0,18,18h43.35a18,18,0,0,0,18-18V178.18A18,18,0,0,0,222.08,160.18Zm6,61.35a6,6,0,0,1-6,6H178.73a6,6,0,0,1-6-6V178.18a6,6,0,0,1,6-6h43.35a6,6,0,0,1,6,6Z"/><path d="M131.44,250.5H88.09a18,18,0,0,0-18,18v43.35a18,18,0,0,0,18,18h43.35a18,18,0,0,0,18-18V268.5A18,18,0,0,0,131.44,250.5Zm6,61.35a6,6,0,0,1-6,6H88.09a6,6,0,0,1-6-6V268.5a6,6,0,0,1,6-6h43.35a6,6,0,0,1,6,6Z"/><path d="M312.71,250.5H269.36a18,18,0,0,0-18,18v43.35a18,18,0,0,0,18,18h43.35a18,18,0,0,0,18-18V268.5A18,18,0,0,0,312.71,250.5Zm6,61.35a6,6,0,0,1-6,6H269.36a6,6,0,0,1-6-6V268.5a6,6,0,0,1,6-6h43.35a6,6,0,0,1,6,6Z"/><path d="M222.08,250.5H178.73a18,18,0,0,0-18,18v43.35a18,18,0,0,0,18,18h43.35a18,18,0,0,0,18-18V268.5A18,18,0,0,0,222.08,250.5Zm6,61.35a6,6,0,0,1-6,6H178.73a6,6,0,0,1-6-6V268.5a6,6,0,0,1,6-6h43.35a6,6,0,0,1,6,6Z"/></svg>