<svg id="Layer_1" data-name="Layer 1" xmlns="http://www.w3.org/2000/svg" viewBox="0 0 400 400"><title>Artboard 66 copy 25</title><path d="M86.18,192.88h86.88a18,18,0,0,0,18-18V88a18,18,0,0,0-18-18H86.18a18,18,0,0,0-18,18v86.88A18,18,0,0,0,86.18,192.88ZM80.18,88a6,6,0,0,1,6-6h86.88a6,6,0,0,1,6,6v86.88a6,6,0,0,1-6,6H86.18a6,6,0,0,1-6-6Z"/><path d="M226.08,192.88H313a18,18,0,0,0,18-18V88a18,18,0,0,0-18-18H226.08a18,18,0,0,0-18,18v86.88A18,18,0,0,0,226.08,192.88ZM220.08,88a6,6,0,0,1,6-6H313a6,6,0,0,1,6,6v86.88a6,6,0,0,1-6,6H226.08a6,6,0,0,1-6-6Z"/><path d="M174,207.12H87.11a18,18,0,0,0-18,18V312a18,18,0,0,0,18,18H174a18,18,0,0,0,18-18V225.12A18,18,0,0,0,174,207.12ZM180,312a6,6,0,0,1-6,6H87.11a6,6,0,0,1-6-6V225.12a6,6,0,0,1,6-6H174a6,6,0,0,1,6,6Z"/><path d="M313.23,207.12H226.36a18,18,0,0,0-18,18V312a18,18,0,0,0,18,18h86.88a18,18,0,0,0,18-18V225.12A18,18,0,0,0,313.23,207.12Zm6,104.88a6,6,0,0,1-6,6H226.36a6,6,0,0,1-6-6V225.12a6,6,0,0,1,6-6h86.88a6,6,0,0,1,6,6Z"/></svg>