<?xml version="1.0" encoding="UTF-8"?>
<svg width="23px" height="23px" viewBox="0 0 23 23" version="1.1" xmlns="http://www.w3.org/2000/svg" xmlns:xlink="http://www.w3.org/1999/xlink">
    <!-- Generator: Sketch 49 (51002) - http://www.bohemiancoding.com/sketch -->
    <title>info</title>
    <desc>Created with Sketch.</desc>
    <defs></defs>
    <g id="Page-1" stroke="none" stroke-width="1" fill="none" fill-rule="evenodd">
        <g id="nebular-new-header" transform="translate(-1300.000000, -879.000000)" fill="#FFFFFF">
            <g id="info" transform="translate(1300.000000, 879.000000)">
                <path d="M22,11.5 C22,5.70114237 17.2988576,1 11.5,1 C5.70114237,1 1,5.70114237 1,11.5 C1,17.2988576 5.70114237,22 11.5,22 C17.2988576,22 22,17.2988576 22,11.5 Z M23,11.5 C23,17.8511424 17.8511424,23 11.5,23 C5.14885763,23 0,17.8511424 0,11.5 C0,5.14885763 5.14885763,0 11.5,0 C17.8511424,0 23,5.14885763 23,11.5 Z" id="Stroke-1" fill-rule="nonzero"></path>
                <path d="M11,6 L12.5,6 L12.2772277,13.9455446 L11.1930693,13.9455446 L11,6 Z M11.3118812,16.9455446 C11.2425739,16.9455446 11.1831686,16.9207923 11.1336634,16.8712871 C11.0841582,16.8217819 11.0594059,16.7623766 11.0594059,16.6930693 L11.0594059,15.4009901 C11.0594059,15.2227714 11.1435635,15.1336634 11.3118812,15.1336634 L12.1584158,15.1336634 C12.3366346,15.1336634 12.4257426,15.2227714 12.4257426,15.4009901 L12.4257426,16.6930693 C12.4257426,16.861387 12.3366346,16.9455446 12.1584158,16.9455446 L11.3118812,16.9455446 Z" id="!"></path>
            </g>
        </g>
    </g>
</svg>