<svg id="Layer_1" data-name="Layer 1" xmlns="http://www.w3.org/2000/svg" viewBox="0 0 400 400"><title>Artboard 66 copy 40</title><path d="M115.51,70A33.51,33.51,0,1,0,149,103.51,33.51,33.51,0,0,0,115.51,70Zm0,55A21.51,21.51,0,1,1,137,103.51,21.54,21.54,0,0,1,115.51,125Z"/><path d="M206,70a33.51,33.51,0,1,0,33.51,33.51A33.51,33.51,0,0,0,206,70Zm0,55a21.51,21.51,0,1,1,21.51-21.51A21.54,21.54,0,0,1,206,125Z"/><path d="M296.49,137A33.51,33.51,0,1,0,263,103.51,33.51,33.51,0,0,0,296.49,137Zm0-55A21.51,21.51,0,1,1,275,103.51,21.54,21.54,0,0,1,296.49,82Z"/><path d="M115.51,160.49A33.51,33.51,0,1,0,149,194,33.51,33.51,0,0,0,115.51,160.49Zm0,55A21.51,21.51,0,1,1,137,194,21.54,21.54,0,0,1,115.51,215.51Z"/><path d="M206,160.49A33.51,33.51,0,1,0,239.51,194,33.51,33.51,0,0,0,206,160.49Zm0,55A21.51,21.51,0,1,1,227.51,194,21.54,21.54,0,0,1,206,215.51Z"/><path d="M296.49,160.49A33.51,33.51,0,1,0,330,194,33.51,33.51,0,0,0,296.49,160.49Zm0,55A21.51,21.51,0,1,1,318,194,21.54,21.54,0,0,1,296.49,215.51Z"/><path d="M115.51,251A33.51,33.51,0,1,0,149,284.49,33.51,33.51,0,0,0,115.51,251Zm0,55A21.51,21.51,0,1,1,137,284.49,21.54,21.54,0,0,1,115.51,306Z"/><path d="M206,251a33.51,33.51,0,1,0,33.51,33.51A33.51,33.51,0,0,0,206,251Zm0,55a21.51,21.51,0,1,1,21.51-21.51A21.54,21.54,0,0,1,206,306Z"/><path d="M296.49,251A33.51,33.51,0,1,0,330,284.49,33.51,33.51,0,0,0,296.49,251Zm0,55A21.51,21.51,0,1,1,318,284.49,21.54,21.54,0,0,1,296.49,306Z"/></svg>