<svg id="Layer_1" data-name="Layer 1" xmlns="http://www.w3.org/2000/svg" viewBox="0 0 400 400"><title>Artboard 66 copy 37</title><path d="M317,70H93A18,18,0,0,0,75,88V312a18,18,0,0,0,18,18H317a18,18,0,0,0,18-18V88A18,18,0,0,0,317,70ZM87,88a6.05,6.05,0,0,1,0-.61,6,6,0,0,1,1.73-3.63q.2-.2.43-.39A6,6,0,0,1,93,82H317a6,6,0,0,1,3.81,1.37q.22.18.43.39A6,6,0,0,1,323,87.39a6.05,6.05,0,0,1,0,.61v28.4H87ZM323,312a6,6,0,0,1-6,6H93a6,6,0,0,1-6-6V128.4H323Z"/><path d="M143.91,292.15H264.14a18,18,0,0,0,18-18V170.88a18,18,0,0,0-18-18H143.91a18,18,0,0,0-18,18V274.15A18,18,0,0,0,143.91,292.15Zm-6-121.26a6,6,0,0,1,6-6H264.14a6,6,0,0,1,6,6V274.15a6,6,0,0,1-6,6H143.91a6,6,0,0,1-6-6Z"/></svg>