<svg id="Layer_1" data-name="Layer 1" xmlns="http://www.w3.org/2000/svg" viewBox="0 0 400 400"><title>Artboard 188 copy 3</title><path d="M129.16,131.33H340a6,6,0,1,0,0-12H129.16a6,6,0,0,0,0,12Z"/><path d="M340,193.88H129.16a6,6,0,1,0,0,12H340a6,6,0,0,0,0-12Z"/><path d="M340,268.43H129.16a6,6,0,0,0,0,12H340a6,6,0,0,0,0-12Z"/><path d="M76.87,102.54a22.87,22.87,0,1,0,22.87,22.87A22.89,22.89,0,0,0,76.87,102.54Zm0,33.73a10.87,10.87,0,1,1,10.87-10.87A10.88,10.88,0,0,1,76.87,136.28Z"/><path d="M76.87,177a22.87,22.87,0,1,0,22.87,22.87A22.89,22.89,0,0,0,76.87,177Zm0,33.73a10.87,10.87,0,1,1,10.87-10.87A10.88,10.88,0,0,1,76.87,210.73Z"/><path d="M76.87,251.72a22.87,22.87,0,1,0,22.87,22.87A22.89,22.89,0,0,0,76.87,251.72Zm0,33.73a10.87,10.87,0,1,1,10.87-10.87A10.88,10.88,0,0,1,76.87,285.46Z"/></svg>