<svg id="Layer_1" data-name="Layer 1" xmlns="http://www.w3.org/2000/svg" viewBox="0 0 400 400"><title>Artboard 66 copy 38</title><path d="M307,70H83A18,18,0,0,0,65,88V312a18,18,0,0,0,18,18H307a18,18,0,0,0,18-18V88A18,18,0,0,0,307,70ZM77,88a6.05,6.05,0,0,1,0-.61,6,6,0,0,1,1.73-3.63q.2-.2.43-.39A6,6,0,0,1,83,82H307a6,6,0,0,1,3.81,1.37q.22.18.43.39A6,6,0,0,1,313,87.39a6.05,6.05,0,0,1,0,.61v28.4H77ZM313,312a6,6,0,0,1-6,6H83a6,6,0,0,1-6-6V128.4H313Z"/><path d="M183.5,292.8h23a18,18,0,0,0,18-18V171.54a18,18,0,0,0-18-18h-23a18,18,0,0,0-18,18V274.8A18,18,0,0,0,183.5,292.8Zm-6-121.26a6,6,0,0,1,6-6h23a6,6,0,0,1,6,6V274.8a6,6,0,0,1-6,6h-23a6,6,0,0,1-6-6Z"/></svg>