<svg id="Layer_1" data-name="Layer 1" xmlns="http://www.w3.org/2000/svg" viewBox="0 0 400 400"><title>Artboard 188 copy 5</title><path d="M316.09,77.83s0-.09,0-.13,0-.05,0-.08,0-.05,0-.08,0-.18,0-.27,0-.11,0-.16,0-.12,0-.18,0-.15,0-.23,0-.12,0-.18,0-.12,0-.18l0-.21c0-.06,0-.13,0-.19l0-.17-.06-.22c0-.06,0-.12,0-.18l-.05-.14-.1-.26v0l0-.12-.05-.11-.14-.29-.07-.14h0l0-.08-.17-.29-.08-.13-.07-.1-.18-.24-.1-.13-.1-.12-.17-.18-.12-.13-.14-.13-.15-.13-.15-.13-.17-.13-.07-.05-.07,0-.17-.12-.18-.11-.17-.1-.16-.09-.16-.08-.22-.11-.14-.06-.15-.06-.28-.1-.12,0-.14,0-.33-.08-.09,0h0l-.14,0-.33,0-.11,0h-1.18l-.17,0-.23,0-.18,0-.15,0-.26.06-.17,0-.11,0-.3.11-.23.09-.34.17h0l-.08,0h0l-220,119.49-.15.09-.3.18-.22.15-.26.19-.21.18-.22.21-.19.2-.2.23-.17.22-.18.25-.15.24-.15.26-.14.27-.12.26c0,.1-.08.21-.12.31l-.07.17,0,.07c0,.11-.06.22-.09.33s0,.17-.06.25,0,.21-.05.31,0,.18,0,.27,0,.2,0,.3,0,.19,0,.29,0,.21,0,.31,0,.18,0,.27,0,.22,0,.33,0,.16,0,.24.05.22.08.33,0,.16.06.23.07.2.1.3.06.17.09.26l.12.26.14.29,0,.07.06.1q.15.26.32.51l.11.15a6,6,0,0,0,.46.54l.12.11q.2.2.43.38l.17.13q.24.18.5.33l.11.07a6,6,0,0,0,.64.32l.18.07.33.13,104.65,33.95,63.47,89.86.09.11.3.37.16.18.34.33.14.13a5.87,5.87,0,0,0,.52.4l.12.07.45.26.2.1.4.17.23.08.39.12.25.06.12,0,.31,0,.21,0a6.05,6.05,0,0,0,.66,0h.07a6,6,0,0,0,.9-.08l.34-.08a6,6,0,0,0,.61-.16l.37-.15c.18-.07.35-.15.52-.24l.38-.22c.09-.06.19-.1.28-.17l.23-.18.14-.11a6,6,0,0,0,.63-.61l.1-.12a6,6,0,0,0,.54-.73l0-.06a6,6,0,0,0,.41-.82l0-.09a6,6,0,0,0,.27-.92l0-.08L316,78.3h0c0-.05,0-.11,0-.16S316.08,77.93,316.09,77.83Zm-57.94,230-54.06-76.55L299,102.37Zm-63.73-83.66-89.14-28.92,184.06-100Z"/></svg>