<svg id="Layer_1" data-name="Layer 1" xmlns="http://www.w3.org/2000/svg" viewBox="0 0 400 400"><title>Artboard 66 copy 43</title><path d="M270.69,213.78c.09-.17.19-.34.26-.52a5.88,5.88,0,0,0,.18-.56c.05-.18.11-.36.15-.55s0-.38.07-.58,0-.38,0-.57,0-.38,0-.57,0-.39-.07-.58-.1-.37-.15-.55a5.88,5.88,0,0,0-.18-.56c-.07-.18-.17-.35-.26-.52a5.91,5.91,0,0,0-.29-.52,6,6,0,0,0-.37-.48c-.1-.12-.18-.26-.29-.38l-.1-.09-.09-.1-121.31-116-.05,0a6.07,6.07,0,0,0-.86-.67l-.12-.07a6,6,0,0,0-.93-.46l-.14,0a5.93,5.93,0,0,0-1-.27l-.14,0a6,6,0,0,0-.93-.08h-.21a6,6,0,0,0-1,.12h-.05a6,6,0,0,0-1.05.34l0,0a6,6,0,0,0-1,.54l-.07.05a6.06,6.06,0,0,0-.85.72l0,0,0,.06a6,6,0,0,0-.67.85l-.08.12a5.93,5.93,0,0,0-.46.92l-.05.14a6,6,0,0,0-.27,1l0,.14a6,6,0,0,0-.08.93V327a6,6,0,0,0,.08.93l0,.14a6,6,0,0,0,.27,1l.05.14a5.93,5.93,0,0,0,.46.92l.08.12a6,6,0,0,0,.67.85l0,.06,0,0,.26.24.19.17.27.2.21.16.28.17.38.21.37.18.17.06.39.14.18,0,.4.1.23,0,.35.05.57,0h0a6,6,0,0,0,1-.1h.09a5.92,5.92,0,0,0,1-.28l.11,0a5.93,5.93,0,0,0,.91-.46l.11-.07a6,6,0,0,0,.84-.66l.05,0,121.31-116,0-.05.15-.14c.11-.12.19-.25.29-.38a3.83,3.83,0,0,0,.66-1Z"/></svg>