<svg id="Layer_1" data-name="Layer 1" xmlns="http://www.w3.org/2000/svg" viewBox="0 0 400 400"><title>Artboard 104 copy 15</title><path d="M332.5,293.61s0,0,0-.07,0-.11,0-.16c-.16-49.12-29.57-94-74.07-114.31a64.87,64.87,0,1,0-104.23.17c-44.27,20.38-73.52,65.19-73.69,114.13,0,.05,0,.11,0,.16s0,0,0,.07,0,.12,0,.18h0a6,6,0,0,0,6,5.75h240a6,6,0,0,0,6-5.75h0C332.5,293.73,332.5,293.67,332.5,293.61ZM206.25,87.71a52.87,52.87,0,1,1-52.87,52.87A52.93,52.93,0,0,1,206.25,87.71ZM162.69,188.61a64.74,64.74,0,0,0,87.27-.15,114.87,114.87,0,0,1,70.34,99.08H92.7A114.94,114.94,0,0,1,162.69,188.61Z"/></svg>