<svg id="Layer_1" data-name="Layer 1" xmlns="http://www.w3.org/2000/svg" viewBox="0 0 400 400"><title>Artboard 66 copy 5</title><path d="M302.26,215.69a67.34,67.34,0,0,0-34.42-121,67.47,67.47,0,0,0-61.61,29.2,6,6,0,0,0-1,2.77,81.66,81.66,0,0,0-51.73,27.14,64.78,64.78,0,0,0-79.09,58.1A59.05,59.05,0,0,0,85.14,329H279a59,59,0,0,0,23.24-113.31ZM266.79,106.62a55.36,55.36,0,0,1,30.08,98.08,82.11,82.11,0,0,0-77.36-78.51A55.47,55.47,0,0,1,266.79,106.62ZM279,317H85.14a47.06,47.06,0,0,1-4.81-93.87,6.74,6.74,0,0,0,5.85-6.25,52.76,52.76,0,0,1,104-12.46,6,6,0,1,0,11.66-2.82A64.5,64.5,0,0,0,166,158a70,70,0,0,1,119,50.06,71.07,71.07,0,0,1-.61,9.27,6,6,0,0,0,5.16,6.73A47.05,47.05,0,0,1,279,317Z"/><path d="M268.89,82.83l.53,0a6,6,0,0,0,6-5.47L277.3,55.7a6,6,0,0,0-12-1.05l-1.91,21.67A6,6,0,0,0,268.89,82.83Z"/><path d="M307.42,96.88a6,6,0,0,0,8.36-1.47L328.27,77.6a6,6,0,0,0-9.83-6.89L306,88.53A6,6,0,0,0,307.42,96.88Z"/><path d="M339.21,131.79a6,6,0,0,0,2.53-.56L361.46,122a6,6,0,0,0-5.06-10.88l-19.73,9.18a6,6,0,0,0,2.54,11.44Z"/><path d="M369,165.18l-21.67-1.91a6,6,0,0,0-1.05,12L368,177.14l.53,0a6,6,0,0,0,.52-12Z"/><path d="M353,218.28l-17.81-12.49a6,6,0,1,0-6.89,9.83l17.81,12.49a6,6,0,1,0,6.89-9.83Z"/><path d="M170.88,105.25l17.81,12.49a6,6,0,1,0,6.89-9.83L177.76,95.42a6,6,0,1,0-6.89,9.83Z"/><path d="M220.51,87A6,6,0,1,0,231.39,82l-9.18-19.73a6,6,0,1,0-10.88,5.06Z"/></svg>