<svg id="Layer_1" data-name="Layer 1" xmlns="http://www.w3.org/2000/svg" viewBox="0 0 400 400"><title>Artboard 152 copy 7</title><path d="M317.23,77.07H114.73A18.55,18.55,0,0,0,97,90.36V89.6H76.87a6,6,0,0,0-6,6v95.3A17.59,17.59,0,0,0,59.05,207.5v18.63a17.58,17.58,0,1,0,35.16,0V207.5a17.59,17.59,0,0,0-11.34-16.41V101.6H97v-.73a18.63,18.63,0,0,0,9.49,11.29V256.59a9.9,9.9,0,0,0,9.85,9.89h4.48v52.58a18,18,0,0,0,18,18H296.44a18,18,0,0,0,18-18V267h4.29a9.88,9.88,0,0,0,9.87-9.89V110.2a18.51,18.51,0,0,0-11.37-33.13Zm-235,149.05a5.58,5.58,0,1,1-11.16,0V207.5a5.58,5.58,0,1,1,11.16,0ZM211.6,325.07H138.78a6,6,0,0,1-6-6V266.52l78.82.19Zm90.84-6a6,6,0,0,1-6,6H223.6V266.74l78.84.19Zm14.16-64.41-198.15-.47V236.05H316.6Zm0-30.61H118.46V205.14H316.6Zm0-30.92H118.46V174.22H316.6Zm0-30.92H118.46V143.3H316.6Zm0-30.92H118.46V114.13H316.6Zm.63-29.17H114.73a6.53,6.53,0,1,1,0-13.06h202.5a6.53,6.53,0,1,1,0,13.06Z"/></svg>