<svg id="Layer_1" data-name="Layer 1" xmlns="http://www.w3.org/2000/svg" viewBox="0 0 400 400"><title>Artboard 66 copy 46</title><path d="M251.64,78.35a11.47,11.47,0,0,0-11.46,11.46V192.11L128.2,85l-.05,0a6,6,0,0,0-.86-.67l-.12-.07a5.93,5.93,0,0,0-.93-.46l-.13,0a5.91,5.91,0,0,0-1-.27l-.13,0a6.06,6.06,0,0,0-.93-.08h-.21a6,6,0,0,0-1.05.12h-.05a5.93,5.93,0,0,0-1.05.34l0,0a6,6,0,0,0-1,.54l-.07,0a6,6,0,0,0-.85.73l0,0,0,.06a6,6,0,0,0-.67.85l-.08.12a5.93,5.93,0,0,0-.46.92l-.05.14a6,6,0,0,0-.27,1l0,.14a6,6,0,0,0-.08.93V310.73a6,6,0,0,0,.08.93l0,.14a6,6,0,0,0,.27,1l.05.14a6,6,0,0,0,.46.92l.08.12a6,6,0,0,0,.67.85l0,.06,0,0,.26.24.19.17.27.2.21.16.28.17.38.21.37.18.17.06.39.14.18,0,.4.1.23,0,.35.05.57,0h0a6.09,6.09,0,0,0,1-.1h.09a5.87,5.87,0,0,0,1-.28l.11,0a5.93,5.93,0,0,0,.91-.46l.11-.07a6.05,6.05,0,0,0,.84-.66l.05,0L240.19,208V310.89a11.46,11.46,0,1,0,22.92,0V89.81A11.47,11.47,0,0,0,251.64,78.35ZM231.12,200,130.06,296.69V103.41Z"/></svg>