<svg id="Layer_1" data-name="Layer 1" xmlns="http://www.w3.org/2000/svg" viewBox="0 0 400 400"><title>Artboard 152</title><path d="M197,96.52A103.48,103.48,0,1,0,300.48,200,103.6,103.6,0,0,0,197,96.52Zm0,195A91.48,91.48,0,1,1,288.48,200,91.58,91.58,0,0,1,197,291.48Z"/><path d="M197,70.57a6,6,0,0,0,6-6V30a6,6,0,0,0-12,0V64.57A6,6,0,0,0,197,70.57Z"/><path d="M261.72,87.91a6,6,0,0,0,8.2-2.2L287.2,55.78a6,6,0,0,0-10.39-6L259.52,79.71A6,6,0,0,0,261.72,87.91Z"/><path d="M314.29,138.29a6,6,0,0,0,3-.8l29.94-17.28a6,6,0,0,0-6-10.39l-29.94,17.28a6,6,0,0,0,3,11.2Z"/><path d="M367,194H332.43a6,6,0,0,0,0,12H367a6,6,0,0,0,0-12Z"/><path d="M347.22,279.8l-29.94-17.28a6,6,0,1,0-6,10.39l29.94,17.28a6,6,0,0,0,6-10.39Z"/><path d="M269.91,314.29a6,6,0,0,0-10.39,6l17.28,29.94a6,6,0,0,0,10.39-6Z"/><path d="M197,329.43a6,6,0,0,0-6,6V370a6,6,0,0,0,12,0V335.43A6,6,0,0,0,197,329.43Z"/><path d="M132.28,312.09a6,6,0,0,0-8.2,2.2L106.8,344.22a6,6,0,1,0,10.39,6l17.28-29.94A6,6,0,0,0,132.28,312.09Z"/><path d="M76.71,262.52,46.78,279.8a6,6,0,1,0,6,10.39l29.94-17.28a6,6,0,1,0-6-10.39Z"/><path d="M67.57,200a6,6,0,0,0-6-6H27a6,6,0,0,0,0,12H61.57A6,6,0,0,0,67.57,200Z"/><path d="M82.71,127.09,52.78,109.8a6,6,0,0,0-6,10.39l29.94,17.28a6,6,0,0,0,6-10.39Z"/><path d="M124.09,85.71a6,6,0,0,0,10.39-6L117.2,49.78a6,6,0,0,0-10.39,6Z"/><path d="M187.5,133.28a73.52,73.52,0,0,0-56.38,51,6,6,0,1,0,11.48,3.48,61.55,61.55,0,0,1,47.2-42.68,6,6,0,1,0-2.3-11.78Z"/></svg>