<svg id="Layer_1" data-name="Layer 1" xmlns="http://www.w3.org/2000/svg" viewBox="0 0 400 400"><title>Artboard 66 copy 47</title><path d="M284.74,314.08a6,6,0,0,0,.46-.92l.05-.14a5.88,5.88,0,0,0,.27-1l0-.14a6,6,0,0,0,.08-.93V89.6a6,6,0,0,0-.08-.93l0-.14a5.88,5.88,0,0,0-.27-1l-.05-.14a6,6,0,0,0-.46-.92l-.08-.12a6,6,0,0,0-.67-.85l0-.06,0,0a6,6,0,0,0-.85-.73l-.07-.05a6,6,0,0,0-1-.54l0,0a6,6,0,0,0-1-.34h-.06a6.07,6.07,0,0,0-1-.12h-.21a6,6,0,0,0-.93.08l-.13,0a5.93,5.93,0,0,0-1,.27l-.12,0a6,6,0,0,0-.94.47l-.11.07a6.1,6.1,0,0,0-.87.67l0,0L160.72,195V96a16.64,16.64,0,0,0-33.28,0V306.71a16.64,16.64,0,1,0,33.28,0V205.57L275.47,315.3l.05,0a6,6,0,0,0,.84.66l.11.07a6,6,0,0,0,.91.46l.11,0a5.91,5.91,0,0,0,1,.28h.09a6.09,6.09,0,0,0,1,.1h0l.57,0,.35-.05.24,0,.38-.1.19,0,.36-.13.2-.07.3-.14q.27-.13.52-.29l.21-.13.23-.17.25-.19.2-.18.25-.24.05,0,0-.06a6,6,0,0,0,.67-.85Z"/></svg>