<svg id="Layer_1" data-name="Layer 1" xmlns="http://www.w3.org/2000/svg" viewBox="0 0 400 400"><title>Artboard 181</title><path d="M318,72H94A18,18,0,0,0,76,90V314a18,18,0,0,0,18,18H318a18,18,0,0,0,18-18V90A18,18,0,0,0,318,72ZM88,90a6.05,6.05,0,0,1,0-.61,6,6,0,0,1,1.73-3.63q.2-.2.43-.39A6,6,0,0,1,94,84H318a6,6,0,0,1,3.81,1.37q.22.18.43.39A6,6,0,0,1,324,89.39a6.05,6.05,0,0,1,0,.61v28.4H88ZM324,314a6,6,0,0,1-6,6H94a6,6,0,0,1-6-6V130.4H324Z"/><path d="M126.79,304H176a18,18,0,0,0,18-18V163.6a18,18,0,0,0-18-18H126.79a18,18,0,0,0-18,18V286A18,18,0,0,0,126.79,304Zm-6-140.4a6,6,0,0,1,6-6H176a6,6,0,0,1,6,6V286a6,6,0,0,1-6,6H126.79a6,6,0,0,1-6-6Z"/><path d="M236.79,304H286a18,18,0,0,0,18-18V163.6a18,18,0,0,0-18-18H236.79a18,18,0,0,0-18,18V286A18,18,0,0,0,236.79,304Zm-6-140.4a6,6,0,0,1,6-6H286a6,6,0,0,1,6,6V286a6,6,0,0,1-6,6H236.79a6,6,0,0,1-6-6Z"/><circle cx="110.23" cy="101.49" r="6.53"/><circle cx="134.38" cy="101.49" r="6.53"/><circle cx="158.53" cy="101.49" r="6.53"/></svg>