<svg id="Layer_1" data-name="Layer 1" xmlns="http://www.w3.org/2000/svg" viewBox="0 0 400 400"><title>Artboard 180</title><path d="M287.81,99.86a6,6,0,0,0-6-6l-.37,0a6,6,0,0,0-4,1.22l-80,61.18a6,6,0,0,0-1.07,1.07,17.87,17.87,0,0,0-8.2-2H133.82a18,18,0,0,0-18,18v54.31a18,18,0,0,0,18,18h54.31a17.88,17.88,0,0,0,8.75-2.28,6,6,0,0,0,1.29,1.35l80,61.18a6,6,0,0,0,9.63-5.1c0-.09,0-.18,0-.27Zm-93.68,127.8a6,6,0,0,1-6,6H133.82a6,6,0,0,1-6-6V173.34a6,6,0,0,1,6-6h54.31a6,6,0,0,1,6,6Zm10.56,7a17.9,17.9,0,0,0,1.44-7V173.34a17.86,17.86,0,0,0-1.62-7.42l.18-.12,71.12-54.39V289l-70.35-53.8A6,6,0,0,0,204.69,234.71Z"/></svg>