<svg xmlns="http://www.w3.org/2000/svg" viewBox="0 0 24 24"><defs><style>.cls-1{fill:#fff;opacity:0;}.cls-2{fill:#231f20;}</style></defs><title>arrow-circle-down</title><g id="Layer_2" data-name="Layer 2"><g id="arrow-circle-down"><g id="arrow-circle-down-2" data-name="arrow-circle-down"><rect class="cls-1" width="24" height="24"/><path class="cls-2" d="M14.31,12.41,13,13.66V8a1,1,0,0,0-2,0v5.59l-1.29-1.3a1,1,0,0,0-1.42,1.42l3,3a1,1,0,0,0,.33.21.94.94,0,0,0,.76,0,.54.54,0,0,0,.16-.1.49.49,0,0,0,.15-.1l3-2.86a1,1,0,0,0-1.38-1.45Z"/><path class="cls-2" d="M12,2A10,10,0,1,0,22,12,10,10,0,0,0,12,2Zm0,18a8,8,0,1,1,8-8A8,8,0,0,1,12,20Z"/></g></g></g></svg>