<svg xmlns="http://www.w3.org/2000/svg" viewBox="0 0 24 24"><defs><style>.cls-1{fill:#fff;opacity:0;}.cls-2{fill:#231f20;}</style></defs><title>arrow-circle-up</title><g id="Layer_2" data-name="Layer 2"><g id="arrow-circle-up"><g id="arrow-circle-up-2" data-name="arrow-circle-up"><rect class="cls-1" width="24" height="24"/><path class="cls-2" d="M12.71,7.29a1,1,0,0,0-.32-.21A1,1,0,0,0,12,7h0l-.1,0a.82.82,0,0,0-.27.06.72.72,0,0,0-.19.11,1,1,0,0,0-.13.09l-3,2.86a1,1,0,0,0,1.38,1.45L11,10.34V16a1,1,0,0,0,2,0V10.41l1.29,1.3a1,1,0,0,0,1.42,0,1,1,0,0,0,0-1.42Z"/><path class="cls-2" d="M12,2A10,10,0,1,0,22,12,10,10,0,0,0,12,2Zm0,18a8,8,0,1,1,8-8A8,8,0,0,1,12,20Z"/></g></g></g></svg>