<svg xmlns="http://www.w3.org/2000/svg" viewBox="0 0 24 24"><g data-name="Layer 2"><g data-name="at"><rect width="24" height="24" opacity="0"/><path d="M13 2a10 10 0 0 0-5 19.1 10.15 10.15 0 0 0 4 .9 10 10 0 0 0 6.08-2.06 1 1 0 0 0 .19-1.4 1 1 0 0 0-1.41-.19A8 8 0 1 1 12.77 4 8.17 8.17 0 0 1 20 12.22v.68a1.71 1.71 0 0 1-1.78 1.7 1.82 1.82 0 0 1-1.62-1.88V8.4a1 1 0 0 0-1-1 1 1 0 0 0-1 .87 5 5 0 0 0-3.44-1.36A5.09 5.09 0 1 0 15.31 15a3.6 3.6 0 0 0 5.55.61A3.67 3.67 0 0 0 22 12.9v-.68A10.2 10.2 0 0 0 13 2zm-1.82 13.09A3.09 3.09 0 1 1 14.27 12a3.1 3.1 0 0 1-3.09 3.09z"/></g></g></svg>