<svg xmlns="http://www.w3.org/2000/svg" viewBox="0 0 24 24"><defs><style>.cls-1{fill:#fff;opacity:0;}.cls-2{fill:#231f20;}</style></defs><title>brush</title><g id="Layer_2" data-name="Layer 2"><g id="brush"><g id="brush-2" data-name="brush"><rect class="cls-1" width="24" height="24"/><path class="cls-2" d="M20,6.83a2.76,2.76,0,0,0-.82-2,2.89,2.89,0,0,0-4,0L8.58,11.43l-.22,0a4.42,4.42,0,0,0-4.3,4.31L4,19a1,1,0,0,0,.29.73A1.05,1.05,0,0,0,5,20H5l3.26-.06a4.42,4.42,0,0,0,4.31-4.3c0-.08,0-.15,0-.23l6.61-6.6A2.74,2.74,0,0,0,20,6.83ZM8.25,17.94,6,18l0-2.23A2.4,2.4,0,0,1,8.4,13.41h0a2.15,2.15,0,0,1,2.15,2.19A2.4,2.4,0,0,1,8.25,17.94ZM17.77,7.39,11.9,13.26a4.55,4.55,0,0,0-.52-.64,3.94,3.94,0,0,0-.64-.52l5.87-5.86a.84.84,0,0,1,1.16,0,.81.81,0,0,1,.23.59A.79.79,0,0,1,17.77,7.39Z"/></g></g></g></svg>