<svg xmlns="http://www.w3.org/2000/svg" viewBox="0 0 24 24"><g data-name="Layer 2"><g data-name="cast"><polyline points="24 24 0 24 0 0" opacity="0"/><path d="M18.4 3H5.6A2.7 2.7 0 0 0 3 5.78V7a1 1 0 0 0 2 0V5.78A.72.72 0 0 1 5.6 5h12.8a.72.72 0 0 1 .6.78v12.44a.72.72 0 0 1-.6.78H17a1 1 0 0 0 0 2h1.4a2.7 2.7 0 0 0 2.6-2.78V5.78A2.7 2.7 0 0 0 18.4 3z"/><path d="M3.86 14A1 1 0 0 0 3 15.17a1 1 0 0 0 1.14.83 2.49 2.49 0 0 1 2.12.72 2.52 2.52 0 0 1 .51 2.84 1 1 0 0 0 .48 1.33 1.06 1.06 0 0 0 .42.09 1 1 0 0 0 .91-.58A4.52 4.52 0 0 0 3.86 14z"/><path d="M3.86 10.08a1 1 0 0 0 .28 2 6 6 0 0 1 5.09 1.71 6 6 0 0 1 1.53 5.95 1 1 0 0 0 .68 1.26.9.9 0 0 0 .28 0 1 1 0 0 0 1-.72 8 8 0 0 0-8.82-10.2z"/><circle cx="4" cy="19" r="1"/></g></g></svg>