<svg xmlns="http://www.w3.org/2000/svg" viewBox="0 0 24 24"><defs><style>.cls-1{fill:#fff;opacity:0;}.cls-2{fill:#231f20;}</style></defs><title>checkmark-square-2</title><g id="Layer_2" data-name="Layer 2"><g id="checkmark-square-2"><g id="checkmark-square-2-2" data-name="checkmark-square-2"><rect class="cls-1" width="24" height="24" transform="translate(24 24) rotate(180)"/><path class="cls-2" d="M18,3H6A3,3,0,0,0,3,6V18a3,3,0,0,0,3,3H18a3,3,0,0,0,3-3V6A3,3,0,0,0,18,3Zm1,15a1,1,0,0,1-1,1H6a1,1,0,0,1-1-1V6A1,1,0,0,1,6,5H18a1,1,0,0,1,1,1Z"/><path class="cls-2" d="M14.7,8.39l-3.78,5L9.29,11.28a1,1,0,0,0-1.58,1.23l2.43,3.11a1,1,0,0,0,.79.38h0a1,1,0,0,0,.79-.39l4.57-6a1,1,0,1,0-1.6-1.22Z"/></g></g></g></svg>