<svg xmlns="http://www.w3.org/2000/svg" viewBox="0 0 24 24"><defs><style>.cls-1{fill:#fff;opacity:0;}.cls-2{fill:#231f20;}</style></defs><title>close-circle</title><g id="Layer_2" data-name="Layer 2"><g id="close-circle"><g id="close-circle-2" data-name="close-circle"><rect class="cls-1" width="24" height="24"/><path class="cls-2" d="M12,2A10,10,0,1,0,22,12,10,10,0,0,0,12,2Zm0,18a8,8,0,1,1,8-8A8,8,0,0,1,12,20Z"/><path class="cls-2" d="M14.71,9.29a1,1,0,0,0-1.42,0L12,10.59l-1.29-1.3a1,1,0,0,0-1.42,1.42L10.59,12l-1.3,1.29a1,1,0,0,0,0,1.42,1,1,0,0,0,1.42,0L12,13.41l1.29,1.3a1,1,0,0,0,1.42,0,1,1,0,0,0,0-1.42L13.41,12l1.3-1.29A1,1,0,0,0,14.71,9.29Z"/></g></g></g></svg>