<svg xmlns="http://www.w3.org/2000/svg" viewBox="0 0 24 24"><defs><style>.cls-1{fill:#fff;opacity:0;}.cls-2{fill:#231f20;}</style></defs><title>code-download</title><g id="Layer_2" data-name="Layer 2"><g id="code-download"><g id="code-download-2" data-name="code-download"><rect class="cls-1" width="24" height="24" transform="translate(24 0) rotate(90)"/><path class="cls-2" d="M4.29,12,8.77,6.64A1,1,0,1,0,7.23,5.36l-5,6a1,1,0,0,0,0,1.27l4.83,6a1,1,0,0,0,.78.37,1,1,0,0,0,.78-1.63Z"/><path class="cls-2" d="M21.78,11.37,17,5.37a1,1,0,0,0-1.56,1.26L19.71,12l-4.48,5.37a1,1,0,0,0,.13,1.41A1,1,0,0,0,16,19a1,1,0,0,0,.77-.36l5-6A1,1,0,0,0,21.78,11.37Z"/><path class="cls-2" d="M15.72,11.41a1,1,0,0,0-1.41,0L13,12.64V8a1,1,0,0,0-2,0v4.59l-1.29-1.3a1,1,0,0,0-1.42,1.42l3,3A1,1,0,0,0,12,16a1,1,0,0,0,.69-.28l3-2.9A1,1,0,0,0,15.72,11.41Z"/></g></g></g></svg>