<svg xmlns="http://www.w3.org/2000/svg" viewBox="0 0 24 24"><g data-name="Layer 2"><g data-name="copy"><rect width="24" height="24" opacity="0"/><path d="M18 21h-6a3 3 0 0 1-3-3v-6a3 3 0 0 1 3-3h6a3 3 0 0 1 3 3v6a3 3 0 0 1-3 3zm-6-10a1 1 0 0 0-1 1v6a1 1 0 0 0 1 1h6a1 1 0 0 0 1-1v-6a1 1 0 0 0-1-1z"/><path d="M9.73 15H5.67A2.68 2.68 0 0 1 3 12.33V5.67A2.68 2.68 0 0 1 5.67 3h6.66A2.68 2.68 0 0 1 15 5.67V9.4h-2V5.67a.67.67 0 0 0-.67-.67H5.67a.67.67 0 0 0-.67.67v6.66a.67.67 0 0 0 .67.67h4.06z"/></g></g></svg>