<svg xmlns="http://www.w3.org/2000/svg" viewBox="0 0 24 24"><defs><style>.cls-1{fill:#fff;opacity:0;}.cls-2{fill:#231f20;}</style></defs><title>corner-up-left</title><g id="Layer_2" data-name="Layer 2"><g id="corner-up-left"><g id="corner-up-left-2" data-name="corner-up-left"><rect class="cls-1" width="24" height="24" transform="translate(24 0) rotate(90)"/><path class="cls-2" d="M16,10H7.08l2.7-3.38A1,1,0,1,0,8.22,5.38l-4,5a1,1,0,0,0,0,1.24l4,5A1,1,0,0,0,9,17a1,1,0,0,0,.62-.22,1,1,0,0,0,.16-1.4L7.08,12H16a1,1,0,0,1,1,1v5a1,1,0,0,0,2,0V13A3,3,0,0,0,16,10Z"/></g></g></g></svg>