<svg xmlns="http://www.w3.org/2000/svg" viewBox="0 0 24 24"><defs><style>.cls-1{fill:#fff;opacity:0;}.cls-2{fill:#231f20;}</style></defs><title>corner-left-up</title><g id="Layer_2" data-name="Layer 2"><g id="corner-left-up"><g id="corner-left-up-2" data-name="corner-left-up"><rect class="cls-1" width="24" height="24" transform="translate(24 24) rotate(180)"/><path class="cls-2" d="M18,17H13a1,1,0,0,1-1-1V7.08l3.38,2.7A1,1,0,0,0,16,10a1,1,0,0,0,.78-.38,1,1,0,0,0-.16-1.4l-5-4a1,1,0,0,0-1.24,0l-5,4A1,1,0,0,0,6.62,9.78L10,7.08V16a3,3,0,0,0,3,3h5a1,1,0,0,0,0-2Z"/></g></g></g></svg>