<svg xmlns="http://www.w3.org/2000/svg" viewBox="0 0 24 24"><defs><style>.cls-1{fill:#fff;opacity:0;}.cls-2{fill:#231f20;}</style></defs><title>crop</title><g id="Layer_2" data-name="Layer 2"><g id="crop"><g id="crop-2" data-name="crop"><rect class="cls-1" width="24" height="24"/><path class="cls-2" d="M21,16H18V8.56A2.56,2.56,0,0,0,15.44,6H8V3A1,1,0,0,0,6,3V6H3A1,1,0,0,0,3,8H6v7.44A2.56,2.56,0,0,0,8.56,18H16v3a1,1,0,0,0,2,0V18h3a1,1,0,0,0,0-2ZM8.56,16A.56.56,0,0,1,8,15.44V8h7.44a.56.56,0,0,1,.56.56V16Z"/></g></g></g></svg>