<svg xmlns="http://www.w3.org/2000/svg" viewBox="0 0 24 24"><defs><style>.cls-1{fill:#fff;opacity:0;}.cls-2{fill:#231f20;}</style></defs><title>cube</title><g id="Layer_2" data-name="Layer 2"><g id="cube"><g id="cube-2" data-name="cube"><rect class="cls-1" width="24" height="24"/><path class="cls-2" d="M20.66,7.26a0,0,0,0,1,0,0l0,0c0-.07-.1-.14-.15-.21l-.09-.1a2.5,2.5,0,0,0-.86-.68l-6.4-3h0a2.7,2.7,0,0,0-2.26,0l-6.4,3a2.6,2.6,0,0,0-.86.68L3.52,7a1,1,0,0,0-.15.2l0,0a0,0,0,0,1,0,0A2.39,2.39,0,0,0,3,8.46v7.06a2.49,2.49,0,0,0,1.46,2.26l6.4,3a2.7,2.7,0,0,0,2.27,0l6.4-3A2.49,2.49,0,0,0,21,15.54V8.46A2.39,2.39,0,0,0,20.66,7.26Zm-8.95-2.2a.73.73,0,0,1,.58,0l5.33,2.48L12,10.15,6.38,7.54ZM5.3,16a.47.47,0,0,1-.3-.43V9.1l6,2.79v6.72Zm13.39,0L13,18.61V11.89L19,9.1v6.44A.48.48,0,0,1,18.69,16Z"/></g></g></g></svg>