<svg xmlns="http://www.w3.org/2000/svg" viewBox="0 0 24 24"><defs><style>.cls-1{fill:#fff;opacity:0;}.cls-2{fill:#231f20;}</style></defs><title>done-all</title><g id="Layer_2" data-name="Layer 2"><g id="done-all"><g id="done-all-2" data-name="done-all"><rect class="cls-1" width="24" height="24"/><path class="cls-2" d="M16.62,6.21a1,1,0,0,0-1.41.17l-7,9L4.78,11.2a1,1,0,1,0-1.56,1.25l4.17,5.18a1,1,0,0,0,.78.37h0A1,1,0,0,0,9,17.62l7.83-10A1,1,0,0,0,16.62,6.21Z"/><path class="cls-2" d="M21.62,6.21a1,1,0,0,0-1.41.17l-7,9-.61-.75-1.26,1.62,1.1,1.37a1,1,0,0,0,.78.37h0a1,1,0,0,0,.78-.38l7.83-10A1,1,0,0,0,21.62,6.21Z"/><path class="cls-2" d="M8.71,13.06,10,11.44l-.2-.24A1,1,0,0,0,8.37,11a1,1,0,0,0-.15,1.41Z"/></g></g></g></svg>