<svg xmlns="http://www.w3.org/2000/svg" viewBox="0 0 24 24"><g data-name="Layer 2"><g data-name="droplet-off-outline"><rect width="24" height="24" opacity="0"/><path d="M12 19a5.4 5.4 0 0 1-3.88-1.64 5.73 5.73 0 0 1-.69-7.11L6 8.82a7.74 7.74 0 0 0 .7 9.94A7.37 7.37 0 0 0 12 21a7.36 7.36 0 0 0 4.58-1.59L15.15 18A5.43 5.43 0 0 1 12 19z"/><path d="M12 5.43l3.88 4a5.71 5.71 0 0 1 1.49 5.15L19 16.15A7.72 7.72 0 0 0 17.31 8l-4.6-4.7A1 1 0 0 0 12 3a1 1 0 0 0-.72.3L8.73 5.9l1.42 1.42z"/><path d="M20.71 19.29l-16-16a1 1 0 0 0-1.42 1.42l16 16a1 1 0 0 0 1.42 0 1 1 0 0 0 0-1.42z"/></g></g></svg>