<svg xmlns="http://www.w3.org/2000/svg" viewBox="0 0 24 24"><defs><style>.cls-1{fill:#fff;opacity:0;}.cls-2{fill:#231f20;}</style></defs><title>email</title><g id="Layer_2" data-name="Layer 2"><g id="email"><g id="email-2" data-name="email"><rect class="cls-1" width="24" height="24"/><path class="cls-2" d="M19,4H5A3,3,0,0,0,2,7V17a3,3,0,0,0,3,3H19a3,3,0,0,0,3-3V7A3,3,0,0,0,19,4Zm-.67,2L12,10.75,5.67,6ZM19,18H5a1,1,0,0,1-1-1V7.25l7.4,5.55a1,1,0,0,0,.6.2,1,1,0,0,0,.6-.2L20,7.25V17A1,1,0,0,1,19,18Z"/></g></g></g></svg>