<svg xmlns="http://www.w3.org/2000/svg" viewBox="0 0 24 24"><defs><style>.cls-1{fill:#fff;opacity:0;}.cls-2{fill:#231f20;}</style></defs><title>eye-off-2</title><g id="Layer_2" data-name="Layer 2"><g id="eye-off-2"><g id="eye-off-2-2" data-name="eye-off-2"><rect class="cls-1" width="24" height="24"/><path class="cls-2" d="M17.81,13.39A8.93,8.93,0,0,0,21,7.62a1,1,0,1,0-2-.24,7.07,7.07,0,0,1-14,0,1,1,0,1,0-2,.24,8.93,8.93,0,0,0,3.18,5.77L3.88,15.71a1,1,0,0,0,1.41,1.41l2.61-2.6a9.06,9.06,0,0,0,3.1.92V19a1,1,0,0,0,2,0V15.44a9.06,9.06,0,0,0,3.1-.92l2.61,2.6a1,1,0,0,0,1.41-1.41Z"/></g></g></g></svg>