<svg xmlns="http://www.w3.org/2000/svg" viewBox="0 0 24 24"><g data-name="Layer 2"><g data-name="file-add"><rect width="24" height="24" opacity="0"/><path d="M19.74 8.33l-5.44-6a1 1 0 0 0-.74-.33h-7A2.53 2.53 0 0 0 4 4.5v15A2.53 2.53 0 0 0 6.56 22h10.88A2.53 2.53 0 0 0 20 19.5V9a1 1 0 0 0-.26-.67zM14 5l2.74 3h-2a.79.79 0 0 1-.74-.85zm3.44 15H6.56a.53.53 0 0 1-.56-.5v-15a.53.53 0 0 1 .56-.5H12v3.15A2.79 2.79 0 0 0 14.71 10H18v9.5a.53.53 0 0 1-.56.5z"/><path d="M14 13h-1v-1a1 1 0 0 0-2 0v1h-1a1 1 0 0 0 0 2h1v1a1 1 0 0 0 2 0v-1h1a1 1 0 0 0 0-2z"/></g></g></svg>