<svg xmlns="http://www.w3.org/2000/svg" viewBox="0 0 24 24"><defs><style>.cls-1{fill:#fff;opacity:0;}.cls-2{fill:#231f20;}</style></defs><title>flash-off</title><g id="Layer_2" data-name="Layer 2"><g id="flash-off"><g id="flash-off-2" data-name="flash-off"><rect class="cls-1" width="24" height="24"/><path class="cls-2" d="M20.71,19.29l-16-16A1,1,0,0,0,3.29,4.71l16,16a1,1,0,0,0,1.42,0A1,1,0,0,0,20.71,19.29Z"/><path class="cls-2" d="M12.54,18.06l.27-2.42L10,12.8H6.87l1.24-1.86L6.67,9.5l-2.5,3.74A1,1,0,0,0,5,14.8h5.89l-.77,7.09a1,1,0,0,0,.65,1.05,1,1,0,0,0,.34.06,1,1,0,0,0,.83-.44l3.12-4.67-1.44-1.44Z"/><path class="cls-2" d="M11.46,5.94l-.27,2.42L14,11.2h3.1l-1.24,1.86,1.44,1.44,2.5-3.74A1,1,0,0,0,19,9.2H13.11l.77-7.09a1,1,0,0,0-.65-1,1,1,0,0,0-1.17.38L8.94,6.11l1.44,1.44Z"/></g></g></g></svg>