<svg xmlns="http://www.w3.org/2000/svg" viewBox="0 0 24 24"><defs><style>.cls-1{fill:#fff;opacity:0;}.cls-2{fill:#231f20;}</style></defs><title>lock</title><g id="Layer_2" data-name="Layer 2"><g id="lock"><g id="lock-2" data-name="lock"><rect class="cls-1" width="24" height="24"/><path class="cls-2" d="M17,8H16V6.11a4,4,0,1,0-8,0V8H7a3,3,0,0,0-3,3v8a3,3,0,0,0,3,3H17a3,3,0,0,0,3-3V11A3,3,0,0,0,17,8ZM10,6.11A2.06,2.06,0,0,1,12,4a2.06,2.06,0,0,1,2,2.11V8H10ZM18,19a1,1,0,0,1-1,1H7a1,1,0,0,1-1-1V11a1,1,0,0,1,1-1H17a1,1,0,0,1,1,1Z"/><path class="cls-2" d="M12,12a3,3,0,1,0,3,3A3,3,0,0,0,12,12Zm0,4a1,1,0,1,1,1-1A1,1,0,0,1,12,16Z"/></g></g></g></svg>