<svg xmlns="http://www.w3.org/2000/svg" viewBox="0 0 24 24"><defs><style>.cls-1{fill:#fff;opacity:0;}.cls-2{fill:#231f20;}</style></defs><title>maximize</title><g id="Layer_2" data-name="Layer 2"><g id="maximize"><g id="maximize-2" data-name="maximize"><rect class="cls-1" width="24" height="24"/><path class="cls-2" d="M20.71,19.29l-3.4-3.39A7.92,7.92,0,0,0,19,11a8,8,0,1,0-8,8,7.92,7.92,0,0,0,4.9-1.69l3.39,3.4a1,1,0,0,0,1.42,0A1,1,0,0,0,20.71,19.29ZM5,11a6,6,0,1,1,6,6A6,6,0,0,1,5,11Z"/><path class="cls-2" d="M13,10H12V9a1,1,0,0,0-2,0v1H9a1,1,0,0,0,0,2h1v1a1,1,0,0,0,2,0V12h1a1,1,0,0,0,0-2Z"/></g></g></g></svg>