<svg xmlns="http://www.w3.org/2000/svg" viewBox="0 0 24 24"><defs><style>.cls-1{fill:#fff;opacity:0;}.cls-2{fill:#231f20;}</style></defs><title>move</title><g id="Layer_2" data-name="Layer 2"><g id="move"><g id="move-2" data-name="move"><rect class="cls-1" width="24" height="24" transform="translate(24 24) rotate(180)"/><path class="cls-2" d="M21.71,11.31l-3-3a1,1,0,0,0-1.42,1.42L18.58,11H13V5.41l1.29,1.3A1,1,0,0,0,15,7a1,1,0,0,0,.71-.29,1,1,0,0,0,0-1.42l-3-3A1,1,0,0,0,12,2a1,1,0,0,0-.7.29l-3,3A1,1,0,0,0,9.71,6.71L11,5.42V11H5.41l1.3-1.29A1,1,0,0,0,5.29,8.29l-3,3A1,1,0,0,0,2,12a1,1,0,0,0,.29.71l3,3A1,1,0,0,0,6,16a1,1,0,0,0,.71-.29,1,1,0,0,0,0-1.42L5.42,13H11v5.59l-1.29-1.3a1,1,0,0,0-1.42,1.42l3,3A1,1,0,0,0,12,22h0a1,1,0,0,0,.7-.29l3-3a1,1,0,0,0-1.42-1.42L13,18.58V13h5.59l-1.3,1.29a1,1,0,0,0,0,1.42A1,1,0,0,0,18,16a1,1,0,0,0,.71-.29l3-3A1,1,0,0,0,22,12,1,1,0,0,0,21.71,11.31Z"/></g></g></g></svg>