<svg xmlns="http://www.w3.org/2000/svg" viewBox="0 0 24 24"><g data-name="Layer 2"><g data-name="options"><rect width="24" height="24" opacity="0"/><path d="M7 14.18V3a1 1 0 0 0-2 0v11.18a3 3 0 0 0 0 5.64V21a1 1 0 0 0 2 0v-1.18a3 3 0 0 0 0-5.64zM6 18a1 1 0 1 1 1-1 1 1 0 0 1-1 1z"/><path d="M21 13a3 3 0 0 0-2-2.82V3a1 1 0 0 0-2 0v7.18a3 3 0 0 0 0 5.64V21a1 1 0 0 0 2 0v-5.18A3 3 0 0 0 21 13zm-3 1a1 1 0 1 1 1-1 1 1 0 0 1-1 1z"/><path d="M15 5a3 3 0 1 0-4 2.82V21a1 1 0 0 0 2 0V7.82A3 3 0 0 0 15 5zm-3 1a1 1 0 1 1 1-1 1 1 0 0 1-1 1z"/></g></g></svg>