<svg xmlns="http://www.w3.org/2000/svg" viewBox="0 0 24 24"><defs><style>.cls-1{fill:#fff;opacity:0;}.cls-2{fill:#231f20;}</style></defs><title>percent</title><g id="Layer_2" data-name="Layer 2"><g id="percent"><g id="percent-2" data-name="percent"><rect class="cls-1" width="24" height="24"/><path class="cls-2" d="M8,11A3.5,3.5,0,1,0,4.5,7.5,3.5,3.5,0,0,0,8,11ZM8,6A1.5,1.5,0,1,1,6.5,7.5,1.5,1.5,0,0,1,8,6Z"/><path class="cls-2" d="M16,14a3.5,3.5,0,1,0,3.5,3.5A3.5,3.5,0,0,0,16,14Zm0,5a1.5,1.5,0,1,1,1.5-1.5A1.5,1.5,0,0,1,16,19Z"/><path class="cls-2" d="M19.74,4.26a.89.89,0,0,0-1.26,0L4.26,18.48a.91.91,0,0,0-.26.63.89.89,0,0,0,1.52.63L19.74,5.52A.89.89,0,0,0,19.74,4.26Z"/></g></g></g></svg>