<svg xmlns="http://www.w3.org/2000/svg" viewBox="0 0 24 24"><defs><style>.cls-1{fill:#fff;opacity:0;}.cls-2{fill:#231f20;}</style></defs><title>phone-missed</title><g id="Layer_2" data-name="Layer 2"><g id="phone-missed"><g id="phone-missed-2" data-name="phone-missed"><rect class="cls-1" width="24" height="24"/><path class="cls-2" d="M21.94,16.64a4.34,4.34,0,0,0-.19-.73,1,1,0,0,0-.72-.65l-6-1.37a1,1,0,0,0-.92.26c-.14.13-.15.14-.8,1.38a10,10,0,0,1-4.88-4.89C9.71,10,9.72,10,9.85,9.85a1,1,0,0,0,.26-.92L8.74,3a1,1,0,0,0-.65-.72,3.79,3.79,0,0,0-.72-.18A3.94,3.94,0,0,0,6.6,2,4.6,4.6,0,0,0,2,6.6,15.42,15.42,0,0,0,17.4,22,4.6,4.6,0,0,0,22,17.4,4.77,4.77,0,0,0,21.94,16.64ZM17.4,20A13.41,13.41,0,0,1,4,6.6,2.61,2.61,0,0,1,6.6,4l.33,0L8,8.64l-.55.29c-.87.45-1.5.78-1.17,1.58a11.85,11.85,0,0,0,7.18,7.21c.84.34,1.17-.29,1.62-1.16l.29-.55L20,17.07c0,.11,0,.22,0,.33A2.61,2.61,0,0,1,17.4,20Z"/><path class="cls-2" d="M15.8,8.7a1.05,1.05,0,0,0,1.47,0L18,8l.73.73A1,1,0,0,0,20.2,7.23l-.73-.73.73-.73A1,1,0,0,0,18.73,4.3L18,5l-.73-.73A1,1,0,0,0,15.8,5.77l.73.73-.73.73A1.05,1.05,0,0,0,15.8,8.7Z"/></g></g></g></svg>