<svg xmlns="http://www.w3.org/2000/svg" viewBox="0 0 24 24"><defs><style>.cls-1{fill:#fff;opacity:0;}.cls-2{fill:#231f20;}</style></defs><title>phone-off</title><g id="Layer_2" data-name="Layer 2"><g id="phone-off"><g id="phone-off-2" data-name="phone-off"><rect class="cls-1" width="24" height="24"/><path class="cls-2" d="M19.74,4.26a.89.89,0,0,0-1.26,0L4.26,18.48a.91.91,0,0,0-.26.63.89.89,0,0,0,1.52.63L19.74,5.52A.89.89,0,0,0,19.74,4.26Z"/><path class="cls-2" d="M6.7,14.63A13.29,13.29,0,0,1,4,6.6,2.61,2.61,0,0,1,6.6,4l.33,0L8,8.64l-.55.29c-.87.45-1.5.78-1.17,1.58a11.57,11.57,0,0,0,1.57,3l1.43-1.42a10.37,10.37,0,0,1-.8-1.42C9.71,10,9.72,10,9.85,9.85a1,1,0,0,0,.26-.92L8.74,3a1,1,0,0,0-.65-.72,3.79,3.79,0,0,0-.72-.18A3.94,3.94,0,0,0,6.6,2,4.6,4.6,0,0,0,2,6.6a15.33,15.33,0,0,0,3.27,9.46Z"/><path class="cls-2" d="M21.94,16.64a4.34,4.34,0,0,0-.19-.73,1,1,0,0,0-.72-.65l-6-1.37a1,1,0,0,0-.92.26c-.14.13-.15.14-.8,1.38a10.88,10.88,0,0,1-1.41-.8l-1.43,1.43a11.52,11.52,0,0,0,2.94,1.56c.84.34,1.17-.29,1.62-1.16l.29-.55L20,17.07c0,.11,0,.22,0,.33A2.61,2.61,0,0,1,17.4,20a13.29,13.29,0,0,1-8-2.7L7.94,18.73A15.33,15.33,0,0,0,17.4,22,4.6,4.6,0,0,0,22,17.4,4.77,4.77,0,0,0,21.94,16.64Z"/></g></g></g></svg>