<svg xmlns="http://www.w3.org/2000/svg" viewBox="0 0 24 24"><defs><style>.cls-1{fill:#fff;opacity:0;}.cls-2{fill:#231f20;}</style></defs><title>play-circle</title><g id="Layer_2" data-name="Layer 2"><g id="play-circle"><g id="play-circle-2" data-name="play-circle"><rect class="cls-1" width="24" height="24"/><path class="cls-2" d="M12,2A10,10,0,1,0,22,12,10,10,0,0,0,12,2Zm0,18a8,8,0,1,1,8-8A8,8,0,0,1,12,20Z"/><path class="cls-2" d="M12.34,7.45a1.7,1.7,0,0,0-1.85-.3,1.6,1.6,0,0,0-1,1.48v6.74a1.6,1.6,0,0,0,1,1.48,1.68,1.68,0,0,0,.69.15,1.74,1.74,0,0,0,1.16-.45L16,13.18a1.6,1.6,0,0,0,0-2.36ZM11.5,14.6V9.4L14.31,12Z"/></g></g></g></svg>