<svg xmlns="http://www.w3.org/2000/svg" viewBox="0 0 24 24"><defs><style>.cls-1{fill:#fff;opacity:0;}.cls-2{fill:#231f20;}</style></defs><title>rewind-right</title><g id="Layer_2" data-name="Layer 2"><g id="rewind-right"><g id="rewind-right-2" data-name="rewind-right"><rect class="cls-1" width="24" height="24"/><path class="cls-2" d="M20.86,10.67l-5.1-4.21a2.1,2.1,0,0,0-2.21-.26A1.76,1.76,0,0,0,12.5,7.79v2.59L7.76,6.46A2.1,2.1,0,0,0,5.55,6.2a1.76,1.76,0,0,0-1,1.59v8.42a1.76,1.76,0,0,0,1,1.59,2.23,2.23,0,0,0,.91.2,2.06,2.06,0,0,0,1.3-.46l4.74-3.92v2.59a1.76,1.76,0,0,0,1.05,1.59,2.23,2.23,0,0,0,.91.2,2.06,2.06,0,0,0,1.3-.46l5.1-4.21a1.7,1.7,0,0,0,0-2.66ZM6.5,15.91V8l4.82,4Zm8,0V8l4.82,4Z"/></g></g></g></svg>