<svg xmlns="http://www.w3.org/2000/svg" viewBox="0 0 24 24"><defs><style>.cls-1{fill:#fff;opacity:0;}.cls-2{fill:#231f20;}</style></defs><title>share</title><g id="Layer_2" data-name="Layer 2"><g id="share"><g id="share-2" data-name="share"><rect class="cls-1" width="24" height="24"/><path class="cls-2" d="M18,15a3,3,0,0,0-2.1.86L8,12.34c0-.12,0-.22,0-.34s0-.22,0-.33L15.9,8.14A3,3,0,1,0,15,6c0,.12,0,.22,0,.34L7.1,9.86a3,3,0,1,0,0,4.28L15,17.67c0,.11,0,.22,0,.33a3,3,0,1,0,3-3ZM18,5a1,1,0,1,1-1,1A1,1,0,0,1,18,5ZM5,13a1,1,0,1,1,1-1A1,1,0,0,1,5,13Zm13,6a1,1,0,1,1,1-1A1,1,0,0,1,18,19Z"/></g></g></g></svg>