<svg xmlns="http://www.w3.org/2000/svg" viewBox="0 0 24 24"><defs><style>.cls-1{fill:#fff;opacity:0;}.cls-2{fill:#231f20;}</style></defs><title>shield</title><g id="Layer_2" data-name="Layer 2"><g id="shield"><g id="shield-2" data-name="shield"><rect class="cls-1" width="24" height="24"/><path class="cls-2" d="M12,21.85a2,2,0,0,1-1-.25l-.3-.17A15.17,15.17,0,0,1,3,8.23V8.09A2,2,0,0,1,4,6.34L11,2.4a2,2,0,0,1,2,0l7,3.94a2,2,0,0,1,1,1.75v.14a15.17,15.17,0,0,1-7.72,13.2l-.3.17A2,2,0,0,1,12,21.85Zm0-17.7L5,8.09v.14a13.15,13.15,0,0,0,6.7,11.45l.3.17.3-.17A13.15,13.15,0,0,0,19,8.23V8.09Z"/></g></g></g></svg>