<svg xmlns="http://www.w3.org/2000/svg" viewBox="0 0 24 24"><defs><style>.cls-1{fill:#fff;opacity:0;}.cls-2{fill:#231f20;}</style></defs><title>shuffle-2</title><g id="Layer_2" data-name="Layer 2"><g id="shuffle-2"><g id="shuffle-2-2" data-name="shuffle-2"><rect class="cls-1" width="24" height="24" transform="translate(24 24) rotate(180)"/><path class="cls-2" d="M18.71,14.29a1,1,0,0,0-1.42,1.42l.29.29H16a4,4,0,0,1,0-8h1.59l-.3.29a1,1,0,0,0,0,1.42A1,1,0,0,0,18,10a1,1,0,0,0,.71-.29l2-2A1,1,0,0,0,21,7a1,1,0,0,0-.29-.71l-2-2a1,1,0,0,0-1.42,1.42l.29.29H16a6,6,0,0,0-5,2.69A6,6,0,0,0,6,6H4A1,1,0,0,0,4,8H6a4,4,0,0,1,0,8H4a1,1,0,0,0,0,2H6a6,6,0,0,0,5-2.69A6,6,0,0,0,16,18h1.59l-.3.29a1,1,0,0,0,0,1.42A1,1,0,0,0,18,20a1,1,0,0,0,.71-.29l2-2A1,1,0,0,0,21,17a1,1,0,0,0-.29-.71Z"/></g></g></g></svg>