<svg xmlns="http://www.w3.org/2000/svg" viewBox="0 0 24 24"><defs><style>.cls-1{fill:#fff;opacity:0;}.cls-2{fill:#231f20;}</style></defs><title>toggle-left</title><g id="Layer_2" data-name="Layer 2"><g id="toggle-left"><g id="toggle-left-2" data-name="toggle-left"><rect class="cls-1" width="24" height="24" transform="translate(24 24) rotate(180)"/><path class="cls-2" d="M15,5H9A7,7,0,0,0,9,19h6A7,7,0,0,0,15,5Zm0,12H9A5,5,0,0,1,9,7h6a5,5,0,0,1,0,10Z"/><path class="cls-2" d="M9,9a3,3,0,1,0,3,3A3,3,0,0,0,9,9Zm0,4a1,1,0,1,1,1-1A1,1,0,0,1,9,13Z"/></g></g></g></svg>