<svg xmlns="http://www.w3.org/2000/svg" viewBox="0 0 24 24"><defs><style>.cls-1{fill:#fff;opacity:0;}.cls-2{fill:#231f20;}</style></defs><title>trending-down</title><g id="Layer_2" data-name="Layer 2"><g id="trending-down"><g id="trending-down-2" data-name="trending-down"><rect class="cls-1" width="24" height="24" transform="translate(0 24) rotate(-90)"/><path class="cls-2" d="M21,12a1,1,0,0,0-2,0v2.3l-4.24-5a1,1,0,0,0-1.27-.21L9.22,11.7,4.77,6.36A1,1,0,1,0,3.23,7.64l5,6a1,1,0,0,0,1.28.22l4.28-2.57,4,4.71H15a1,1,0,0,0,0,2h5a1.1,1.1,0,0,0,.36-.07l.14-.08a1.19,1.19,0,0,0,.15-.09l0,0a.75.75,0,0,0,.14-.17,1.1,1.1,0,0,0,.09-.14.64.64,0,0,0,.05-.17A.78.78,0,0,0,21,17s0,0,0,0Z"/></g></g></g></svg>