<svg xmlns="http://www.w3.org/2000/svg" viewBox="0 0 24 24"><g data-name="Layer 2"><g data-name="undo"><rect width="24" height="24" transform="rotate(-90 12 12)" opacity="0"/><path d="M20.22 21a1 1 0 0 1-1-.76 8.91 8.91 0 0 0-7.8-6.69v1.12a1.78 1.78 0 0 1-1.09 1.64A2 2 0 0 1 8.18 16l-5.06-4.41a1.76 1.76 0 0 1 0-2.68l5.06-4.42a2 2 0 0 1 2.18-.3 1.78 1.78 0 0 1 1.09 1.64V7A10.89 10.89 0 0 1 21.5 17.75a10.29 10.29 0 0 1-.31 2.49 1 1 0 0 1-1 .76zm-9.77-9.5a11.07 11.07 0 0 1 8.81 4.26A9 9 0 0 0 10.45 9a1 1 0 0 1-1-1V6.08l-4.82 4.17 4.82 4.21v-2a1 1 0 0 1 1-.96z"/></g></g></svg>