<svg xmlns="http://www.w3.org/2000/svg" viewBox="0 0 24 24"><g data-name="Layer 2"><g data-name="video-off"><rect width="24" height="24" opacity="0"/><path d="M17 15.59l-2-2L8.41 7l-2-2-1.7-1.71a1 1 0 0 0-1.42 1.42l.54.53L5.59 7l9.34 9.34 1.46 1.46 2.9 2.91a1 1 0 0 0 1.42 0 1 1 0 0 0 0-1.42z"/><path d="M14 17H5a1 1 0 0 1-1-1V8a1 1 0 0 1 .4-.78L3 5.8A3 3 0 0 0 2 8v8a3 3 0 0 0 3 3h9a2.94 2.94 0 0 0 1.66-.51L14.14 17a.7.7 0 0 1-.14 0z"/><path d="M21 7.15a1.7 1.7 0 0 0-1.85.3l-2.15 2V8a3 3 0 0 0-3-3H7.83l2 2H14a1 1 0 0 1 1 1v4.17l4.72 4.72a1.73 1.73 0 0 0 .6.11 1.68 1.68 0 0 0 .69-.15 1.6 1.6 0 0 0 1-1.48V8.63A1.6 1.6 0 0 0 21 7.15zm-1 7.45L17.19 12 20 9.4z"/></g></g></svg>