<svg xmlns="http://www.w3.org/2000/svg" viewBox="0 0 24 24"><defs><style>.cls-1{fill:#fff;opacity:0;}.cls-2{fill:#231f20;}</style></defs><title>video</title><g id="Layer_2" data-name="Layer 2"><g id="video"><g id="video-2" data-name="video"><rect class="cls-1" width="24" height="24"/><path class="cls-2" d="M21,7.15a1.7,1.7,0,0,0-1.85.3L17,9.45V8a3,3,0,0,0-3-3H5A3,3,0,0,0,2,8v8a3,3,0,0,0,3,3h9a3,3,0,0,0,3-3V14.55l2.16,2a1.74,1.74,0,0,0,1.16.45,1.68,1.68,0,0,0,.69-.15,1.6,1.6,0,0,0,1-1.48V8.63A1.6,1.6,0,0,0,21,7.15ZM15,16a1,1,0,0,1-1,1H5a1,1,0,0,1-1-1V8A1,1,0,0,1,5,7h9a1,1,0,0,1,1,1Zm5-1.4L17.19,12,20,9.4Z"/></g></g></g></svg>