<svg xmlns="http://www.w3.org/2000/svg" viewBox="0 0 24 24"><defs><style>.cls-2{fill:#231f20}</style></defs><g id="Layer_2" data-name="Layer 2"><g id="arrow-circle-left"><g id="arrow-circle-left-2" data-name="arrow-circle-left"><path class="cls-2" d="M16 11h-5.66l1.25-1.31a1 1 0 0 0-1.45-1.38l-2.86 3a1 1 0 0 0-.09.13.72.72 0 0 0-.11.19.88.88 0 0 0-.06.28L7 12a1 1 0 0 0 .08.38 1 1 0 0 0 .21.32l3 3a1 1 0 0 0 1.42 0 1 1 0 0 0 0-1.42L10.41 13H16a1 1 0 0 0 0-2z"/><path class="cls-2" d="M12 2a10 10 0 1 0 10 10A10 10 0 0 0 12 2zm0 18a8 8 0 1 1 8-8 8 8 0 0 1-8 8z"/></g></g></g></svg>