<svg xmlns="http://www.w3.org/2000/svg" viewBox="0 0 24 24"><defs><style>.cls-2{fill:#231f20}</style></defs><g id="Layer_2" data-name="Layer 2"><g id="arrow-circle-up"><g id="arrow-circle-up-2" data-name="arrow-circle-up"><path class="cls-2" d="M12.71 7.29a1 1 0 0 0-.32-.21A1 1 0 0 0 12 7h-.1a.82.82 0 0 0-.27.06.72.72 0 0 0-.19.11 1 1 0 0 0-.13.09l-3 2.86a1 1 0 0 0 1.38 1.45L11 10.34V16a1 1 0 0 0 2 0v-5.59l1.29 1.3a1 1 0 0 0 1.42 0 1 1 0 0 0 0-1.42z"/><path class="cls-2" d="M12 2a10 10 0 1 0 10 10A10 10 0 0 0 12 2zm0 18a8 8 0 1 1 8-8 8 8 0 0 1-8 8z"/></g></g></g></svg>