<svg xmlns="http://www.w3.org/2000/svg" viewBox="0 0 24 24"><defs><style>.cls-2{fill:#231f20}</style></defs><g id="Layer_2" data-name="Layer 2"><g id="arrowhead-up"><g id="arrowhead-up-2" data-name="arrowhead-up"><path class="cls-2" d="M6.63 11.61L12 7.29l5.37 4.48A1 1 0 0 0 18 12a1 1 0 0 0 .77-.36 1 1 0 0 0-.13-1.41l-6-5a1 1 0 0 0-1.27 0l-6 4.83a1 1 0 0 0-.15 1.41 1 1 0 0 0 1.41.14z"/><path class="cls-2" d="M12.64 12.23a1 1 0 0 0-1.27 0l-6 4.83a1 1 0 0 0-.15 1.41 1 1 0 0 0 1.41.15L12 14.29l5.37 4.48A1 1 0 0 0 18 19a1 1 0 0 0 .77-.36 1 1 0 0 0-.13-1.41z"/></g></g></g></svg>