<svg xmlns="http://www.w3.org/2000/svg" viewBox="0 0 24 24"><defs><style>.cls-2{fill:#231f20}</style></defs><g id="Layer_2" data-name="Layer 2"><g id="battery"><g id="battery-2" data-name="battery"><path class="cls-2" d="M15.83 6H4.17A2.31 2.31 0 0 0 2 8.43v7.14A2.31 2.31 0 0 0 4.17 18h11.66A2.31 2.31 0 0 0 18 15.57V8.43A2.31 2.31 0 0 0 15.83 6zm.17 9.57a.52.52 0 0 1-.17.43H4.18a.5.5 0 0 1-.18-.43V8.43A.53.53 0 0 1 4.17 8h11.65a.5.5 0 0 1 .18.43z"/><path class="cls-2" d="M21 9a1 1 0 0 0-1 1v4a1 1 0 0 0 2 0v-4a1 1 0 0 0-1-1z"/></g></g></g></svg>