<svg xmlns="http://www.w3.org/2000/svg" viewBox="0 0 24 24"><defs><style>.cls-2{fill:#231f20}</style></defs><g id="Layer_2" data-name="Layer 2"><g id="calendar"><g id="calendar-2" data-name="calendar"><path class="cls-2" d="M18 4h-1V3a1 1 0 0 0-2 0v1H9V3a1 1 0 0 0-2 0v1H6a3 3 0 0 0-3 3v12a3 3 0 0 0 3 3h12a3 3 0 0 0 3-3V7a3 3 0 0 0-3-3zM6 6h1v1a1 1 0 0 0 2 0V6h6v1a1 1 0 0 0 2 0V6h1a1 1 0 0 1 1 1v4H5V7a1 1 0 0 1 1-1zm12 14H6a1 1 0 0 1-1-1v-6h14v6a1 1 0 0 1-1 1z"/><circle class="cls-2" cx="8" cy="16" r="1"/><path class="cls-2" d="M16 15h-4a1 1 0 0 0 0 2h4a1 1 0 0 0 0-2z"/></g></g></g></svg>