<svg xmlns="http://www.w3.org/2000/svg" viewBox="0 0 24 24"><defs><style>.cls-2{fill:#231f20}</style></defs><g id="Layer_2" data-name="Layer 2"><g id="checkmark-square-2"><g id="checkmark-square-2-2" data-name="checkmark-square-2"><path class="cls-2" d="M18 3H6a3 3 0 0 0-3 3v12a3 3 0 0 0 3 3h12a3 3 0 0 0 3-3V6a3 3 0 0 0-3-3zm1 15a1 1 0 0 1-1 1H6a1 1 0 0 1-1-1V6a1 1 0 0 1 1-1h12a1 1 0 0 1 1 1z"/><path class="cls-2" d="M14.7 8.39l-3.78 5-1.63-2.11a1 1 0 0 0-1.58 1.23l2.43 3.11a1 1 0 0 0 .79.38 1 1 0 0 0 .79-.39l4.57-6a1 1 0 1 0-1.6-1.22z"/></g></g></g></svg>