<svg xmlns="http://www.w3.org/2000/svg" viewBox="0 0 24 24"><defs><style>.cls-2{fill:#231f20}</style></defs><g id="Layer_2" data-name="Layer 2"><g id="collapse"><g id="collapse-2" data-name="collapse"><path class="cls-2" d="M19 9h-2.58l3.29-3.29a1 1 0 1 0-1.42-1.42L15 7.57V5a1 1 0 0 0-1-1 1 1 0 0 0-1 1v5a1 1 0 0 0 1 1h5a1 1 0 0 0 0-2z"/><path class="cls-2" d="M10 13H5a1 1 0 0 0 0 2h2.57l-3.28 3.29a1 1 0 0 0 0 1.42 1 1 0 0 0 1.42 0L9 16.42V19a1 1 0 0 0 1 1 1 1 0 0 0 1-1v-5a1 1 0 0 0-1-1z"/></g></g></g></svg>