<svg xmlns="http://www.w3.org/2000/svg" viewBox="0 0 24 24"><defs><style>.cls-2{fill:#231f20}</style></defs><g id="Layer_2" data-name="Layer 2"><g id="credit-card"><g id="credit-card-2" data-name="credit-card"><path class="cls-2" d="M19 5H5a3 3 0 0 0-3 3v8a3 3 0 0 0 3 3h14a3 3 0 0 0 3-3V8a3 3 0 0 0-3-3zM4 8a1 1 0 0 1 1-1h14a1 1 0 0 1 1 1v1H4zm16 8a1 1 0 0 1-1 1H5a1 1 0 0 1-1-1v-5h16z"/><path class="cls-2" d="M7 15h4a1 1 0 0 0 0-2H7a1 1 0 0 0 0 2z"/><path class="cls-2" d="M15 15h2a1 1 0 0 0 0-2h-2a1 1 0 0 0 0 2z"/></g></g></g></svg>