<svg xmlns="http://www.w3.org/2000/svg" viewBox="0 0 24 24"><defs><style>.cls-2{fill:#231f20}</style></defs><g id="Layer_2" data-name="Layer 2"><g id="done-all"><g id="done-all-2" data-name="done-all"><path class="cls-2" d="M16.62 6.21a1 1 0 0 0-1.41.17l-7 9-3.43-4.18a1 1 0 1 0-1.56 1.25l4.17 5.18a1 1 0 0 0 .78.37 1 1 0 0 0 .83-.38l7.83-10a1 1 0 0 0-.21-1.41z"/><path class="cls-2" d="M21.62 6.21a1 1 0 0 0-1.41.17l-7 9-.61-.75-1.26 1.62 1.1 1.37a1 1 0 0 0 .78.37 1 1 0 0 0 .78-.38l7.83-10a1 1 0 0 0-.21-1.4z"/><path class="cls-2" d="M8.71 13.06L10 11.44l-.2-.24a1 1 0 0 0-1.43-.2 1 1 0 0 0-.15 1.41z"/></g></g></g></svg>