<svg xmlns="http://www.w3.org/2000/svg" viewBox="0 0 24 24"><defs><style>.cls-2{fill:#231f20}</style></defs><g id="Layer_2" data-name="Layer 2"><g id="external-link"><g id="external-link-2" data-name="external-link"><path class="cls-2" d="M20 11a1 1 0 0 0-1 1v6a1 1 0 0 1-1 1H6a1 1 0 0 1-1-1V6a1 1 0 0 1 1-1h6a1 1 0 0 0 0-2H6a3 3 0 0 0-3 3v12a3 3 0 0 0 3 3h12a3 3 0 0 0 3-3v-6a1 1 0 0 0-1-1z"/><path class="cls-2" d="M16 5h1.58l-6.29 6.28a1 1 0 0 0 0 1.42 1 1 0 0 0 1.42 0L19 6.42V8a1 1 0 0 0 1 1 1 1 0 0 0 1-1V4a1 1 0 0 0-1-1h-4a1 1 0 0 0 0 2z"/></g></g></g></svg>