<svg xmlns="http://www.w3.org/2000/svg" viewBox="0 0 24 24"><defs><style>.cls-2{fill:#231f20}</style></defs><g id="Layer_2" data-name="Layer 2"><g id="linkedin"><g id="linkedin-2" data-name="linkedin"><path class="cls-2" d="M20 22h-1.67a2 2 0 0 1-2-2v-5.37a.92.92 0 0 0-.69-.93.84.84 0 0 0-.67.19.85.85 0 0 0-.3.65V20a2 2 0 0 1-2 2H11a2 2 0 0 1-2-2v-5.46a6.5 6.5 0 1 1 13 0V20a2 2 0 0 1-2 2zm-4.5-10.31a3.73 3.73 0 0 1 .47 0 2.91 2.91 0 0 1 2.36 2.9V20H20v-5.46a4.5 4.5 0 1 0-9 0V20h1.67v-5.46a2.85 2.85 0 0 1 2.83-2.85z"/><path class="cls-2" d="M6 22H4a2 2 0 0 1-2-2V10a2 2 0 0 1 2-2h2a2 2 0 0 1 2 2v10a2 2 0 0 1-2 2zM4 10v10h2V10z"/><path class="cls-2" d="M5 7a3 3 0 1 1 3-3 3 3 0 0 1-3 3zm0-4a1 1 0 1 0 1 1 1 1 0 0 0-1-1z"/></g></g></g></svg>