<svg xmlns="http://www.w3.org/2000/svg" viewBox="0 0 24 24"><defs><style>.cls-2{fill:#231f20}</style></defs><g id="Layer_2" data-name="Layer 2"><g id="lock"><g id="lock-2" data-name="lock"><path class="cls-2" d="M17 8h-1V6.11a4 4 0 1 0-8 0V8H7a3 3 0 0 0-3 3v8a3 3 0 0 0 3 3h10a3 3 0 0 0 3-3v-8a3 3 0 0 0-3-3zm-7-1.89A2.06 2.06 0 0 1 12 4a2.06 2.06 0 0 1 2 2.11V8h-4zM18 19a1 1 0 0 1-1 1H7a1 1 0 0 1-1-1v-8a1 1 0 0 1 1-1h10a1 1 0 0 1 1 1z"/><path class="cls-2" d="M12 12a3 3 0 1 0 3 3 3 3 0 0 0-3-3zm0 4a1 1 0 1 1 1-1 1 1 0 0 1-1 1z"/></g></g></g></svg>