<svg xmlns="http://www.w3.org/2000/svg" viewBox="0 0 24 24"><defs><style>.cls-2{fill:#231f20}</style></defs><g id="Layer_2" data-name="Layer 2"><g id="log-out"><g id="log-out-2" data-name="log-out"><path class="cls-2" d="M7 6a1 1 0 0 0 0-2H5a1 1 0 0 0-1 1v14a1 1 0 0 0 1 1h2a1 1 0 0 0 0-2H6V6z"/><path class="cls-2" d="M20.82 11.42l-2.82-4a1 1 0 0 0-1.39-.24 1 1 0 0 0-.24 1.4L18.09 11H10a1 1 0 0 0 0 2h8l-1.8 2.4a1 1 0 0 0 .2 1.4 1 1 0 0 0 .6.2 1 1 0 0 0 .8-.4l3-4a1 1 0 0 0 .02-1.18z"/></g></g></g></svg>