<svg xmlns="http://www.w3.org/2000/svg" viewBox="0 0 24 24"><defs><style>.cls-2{fill:#231f20}</style></defs><g id="Layer_2" data-name="Layer 2"><g id="menu-arrow"><g id="menu-arrow-2" data-name="menu-arrow"><path class="cls-2" d="M20.05 11H5.91l1.3-1.29a1 1 0 0 0-1.42-1.42l-3 3a1 1 0 0 0 0 1.42l3 3a1 1 0 0 0 1.42 0 1 1 0 0 0 0-1.42L5.91 13h14.14a1 1 0 0 0 .95-.95V12a1 1 0 0 0-.95-1z"/><rect class="cls-2" x="3" y="17" width="18" height="2" rx=".95" ry=".95"/><rect class="cls-2" x="3" y="5" width="18" height="2" rx=".95" ry=".95"/></g></g></g></svg>