<svg xmlns="http://www.w3.org/2000/svg" viewBox="0 0 24 24"><defs><style>.cls-2{fill:#231f20}</style></defs><g id="Layer_2" data-name="Layer 2"><g id="options-2"><g id="options-2-2" data-name="options-2"><path class="cls-2" d="M19 9a3 3 0 0 0-2.82 2H3a1 1 0 0 0 0 2h13.18A3 3 0 1 0 19 9zm0 4a1 1 0 1 1 1-1 1 1 0 0 1-1 1z"/><path class="cls-2" d="M3 7h1.18a3 3 0 0 0 5.64 0H21a1 1 0 0 0 0-2H9.82a3 3 0 0 0-5.64 0H3a1 1 0 0 0 0 2zm4-2a1 1 0 1 1-1 1 1 1 0 0 1 1-1z"/><path class="cls-2" d="M21 17h-7.18a3 3 0 0 0-5.64 0H3a1 1 0 0 0 0 2h5.18a3 3 0 0 0 5.64 0H21a1 1 0 0 0 0-2zm-10 2a1 1 0 1 1 1-1 1 1 0 0 1-1 1z"/></g></g></g></svg>