<svg xmlns="http://www.w3.org/2000/svg" viewBox="0 0 24 24"><defs><style>.cls-2{fill:#231f20}</style></defs><g id="Layer_2" data-name="Layer 2"><g id="pricetags"><g id="pricetags-2" data-name="pricetags"><path class="cls-2" d="M12.87 22a1.84 1.84 0 0 1-1.29-.53l-6.41-6.42a1 1 0 0 1-.29-.61L4 5.09a1 1 0 0 1 .29-.8 1 1 0 0 1 .8-.29l9.35.88a1 1 0 0 1 .61.29l6.42 6.41a1.82 1.82 0 0 1 0 2.57l-7.32 7.32a1.82 1.82 0 0 1-1.28.53zm-6-8.11l6 6 7.05-7.05-6-6-7.81-.73z"/><circle class="cls-2" cx="10.5" cy="10.5" r="1.5"/></g></g></g></svg>