<svg xmlns="http://www.w3.org/2000/svg" viewBox="0 0 24 24"><defs><style>.cls-2{fill:#231f20}</style></defs><g id="Layer_2" data-name="Layer 2"><g id="menu-arrow-circle"><g id="menu-arrow-circle-2" data-name="menu-arrow-circle"><path class="cls-2" d="M12 2a10 10 0 1 0 10 10A10 10 0 0 0 12 2zm0 18a8 8 0 1 1 8-8 8 8 0 0 1-8 8z"/><path class="cls-2" d="M12 6a3.5 3.5 0 0 0-3.5 3.5 1 1 0 0 0 2 0A1.5 1.5 0 1 1 12 11a1 1 0 0 0-1 1v2a1 1 0 0 0 2 0v-1.16A3.49 3.49 0 0 0 12 6z"/><circle class="cls-2" cx="12" cy="17" r="1"/></g></g></g></svg>