<svg xmlns="http://www.w3.org/2000/svg" viewBox="0 0 24 24"><defs><style>.cls-2{fill:#231f20}</style></defs><g id="Layer_2" data-name="Layer 2"><g id="smartphone"><g id="smartphone-2" data-name="smartphone"><path class="cls-2" d="M17 2H7a3 3 0 0 0-3 3v14a3 3 0 0 0 3 3h10a3 3 0 0 0 3-3V5a3 3 0 0 0-3-3zm1 17a1 1 0 0 1-1 1H7a1 1 0 0 1-1-1V5a1 1 0 0 1 1-1h10a1 1 0 0 1 1 1z"/><circle class="cls-2" cx="12" cy="16.5" r="1.5"/><path class="cls-2" d="M14.5 6h-5a1 1 0 0 0 0 2h5a1 1 0 0 0 0-2z"/></g></g></g></svg>